<svg width="24" height="24" viewBox="0 0 24 24" fill="none" xmlns="http://www.w3.org/2000/svg">
<path d="M4.70711 4.29289C4.31658 3.90237 3.68342 3.90237 3.29289 4.29289C2.90237 4.68342 2.90237 5.31658 3.29289 5.70711L9.17157 11.5858C9.32443 11.7386 9.21617 12 9 12C8.44772 12 8 12.4477 8 13V17C8 17.5523 8.44772 18 9 18H10C10.5523 18 11 17.5523 11 17V14.6213C11 14.1759 11.5386 13.9528 11.8536 14.2678L12.8536 15.2678C12.9473 15.3615 13 15.4887 13 15.6213V17C13 17.5523 13.4477 18 14 18H15C15.0399 18 15.0792 17.9977 15.1179 17.9931C15.3363 17.9675 15.5754 17.9896 15.7309 18.1451L19.2929 21.7071C19.6834 22.0976 20.3166 22.0976 20.7071 21.7071C21.0976 21.3166 21.0976 20.6834 20.7071 20.2929L4.70711 4.29289Z" fill="#171717"/>
<path d="M18 14.5786C18 14.7112 18.0527 14.8384 18.1464 14.9322L20.3946 17.1803C20.6111 17.3968 20.9832 17.3572 20.9987 17.0514C20.9996 17.0344 21 17.0172 21 17V7C21 6.44772 20.5523 6 20 6H19C18.4477 6 18 6.44772 18 7V14.5786Z" fill="#171717"/>
<path d="M13.1052 9.55296C13.0306 9.70213 13.0898 9.87558 13.2078 9.99354L15.1464 11.9322C15.4614 12.2472 16 12.0241 16 11.5786V10C16 9.44772 15.5523 9 15 9H14C13.6084 9 13.2694 9.2251 13.1052 9.55296Z" fill="#171717"/>
<path d="M3 16C3 15.4477 3.44772 15 4 15H5C5.55228 15 6 15.4477 6 16V17C6 17.5523 5.55228 18 5 18H4C3.44772 18 3 17.5523 3 17V16Z" fill="#171717"/>
</svg>
