<svg width="24" height="24" viewBox="0 0 24 24" fill="none" xmlns="http://www.w3.org/2000/svg">
<path d="M3 16C3 15.4477 3.44772 15 4 15H5C5.55228 15 6 15.4477 6 16V17C6 17.5523 5.55228 18 5 18H4C3.44772 18 3 17.5523 3 17V16Z" fill="#171717"/>
<g opacity="0.3">
<path d="M8 13C8 12.4477 8.44772 12 9 12H10C10.5523 12 11 12.4477 11 13V17C11 17.5523 10.5523 18 10 18H9C8.44772 18 8 17.5523 8 17V13Z" fill="#171717"/>
<path d="M13 10C13 9.44772 13.4477 9 14 9H15C15.5523 9 16 9.44772 16 10V17C16 17.5523 15.5523 18 15 18H14C13.4477 18 13 17.5523 13 17V10Z" fill="#171717"/>
<path d="M18 7C18 6.44772 18.4477 6 19 6H20C20.5523 6 21 6.44772 21 7V17C21 17.5523 20.5523 18 20 18H19C18.4477 18 18 17.5523 18 17V7Z" fill="#171717"/>
</g>
</svg>
