<svg width="24" height="24" viewBox="0 0 24 24" fill="none" xmlns="http://www.w3.org/2000/svg">
<path d="M7.82996 4C7.34874 4 6.93577 4.34274 6.84708 4.81571L4.22208 18.8157C4.10669 19.4311 4.57882 20 5.20496 20H10C10.5523 20 11 19.5523 11 19V5C11 4.44772 10.5523 4 10 4H7.82996Z" fill="#171717"/>
<path fill-rule="evenodd" clip-rule="evenodd" d="M13 5C13 4.44772 13.4477 4 14 4H16.1701C16.6513 4 17.0643 4.34274 17.153 4.81571L19.778 18.8157C19.8934 19.4311 19.4212 20 18.7951 20H14C13.4477 20 13 19.5523 13 19V5ZM15 6.18588C15 6.08322 15.0833 6 15.1859 6C15.2754 6 15.3521 6.06371 15.3686 6.15162L17.4791 17.4079C17.5368 17.7156 17.3008 18 16.9877 18H15.5C15.2239 18 15 17.7761 15 17.5V6.18588Z" fill="#171717"/>
</svg>
