<svg width="24" height="24" viewBox="0 0 24 24" fill="none" xmlns="http://www.w3.org/2000/svg">
<path fill-rule="evenodd" clip-rule="evenodd" d="M4.70711 3.29289C4.31658 2.90237 3.68342 2.90237 3.29289 3.29289C2.90237 3.68342 2.90237 4.31658 3.29289 4.70711L5.28341 6.69763C5.50006 6.91427 5.47217 7.27255 5.23443 7.4658C4.08034 8.40391 3.08098 9.57561 2.28883 10.9208C1.90372 11.5747 1.90372 12.4253 2.28883 13.0792C4.39231 16.6512 7.9568 19 12 19C13.4869 19 14.909 18.6824 16.2175 18.103C16.412 18.017 16.6405 18.0547 16.7909 18.2051L19.2929 20.7071C19.6834 21.0976 20.3166 21.0976 20.7071 20.7071C21.0976 20.3166 21.0976 19.6834 20.7071 19.2929L4.70711 3.29289ZM13.4528 15.728C13.7571 15.6093 13.807 15.2212 13.576 14.9902L12.7221 14.1363C12.5958 14.01 12.4122 13.9656 12.2349 13.9864C12.1579 13.9954 12.0795 14 12 14C10.8954 14 10 13.1046 10 12C10 11.9205 10.0046 11.8421 10.0136 11.7651C10.0344 11.5878 9.98999 11.4042 9.86373 11.2779L9.00979 10.424C8.7788 10.193 8.39067 10.2429 8.27199 10.5472C8.09637 10.9976 8 11.4875 8 12C8 14.2091 9.79086 16 12 16C12.5125 16 13.0024 15.9036 13.4528 15.728Z" fill="#171717"/>
<path d="M12.0849 7.87062C12.172 7.95776 12.2884 8.00835 12.411 8.02086C14.2919 8.21286 15.7871 9.70806 15.9791 11.589C15.9917 11.7116 16.0422 11.828 16.1294 11.9151L19.4436 15.2293C19.6405 15.4263 19.9612 15.4249 20.1476 15.2179C20.7307 14.5701 21.2553 13.8534 21.7112 13.0792C22.0963 12.4253 22.0963 11.5747 21.7112 10.9208C19.6077 7.34883 16.0432 5 12 5C11.4518 5 10.9124 5.04318 10.3843 5.12672C9.99992 5.18753 9.86766 5.65339 10.1428 5.92858L12.0849 7.87062Z" fill="#171717"/>
</svg>
