<svg width="24" height="24" viewBox="0 0 24 24" fill="none" xmlns="http://www.w3.org/2000/svg">
<path d="M9.19776 9.0403L3.143 9.8476C2.70927 9.90543 2.5538 10.4531 2.89246 10.7302L7.24472 14.2911C7.39958 14.4178 7.46399 14.6247 7.40846 14.8169L5.71598 20.6755C5.58626 21.1245 6.08868 21.4901 6.47607 21.2287L11.7203 17.6888C11.8893 17.5747 12.1107 17.5747 12.2797 17.6888L17.5239 21.2287C17.9113 21.4901 18.4137 21.1245 18.284 20.6755L16.5915 14.8169C16.536 14.6247 16.6004 14.4178 16.7553 14.2911L21.1075 10.7302C21.4462 10.4531 21.2907 9.90543 20.857 9.8476L14.8022 9.0403C14.6166 9.01555 14.4604 8.88918 14.3974 8.71285L12.4709 3.31844C12.3129 2.876 11.6871 2.876 11.5291 3.31844L9.60255 8.71285C9.53958 8.88918 9.38336 9.01555 9.19776 9.0403Z" fill="#171717"/>
</svg>
