<svg width="24" height="24" viewBox="0 0 24 24" fill="none" xmlns="http://www.w3.org/2000/svg">
<path d="M7 6C7 5.44772 7.44772 5 8 5H10C10.5523 5 11 5.44772 11 6V11H13V9C13 8.44772 13.4477 8 14 8H16C16.5523 8 17 8.44772 17 9V11H19C19.5523 11 20 11.4477 20 12C20 12.5523 19.5523 13 19 13H17V15C17 15.5523 16.5523 16 16 16H14C13.4477 16 13 15.5523 13 15V13H11V18C11 18.5523 10.5523 19 10 19H8C7.44772 19 7 18.5523 7 18V13H5C4.44771 13 4 12.5523 4 12C4 11.4477 4.44772 11 5 11H7V6Z" fill="#171717"/>
</svg>
