<svg width="24" height="24" viewBox="0 0 24 24" fill="none" xmlns="http://www.w3.org/2000/svg">
<path d="M12.4668 19.9512C12.421 19.943 12.3761 19.9321 12.3311 19.9219C12.3761 19.9321 12.421 19.943 12.4668 19.9512ZM12.2109 19.8936C12.1734 19.8833 12.1366 19.871 12.0996 19.8594C12.1366 19.871 12.1734 19.8833 12.2109 19.8936ZM11.9463 19.8076C11.9176 19.7969 11.8895 19.785 11.8613 19.7734C11.8895 19.785 11.9176 19.7969 11.9463 19.8076ZM11.7139 19.709C11.6823 19.6939 11.6511 19.6782 11.6201 19.6621C11.6511 19.6782 11.6823 19.6939 11.7139 19.709ZM11.4756 19.582C11.4509 19.5674 11.4266 19.5524 11.4023 19.5371C11.4266 19.5524 11.4509 19.5674 11.4756 19.582ZM11.2578 19.4404C11.2315 19.4216 11.2054 19.4025 11.1797 19.3828C11.2054 19.4025 11.2315 19.4216 11.2578 19.4404ZM11.0674 19.291C11.0386 19.2667 11.0093 19.2431 10.9814 19.2178C11.0093 19.2431 11.0386 19.2667 11.0674 19.291ZM10.8818 19.1211C10.853 19.0923 10.8236 19.0641 10.7959 19.0342C10.8235 19.0641 10.853 19.0923 10.8818 19.1211ZM10.7207 18.9473C10.6911 18.9127 10.6608 18.8787 10.6328 18.8428C10.6608 18.8787 10.6911 18.9127 10.7207 18.9473ZM10.3848 18.4668C10.4385 18.5625 10.4979 18.6543 10.5615 18.7432C10.4979 18.6543 10.4386 18.5625 10.3848 18.4668ZM10.3594 18.4248C10.3286 18.3679 10.3015 18.309 10.2744 18.25C10.3015 18.309 10.3286 18.3679 10.3594 18.4248ZM10.2461 18.1895C10.2302 18.1526 10.2166 18.1148 10.2021 18.0771C10.2166 18.1147 10.2302 18.1526 10.2461 18.1895ZM13 10H14V11C14 12.6569 12.6569 14 11 14H10V13C10 11.3431 11.3431 10 13 10ZM5.91797 13.7959C5.88027 13.7813 5.84261 13.767 5.80566 13.751C5.8426 13.767 5.88028 13.7813 5.91797 13.7959ZM5.68555 13.6943C5.64833 13.6761 5.61055 13.6593 5.57422 13.6396C5.61055 13.6593 5.64834 13.6762 5.68555 13.6943ZM5.20215 13.3994C5.28962 13.465 5.38108 13.5251 5.47559 13.5811C5.38109 13.5251 5.28961 13.4651 5.20215 13.3994ZM5.1543 13.3652C5.11897 13.3376 5.08579 13.3075 5.05176 13.2783C5.0858 13.3074 5.11896 13.3376 5.1543 13.3652ZM4.96289 13.2012C4.93028 13.171 4.89941 13.139 4.86816 13.1074C4.89942 13.139 4.93027 13.171 4.96289 13.2012ZM4.78027 13.0166C4.74982 12.9831 4.72131 12.948 4.69238 12.9131C4.72133 12.9479 4.74981 12.9831 4.78027 13.0166ZM4.61133 12.8125C4.59186 12.7869 4.57334 12.7606 4.55469 12.7344C4.57334 12.7606 4.59186 12.7869 4.61133 12.8125ZM4.45801 12.5908C4.44288 12.5667 4.42851 12.5422 4.41406 12.5176C4.42852 12.5422 4.44288 12.5667 4.45801 12.5908ZM19.9219 12.3311C19.9321 12.3761 19.943 12.421 19.9512 12.4668C19.943 12.421 19.9321 12.3761 19.9219 12.3311ZM4.33203 12.3691C4.31626 12.3385 4.30086 12.3076 4.28613 12.2764C4.30087 12.3076 4.31626 12.3385 4.33203 12.3691ZM19.8555 12.085C19.8688 12.1267 19.882 12.1685 19.8936 12.2109C19.882 12.1685 19.8688 12.1267 19.8555 12.085ZM4.22559 12.1377C4.214 12.1095 4.20215 12.0814 4.19141 12.0527C4.20215 12.0814 4.214 12.1095 4.22559 12.1377ZM19.7656 11.8418C19.7801 11.8764 19.7944 11.9111 19.8076 11.9463C19.7944 11.9111 19.7801 11.8764 19.7656 11.8418ZM4.13867 11.8975C4.1273 11.8612 4.11549 11.825 4.10547 11.7881C4.11548 11.825 4.1273 11.8612 4.13867 11.8975ZM19.6611 11.6182C19.6776 11.6498 19.6936 11.6816 19.709 11.7139C19.6936 11.6816 19.6776 11.6498 19.6611 11.6182ZM4.07715 11.666C4.06656 11.6194 4.05526 11.5728 4.04688 11.5254C4.05525 11.5728 4.06657 11.6194 4.07715 11.666ZM19.5371 11.4023C19.5524 11.4266 19.5674 11.4509 19.582 11.4756C19.5674 11.4509 19.5524 11.4266 19.5371 11.4023ZM19.3877 11.1865C19.4053 11.2097 19.4225 11.2331 19.4395 11.2568C19.4225 11.2331 19.4053 11.2097 19.3877 11.1865ZM19.2178 10.9814C19.2414 11.0074 19.2634 11.0347 19.2861 11.0615C19.2634 11.0348 19.2414 11.0074 19.2178 10.9814ZM19.0361 10.7979C19.0644 10.824 19.091 10.8517 19.1182 10.8789C19.0909 10.8517 19.0644 10.824 19.0361 10.7979ZM18.8447 10.6338C18.8693 10.653 18.8921 10.6744 18.916 10.6943C18.8921 10.6744 18.8693 10.653 18.8447 10.6338ZM18.4834 10.3945C18.5487 10.4318 18.6127 10.4708 18.6748 10.5127C18.6127 10.4708 18.5487 10.4318 18.4834 10.3945ZM18.2998 10.2988C18.3416 10.319 18.3841 10.3374 18.4248 10.3594C18.3841 10.3374 18.3416 10.319 18.2998 10.2988ZM18.0771 10.2021C18.1161 10.2172 18.1552 10.2315 18.1934 10.248C18.1552 10.2315 18.1161 10.2172 18.0771 10.2021ZM13.751 5.80566C13.7652 5.83846 13.7779 5.87188 13.791 5.90527C13.7779 5.87189 13.7652 5.83845 13.751 5.80566ZM13.6377 5.57031C13.6605 5.61223 13.6794 5.65612 13.7002 5.69922C13.6794 5.65613 13.6605 5.61223 13.6377 5.57031ZM13.3799 5.1748C13.449 5.26474 13.5116 5.35946 13.5703 5.45703C13.5116 5.35945 13.4489 5.26475 13.3799 5.1748ZM13.2588 5.0293C13.2948 5.07051 13.3315 5.11114 13.3652 5.1543C13.3315 5.11113 13.2948 5.07052 13.2588 5.0293ZM13.1074 4.86816C13.139 4.89941 13.171 4.93028 13.2012 4.96289C13.171 4.93027 13.139 4.89942 13.1074 4.86816ZM12.9316 4.70801C12.9604 4.73229 12.9897 4.75592 13.0176 4.78125C12.9897 4.7559 12.9604 4.7323 12.9316 4.70801ZM12.7412 4.55859C12.7653 4.57579 12.789 4.59344 12.8125 4.61133C12.789 4.59344 12.7653 4.5758 12.7412 4.55859ZM12.5234 4.41699C12.5481 4.43158 12.5725 4.44664 12.5967 4.46191C12.5725 4.44664 12.5481 4.43159 12.5234 4.41699ZM12.2852 4.29004C12.3168 4.30506 12.3479 4.32083 12.3789 4.33691C12.3479 4.32083 12.3168 4.30506 12.2852 4.29004ZM12.0527 4.19141C12.0814 4.20215 12.1095 4.214 12.1377 4.22559C12.1095 4.214 12.0814 4.20215 12.0527 4.19141ZM11.7881 4.10547C11.8257 4.11568 11.8624 4.12803 11.8994 4.13965C11.8624 4.12804 11.8257 4.11567 11.7881 4.10547ZM11.5322 4.04785C11.578 4.05605 11.623 4.0669 11.668 4.07715C11.623 4.06691 11.578 4.05604 11.5322 4.04785ZM11.2812 4.0127C11.2881 4.01333 11.2949 4.01494 11.3018 4.01562C11.2949 4.01494 11.2881 4.01333 11.2812 4.0127Z" fill="#171717" stroke="#171717" stroke-width="2"/>
</svg>
