<svg width="24" height="24" viewBox="0 0 24 24" fill="none" xmlns="http://www.w3.org/2000/svg">
<path fill-rule="evenodd" clip-rule="evenodd" d="M22 14.5C22 16.9853 19.9853 19 17.5 19H5.5C3.567 19 2 17.433 2 15.5C2 13.7367 3.30381 12.2426 5 12C5 8.13401 8.13401 5 12 5C15.2361 5 17.9593 7.19595 18.7608 10.179C20.6324 10.7242 22 12.4524 22 14.5ZM9.23215 14.2678C9.23215 14.4034 9.25914 14.5326 9.30803 14.6506C9.45829 15.0129 9.81546 15.2678 10.2322 15.2678H13.7677C14.32 15.2678 14.7677 14.8201 14.7677 14.2678C14.7677 13.7155 14.32 13.2678 13.7677 13.2678H12.6464L14.4748 11.4393C14.8653 11.0488 14.8653 10.4157 14.4748 10.0251C14.0843 9.6346 13.4511 9.6346 13.0606 10.0251L11.2322 11.8536V10.7322C11.2322 10.1799 10.7844 9.73223 10.2322 9.73223C9.67987 9.73223 9.23215 10.1799 9.23215 10.7322V14.2678Z" fill="#171717"/>
</svg>
