<svg width="24" height="24" viewBox="0 0 24 24" fill="none" xmlns="http://www.w3.org/2000/svg">
<path fill-rule="evenodd" clip-rule="evenodd" d="M22 14.5C22 16.9853 19.9853 19 17.5 19H5.5C3.567 19 2 17.433 2 15.5C2 13.7367 3.30381 12.2426 5 12C5 8.13401 8.13401 5 12 5C15.2361 5 17.9593 7.19595 18.7608 10.179C20.6324 10.7242 22 12.4524 22 14.5ZM12 9C12.5523 9 13 9.44772 13 10V12.5858L13.7929 11.7929C14.1834 11.4024 14.8166 11.4024 15.2071 11.7929C15.5976 12.1834 15.5976 12.8166 15.2071 13.2071L12.7071 15.7071C12.5196 15.8946 12.2652 16 12 16C11.7348 16 11.4802 15.8944 11.2926 15.7068L8.79289 13.2071C8.40237 12.8166 8.40237 12.1834 8.79289 11.7929C9.18342 11.4024 9.81658 11.4024 10.2071 11.7929L11 12.5858V10C11 9.44772 11.4477 9 12 9Z" fill="#171717"/>
</svg>
