<svg width="24" height="24" viewBox="0 0 24 24" fill="none" xmlns="http://www.w3.org/2000/svg">
<path fill-rule="evenodd" clip-rule="evenodd" d="M22 14.5C22 16.9853 19.9853 19 17.5 19H5.5C3.567 19 2 17.433 2 15.5C2 13.7367 3.30381 12.2426 5 12C5 8.13401 8.13401 5 12 5C15.2361 5 17.9593 7.19595 18.7608 10.179C20.6324 10.7242 22 12.4524 22 14.5ZM13.7676 15.2678C13.9032 15.2678 14.0325 15.2408 14.1504 15.1919C14.5128 15.0416 14.7676 14.6845 14.7676 14.2678V10.7322C14.7676 10.1799 14.3199 9.73222 13.7676 9.73222C13.2154 9.73222 12.7676 10.1799 12.7676 10.7322V11.8535L10.9392 10.0251C10.5487 9.63459 9.91553 9.63459 9.52501 10.0251C9.13448 10.4156 9.13448 11.0488 9.52501 11.4393L11.3534 13.2678H10.2321C9.67983 13.2678 9.23211 13.7155 9.23211 14.2678C9.23211 14.82 9.67983 15.2678 10.2321 15.2678H13.7676Z" fill="#171717"/>
</svg>
