<svg width="24" height="24" viewBox="0 0 24 24" fill="none" xmlns="http://www.w3.org/2000/svg">
<path fill-rule="evenodd" clip-rule="evenodd" d="M22 14.5C22 16.9853 19.9853 19 17.5 19H5.5C3.567 19 2 17.433 2 15.5C2 13.7367 3.30381 12.2426 5 12C5 8.13401 8.13401 5 12 5C15.2361 5 17.9593 7.19595 18.7608 10.179C20.6324 10.7242 22 12.4524 22 14.5ZM14.7677 10.7322C14.7677 10.5966 14.7407 10.4674 14.6918 10.3494C14.5416 9.9871 14.1844 9.73223 13.7677 9.73223H10.2322C9.67991 9.73223 9.23219 10.1799 9.23219 10.7322C9.23219 11.2845 9.67991 11.7322 10.2322 11.7322L11.3535 11.7322L9.52508 13.5607C9.13456 13.9512 9.13456 14.5843 9.52508 14.9749C9.91561 15.3654 10.5488 15.3654 10.9393 14.9749L12.7677 13.1464V14.2678C12.7677 14.8201 13.2154 15.2678 13.7677 15.2678C14.32 15.2678 14.7677 14.8201 14.7677 14.2678V10.7322Z" fill="#171717"/>
</svg>
