<svg width="24" height="24" viewBox="0 0 24 24" fill="none" xmlns="http://www.w3.org/2000/svg">
<path d="M3.70711 3.29289C3.31658 2.90237 2.68342 2.90237 2.29289 3.29289C1.90237 3.68342 1.90237 4.31658 2.29289 4.70711L5.71588 8.1301C5.87806 8.29228 5.90739 8.54315 5.80062 8.74614C5.28933 9.71827 5 10.8253 5 12C3.30381 12.2426 2 13.7367 2 15.5C2 17.433 3.567 19 5.5 19H16.3787C16.5113 19 16.6385 19.0527 16.7322 19.1464L20.2929 22.7071C20.6834 23.0976 21.3166 23.0976 21.7071 22.7071C22.0976 22.3166 22.0976 21.6834 21.7071 21.2929L3.70711 3.29289Z" fill="#171717"/>
<path d="M22 14.5C22 15.5024 21.6723 16.4282 21.1181 17.1761C20.9498 17.4033 20.6216 17.4074 20.4217 17.2075L9.41908 6.20488C9.17655 5.96235 9.24545 5.5536 9.56705 5.43438C10.3248 5.15347 11.1445 5 12 5C15.2361 5 17.9593 7.19595 18.7608 10.179C20.6324 10.7242 22 12.4524 22 14.5Z" fill="#171717"/>
</svg>
