<svg width="24" height="24" viewBox="0 0 24 24" fill="none" xmlns="http://www.w3.org/2000/svg">
<path fill-rule="evenodd" clip-rule="evenodd" d="M22 14.5C22 16.9853 19.9853 19 17.5 19H5.5C3.567 19 2 17.433 2 15.5C2 13.7367 3.30381 12.2426 5 12C5 8.13401 8.13401 5 12 5C15.2361 5 17.9593 7.19595 18.7608 10.179C20.6324 10.7242 22 12.4524 22 14.5ZM8.29289 12.7071C8.10536 12.8946 8 13.149 8 13.4142V15.5C8 15.7761 8.22386 16 8.5 16H10.5858C10.851 16 11.1054 15.8946 11.2929 15.7071L15.2929 11.7071C15.6834 11.3166 15.6834 10.6834 15.2929 10.2929L13.7071 8.70711C13.3166 8.31658 12.6834 8.31658 12.2929 8.70711L8.29289 12.7071Z" fill="#171717"/>
</svg>
