<svg width="24" height="24" viewBox="0 0 24 24" fill="none" xmlns="http://www.w3.org/2000/svg">
<path fill-rule="evenodd" clip-rule="evenodd" d="M22 14.5C22 16.9853 19.9853 19 17.5 19H5.5C3.567 19 2 17.433 2 15.5C2 13.7367 3.30381 12.2426 5 12C5 8.13401 8.13401 5 12 5C15.2361 5 17.9593 7.19595 18.7608 10.179C20.6324 10.7242 22 12.4524 22 14.5ZM8 13C8.55228 13 9 12.5523 9 12C9 11.4477 8.55228 11 8 11C7.44772 11 7 11.4477 7 12C7 12.5523 7.44772 13 8 13ZM13 12C13 12.5523 12.5523 13 12 13C11.4477 13 11 12.5523 11 12C11 11.4477 11.4477 11 12 11C12.5523 11 13 11.4477 13 12ZM17 12C17 12.5523 16.5523 13 16 13C15.4477 13 15 12.5523 15 12C15 11.4477 15.4477 11 16 11C16.5523 11 17 11.4477 17 12Z" fill="#171717"/>
</svg>
