<svg width="24" height="24" viewBox="0 0 24 24" fill="none" xmlns="http://www.w3.org/2000/svg">
<path fill-rule="evenodd" clip-rule="evenodd" d="M22 14.5C22 16.9853 19.9853 19 17.5 19H5.5C3.567 19 2 17.433 2 15.5C2 13.7367 3.30381 12.2426 5 12C5 8.13401 8.13401 5 12 5C15.2361 5 17.9593 7.19595 18.7608 10.179C20.6324 10.7242 22 12.4524 22 14.5ZM9 9C8.44772 9 8 9.44772 8 10C8 10.5523 8.44772 11 9 11H15C15.5523 11 16 10.5523 16 10C16 9.44772 15.5523 9 15 9H9ZM9 13C8.44772 13 8 13.4477 8 14C8 14.5523 8.44772 15 9 15H13C13.5523 15 14 14.5523 14 14C14 13.4477 13.5523 13 13 13H9Z" fill="#171717"/>
</svg>
