<svg width="24" height="24" viewBox="0 0 24 24" fill="none" xmlns="http://www.w3.org/2000/svg">
<path fill-rule="evenodd" clip-rule="evenodd" d="M22 14.5C22 16.9853 19.9853 19 17.5 19H5.5C3.567 19 2 17.433 2 15.5C2 13.7367 3.30381 12.2426 5 12C5 8.13401 8.13401 5 12 5C15.2361 5 17.9593 7.19595 18.7608 10.179C20.6324 10.7242 22 12.4524 22 14.5ZM14 10C14 9.44772 14.4477 9 15 9C15.5523 9 16 9.44772 16 10V14C16 14.5523 15.5523 15 15 15C14.4477 15 14 14.5523 14 14V10ZM8 14C8 13.4477 8.44772 13 9 13C9.55228 13 10 13.4477 10 14C10 14.5523 9.55228 15 9 15C8.44772 15 8 14.5523 8 14ZM12 11C11.4477 11 11 11.4477 11 12V14C11 14.5523 11.4477 15 12 15C12.5523 15 13 14.5523 13 14V12C13 11.4477 12.5523 11 12 11Z" fill="#171717"/>
</svg>
