<svg width="24" height="24" viewBox="0 0 24 24" fill="none" xmlns="http://www.w3.org/2000/svg">
<path fill-rule="evenodd" clip-rule="evenodd" d="M7 3C4.79086 3 3 4.79086 3 7V17C3 19.2091 4.79086 21 7 21H17C19.2091 21 21 19.2091 21 17V7C21 4.79086 19.2091 3 17 3H7ZM12.1736 6.04132C12.1409 5.84529 11.8591 5.84529 11.8264 6.04132C11.3321 9.00761 9.00761 11.3321 6.04132 11.8264C5.84529 11.8591 5.84529 12.1409 6.04132 12.1736C9.00761 12.6679 11.3321 14.9924 11.8264 17.9587C11.8591 18.1547 12.1409 18.1547 12.1736 17.9587C12.6679 14.9924 14.9924 12.6679 17.9587 12.1736C18.1547 12.1409 18.1547 11.8591 17.9587 11.8264C14.9924 11.3321 12.6679 9.00761 12.1736 6.04132Z" fill="#171717"/>
</svg>
