<svg width="24" height="24" viewBox="0 0 24 24" fill="none" xmlns="http://www.w3.org/2000/svg">
<path fill-rule="evenodd" clip-rule="evenodd" d="M3 7C3 4.79086 4.79086 3 7 3H17C19.2091 3 21 4.79086 21 7V17C21 19.2091 19.2091 21 17 21H7C4.79086 21 3 19.2091 3 17V7ZM15.3529 6.58824C15.3912 6.43514 15.6088 6.43514 15.6471 6.58824C15.8643 7.4572 16.5428 8.1357 17.4118 8.35294C17.5649 8.39121 17.5649 8.60879 17.4118 8.64706C16.5428 8.8643 15.8643 9.5428 15.6471 10.4118C15.6088 10.5649 15.3912 10.5649 15.3529 10.4118C15.1357 9.5428 14.4572 8.8643 13.5882 8.64706C13.4351 8.60879 13.4351 8.39121 13.5882 8.35294C14.4572 8.1357 15.1357 7.4572 15.3529 6.58824ZM10.6571 8.62857C10.6162 8.46498 10.3838 8.46498 10.3429 8.62857C9.76251 10.95 7.94996 12.7625 5.62857 13.3429C5.46498 13.3838 5.46498 13.6162 5.62857 13.6571C7.94996 14.2375 9.76251 16.05 10.3429 18.3714C10.3838 18.535 10.6162 18.535 10.6571 18.3714C11.2375 16.05 13.05 14.2375 15.3714 13.6571C15.535 13.6162 15.535 13.3838 15.3714 13.3429C13.05 12.7625 11.2375 10.95 10.6571 8.62857Z" fill="#171717"/>
</svg>
