<svg width="24" height="24" viewBox="0 0 24 24" fill="none" xmlns="http://www.w3.org/2000/svg">
<g clip-path="url(#clip0_111_3945)">
<path d="M14 5C14 7.20914 12.2092 9 10 9C7.7909 9 6.00004 7.20914 6.00004 5C6.00004 2.79086 7.7909 1 10 1C12.2092 1 14 2.79086 14 5Z" fill="#171717"/>
<path d="M2.24689 17.0202C3.12792 13.5595 6.26508 11 10 11C11.0431 11 12.0395 11.1996 12.9531 11.5627C11.7834 12.2607 11 13.5389 11 15V19H4.00004C2.89547 19 1.97439 18.0907 2.24689 17.0202Z" fill="#171717"/>
<path fill-rule="evenodd" clip-rule="evenodd" d="M15 12C13.3432 12 12 13.3431 12 15V21C12 22.6569 13.3432 24 15 24H21C22.6569 24 24 22.6569 24 21V15C24 13.3431 22.6569 12 21 12H15ZM20.7071 20.7071C20.3166 21.0976 19.6835 21.0976 19.2929 20.7071L18 19.4142L16.7071 20.7071C16.3166 21.0976 15.6835 21.0976 15.2929 20.7071C14.9024 20.3166 14.9024 19.6834 15.2929 19.2929L16.5858 18L15.2929 16.7071C14.9024 16.3166 14.9024 15.6834 15.2929 15.2929C15.6835 14.9024 16.3166 14.9024 16.7071 15.2929L18 16.5858L19.2929 15.2929C19.6835 14.9024 20.3166 14.9024 20.7071 15.2929C21.0977 15.6834 21.0977 16.3166 20.7071 16.7071L19.4143 18L20.7071 19.2929C21.0977 19.6834 21.0977 20.3166 20.7071 20.7071Z" fill="#171717"/>
</g>
<defs>
<clipPath id="clip0_111_3945">
<rect width="24" height="24" fill="white"/>
</clipPath>
</defs>
</svg>
