<svg width="24" height="24" viewBox="0 0 24 24" fill="none" xmlns="http://www.w3.org/2000/svg">
<path d="M14 5C14 7.20914 12.2091 9 9.99998 9C7.79084 9 5.99998 7.20914 5.99998 5C5.99998 2.79086 7.79084 1 9.99998 1C12.2091 1 14 2.79086 14 5Z" fill="#171717"/>
<path d="M2.24683 17.0202C3.12786 13.5595 6.26502 11 9.99998 11C11.043 11 12.0394 11.1996 12.9531 11.5627C11.7834 12.2607 11 13.5389 11 15V19H3.99998C2.89541 19 1.97432 18.0907 2.24683 17.0202Z" fill="#171717"/>
<path fill-rule="evenodd" clip-rule="evenodd" d="M15 12C13.3431 12 12 13.3431 12 15V21C12 22.6569 13.3431 24 15 24H21C22.6568 24 24 22.6569 24 21V15C24 13.3431 22.6568 12 21 12H15ZM18 14C17.4477 14 17 14.4477 17 15V18C17 18.5523 17.4477 19 18 19C18.5523 19 19 18.5523 19 18V15C19 14.4477 18.5523 14 18 14ZM18 20C17.4477 20 17 20.4477 17 21C17 21.5523 17.4477 22 18 22C18.5523 22 19 21.5523 19 21C19 20.4477 18.5523 20 18 20Z" fill="#171717"/>
</svg>
