<svg width="24" height="24" viewBox="0 0 24 24" fill="none" xmlns="http://www.w3.org/2000/svg">
<g clip-path="url(#clip0_111_3983)">
<path d="M14 5C14 7.20914 12.2092 9 10 9C7.7909 9 6.00004 7.20914 6.00004 5C6.00004 2.79086 7.7909 1 10 1C12.2092 1 14 2.79086 14 5Z" fill="#171717"/>
<path d="M2.24689 17.0202C3.12792 13.5595 6.26508 11 10 11C11.0431 11 12.0395 11.1996 12.9531 11.5627C11.7834 12.2607 11 13.5389 11 15V19H4.00004C2.89547 19 1.97439 18.0907 2.24689 17.0202Z" fill="#171717"/>
<path fill-rule="evenodd" clip-rule="evenodd" d="M15 12C13.3432 12 12 13.3431 12 15V21C12 22.6569 13.3432 24 15 24H21C22.6569 24 24 22.6569 24 21V15C24 13.3431 22.6569 12 21 12H15ZM15 19C15.5523 19 16 18.5523 16 18C16 17.4477 15.5523 17 15 17C14.4478 17 14 17.4477 14 18C14 18.5523 14.4478 19 15 19ZM19 18C19 18.5523 18.5523 19 18 19C17.4478 19 17 18.5523 17 18C17 17.4477 17.4478 17 18 17C18.5523 17 19 17.4477 19 18ZM22 18C22 18.5523 21.5523 19 21 19C20.4478 19 20 18.5523 20 18C20 17.4477 20.4478 17 21 17C21.5523 17 22 17.4477 22 18Z" fill="#171717"/>
</g>
<defs>
<clipPath id="clip0_111_3983">
<rect width="24" height="24" fill="white"/>
</clipPath>
</defs>
</svg>
