<svg width="24" height="24" viewBox="0 0 24 24" fill="none" xmlns="http://www.w3.org/2000/svg">
<path d="M14 5C14 7.20914 12.2091 9 9.99998 9C7.79084 9 5.99998 7.20914 5.99998 5C5.99998 2.79086 7.79084 1 9.99998 1C12.2091 1 14 2.79086 14 5Z" fill="#171717"/>
<path d="M2.24683 17.0202C3.12786 13.5595 6.26502 11 9.99998 11C11.043 11 12.0394 11.1996 12.9531 11.5627C11.7834 12.2607 11 13.5389 11 15V19H3.99998C2.89541 19 1.97432 18.0907 2.24683 17.0202Z" fill="#171717"/>
<path fill-rule="evenodd" clip-rule="evenodd" d="M15 12C13.3431 12 12 13.3431 12 15V21C12 22.6569 13.3431 24 15 24H21C22.6568 24 24 22.6569 24 21V15C24 13.3431 22.6568 12 21 12H15ZM17.9155 16.0215C17.9942 15.9977 18.0775 15.9936 18.1582 16.0096C18.2388 16.0256 18.3143 16.0613 18.3778 16.1135C18.4414 16.1657 18.4911 16.2327 18.5226 16.3087C18.554 16.3846 18.5663 16.4672 18.5582 16.549C18.5502 16.6308 18.5221 16.7094 18.4764 16.7778C18.4307 16.8462 18.3689 16.9022 18.2963 16.941C18.2238 16.9797 18.1429 17 18.0606 17C17.5084 17 17.0606 17.4477 17.0606 18C17.0606 18.5523 17.5084 19 18.0606 19C18.4718 19 18.8765 18.8986 19.2391 18.7048C19.6017 18.511 19.9109 18.2308 20.1393 17.8889C20.3677 17.5471 20.5083 17.1542 20.5486 16.745C20.5889 16.3359 20.5277 15.9231 20.3703 15.5433C20.213 15.1635 19.9644 14.8283 19.6466 14.5675C19.3288 14.3067 18.9516 14.1282 18.5484 14.048C18.1451 13.9678 17.7283 13.9883 17.3349 14.1076C16.9415 14.227 16.5836 14.4415 16.2929 14.7322C15.9023 15.1228 15.9023 15.7559 16.2929 16.1464C16.6834 16.537 17.3166 16.537 17.7071 16.1464C17.7652 16.0883 17.8368 16.0454 17.9155 16.0215ZM18 20C17.4477 20 17 20.4477 17 21C17 21.5523 17.4477 22 18 22C18.5523 22 19 21.5523 19 21C19 20.4477 18.5523 20 18 20Z" fill="#171717"/>
</svg>
