<svg width="24" height="24" viewBox="0 0 24 24" fill="none" xmlns="http://www.w3.org/2000/svg">
<g clip-path="url(#clip0_111_3958)">
<path d="M14 5C14 7.20914 12.2092 9 10 9C7.7909 9 6.00004 7.20914 6.00004 5C6.00004 2.79086 7.7909 1 10 1C12.2092 1 14 2.79086 14 5Z" fill="#171717"/>
<path d="M2.24689 17.0202C3.12792 13.5595 6.26508 11 10 11C11.0431 11 12.0395 11.1996 12.9531 11.5627C11.7834 12.2607 11 13.5389 11 15V19H4.00004C2.89547 19 1.97439 18.0907 2.24689 17.0202Z" fill="#171717"/>
<path fill-rule="evenodd" clip-rule="evenodd" d="M15 12C13.3432 12 12 13.3431 12 15V21C12 22.6569 13.3432 24 15 24H21C22.6569 24 24 22.6569 24 21V15C24 13.3431 22.6569 12 21 12H15ZM17.5 21C18.1028 21 18.67 20.8476 19.1651 20.5793L20.2929 21.7071C20.6835 22.0976 21.3166 22.0976 21.7071 21.7071C22.0977 21.3166 22.0977 20.6834 21.7071 20.2929L20.5794 19.1651C20.8477 18.6699 21 18.1028 21 17.5C21 15.567 19.433 14 17.5 14C15.567 14 14 15.567 14 17.5C14 19.433 15.567 21 17.5 21ZM17.5 19C18.3285 19 19 18.3284 19 17.5C19 16.6716 18.3285 16 17.5 16C16.6716 16 16 16.6716 16 17.5C16 18.3284 16.6716 19 17.5 19Z" fill="#171717"/>
</g>
<defs>
<clipPath id="clip0_111_3958">
<rect width="24" height="24" fill="white"/>
</clipPath>
</defs>
</svg>
