<svg width="24" height="24" viewBox="0 0 24 24" fill="none" xmlns="http://www.w3.org/2000/svg">
<g clip-path="url(#clip0_111_3957)">
<path d="M14 5C14 7.20914 12.2092 9 10 9C7.7909 9 6.00004 7.20914 6.00004 5C6.00004 2.79086 7.7909 1 10 1C12.2092 1 14 2.79086 14 5Z" fill="#171717"/>
<path d="M2.24689 17.0202C3.12792 13.5595 6.26508 11 10 11C11.0431 11 12.0395 11.1996 12.9531 11.5627C11.7834 12.2607 11 13.5389 11 15V19H4.00004C2.89547 19 1.97439 18.0907 2.24689 17.0202Z" fill="#171717"/>
<path fill-rule="evenodd" clip-rule="evenodd" d="M15 12C13.3432 12 12 13.3431 12 15V21C12 22.6569 13.3432 24 15 24H21C22.6569 24 24 22.6569 24 21V15C24 13.3431 22.6569 12 21 12H15ZM16.852 14.2284C17.4002 14.0013 18.0034 13.9419 18.5853 14.0576C19.1673 14.1734 19.7018 14.4591 20.1214 14.8787C20.5119 15.2692 20.5119 15.9024 20.1214 16.2929C19.7308 16.6834 19.0977 16.6834 18.7071 16.2929C18.5673 16.153 18.3891 16.0578 18.1951 16.0192C18.0011 15.9806 17.8001 16.0004 17.6174 16.0761C17.4346 16.1518 17.2785 16.28 17.1686 16.4444C17.0587 16.6089 17 16.8022 17 17V18H21C21.5523 18 22 18.4477 22 19V21C22 21.5523 21.5523 22 21 22H15C14.4478 22 14 21.5523 14 21V19C14 18.4477 14.4478 18 15 18V17C15 16.4067 15.176 15.8266 15.5056 15.3333C15.8353 14.8399 16.3038 14.4554 16.852 14.2284Z" fill="#171717"/>
</g>
<defs>
<clipPath id="clip0_111_3957">
<rect width="24" height="24" fill="white"/>
</clipPath>
</defs>
</svg>
