<svg width="24" height="24" viewBox="0 0 24 24" fill="none" xmlns="http://www.w3.org/2000/svg">
<path d="M13 9.5H17C18.933 9.5 20.5 11.067 20.5 13V17C20.5 18.933 18.933 20.5 17 20.5H13C11.067 20.5 9.5 18.933 9.5 17V13C9.5 11.067 11.067 9.5 13 9.5ZM7 3.5H11C12.763 3.5 14.2215 4.8041 14.4639 6.5H13.5L13.4814 6.48633C13.4595 6.46597 13.4348 6.42874 13.4229 6.38184C13.1476 5.30045 12.1679 4.5 11 4.5H7C5.61929 4.5 4.5 5.61929 4.5 7V11C4.5 12.1679 5.30045 13.1476 6.38184 13.4229C6.42874 13.4348 6.46597 13.4595 6.48633 13.4814C6.49542 13.4913 6.49911 13.4979 6.5 13.5V14.4629C4.80417 14.2205 3.5 12.763 3.5 11V7C3.5 5.067 5.067 3.5 7 3.5Z" fill="#171717" stroke="#171717"/>
</svg>
