<svg width="24" height="24" viewBox="0 0 24 24" fill="none" xmlns="http://www.w3.org/2000/svg">
<path d="M12 14.8C11.8172 14.8 11.6342 14.7821 11.4537 14.7462C11.0325 14.6624 10.6362 14.4828 10.2955 14.2214C9.95473 13.9599 9.67871 13.6236 9.48876 13.2384C9.2988 12.8532 9.2 12.4295 9.2 12C9.2 11.5705 9.2988 11.1468 9.48876 10.7616C9.67871 10.3764 9.95473 10.0401 10.2955 9.77861C10.6362 9.51716 11.0325 9.33759 11.4537 9.2538C11.6342 9.2179 11.8172 9.2 12 9.2L12 14.8Z" fill="#171717"/>
<path fill-rule="evenodd" clip-rule="evenodd" d="M12 21C16.9706 21 21 16.9706 21 12C21 7.02944 16.9706 3 12 3C7.02944 3 3 7.02944 3 12C3 16.9706 7.02944 21 12 21ZM13.8117 18.7615C13.2283 18.9178 12.6291 18.9974 12.0291 18.9999L12 19C11.5429 19 11.0855 18.9552 10.6344 18.8655C9.58128 18.656 8.5905 18.2071 7.73867 17.5535C6.88684 16.8998 6.19678 16.059 5.72189 15.096C5.247 14.133 5 13.0737 5 12C5 10.9263 5.247 9.86696 5.72189 8.90398C6.19678 7.94099 6.88684 7.10016 7.73867 6.44653C8.5905 5.79289 9.58129 5.34397 10.6344 5.1345C11.0855 5.04476 11.5429 5 12 5C12.6098 5 13.2189 5.07968 13.8117 5.23852C14.1062 5.31743 14.3959 5.41567 14.6788 5.53284C15.5281 5.88463 16.2997 6.40024 16.9497 7.05025C17.5998 7.70026 18.1154 8.47194 18.4672 9.32122C18.8189 10.1705 19 11.0807 19 12C19 12.9193 18.8189 13.8295 18.4672 14.6788C18.1154 15.5281 17.5998 16.2997 16.9497 16.9498C16.2997 17.5998 15.5281 18.1154 14.6788 18.4672C14.3959 18.5843 14.1062 18.6826 13.8117 18.7615Z" fill="#171717"/>
</svg>
