<svg width="24" height="24" viewBox="0 0 24 24" fill="none" xmlns="http://www.w3.org/2000/svg">
<path d="M17.5868 3.52078C17.5704 3.42276 17.4296 3.42276 17.4132 3.52078C17.166 5.00392 16.0038 6.16615 14.5207 6.41334C14.4227 6.42967 14.4227 6.57056 14.5207 6.58689C16.0038 6.83409 17.166 7.99631 17.4132 9.47946C17.4296 9.57747 17.5704 9.57747 17.5868 9.47946C17.834 7.99631 18.9962 6.83409 20.4793 6.58689C20.5773 6.57056 20.5773 6.42967 20.4793 6.41334C18.9962 6.16615 17.834 5.00392 17.5868 3.52078Z" fill="#171717"/>
<path d="M11.1984 6.19008C11.161 5.96605 10.839 5.96605 10.8017 6.19008C10.2367 9.58013 7.58015 12.2366 4.19011 12.8017C3.96608 12.839 3.96608 13.161 4.19011 13.1984C7.58015 13.7634 10.2367 16.4199 10.8017 19.8099C10.839 20.034 11.161 20.034 11.1984 19.8099C11.7634 16.4199 14.4199 13.7634 17.81 13.1984C18.034 13.161 18.034 12.839 17.81 12.8017C14.4199 12.2366 11.7634 9.58013 11.1984 6.19008Z" fill="#171717"/>
</svg>
