<svg width="24" height="24" viewBox="0 0 24 24" fill="none" xmlns="http://www.w3.org/2000/svg">
<path fill-rule="evenodd" clip-rule="evenodd" d="M3.47855 7.70751C3.1813 7.88917 3 8.21243 3 8.5608V8.99996C3 9.51773 3.3935 9.94359 3.89776 9.9948C3.93137 9.99821 3.96548 9.99996 4 9.99996C4.55228 9.99996 5 10.4477 5 11V16C5 16.5522 4.55228 17 4 17C3.44772 17 3 17.4477 3 18V20C3 20.5522 3.44772 21 4 21H20C20.5523 21 21 20.5522 21 20V18C21 17.4477 20.5523 17 20 17C19.4477 17 19 16.5522 19 16V11C19 10.4477 19.4477 9.99996 20 9.99996C20.5523 9.99996 21 9.55225 21 8.99996V8.5608C21 8.21243 20.8187 7.88917 20.5215 7.70751L14.0858 3.77462C13.4456 3.38337 12.7228 3 12 3C11.2772 3 10.5544 3.38337 9.9142 3.77462L3.47855 7.70751ZM16.3333 9.99996H15.6667C15.2985 9.99996 15 10.2984 15 10.6666V16.3333C15 16.7015 15.2985 17 15.6667 17H16.3333C16.7015 17 17 16.7015 17 16.3333V10.6666C17 10.2984 16.7015 9.99996 16.3333 9.99996ZM12.3333 17H11.6667C11.2985 17 11 16.7015 11 16.3333V10.6666C11 10.2984 11.2985 9.99996 11.6667 9.99996H12.3333C12.7015 9.99996 13 10.2984 13 10.6666V16.3333C13 16.7015 12.7015 17 12.3333 17ZM8.33333 9.99996H7.66667C7.29848 9.99996 7 10.2984 7 10.6666V16.3333C7 16.7015 7.29848 17 7.66667 17H8.33333C8.70152 17 9 16.7015 9 16.3333V10.6666C9 10.2984 8.70152 9.99996 8.33333 9.99996Z" fill="#171717"/>
</svg>
