<svg width="24" height="24" viewBox="0 0 24 24" fill="none" xmlns="http://www.w3.org/2000/svg">
<path d="M7 5C7 3.89543 7.89543 3 9 3H15C16.1046 3 17 3.89543 17 5V10.5C17 10.7761 16.7761 11 16.5 11H7.5C7.22386 11 7 10.7761 7 10.5V5Z" fill="#171717"/>
<path d="M7.4 13C7.17909 13 7 13.1791 7 13.4C7 14.2837 7.71634 15 8.6 15H10.5C10.7761 15 11 15.2239 11 15.5V16.9792C11 17.1577 10.9017 17.3188 10.7616 17.4294C10.2977 17.7957 10 18.3631 10 19C10 20.1046 10.8954 21 12 21C13.1046 21 14 20.1046 14 19C14 18.3631 13.7023 17.7957 13.2384 17.4294C13.0983 17.3188 13 17.1577 13 16.9792V15.5C13 15.2239 13.2239 15 13.5 15H15.4C16.2837 15 17 14.2837 17 13.4C17 13.1791 16.8209 13 16.6 13H7.4Z" fill="#171717"/>
</svg>
