<svg width="24" height="24" viewBox="0 0 24 24" fill="none" xmlns="http://www.w3.org/2000/svg">
<path d="M18.7744 4.77422L19.4415 5.44141C19.769 5.76884 19.8288 6.27824 19.5861 6.67261L14.6661 14.6676C14.4717 14.9836 14.0076 14.9868 13.7632 14.7076C13.1458 14.0025 12.3333 13.4724 11.41 13.2015C11.0243 13.0884 10.8302 12.6038 11.0875 12.295L17.299 4.84115C17.6755 4.38941 18.3586 4.35842 18.7744 4.77422Z" fill="#171717"/>
<path d="M13 18C13 19.6569 11.6569 21 10 21H5C4.44772 21 4 20.5523 4 20V19.5352C4 19.2008 4.1671 18.8886 4.4453 18.7031L6.58571 17.2762C6.8572 17.0952 7.07675 16.8465 7.22267 16.5547C7.69907 15.6019 8.6729 15 9.73815 15H10C11.6569 15 13 16.3431 13 18Z" fill="#171717"/>
</svg>
