<svg width="24" height="24" viewBox="0 0 24 24" fill="none" xmlns="http://www.w3.org/2000/svg">
<path fill-rule="evenodd" clip-rule="evenodd" d="M7.72361 5.55279C7.893 5.214 8.23926 5 8.61803 5H15.382C15.7607 5 16.107 5.214 16.2764 5.55279L16.8618 6.72361C16.9465 6.893 17.1202 6.99733 17.309 7.01176C19.3738 7.16951 21 8.89484 21 11V15C21 17.2091 19.2091 19 17 19H7C4.79086 19 3 17.2091 3 15V11C3 8.89484 4.62625 7.16951 6.69099 7.01176C6.87983 6.99733 7.0535 6.893 7.1382 6.72361L7.72361 5.55279ZM12 17C14.2091 17 16 15.2091 16 13C16 10.7909 14.2091 9 12 9C9.79086 9 8 10.7909 8 13C8 15.2091 9.79086 17 12 17Z" fill="#171717"/>
<path d="M14 13C14 14.1046 13.1046 15 12 15C10.8954 15 10 14.1046 10 13C10 11.8954 10.8954 11 12 11C13.1046 11 14 11.8954 14 13Z" fill="#171717"/>
</svg>
