<svg width="24" height="24" viewBox="0 0 24 24" fill="none" xmlns="http://www.w3.org/2000/svg">
<path d="M11 14C10.4477 14 10 14.4477 10 15V17C10 17.5523 10.4477 18 11 18H17C17.5523 18 18 17.5523 18 17V15C18 14.4477 17.5523 14 17 14H11Z" fill="#171717"/>
<path d="M6 7C6 6.44772 6.44772 6 7 6H12C12.5523 6 13 6.44772 13 7V9C13 9.55228 12.5523 10 12 10H7C6.44772 10 6 9.55228 6 9V7Z" fill="#171717"/>
<path fill-rule="evenodd" clip-rule="evenodd" d="M3 7C3 4.79086 4.79086 3 7 3H17C19.2091 3 21 4.79086 21 7V17C21 19.2091 19.2091 21 17 21H7C4.79086 21 3 19.2091 3 17V7ZM5 15C5 13.8954 5.89543 13 7 13H17C18.1046 13 19 13.8954 19 15V17C19 18.1046 18.1046 19 17 19H7C5.89543 19 5 18.1046 5 17V15ZM7 5C5.89543 5 5 5.89543 5 7V9C5 10.1046 5.89543 11 7 11H17C18.1046 11 19 10.1046 19 9V7C19 5.89543 18.1046 5 17 5H7Z" fill="#171717"/>
</svg>
