<svg width="24" height="24" viewBox="0 0 24 24" fill="none" xmlns="http://www.w3.org/2000/svg">
<path d="M3.70711 2.29289C3.31658 1.90237 2.68342 1.90237 2.29289 2.29289C1.90237 2.68342 1.90237 3.31658 2.29289 3.70711L2.78582 4.20004C3.00039 4.4146 2.97254 4.76818 2.76954 4.99371C2.29114 5.52521 2 6.22861 2 7V17C2 18.6569 3.34315 20 5 20H18.3787C18.5113 20 18.6385 20.0527 18.7322 20.1464L20.2929 21.7071C20.6834 22.0976 21.3166 22.0976 21.7071 21.7071C22.0976 21.3166 22.0976 20.6834 21.7071 20.2929L3.70711 2.29289Z" fill="#171717"/>
<path d="M22 17C22 17.3105 21.6351 17.4209 21.4155 17.2013L9.06776 4.85355C8.75277 4.53857 8.97586 4 9.42131 4H14.7574C15.553 4 16.3161 4.31607 16.8787 4.87868L21.1213 9.12132C21.6839 9.68393 22 10.447 22 11.2426V17Z" fill="#171717"/>
</svg>
