<svg width="24" height="24" viewBox="0 0 24 24" fill="none" xmlns="http://www.w3.org/2000/svg">
<path fill-rule="evenodd" clip-rule="evenodd" d="M3 5C3 3.89543 3.89543 3 5 3H10.9296C11.5983 3 12.2228 3.3342 12.5937 3.8906L13.4063 5.1094C13.7772 5.6658 14.4017 6 15.0704 6H19C20.0501 6 20.9112 6.80929 20.9935 7.83819C21.0011 7.93227 21.0664 8.01301 21.1567 8.04052C22.1081 8.33044 22.7418 9.34251 22.5428 10.3777L21.124 17.7554C20.7618 19.6387 19.1138 21 17.1959 21H7C4.79086 21 3 19.2091 3 17V5ZM7.50848 17.8479L8.5854 10.8479C8.66045 10.3601 9.0802 10 9.57377 10H19.3681C19.9962 10 20.4687 10.5721 20.3501 11.1888L19.16 17.3777C18.9789 18.3194 18.1549 19 17.196 19H8.49685C7.88396 19 7.41528 18.4537 7.50848 17.8479Z" fill="#171717"/>
</svg>
