<svg width="24" height="24" viewBox="0 0 24 24" fill="none" xmlns="http://www.w3.org/2000/svg">
<path fill-rule="evenodd" clip-rule="evenodd" d="M3.02945 8.39184C3.32965 6.44051 5.00865 5.00007 6.98294 5.00007L17.0171 5C18.9914 5 20.6704 6.44044 20.9706 8.39177L22 15.0831C22.236 16.6168 21.0493 18 19.4975 18C18.826 18 18.182 17.7332 17.7072 17.2584L16.6203 16.1716C15.8702 15.4214 13.9553 15.0001 12.8944 15.0001H10.2081C9.14725 15.0001 8.12983 15.4215 7.37969 16.1716L6.29284 17.2585C5.81802 17.7333 5.17401 18.0001 4.5025 18.0001C2.95072 18.0001 1.76406 16.6169 2.00002 15.0831L3.02945 8.39184ZM17 7C18.1046 7 19 7.89543 19 9C19 10.1046 18.1046 11 17 11C15.8954 11 15 10.1046 15 9C15 7.89543 15.8954 7 17 7ZM9 9C9 7.89543 8.10457 7 7 7C5.89543 7 5 7.89543 5 9C5 10.1046 5.89543 11 7 11C8.10457 11 9 10.1046 9 9Z" fill="#171717"/>
</svg>
