<svg width="24" height="24" viewBox="0 0 24 24" fill="none" xmlns="http://www.w3.org/2000/svg">
<path d="M7 5C7 3.34315 8.34315 2 10 2C11.6569 2 13 3.34315 13 5V6C13 4.89543 13.8954 4 15 4C16.1046 4 17 4.89543 17 6C17 7.10457 16.1046 8 15 8H10C8.34315 8 7 6.65685 7 5Z" fill="#171717"/>
<path d="M14 9C13.4477 9 13 9.44772 13 10V12C13 12.5523 13.4477 13 14 13H20C20.5523 13 21 12.5523 21 12V10C21 9.44772 20.5523 9 20 9H14Z" fill="#171717"/>
<path d="M10 9C10.5523 9 11 9.44772 11 10V12C11 12.5523 10.5523 13 10 13H4C3.44772 13 3 12.5523 3 12V10C3 9.44772 3.44772 9 4 9H10Z" fill="#171717"/>
<path d="M10 14C10.5523 14 11 14.4477 11 15V21C11 21.5523 10.5523 22 10 22H5C4.44772 22 4 21.5523 4 21V15C4 14.4477 4.44772 14 5 14H10Z" fill="#171717"/>
<path d="M14 22C13.4477 22 13 21.5523 13 21V15C13 14.4477 13.4477 14 14 14H19C19.5523 14 20 14.4477 20 15V21C20 21.5523 19.5523 22 19 22H14Z" fill="#171717"/>
</svg>
