<svg width="24" height="24" viewBox="0 0 24 24" fill="none" xmlns="http://www.w3.org/2000/svg">
<path d="M7.35407 3C6.53626 3 5.80084 3.4979 5.49711 4.25722L4.28609 7.28477C4.0971 7.75725 4 8.26145 4 8.77033V9C4 10.1046 4.89543 11 6 11C7.10457 11 8 10.1046 8 9C8 10.1046 8.89543 11 10 11C11.1046 11 12 10.1046 12 9C12 10.1046 12.8954 11 14 11C15.1046 11 16 10.1046 16 9C16 10.1046 16.8954 11 18 11C19.1046 11 20 10.1046 20 9V8.77033C20 8.26145 19.9029 7.75725 19.7139 7.28477L18.5029 4.25722C18.1992 3.4979 17.4637 3 16.6459 3H7.35407Z" fill="#171717"/>
<path d="M7 13C6.44772 13 6 13.4477 6 14V18C6 18.5523 5.55228 19 5 19H4C3.44772 19 3 19.4477 3 20C3 20.5523 3.44772 21 4 21H20C20.5523 21 21 20.5523 21 20C21 19.4477 20.5523 19 20 19H19C18.4477 19 18 18.5523 18 18V14C18 13.4477 17.5523 13 17 13C16.4477 13 16 13.4477 16 14V18C16 18.5523 15.5523 19 15 19H9C8.44772 19 8 18.5523 8 18V14C8 13.4477 7.55228 13 7 13Z" fill="#171717"/>
</svg>
