<svg width="24" height="24" viewBox="0 0 24 24" fill="none" xmlns="http://www.w3.org/2000/svg">
<path fill-rule="evenodd" clip-rule="evenodd" d="M5.63604 18.3639C6.02656 17.9734 6.0208 17.3436 5.68201 16.9074C5.24437 16.344 4.88313 15.7233 4.60897 15.0614C4.20693 14.0908 4 13.0505 4 12C4 10.9494 4.20693 9.90911 4.60896 8.9385C4.88313 8.27661 5.24437 7.65596 5.68201 7.09253C6.0208 6.65636 6.02657 6.02653 5.63604 5.63601C5.24552 5.24548 4.60791 5.2426 4.25832 5.67016C3.64078 6.42545 3.13593 7.26847 2.7612 8.17314C2.25866 9.38639 2 10.6868 2 12C2 13.3132 2.25866 14.6135 2.76121 15.8268C3.13593 16.7315 3.64078 17.5745 4.25833 18.3298C4.60791 18.7573 5.24552 18.7545 5.63604 18.3639ZM18.364 5.63601C17.9734 6.02653 17.9792 6.65636 18.318 7.09253C18.7556 7.65596 19.1169 8.27661 19.391 8.9385C19.7931 9.90911 20 10.9494 20 12C20 13.0505 19.7931 14.0908 19.391 15.0614C19.1169 15.7233 18.7556 16.344 18.318 16.9074C17.9792 17.3436 17.9734 17.9734 18.364 18.3639C18.7545 18.7545 19.3921 18.7573 19.7417 18.3298C20.3592 17.5745 20.8641 16.7315 21.2388 15.8268C21.7413 14.6135 22 13.3132 22 12C22 10.6868 21.7413 9.38639 21.2388 8.17314C20.8641 7.26847 20.3592 6.42545 19.7417 5.67016C19.3921 5.2426 18.7545 5.24548 18.364 5.63601ZM15.6955 10.4692C15.6225 10.293 15.5372 10.1226 15.4403 9.95924C15.1585 9.48424 15.145 8.85496 15.5355 8.46444C15.9261 8.07391 16.5674 8.07006 16.8877 8.51996C17.1496 8.88775 17.3697 9.28479 17.5433 9.70387C17.8448 10.4318 18 11.212 18 12C18 12.7879 17.8448 13.5681 17.5433 14.2961C17.3697 14.7152 17.1496 15.1122 16.8877 15.48C16.5674 15.9299 15.9261 15.926 15.5355 15.5355C15.145 15.145 15.1585 14.5157 15.4403 14.0407C15.5372 13.8774 15.6225 13.707 15.6955 13.5307C15.8965 13.0454 16 12.5253 16 12C16 11.4747 15.8965 10.9545 15.6955 10.4692ZM13 14.3092C13 13.9522 13.2055 13.6352 13.4512 13.3762C13.7913 13.0177 14 12.5332 14 12C14 10.8954 13.1046 9.99997 12 9.99997C10.8954 9.99997 10 10.8954 10 12C10 12.5332 10.2087 13.0177 10.5488 13.3762C10.7945 13.6352 11 13.9522 11 14.3092V20C11 20.5523 11.4477 21 12 21C12.5523 21 13 20.5523 13 20V14.3092ZM8.30448 13.5307C8.37749 13.707 8.46284 13.8774 8.55973 14.0407C8.8415 14.5157 8.85499 15.145 8.46447 15.5355C8.07394 15.926 7.43263 15.9299 7.11231 15.48C6.85045 15.1122 6.63031 14.7152 6.45672 14.2961C6.15519 13.5681 6 12.7879 6 12C6 11.212 6.15519 10.4318 6.45672 9.70387C6.63031 9.28479 6.85045 8.88775 7.11231 8.51996C7.43263 8.07006 8.07394 8.07391 8.46447 8.46444C8.85499 8.85496 8.8415 9.48424 8.55973 9.95924C8.46284 10.1226 8.37749 10.293 8.30448 10.4692C8.10346 10.9545 8 11.4747 8 12C8 12.5253 8.10346 13.0454 8.30448 13.5307Z" fill="#171717"/>
</svg>
