<svg width="24" height="24" viewBox="0 0 24 24" fill="none" xmlns="http://www.w3.org/2000/svg">
<path fill-rule="evenodd" clip-rule="evenodd" d="M3 12.7253C3 12.1258 3.10783 11.5311 3.31835 10.9697L5.09036 6.24438C5.82218 4.29286 7.68778 3 9.772 3H14.228C16.3122 3 18.1778 4.29286 18.9096 6.24438L20.6816 10.9697C20.8922 11.5311 21 12.1258 21 12.7253V17C21 19.2091 19.2091 21 17 21H7C4.79086 21 3 19.2091 3 17V12.7253ZM6.96301 6.94663C7.40211 5.77572 8.52147 5 9.772 5H14.228C15.4785 5 16.5979 5.77572 17.037 6.94663L18.3037 10.3244C18.4262 10.6513 18.1846 11 17.8355 11H17C15.8954 11 15 11.8954 15 13C15 14.1046 14.1046 15 13 15H11C9.89543 15 9 14.1046 9 13C9 11.8954 8.10457 11 7 11H6.1645C5.8154 11 5.57376 10.6513 5.69634 10.3244L6.96301 6.94663Z" fill="#171717"/>
</svg>
