<svg width="24" height="24" viewBox="0 0 24 24" fill="none" xmlns="http://www.w3.org/2000/svg">
<path d="M11 4.71447C11 4.21682 11.3659 3.7949 11.8586 3.72452L16.8586 3.01024C16.9062 3.00343 16.9534 3.00009 17 3C17.5428 2.99895 18 3.43973 18 4.00019V8.1327C18 8.63035 17.6341 9.05227 17.1414 9.12265L13.4293 9.65296C13.183 9.68814 13 9.89911 13 10.1479V18C13 19.6569 11.6569 21 10 21C8.34315 21 7 19.6569 7 18C7 16.3431 8.34315 15 10 15C10.2515 15 10.4958 15.0309 10.7293 15.0893C10.8632 15.1227 11 15.0259 11 14.8879V4.71447Z" fill="#171717"/>
</svg>
