<svg width="24" height="24" viewBox="0 0 24 24" fill="none" xmlns="http://www.w3.org/2000/svg">
<path d="M20.6939 14.3359C20.8158 13.8809 20.2523 13.5808 19.8595 13.8408C18.753 14.5734 17.4263 15 16 15C12.134 15 9 11.866 9 8C9 6.57367 9.4266 5.24697 10.1592 4.14055C10.4192 3.74773 10.1191 3.18416 9.66405 3.30612C5.82598 4.33479 3 7.83737 3 12C3 16.9706 7.02944 21 12 21C16.1626 21 19.6652 18.174 20.6939 14.3359Z" fill="#171717"/>
<path d="M16 3C16.5523 3 17 3.44772 17 4V7.58579L18.2929 6.29289C18.6834 5.90237 19.3166 5.90237 19.7071 6.29289C20.0976 6.68342 20.0976 7.31658 19.7071 7.70711L16.7071 10.7071C16.3166 11.0976 15.6834 11.0976 15.2929 10.7071L12.2929 7.70711C11.9024 7.31658 11.9024 6.68342 12.2929 6.29289C12.6834 5.90237 13.3166 5.90237 13.7071 6.29289L15 7.58579V4C15 3.44772 15.4477 3 16 3Z" fill="#171717"/>
</svg>
