<svg width="24" height="24" viewBox="0 0 24 24" fill="none" xmlns="http://www.w3.org/2000/svg">
<path d="M3.70711 2.29289C3.31658 1.90237 2.68342 1.90237 2.29289 2.29289C1.90237 2.68342 1.90237 3.31658 2.29289 3.70711L6.75028 8.1645C6.88893 8.30314 6.93374 8.51003 6.8649 8.69361L6.30504 10.1866C6.10897 10.7094 5.72242 11.1388 5.22295 11.3885C4.47345 11.7633 4 12.5293 4 13.3673V13.9098C4 15.6165 5.38352 17 7.09017 17H15.3787C15.5113 17 15.6385 17.0527 15.7322 17.1464L20.2929 21.7071C20.6834 22.0976 21.3166 22.0976 21.7071 21.7071C22.0976 21.3166 22.0976 20.6834 21.7071 20.2929L3.70711 2.29289Z" fill="#171717"/>
<path d="M20 13.9098C20 14.2158 19.9555 14.5114 19.8727 14.7905C19.778 15.1094 19.3818 15.1675 19.1466 14.9323L8.99865 4.78439C8.81686 4.6026 8.80036 4.30988 8.9848 4.1308C9.71604 3.42082 10.7084 3 11.772 3H12.228C13.8954 3 15.3879 4.03429 15.9733 5.59551L17.695 10.1866C17.891 10.7094 18.2776 11.1388 18.777 11.3885C19.5266 11.7633 20 12.5293 20 13.3673V13.9098Z" fill="#171717"/>
<path d="M14.8349 18.9816C15.0156 18.4597 14.5523 18 14 18H10C9.44772 18 8.98442 18.4597 9.16514 18.9816C9.31232 19.4066 9.55459 19.7972 9.87868 20.1213C10.4413 20.6839 11.2044 21 12 21C12.7956 21 13.5587 20.6839 14.1213 20.1213C14.4454 19.7972 14.6877 19.4066 14.8349 18.9816Z" fill="#171717"/>
</svg>
