<svg width="24" height="24" viewBox="0 0 24 24" fill="none" xmlns="http://www.w3.org/2000/svg">
<path d="M19.0711 4.92882C17.1184 2.9762 13.9526 2.9762 12 4.92882L9.87867 7.05014C9.48814 7.44067 9.48814 8.07383 9.87867 8.46436L15.5355 14.1212C15.926 14.5117 16.5592 14.5117 16.9497 14.1212L19.0711 11.9999C21.0237 10.0473 21.0237 6.88144 19.0711 4.92882Z" fill="#171717"/>
<path d="M4.92894 12.0001C2.97632 13.9527 2.97632 17.1185 4.92894 19.0711C6.88156 21.0238 10.0474 21.0238 12 19.0711L14.1213 16.9498C14.5119 16.5593 14.5119 15.9261 14.1213 15.5356L8.46448 9.87874C8.07395 9.48822 7.44079 9.48822 7.05026 9.87875L4.92894 12.0001Z" fill="#171717"/>
</svg>
