<svg width="24" height="24" viewBox="0 0 24 24" fill="none" xmlns="http://www.w3.org/2000/svg">
<path fill-rule="evenodd" clip-rule="evenodd" d="M13 11.2616C13 11.0334 13.1558 10.8373 13.3702 10.7592C14.9045 10.1998 16 8.72783 16 7C16 4.79086 14.2091 3 12 3C9.79086 3 8 4.79086 8 7C8 8.72783 9.09552 10.1998 10.6298 10.7592C10.8442 10.8373 11 11.0334 11 11.2616V18.5279C11 18.8384 11.0723 19.1446 11.2111 19.4223L12 21L12.7889 19.4223C12.9277 19.1446 13 18.8384 13 18.5279V11.2616ZM12.5 6C12.5 6.82843 11.8284 7.5 11 7.5C10.1716 7.5 9.5 6.82843 9.5 6C9.5 5.17157 10.1716 4.5 11 4.5C11.8284 4.5 12.5 5.17157 12.5 6Z" fill="#171717"/>
</svg>
