<svg width="24" height="24" viewBox="0 0 24 24" fill="none" xmlns="http://www.w3.org/2000/svg">
<path d="M2 9.20709C2 8.76164 2.53857 8.53856 2.85355 8.85354L4.20711 10.2071C4.39464 10.3946 4.649 10.5 4.91421 10.5H9.2802C9.91124 10.5 10.3845 9.92266 10.2608 9.30387L9.13134 3.65667C9.05187 3.25932 9.22005 2.85328 9.55722 2.62851L10.1621 2.22526C10.34 2.10662 10.5819 2.17393 10.6729 2.36745L14.2298 9.92578C14.3947 10.2763 14.7472 10.5 15.1346 10.5H20.5C21.3284 10.5 22 11.1716 22 12C22 12.8284 21.3284 13.5 20.5 13.5H15.1346C14.7472 13.5 14.3947 13.7237 14.2298 14.0742L10.6729 21.6325C10.5819 21.826 10.34 21.8934 10.1621 21.7747L9.55722 21.3715C9.22005 21.1467 9.05187 20.7407 9.13134 20.3433L10.2608 14.6961C10.3845 14.0773 9.91124 13.5 9.2802 13.5H4.91421C4.649 13.5 4.39464 13.6053 4.20711 13.7929L2.85355 15.1464C2.53857 15.4614 2 15.2383 2 14.7929V9.20709Z" fill="#171717"/>
</svg>
