<svg width="24" height="24" viewBox="0 0 24 24" fill="none" xmlns="http://www.w3.org/2000/svg">
<path fill-rule="evenodd" clip-rule="evenodd" d="M13 2.5774C12.3812 2.22013 11.6188 2.22013 11 2.5774L4.33974 6.4227C3.72094 6.77996 3.33974 7.44022 3.33974 8.15475V15.8453C3.33974 16.5599 3.72094 17.2201 4.33974 17.5774L11 21.4227C11.6188 21.78 12.3812 21.78 13 21.4227L19.6603 17.5774C20.2791 17.2201 20.6603 16.5599 20.6603 15.8453V8.15475C20.6603 7.44022 20.2791 6.77996 19.6603 6.4227L13 2.5774ZM12 16C14.2091 16 16 14.2092 16 12C16 9.79091 14.2091 8.00005 12 8.00005C9.79086 8.00005 8 9.79091 8 12C8 14.2092 9.79086 16 12 16Z" fill="#171717"/>
</svg>
