<svg width="24" height="24" viewBox="0 0 24 24" fill="none" xmlns="http://www.w3.org/2000/svg">
<path fill-rule="evenodd" clip-rule="evenodd" d="M7 3C4.79086 3 3 4.79086 3 7V17C3 19.2091 4.79086 21 7 21H17C19.2091 21 21 19.2091 21 17V7C21 4.79086 19.2091 3 17 3H7ZM7 5C5.89543 5 5 5.89543 5 7V8.8C5 8.91046 5.08954 9 5.2 9H6.87639C6.95215 9 7.0214 8.9572 7.05528 8.88944L8.85528 5.28944C8.92177 5.15646 8.82507 5 8.67639 5H7ZM19 6.88359C19 5.84331 18.1567 5 17.1164 5C17.0451 5 16.9798 5.04031 16.9479 5.10412L15.1447 8.71056C15.0782 8.84354 15.1749 9 15.3236 9H18.8C18.9105 9 19 8.91046 19 8.8V6.88359ZM12.691 9C12.8804 9 13.0535 8.893 13.1382 8.72361L14.6382 5.72361C14.8044 5.39116 14.5627 5 14.191 5H11.309C11.1196 5 10.9465 5.107 10.8618 5.27639L9.3618 8.27639C9.19558 8.60884 9.43733 9 9.80902 9H12.691Z" fill="#171717"/>
</svg>
