<svg width="24" height="24" viewBox="0 0 24 24" fill="none" xmlns="http://www.w3.org/2000/svg">
<path d="M5 7C5 6.44772 5.44772 6 6 6H8C8.55228 6 9 5.55228 9 5C9 4.44772 8.55228 4 8 4H6C4.34315 4 3 5.34315 3 7V9C3 9.55228 3.44772 10 4 10C4.55228 10 5 9.55228 5 9V7Z" fill="#171717"/>
<path d="M19 17C19 17.5523 18.5523 18 18 18H16C15.4477 18 15 18.4477 15 19C15 19.5523 15.4477 20 16 20H18C19.6569 20 21 18.6569 21 17V15C21 14.4477 20.5523 14 20 14C19.4477 14 19 14.4477 19 15V17Z" fill="#171717"/>
<path d="M19 7C19 6.44772 18.5523 6 18 6H16C15.4477 6 15 5.55228 15 5C15 4.44772 15.4477 4 16 4H18C19.6569 4 21 5.34315 21 7V9C21 9.55228 20.5523 10 20 10C19.4477 10 19 9.55228 19 9V7Z" fill="#171717"/>
<path d="M6 18C5.44772 18 5 17.5523 5 17L5 15C5 14.4477 4.55228 14 4 14C3.44772 14 3 14.4477 3 15V17C3 18.6569 4.34315 20 6 20H8C8.55228 20 9 19.5523 9 19C9 18.4477 8.55228 18 8 18H6Z" fill="#171717"/>
</svg>
