<svg width="24" height="24" viewBox="0 0 24 24" fill="none" xmlns="http://www.w3.org/2000/svg">
<path d="M7 7C7 7.55228 6.55228 8 6 8H4C3.44772 8 3 8.44772 3 9C3 9.55228 3.44772 10 4 10H6C7.65685 10 9 8.65685 9 7V5C9 4.44772 8.55228 4 8 4C7.44772 4 7 4.44772 7 5V7Z" fill="#171717"/>
<path d="M17 17C17 16.4477 17.4477 16 18 16H20C20.5523 16 21 15.5523 21 15C21 14.4477 20.5523 14 20 14H18C16.3431 14 15 15.3431 15 17V19C15 19.5523 15.4477 20 16 20C16.5523 20 17 19.5523 17 19V17Z" fill="#171717"/>
<path d="M7 17C7 16.4477 6.55228 16 6 16H4C3.44772 16 3 15.5523 3 15C3 14.4477 3.44772 14 4 14H6C7.65685 14 9 15.3431 9 17V19C9 19.5523 8.55228 20 8 20C7.44771 20 7 19.5523 7 19L7 17Z" fill="#171717"/>
<path d="M18 8C17.4477 8 17 7.55228 17 7V5C17 4.44772 16.5523 4 16 4C15.4477 4 15 4.44772 15 5V7C15 8.65685 16.3431 10 18 10H20C20.5523 10 21 9.55229 21 9C21 8.44772 20.5523 8 20 8H18Z" fill="#171717"/>
</svg>
