<svg width="24" height="24" viewBox="0 0 24 24" fill="none" xmlns="http://www.w3.org/2000/svg">
<path d="M5 7C5 6.44772 5.44772 6 6 6H8C8.55228 6 9 5.55228 9 5C9 4.44772 8.55228 4 8 4H6C4.34315 4 3 5.34315 3 7V9C3 9.55228 3.44772 10 4 10C4.55228 10 5 9.55228 5 9V7Z" fill="#171717"/>
<path d="M19 7C19 6.44772 18.5523 6 18 6H16C15.4477 6 15 5.55228 15 5C15 4.44772 15.4477 4 16 4H18C19.6569 4 21 5.34315 21 7V9C21 9.55228 20.5523 10 20 10C19.4477 10 19 9.55228 19 9V7Z" fill="#171717"/>
<path d="M6 18C5.44772 18 5 17.5523 5 17L5 15C5 14.4477 4.55228 14 4 14C3.44772 14 3 14.4477 3 15V17C3 18.6569 4.34315 20 6 20H8C8.55228 20 9 19.5523 9 19C9 18.4477 8.55228 18 8 18H6Z" fill="#171717"/>
<path fill-rule="evenodd" clip-rule="evenodd" d="M13 12C11.8954 12 11 12.8954 11 14V20C11 21.1046 11.8954 22 13 22H20C21.1046 22 22 21.1046 22 20V14C22 12.8954 21.1046 12 20 12H13ZM14.0251 19.4748C13.6346 19.0843 13.6346 18.4511 14.0251 18.0606L15.8536 16.2322H14.7322C14.1799 16.2322 13.7322 15.7845 13.7322 15.2322C13.7322 14.6799 14.1799 14.2322 14.7322 14.2322H18.2667L18.277 14.2322C18.5298 14.2346 18.782 14.3322 18.9749 14.5251C19.0708 14.621 19.1431 14.7315 19.1919 14.8494C19.2408 14.9673 19.2678 15.0966 19.2678 15.2322V18.7677C19.2678 19.32 18.8201 19.7677 18.2678 19.7677C17.7155 19.7677 17.2678 19.32 17.2678 18.7677V17.6464L15.4393 19.4748C15.0488 19.8654 14.4157 19.8654 14.0251 19.4748Z" fill="#171717"/>
</svg>
