<svg width="24" height="24" viewBox="0 0 24 24" fill="none" xmlns="http://www.w3.org/2000/svg">
<path d="M5 7C5 6.44772 5.44772 6 6 6H18C18.5523 6 19 6.44772 19 7V17C19 17.5523 18.5523 18 18 18H16C15.4477 18 15 18.4477 15 19C15 19.5523 15.4477 20 16 20H18C19.6569 20 21 18.6569 21 17V7C21 5.34315 19.6569 4 18 4H6C4.34315 4 3 5.34315 3 7V9C3 9.55228 3.44772 10 4 10C4.55228 10 5 9.55228 5 9V7Z" fill="#171717"/>
<path d="M6 12C4.34315 12 3 13.3431 3 15V17C3 18.6569 4.34315 20 6 20H10C11.6569 20 13 18.6569 13 17V15C13 13.3431 11.6569 12 10 12H6Z" fill="#171717"/>
</svg>
