<svg width="24" height="24" viewBox="0 0 24 24" fill="none" xmlns="http://www.w3.org/2000/svg">
<path fill-rule="evenodd" clip-rule="evenodd" d="M4.81571 6.84714C4.34274 6.93583 4 7.3488 4 7.83002V10.0001C4 10.5524 4.44772 11.0001 5 11.0001L19 11.0001C19.5523 11.0001 20 10.5524 20 10.0001V5.20502C20 4.57888 19.4311 4.10675 18.8157 4.22214L4.81571 6.84714ZM6.15162 8.63151C6.06371 8.648 6 8.72476 6 8.81421C6 8.91687 6.08322 9.00009 6.18588 9.00009L17.5 9.00009C17.7761 9.00009 18 8.77623 18 8.50009V7.0124C18 6.69934 17.7156 6.46327 17.4079 6.52097L6.15162 8.63151Z" fill="#171717"/>
<path d="M4 16.1701C4 16.6513 4.34274 17.0643 4.81571 17.153L18.8157 19.778C19.4311 19.8934 20 19.4213 20 18.7951V14.0001C20 13.4478 19.5523 13.0001 19 13.0001L5 13.0001C4.44772 13.0001 4 13.4478 4 14.0001V16.1701Z" fill="#171717"/>
</svg>
