<svg width="792" height="72" viewBox="0 0 792 72" fill="none" xmlns="http://www.w3.org/2000/svg">
<rect x="0.5" y="0.5" width="791" height="71" rx="4.5" stroke="#9747FF" stroke-dasharray="10 5"/>
<path fill-rule="evenodd" clip-rule="evenodd" d="M37.6959 27.7025C36.7593 26.7658 35.2407 26.7658 34.3041 27.7025L27.7025 34.3041C26.7658 35.2407 26.7658 36.7593 27.7025 37.6959L34.3041 44.2975C35.2407 45.2342 36.7593 45.2342 37.6959 44.2975L44.2975 37.6959C45.2342 36.7593 45.2342 35.2407 44.2975 34.3041L37.6959 27.7025ZM36.7929 32.7929C37.1834 32.4024 37.8166 32.4024 38.2071 32.7929L40.7071 35.2929C41.0976 35.6834 41.0976 36.3166 40.7071 36.7071L38.2071 39.2071C37.8166 39.5976 37.1834 39.5976 36.7929 39.2071C36.4024 38.8166 36.4024 38.1834 36.7929 37.7929L37.5858 37H35C34.4477 37 34 37.4477 34 38V38.5C34 39.0523 33.5523 39.5 33 39.5C32.4477 39.5 32 39.0523 32 38.5V38C32 36.3431 33.3431 35 35 35H37.5858L36.7929 34.2071C36.4024 33.8166 36.4024 33.1834 36.7929 32.7929Z" fill="#171717"/>
<path fill-rule="evenodd" clip-rule="evenodd" d="M85.6959 27.7025C84.7593 26.7658 83.2407 26.7658 82.3041 27.7025L75.7025 34.3041C74.7658 35.2407 74.7658 36.7593 75.7025 37.6959L82.3041 44.2975C83.2407 45.2342 84.7593 45.2342 85.6959 44.2975L92.2975 37.6959C93.2342 36.7593 93.2342 35.2407 92.2975 34.3041L85.6959 27.7025ZM84.7929 34.2071L85.5858 35H83C82.4477 35 82 34.5523 82 34V33.5C82 32.9477 81.5523 32.5 81 32.5C80.4477 32.5 80 32.9477 80 33.5V34C80 35.6569 81.3431 37 83 37H85.5858L84.7929 37.7929C84.4024 38.1834 84.4024 38.8166 84.7929 39.2071C85.1834 39.5976 85.8166 39.5976 86.2071 39.2071L88.7071 36.7071C89.0976 36.3166 89.0976 35.6834 88.7071 35.2929L86.2071 32.7929C85.8166 32.4024 85.1834 32.4024 84.7929 32.7929C84.4024 33.1834 84.4024 33.8166 84.7929 34.2071Z" fill="#171717"/>
<path fill-rule="evenodd" clip-rule="evenodd" d="M133.696 27.7025C132.759 26.7658 131.241 26.7658 130.304 27.7025L123.702 34.3041C122.766 35.2407 122.766 36.7593 123.702 37.6959L130.304 44.2975C131.241 45.2342 132.759 45.2342 133.696 44.2975L140.298 37.6959C141.234 36.7593 141.234 35.2407 140.298 34.3041L133.696 27.7025ZM132.793 32.7929C133.183 32.4024 133.817 32.4024 134.207 32.7929L136.707 35.2929C137.098 35.6834 137.098 36.3166 136.707 36.7071L134.207 39.2071C133.817 39.5976 133.183 39.5976 132.793 39.2071C132.402 38.8166 132.402 38.1834 132.793 37.7929L133.586 37H128C127.448 37 127 36.5523 127 36C127 35.4477 127.448 35 128 35H133.586L132.793 34.2071C132.402 33.8166 132.402 33.1834 132.793 32.7929Z" fill="#171717"/>
<path fill-rule="evenodd" clip-rule="evenodd" d="M178.304 27.7025C179.241 26.7658 180.759 26.7658 181.696 27.7025L188.298 34.3041C189.234 35.2407 189.234 36.7593 188.298 37.6959L181.696 44.2975C180.759 45.2342 179.241 45.2342 178.304 44.2975L171.702 37.6959C170.766 36.7593 170.766 35.2407 171.702 34.3041L178.304 27.7025ZM179.207 32.7929C178.817 32.4024 178.183 32.4024 177.793 32.7929L175.293 35.2929C174.902 35.6834 174.902 36.3166 175.293 36.7071L177.793 39.2071C178.183 39.5976 178.817 39.5976 179.207 39.2071C179.598 38.8166 179.598 38.1834 179.207 37.7929L178.414 37H181C181.552 37 182 37.4477 182 38V38.5C182 39.0523 182.448 39.5 183 39.5C183.552 39.5 184 39.0523 184 38.5V38C184 36.3431 182.657 35 181 35H178.414L179.207 34.2071C179.598 33.8166 179.598 33.1834 179.207 32.7929Z" fill="#171717"/>
<path fill-rule="evenodd" clip-rule="evenodd" d="M226.304 27.7025C227.241 26.7658 228.759 26.7658 229.696 27.7025L236.298 34.3041C237.234 35.2407 237.234 36.7593 236.298 37.6959L229.696 44.2975C228.759 45.2342 227.241 45.2342 226.304 44.2975L219.702 37.6959C218.766 36.7593 218.766 35.2407 219.702 34.3041L226.304 27.7025ZM227.207 34.2071L226.414 35H229C229.552 35 230 34.5523 230 34V33.5C230 32.9477 230.448 32.5 231 32.5C231.552 32.5 232 32.9477 232 33.5V34C232 35.6569 230.657 37 229 37H226.414L227.207 37.7929C227.598 38.1834 227.598 38.8166 227.207 39.2071C226.817 39.5976 226.183 39.5976 225.793 39.2071L223.293 36.7071C222.902 36.3166 222.902 35.6834 223.293 35.2929L225.793 32.7929C226.183 32.4024 226.817 32.4024 227.207 32.7929C227.598 33.1834 227.598 33.8166 227.207 34.2071Z" fill="#171717"/>
<path fill-rule="evenodd" clip-rule="evenodd" d="M274.304 27.7025C275.241 26.7658 276.759 26.7658 277.696 27.7025L284.298 34.3041C285.234 35.2407 285.234 36.7593 284.298 37.6959L277.696 44.2975C276.759 45.2342 275.241 45.2342 274.304 44.2975L267.702 37.6959C266.766 36.7593 266.766 35.2407 267.702 34.3041L274.304 27.7025ZM275.207 32.7929C274.817 32.4024 274.183 32.4024 273.793 32.7929L271.293 35.2929C270.902 35.6834 270.902 36.3166 271.293 36.7071L273.793 39.2071C274.183 39.5976 274.817 39.5976 275.207 39.2071C275.598 38.8166 275.598 38.1834 275.207 37.7929L274.414 37H280C280.552 37 281 36.5523 281 36C281 35.4477 280.552 35 280 35H274.414L275.207 34.2071C275.598 33.8166 275.598 33.1834 275.207 32.7929Z" fill="#171717"/>
<path fill-rule="evenodd" clip-rule="evenodd" d="M322.304 27.7025C323.241 26.7658 324.759 26.7658 325.696 27.7025L332.298 34.3041C333.234 35.2407 333.234 36.7593 332.298 37.6959L325.696 44.2975C324.759 45.2342 323.241 45.2342 322.304 44.2975L315.702 37.6959C314.766 36.7593 314.766 35.2407 315.702 34.3041L322.304 27.7025ZM327.207 35.2071C327.598 34.8166 327.598 34.1834 327.207 33.7929L324.707 31.2929C324.52 31.1054 324.265 31 324 31C323.735 31 323.48 31.1054 323.293 31.2929L320.793 33.7929C320.402 34.1834 320.402 34.8166 320.793 35.2071C321.183 35.5976 321.817 35.5976 322.207 35.2071L323 34.4142V37C323 37.5523 322.552 38 322 38H321.5C320.948 38 320.5 38.4477 320.5 39C320.5 39.5523 320.948 40 321.5 40H322C323.657 40 325 38.6569 325 37V34.4142L325.793 35.2071C326.183 35.5976 326.817 35.5976 327.207 35.2071Z" fill="#171717"/>
<path fill-rule="evenodd" clip-rule="evenodd" d="M373.696 27.7025C372.759 26.7658 371.241 26.7658 370.304 27.7025L363.702 34.3041C362.766 35.2407 362.766 36.7593 363.702 37.6959L370.304 44.2975C371.241 45.2342 372.759 45.2342 373.696 44.2975L380.298 37.6959C381.234 36.7593 381.234 35.2407 380.298 34.3041L373.696 27.7025ZM368.793 35.2071C368.402 34.8166 368.402 34.1834 368.793 33.7929L371.293 31.2929C371.48 31.1054 371.735 31 372 31C372.265 31 372.52 31.1054 372.707 31.2929L375.207 33.7929C375.598 34.1834 375.598 34.8166 375.207 35.2071C374.817 35.5976 374.183 35.5976 373.793 35.2071L373 34.4142V37C373 37.5523 373.448 38 374 38H374.5C375.052 38 375.5 38.4477 375.5 39C375.5 39.5523 375.052 40 374.5 40H374C372.343 40 371 38.6569 371 37V34.4142L370.207 35.2071C369.817 35.5976 369.183 35.5976 368.793 35.2071Z" fill="#171717"/>
<path fill-rule="evenodd" clip-rule="evenodd" d="M418.304 27.7025C419.241 26.7658 420.759 26.7658 421.696 27.7025L428.298 34.3041C429.234 35.2407 429.234 36.7593 428.298 37.6959L421.696 44.2975C420.759 45.2342 419.241 45.2342 418.304 44.2975L411.702 37.6959C410.766 36.7593 410.766 35.2407 411.702 34.3041L418.304 27.7025ZM423.207 35.2071C423.598 34.8166 423.598 34.1834 423.207 33.7929L420.707 31.2929C420.317 30.9024 419.683 30.9024 419.293 31.2929L416.793 33.7929C416.402 34.1834 416.402 34.8166 416.793 35.2071C417.183 35.5976 417.817 35.5976 418.207 35.2071L419 34.4142L419 40C419 40.5523 419.448 41 420 41C420.552 41 421 40.5523 421 40L421 34.4142L421.793 35.2071C422.183 35.5976 422.817 35.5976 423.207 35.2071Z" fill="#171717"/>
<path fill-rule="evenodd" clip-rule="evenodd" d="M459.702 37.6959L466.304 44.2975C467.241 45.2342 468.759 45.2342 469.696 44.2975L476.298 37.6959C477.234 36.7593 477.234 35.2407 476.298 34.3041L469.696 27.7025C468.759 26.7658 467.241 26.7658 466.304 27.7025L459.702 34.3041C458.766 35.2407 458.766 36.7593 459.702 37.6959ZM464.5 33C464.5 32.4477 464.948 32 465.5 32H466C467.657 32 469 33.3431 469 35V37.5858L469.793 36.7929C470.183 36.4024 470.817 36.4024 471.207 36.7929C471.598 37.1834 471.598 37.8166 471.207 38.2071L468.707 40.7071C468.52 40.8946 468.265 41 468 41C467.735 41 467.48 40.8946 467.293 40.7071L464.793 38.2071C464.402 37.8166 464.402 37.1834 464.793 36.7929C465.183 36.4024 465.817 36.4024 466.207 36.7929L467 37.5858V35C467 34.4477 466.552 34 466 34H465.5C464.948 34 464.5 33.5523 464.5 33Z" fill="#171717"/>
<path fill-rule="evenodd" clip-rule="evenodd" d="M524.298 37.6959L517.696 44.2975C516.759 45.2342 515.241 45.2342 514.304 44.2975L507.702 37.6959C506.766 36.7593 506.766 35.2407 507.702 34.3041L514.304 27.7025C515.241 26.7658 516.759 26.7658 517.696 27.7025L524.298 34.3041C525.234 35.2407 525.234 36.7593 524.298 37.6959ZM519.5 33C519.5 32.4477 519.052 32 518.5 32H518C516.343 32 515 33.3431 515 35V37.5858L514.207 36.7929C513.817 36.4024 513.183 36.4024 512.793 36.7929C512.402 37.1834 512.402 37.8166 512.793 38.2071L515.293 40.7071C515.48 40.8946 515.735 41 516 41C516.265 41 516.52 40.8946 516.707 40.7071L519.207 38.2071C519.598 37.8166 519.598 37.1834 519.207 36.7929C518.817 36.4024 518.183 36.4024 517.793 36.7929L517 37.5858V35C517 34.4477 517.448 34 518 34H518.5C519.052 34 519.5 33.5523 519.5 33Z" fill="#171717"/>
<path fill-rule="evenodd" clip-rule="evenodd" d="M562.304 27.7025C563.241 26.7658 564.759 26.7658 565.696 27.7025L572.298 34.3041C573.234 35.2407 573.234 36.7593 572.298 37.6959L565.696 44.2975C564.759 45.2342 563.241 45.2342 562.304 44.2975L555.702 37.6959C554.766 36.7593 554.766 35.2407 555.702 34.3041L562.304 27.7025ZM565 32V37.5858L565.793 36.7929C566.183 36.4024 566.817 36.4024 567.207 36.7929C567.598 37.1834 567.598 37.8166 567.207 38.2071L564.707 40.7071C564.317 41.0976 563.683 41.0976 563.293 40.7071L560.793 38.2071C560.402 37.8166 560.402 37.1834 560.793 36.7929C561.183 36.4024 561.817 36.4024 562.207 36.7929L563 37.5858V32C563 31.4477 563.448 31 564 31C564.552 31 565 31.4477 565 32Z" fill="#171717"/>
<path fill-rule="evenodd" clip-rule="evenodd" d="M613.696 27.7025C612.759 26.7658 611.241 26.7658 610.304 27.7025L603.702 34.3041C602.766 35.2407 602.766 36.7593 603.702 37.6959L610.304 44.2975C611.241 45.2342 612.759 45.2342 613.696 44.2975L620.298 37.6959C621.234 36.7593 621.234 35.2407 620.298 34.3041L613.696 27.7025ZM612.293 30.7929C612.683 30.4024 613.317 30.4024 613.707 30.7929L616.207 33.2929C616.598 33.6834 616.598 34.3166 616.207 34.7071L613.707 37.2071C613.317 37.5976 612.683 37.5976 612.293 37.2071C611.902 36.8166 611.902 36.1834 612.293 35.7929L613.086 35H611.25C610.283 35 609.5 35.7835 609.5 36.75C609.5 37.7165 610.283 38.5 611.25 38.5H613.5C614.052 38.5 614.5 38.9477 614.5 39.5C614.5 40.0523 614.052 40.5 613.5 40.5H611.25C609.179 40.5 607.5 38.8211 607.5 36.75C607.5 34.6789 609.179 33 611.25 33H613.086L612.293 32.2071C611.902 31.8166 611.902 31.1834 612.293 30.7929Z" fill="#171717"/>
<path fill-rule="evenodd" clip-rule="evenodd" d="M658.304 27.7025C659.241 26.7658 660.759 26.7658 661.696 27.7025L668.298 34.3041C669.234 35.2407 669.234 36.7593 668.298 37.6959L661.696 44.2975C660.759 45.2342 659.241 45.2342 658.304 44.2975L651.702 37.6959C650.766 36.7593 650.766 35.2407 651.702 34.3041L658.304 27.7025ZM659.707 30.7929C659.317 30.4024 658.683 30.4024 658.293 30.7929L655.793 33.2929C655.402 33.6834 655.402 34.3166 655.793 34.7071L658.293 37.2071C658.683 37.5976 659.317 37.5976 659.707 37.2071C660.098 36.8166 660.098 36.1834 659.707 35.7929L658.914 35H660.75C661.717 35 662.5 35.7835 662.5 36.75C662.5 37.7165 661.717 38.5 660.75 38.5H658.5C657.948 38.5 657.5 38.9477 657.5 39.5C657.5 40.0523 657.948 40.5 658.5 40.5H660.75C662.821 40.5 664.5 38.8211 664.5 36.75C664.5 34.6789 662.821 33 660.75 33H658.914L659.707 32.2071C660.098 31.8166 660.098 31.1834 659.707 30.7929Z" fill="#171717"/>
<path fill-rule="evenodd" clip-rule="evenodd" d="M706.304 27.7025C707.241 26.7658 708.759 26.7658 709.696 27.7025L716.298 34.3041C717.234 35.2407 717.234 36.7593 716.298 37.6959L709.696 44.2975C708.759 45.2342 707.241 45.2342 706.304 44.2975L699.702 37.6959C698.766 36.7593 698.766 35.2407 699.702 34.3041L706.304 27.7025ZM713.207 35.2071C713.598 34.8166 713.598 34.1834 713.207 33.7929L710.707 31.2929C710.317 30.9024 709.683 30.9024 709.293 31.2929L706.793 33.7929C706.402 34.1834 706.402 34.8166 706.793 35.2071C707.183 35.5976 707.817 35.5976 708.207 35.2071L709 34.4142V36.25C709 37.2165 708.216 38 707.25 38C706.284 38 705.5 37.2165 705.5 36.25V34C705.5 33.4477 705.052 33 704.5 33C703.948 33 703.5 33.4477 703.5 34V36.25C703.5 38.3211 705.179 40 707.25 40C709.321 40 711 38.3211 711 36.25V34.4142L711.793 35.2071C712.183 35.5976 712.817 35.5976 713.207 35.2071Z" fill="#171717"/>
<path fill-rule="evenodd" clip-rule="evenodd" d="M754.304 44.2975C755.241 45.2342 756.759 45.2342 757.696 44.2975L764.298 37.6959C765.234 36.7593 765.234 35.2407 764.298 34.3041L757.696 27.7025C756.759 26.7658 755.241 26.7658 754.304 27.7025L747.702 34.3041C746.766 35.2407 746.766 36.7593 747.702 37.6959L754.304 44.2975ZM752.5 39C751.948 39 751.5 38.5523 751.5 38V35.75C751.5 33.6789 753.179 32 755.25 32C757.321 32 759 33.6789 759 35.75V37.5858L759.793 36.7929C760.183 36.4024 760.817 36.4024 761.207 36.7929C761.598 37.1834 761.598 37.8166 761.207 38.2071L758.707 40.7071C758.317 41.0976 757.683 41.0976 757.293 40.7071L754.793 38.2071C754.402 37.8166 754.402 37.1834 754.793 36.7929C755.183 36.4024 755.817 36.4024 756.207 36.7929L757 37.5858V35.75C757 34.7835 756.216 34 755.25 34C754.284 34 753.5 34.7835 753.5 35.75V38C753.5 38.5523 753.052 39 752.5 39Z" fill="#171717"/>
</svg>
