<svg width="408" height="72" viewBox="0 0 408 72" fill="none" xmlns="http://www.w3.org/2000/svg">
<rect x="0.5" y="0.5" width="407" height="71" rx="4.5" stroke="#9747FF" stroke-dasharray="10 5"/>
<path fill-rule="evenodd" clip-rule="evenodd" d="M37.6959 44.2975C36.7593 45.2342 35.2407 45.2342 34.3041 44.2975L27.7025 37.6959C26.7658 36.7593 26.7658 35.2407 27.7025 34.3041L34.3041 27.7025C35.2407 26.7658 36.7593 26.7658 37.6959 27.7025L44.2975 34.3041C45.2342 35.2407 45.2342 36.7593 44.2975 37.6959L37.6959 44.2975ZM39.7071 32.2929C39.509 32.0948 39.2485 31.9972 38.9889 32.0001H35.4645C34.9122 32.0001 34.4645 32.4478 34.4645 33.0001C34.4645 33.5523 34.9122 34.0001 35.4645 34.0001H36.5857L34.8787 35.7071C34.6911 35.8946 34.4368 36 34.1716 36H32C31.4477 36 31 36.4477 31 37C31 37.5523 31.4477 38 32 38H34.1716C34.9672 38 35.7303 37.6839 36.2929 37.1213L38 35.4142V36.5356C38 37.0879 38.4478 37.5356 39 37.5356C39.5523 37.5356 40 37.0879 40 36.5356L40 33.0001C40 32.9627 39.9979 32.9255 39.9938 32.8887C39.9696 32.671 39.874 32.4598 39.7071 32.2929Z" fill="#171717"/>
<path fill-rule="evenodd" clip-rule="evenodd" d="M85.6959 27.7025C84.7593 26.7658 83.2407 26.7658 82.3041 27.7025L75.7025 34.3041C74.7658 35.2407 74.7658 36.7593 75.7025 37.6959L82.3041 44.2975C83.2407 45.2342 84.7593 45.2342 85.6959 44.2975L92.2975 37.6959C93.2342 36.7593 93.2342 35.2407 92.2975 34.3041L85.6959 27.7025ZM87.7071 39.7071C87.509 39.9052 87.2485 40.0028 86.9889 39.9999H83.4645C82.9122 39.9999 82.4645 39.5522 82.4645 38.9999C82.4645 38.4477 82.9122 37.9999 83.4645 37.9999H84.5857L82.8787 36.2929C82.6911 36.1054 82.4368 36 82.1716 36H80C79.4477 36 79 35.5523 79 35C79 34.4477 79.4477 34 80 34H82.1716C82.9672 34 83.7303 34.3161 84.2929 34.8787L86 36.5858V35.4644C86 34.9121 86.4478 34.4644 87 34.4644C87.5523 34.4644 88 34.9121 88 35.4644L88 38.9999C88 39.0373 87.9979 39.0745 87.9938 39.1113C87.9696 39.329 87.874 39.5402 87.7071 39.7071Z" fill="#171717"/>
<path fill-rule="evenodd" clip-rule="evenodd" d="M130.304 44.2975C131.241 45.2342 132.759 45.2342 133.696 44.2975L140.298 37.6959C141.234 36.7593 141.234 35.2407 140.298 34.3041L133.696 27.7025C132.759 26.7658 131.241 26.7658 130.304 27.7025L123.702 34.3041C122.766 35.2407 122.766 36.7593 123.702 37.6959L130.304 44.2975ZM128.293 32.2929C128.491 32.0948 128.751 31.9972 129.011 32.0001L132.536 32.0001C133.088 32.0001 133.536 32.4478 133.536 33.0001C133.536 33.5523 133.088 34.0001 132.536 34.0001H131.414L133.121 35.7071C133.309 35.8946 133.563 36 133.828 36L136 36C136.552 36 137 36.4477 137 37C137 37.5523 136.552 38 136 38H133.828C133.033 38 132.27 37.6839 131.707 37.1213L130 35.4142V36.5356C130 37.0879 129.552 37.5356 129 37.5356C128.448 37.5356 128 37.0879 128 36.5356V33.0001C128 32.9629 128.002 32.926 128.006 32.8894C128.03 32.6715 128.126 32.46 128.293 32.2929Z" fill="#171717"/>
<path fill-rule="evenodd" clip-rule="evenodd" d="M178.304 27.7025C179.241 26.7658 180.759 26.7658 181.696 27.7025L188.298 34.3041C189.234 35.2407 189.234 36.7593 188.298 37.6959L181.696 44.2975C180.759 45.2342 179.241 45.2342 178.304 44.2975L171.702 37.6959C170.766 36.7593 170.766 35.2407 171.702 34.3041L178.304 27.7025ZM176.293 39.7071C176.491 39.9052 176.751 40.0028 177.011 39.9999H180.536C181.088 39.9999 181.536 39.5522 181.536 38.9999C181.536 38.4477 181.088 37.9999 180.536 37.9999H179.414L181.121 36.2929C181.309 36.1054 181.563 36 181.828 36L184 36C184.552 36 185 35.5523 185 35C185 34.4477 184.552 34 184 34H181.828C181.033 34 180.27 34.3161 179.707 34.8787L178 36.5858V35.4644C178 34.9121 177.552 34.4644 177 34.4644C176.448 34.4644 176 34.9121 176 35.4644V38.9999C176 39.0371 176.002 39.074 176.006 39.1106C176.03 39.3285 176.126 39.54 176.293 39.7071Z" fill="#171717"/>
<path fill-rule="evenodd" clip-rule="evenodd" d="M226.304 44.2975C227.241 45.2342 228.759 45.2342 229.696 44.2975L236.298 37.6959C237.234 36.7593 237.234 35.2407 236.298 34.3041L229.696 27.7025C228.759 26.7658 227.241 26.7658 226.304 27.7025L219.702 34.3041C218.766 35.2407 218.766 36.7593 219.702 37.6959L226.304 44.2975ZM224.293 32.2929C224.491 32.0948 224.752 31.9971 225.011 32.0001L228.536 32.0001C229.088 32.0001 229.536 32.4478 229.536 33.0001C229.536 33.5523 229.088 34.0001 228.536 34.0001H227.414L229.121 35.7071C229.684 36.2697 230 37.0328 230 37.8284V40C230 40.5523 229.552 41 229 41C228.448 41 228 40.5523 228 40V37.8284C228 37.5632 227.895 37.3089 227.707 37.1213L226 35.4142V36.5356C226 37.0879 225.552 37.5356 225 37.5356C224.448 37.5356 224 37.0879 224 36.5356V33.0001C224 32.9631 224.002 32.9264 224.006 32.89C224.03 32.6719 224.126 32.4601 224.293 32.2929Z" fill="#171717"/>
<path fill-rule="evenodd" clip-rule="evenodd" d="M284.298 37.6959L277.696 44.2975C276.759 45.2342 275.241 45.2342 274.304 44.2975L267.702 37.6959C266.766 36.7593 266.766 35.2407 267.702 34.3041L274.304 27.7025C275.241 26.7658 276.759 26.7658 277.696 27.7025L284.298 34.3041C285.234 35.2407 285.234 36.7593 284.298 37.6959ZM279.707 32.2929C279.509 32.0948 279.248 31.9971 278.989 32.0001L275.465 32.0001C274.912 32.0001 274.465 32.4478 274.465 33.0001C274.465 33.5523 274.912 34.0001 275.465 34.0001H276.586L274.879 35.7071C274.316 36.2697 274 37.0328 274 37.8284V40C274 40.5523 274.448 41 275 41C275.552 41 276 40.5523 276 40V37.8284C276 37.5632 276.105 37.3089 276.293 37.1213L278 35.4142V36.5356C278 37.0879 278.448 37.5356 279 37.5356C279.552 37.5356 280 37.0879 280 36.5356V33.0001C280 32.9633 279.998 32.9268 279.994 32.8906C279.97 32.6723 279.874 32.4603 279.707 32.2929Z" fill="#171717"/>
<path fill-rule="evenodd" clip-rule="evenodd" d="M322.304 27.7025C323.241 26.7658 324.759 26.7658 325.696 27.7025L332.298 34.3041C333.234 35.2407 333.234 36.7593 332.298 37.6959L325.696 44.2975C324.759 45.2342 323.241 45.2342 322.304 44.2975L315.702 37.6959C314.766 36.7593 314.766 35.2407 315.702 34.3041L322.304 27.7025ZM320.293 39.7071C320.491 39.9052 320.752 40.0029 321.011 39.9999L324.536 39.9999C325.088 39.9999 325.536 39.5522 325.536 38.9999C325.536 38.4477 325.088 37.9999 324.536 37.9999H323.414L325.121 36.2929C325.684 35.7303 326 34.9672 326 34.1716V32C326 31.4477 325.552 31 325 31C324.448 31 324 31.4477 324 32V34.1716C324 34.4368 323.895 34.6911 323.707 34.8787L322 36.5858V35.4644C322 34.9121 321.552 34.4644 321 34.4644C320.448 34.4644 320 34.9121 320 35.4644V38.9999C320 39.0369 320.002 39.0736 320.006 39.11C320.03 39.3281 320.126 39.5399 320.293 39.7071Z" fill="#171717"/>
<path fill-rule="evenodd" clip-rule="evenodd" d="M380.298 34.3041L373.696 27.7025C372.759 26.7658 371.241 26.7658 370.304 27.7025L363.702 34.3041C362.766 35.2407 362.766 36.7593 363.702 37.6959L370.304 44.2975C371.241 45.2342 372.759 45.2342 373.696 44.2975L380.298 37.6959C381.234 36.7593 381.234 35.2407 380.298 34.3041ZM375.707 39.7071C375.509 39.9052 375.248 40.0029 374.989 39.9999L371.465 39.9999C370.912 39.9999 370.465 39.5522 370.465 38.9999C370.465 38.4477 370.912 37.9999 371.465 37.9999H372.586L370.879 36.2929C370.316 35.7303 370 34.9672 370 34.1716V32C370 31.4477 370.448 31 371 31C371.552 31 372 31.4477 372 32V34.1716C372 34.4368 372.105 34.6911 372.293 34.8787L374 36.5858V35.4644C374 34.9121 374.448 34.4644 375 34.4644C375.552 34.4644 376 34.9121 376 35.4644V38.9999C376 39.0367 375.998 39.0732 375.994 39.1094C375.97 39.3277 375.874 39.5397 375.707 39.7071Z" fill="#171717"/>
</svg>
