<svg width="24" height="24" viewBox="0 0 24 24" fill="none" xmlns="http://www.w3.org/2000/svg">
<path d="M7 9.5H11C12.933 9.5 14.5 11.067 14.5 13V17L14.4951 17.1797C14.4016 19.0292 12.8727 20.5 11 20.5H7C5.067 20.5 3.5 18.933 3.5 17V13C3.5 11.067 5.067 9.5 7 9.5ZM9 11C8.17157 11 7.5 11.6716 7.5 12.5V13.8838C6.91108 13.3552 6.00573 13.3732 5.43945 13.9395C4.85367 14.5252 4.85367 15.4748 5.43945 16.0605L7.93945 18.5605C8.38198 19.0031 9.03149 19.1103 9.57422 18.8857C9.75167 18.8123 9.91749 18.7036 10.0605 18.5605L12.5605 16.0605C13.1463 15.4748 13.1463 14.5252 12.5605 13.9395C11.9943 13.3732 11.0889 13.3553 10.5 13.8838V12.5C10.5 11.6716 9.8284 11 9 11ZM13 3.5H17C18.933 3.5 20.5 5.067 20.5 7V11C20.5 12.763 19.1958 14.2205 17.5 14.4629V13C17.5 9.41015 14.5899 6.5 11 6.5H9.53613C9.77848 4.8041 11.237 3.5 13 3.5Z" fill="#171717" stroke="#171717"/>
</svg>
