<svg width="24" height="24" viewBox="0 0 24 24" fill="none" xmlns="http://www.w3.org/2000/svg">
<path d="M6.5 11C6.5 14.5899 9.41015 17.5 13 17.5H14.4639C14.2215 19.1959 12.763 20.5 11 20.5H7C5.067 20.5 3.5 18.933 3.5 17V13C3.5 11.237 4.8041 9.77848 6.5 9.53613V11ZM13 3.5H17C18.933 3.5 20.5 5.067 20.5 7V11C20.5 12.933 18.933 14.5 17 14.5H13C11.067 14.5 9.5 12.933 9.5 11V7C9.5 5.067 11.067 3.5 13 3.5ZM16.0605 5.43945C15.618 4.99695 14.9685 4.8897 14.4258 5.11426C14.2483 5.18774 14.0825 5.2964 13.9395 5.43945L11.4395 7.93945C10.8537 8.52523 10.8537 9.47477 11.4395 10.0605C12.0059 10.627 12.9111 10.6442 13.5 10.1152V11.5C13.5 12.3284 14.1716 13 15 13C15.8284 13 16.5 12.3284 16.5 11.5V10.1152C17.0889 10.6442 17.9941 10.627 18.5605 10.0605C19.1463 9.47476 19.1463 8.52524 18.5605 7.93945L16.0605 5.43945Z" fill="#171717" stroke="#171717"/>
</svg>
