<svg width="24" height="24" viewBox="0 0 24 24" fill="none" xmlns="http://www.w3.org/2000/svg">
<path d="M6 11C6 10.4477 6.44772 10 7 10H17C17.5523 10 18 10.4477 18 11V13C18 13.5523 17.5523 14 17 14H7C6.44772 14 6 13.5523 6 13V11Z" fill="#171717"/>
<path d="M6 5C6 4.44772 6.44772 4 7 4H17C17.5523 4 18 4.44772 18 5V7C18 7.55228 17.5523 8 17 8H7C6.44772 8 6 7.55228 6 7V5Z" fill="#171717"/>
<path d="M6 17C6 16.4477 6.44772 16 7 16H17C17.5523 16 18 16.4477 18 17V19C18 19.5523 17.5523 20 17 20H7C6.44772 20 6 19.5523 6 19V17Z" fill="#171717"/>
</svg>
