<svg width="24" height="24" viewBox="0 0 24 24" fill="none" xmlns="http://www.w3.org/2000/svg">
<path d="M5.75816 7.17237C5.3367 6.75092 4.63782 6.78787 4.32584 7.29573C3.48492 8.66461 3 10.2757 3 12C3 16.9706 7.02944 21 12 21C16.9706 21 21 16.9706 21 12C21 7.02944 16.9706 3 12 3C10.2757 3 8.66461 3.48492 7.29573 4.32584C6.78787 4.63782 6.75092 5.3367 7.17237 5.75816L13.6586 12.2444C13.7846 12.3704 14 12.2811 14 12.1029V9C14 8.44772 14.4477 8 15 8C15.5523 8 16 8.44772 16 9V15C16 15.5523 15.5523 16 15 16H9C8.44772 16 8 15.5523 8 15C8 14.4477 8.44772 14 9 14H12.1029C12.2811 14 12.3704 13.7846 12.2444 13.6586L5.75816 7.17237Z" fill="#171717"/>
</svg>
