<svg width="24" height="24" viewBox="0 0 24 24" fill="none" xmlns="http://www.w3.org/2000/svg">
<path d="M12 3C7.02944 3 3 7.02944 3 12C3 16.9706 7.02944 21 12 21C16.9706 21 21 16.9706 21 12C21 10.2757 20.5151 8.66461 19.6742 7.29573C19.3622 6.78787 18.6633 6.75092 18.2418 7.17237L11.7556 13.6586C11.6296 13.7846 11.7189 14 11.8971 14H15C15.5523 14 16 14.4477 16 15C16 15.5523 15.5523 16 15 16H9C8.44772 16 8 15.5523 8 15V9C8 8.44772 8.44772 8 9 8C9.55228 8 10 8.44772 10 9V12.1029C10 12.2811 10.2154 12.3704 10.3414 12.2444L16.8276 5.75816C17.2491 5.33671 17.2121 4.63782 16.7043 4.32584C15.3354 3.48492 13.7243 3 12 3Z" fill="#171717"/>
</svg>
