<svg width="24" height="24" viewBox="0 0 24 24" fill="none" xmlns="http://www.w3.org/2000/svg">
<path d="M3.24616 9.9002C3.10767 10.4797 3.57568 11 4.17146 11L12.1028 11C12.281 11 12.3703 10.7846 12.2443 10.6586L10.2928 8.70711C9.90227 8.31658 9.90227 7.68342 10.2928 7.29289C10.6833 6.90237 11.3165 6.90237 11.707 7.29289L15.7068 11.2927C15.8879 11.4737 15.9999 11.7238 15.9999 12C15.9999 12.2766 15.8876 12.5269 15.7062 12.708L11.707 16.7071C11.3165 17.0976 10.6833 17.0976 10.2928 16.7071C9.90227 16.3166 9.90227 15.6834 10.2928 15.2929L12.2443 13.3414C12.3703 13.2154 12.281 13 12.1028 13L4.17146 13C3.57568 13 3.10767 13.5203 3.24616 14.0998C4.19205 18.0575 7.75235 21 11.9999 21C16.9705 21 20.9999 16.9706 20.9999 12C20.9999 7.02944 16.9705 3 11.9999 3C7.75235 3 4.19205 5.94246 3.24616 9.9002Z" fill="#171717"/>
</svg>
