<svg width="24" height="24" viewBox="0 0 24 24" fill="none" xmlns="http://www.w3.org/2000/svg">
<path d="M12 3C7.02944 3 3 7.02944 3 12C3 16.2476 5.94246 19.8079 9.90021 20.7537C10.4797 20.8922 11 20.4242 11 19.8284L11 11.8971C11 11.7189 10.7846 11.6296 10.6586 11.7556L8.70711 13.7071C8.31658 14.0976 7.68342 14.0976 7.29289 13.7071C6.90237 13.3166 6.90237 12.6834 7.29289 12.2929L11.2929 8.29289C11.2994 8.28642 11.3059 8.28005 11.3125 8.27378C11.4917 8.10408 11.7337 8 12 8C12.2769 8 12.5274 8.1125 12.7085 8.29429L16.7071 12.2929C17.0976 12.6834 17.0976 13.3166 16.7071 13.7071C16.3166 14.0976 15.6834 14.0976 15.2929 13.7071L13.3414 11.7556C13.2154 11.6296 13 11.7189 13 11.8971L13 19.8284C13 20.4242 13.5203 20.8922 14.0998 20.7537C18.0575 19.8078 21 16.2475 21 12C21 7.02944 16.9706 3 12 3Z" fill="#171717"/>
</svg>
