<svg width="24" height="24" viewBox="0 0 24 24" fill="none" xmlns="http://www.w3.org/2000/svg">
<path fill-rule="evenodd" clip-rule="evenodd" d="M10.481 3C10.8077 3 11.0459 3.30951 11.0164 3.63489C11.0056 3.75514 11 3.87692 11 4V5.00973C11 5.07109 10.9699 5.12747 10.9299 5.174C10.9034 5.20479 10.8805 5.23908 10.8618 5.27639L9.3618 8.27639C9.19558 8.60884 9.43733 9 9.80902 9H10.8C10.9105 9 11 9.08954 11 9.2V10C11 12.2091 12.7909 14 15 14H20.5C20.7761 14 21 14.2239 21 14.5V17C21 19.2091 19.2091 21 17 21H7C4.79086 21 3 19.2091 3 17V7C3 4.79086 4.79086 3 7 3H10.481ZM5 7C5 5.89543 5.89543 5 7 5H8.67639C8.82507 5 8.92177 5.15646 8.85528 5.28944L7.05528 8.88944C7.0214 8.9572 6.95215 9 6.87639 9H5.2C5.08954 9 5 8.91046 5 8.8V7Z" fill="#171717"/>
<path fill-rule="evenodd" clip-rule="evenodd" d="M15 1C13.3431 1 12 2.34315 12 4V10C12 11.6569 13.3431 13 15 13H21C22.6569 13 24 11.6569 24 10V4C24 2.34315 22.6569 1 21 1H15ZM15 8C15.5523 8 16 7.55228 16 7C16 6.44772 15.5523 6 15 6C14.4477 6 14 6.44772 14 7C14 7.55228 14.4477 8 15 8ZM19 7C19 7.55228 18.5523 8 18 8C17.4477 8 17 7.55228 17 7C17 6.44772 17.4477 6 18 6C18.5523 6 19 6.44772 19 7ZM22 7C22 7.55228 21.5523 8 21 8C20.4477 8 20 7.55228 20 7C20 6.44772 20.4477 6 21 6C21.5523 6 22 6.44772 22 7Z" fill="#171717"/>
</svg>
