<svg width="24" height="24" viewBox="0 0 24 24" fill="none" xmlns="http://www.w3.org/2000/svg">
<path fill-rule="evenodd" clip-rule="evenodd" d="M10.481 3C10.8077 3 11.0459 3.30951 11.0164 3.63489C11.0056 3.75514 11 3.87692 11 4V5.00973C11 5.07109 10.9699 5.12747 10.9299 5.174C10.9034 5.20479 10.8805 5.23908 10.8618 5.27639L9.3618 8.27639C9.19558 8.60884 9.43733 9 9.80902 9H10.8C10.9105 9 11 9.08954 11 9.2V10C11 12.2091 12.7909 14 15 14H20.5C20.7761 14 21 14.2239 21 14.5V17C21 19.2091 19.2091 21 17 21H7C4.79086 21 3 19.2091 3 17V7C3 4.79086 4.79086 3 7 3H10.481ZM5 7C5 5.89543 5.89543 5 7 5H8.67639C8.82507 5 8.92177 5.15646 8.85528 5.28944L7.05528 8.88944C7.0214 8.9572 6.95215 9 6.87639 9H5.2C5.08954 9 5 8.91046 5 8.8V7Z" fill="#171717"/>
<path fill-rule="evenodd" clip-rule="evenodd" d="M15 1C13.3431 1 12 2.34315 12 4V10C12 11.6569 13.3431 13 15 13H21C22.6569 13 24 11.6569 24 10V4C24 2.34315 22.6569 1 21 1H15ZM17.9643 3C16.8597 3 15.9643 3.89543 15.9643 5V6C15.9643 7.10457 16.8597 8 17.9643 8C19.0688 8 19.9643 7.10457 19.9643 6V5C19.9643 3.89543 19.0688 3 17.9643 3ZM15.3662 7.5C15.09 7.02171 14.4785 6.85783 14.0002 7.13397C13.5219 7.41012 13.358 8.02171 13.6341 8.5C14.073 9.2601 14.7042 9.89128 15.4643 10.3301C16.2244 10.769 17.0866 11 17.9643 11C18.842 11 19.7042 10.769 20.4643 10.3301C21.2244 9.89128 21.8556 9.2601 22.2944 8.5C22.5705 8.02171 22.4067 7.41012 21.9284 7.13397C21.4501 6.85783 20.8385 7.02171 20.5623 7.5C20.299 7.95606 19.9203 8.33477 19.4643 8.59808C19.0082 8.86138 18.4909 9 17.9643 9C17.4377 9 16.9203 8.86138 16.4643 8.59808C16.0082 8.33477 15.6295 7.95606 15.3662 7.5Z" fill="#171717"/>
</svg>
