<svg width="24" height="24" viewBox="0 0 24 24" fill="none" xmlns="http://www.w3.org/2000/svg">
<path fill-rule="evenodd" clip-rule="evenodd" d="M10.481 3C10.8077 3 11.0459 3.30951 11.0164 3.63489C11.0056 3.75514 11 3.87692 11 4V5.00973C11 5.07109 10.9699 5.12747 10.9299 5.174C10.9034 5.20479 10.8805 5.23908 10.8618 5.27639L9.3618 8.27639C9.19558 8.60884 9.43733 9 9.80902 9H10.8C10.9105 9 11 9.08954 11 9.2V10C11 12.2091 12.7909 14 15 14H20.5C20.7761 14 21 14.2239 21 14.5V17C21 19.2091 19.2091 21 17 21H7C4.79086 21 3 19.2091 3 17V7C3 4.79086 4.79086 3 7 3H10.481ZM5 7C5 5.89543 5.89543 5 7 5H8.67639C8.82507 5 8.92177 5.15646 8.85528 5.28944L7.05528 8.88944C7.0214 8.9572 6.95215 9 6.87639 9H5.2C5.08954 9 5 8.91046 5 8.8V7Z" fill="#171717"/>
<path fill-rule="evenodd" clip-rule="evenodd" d="M15 1C13.3431 1 12 2.34315 12 4V10C12 11.6569 13.3431 13 15 13H21C22.6569 13 24 11.6569 24 10V4C24 2.34315 22.6569 1 21 1H15ZM16.8519 3.22836C17.4001 3.0013 18.0033 2.94189 18.5853 3.05765C19.1672 3.1734 19.7018 3.45912 20.1213 3.87868C20.5118 4.2692 20.5118 4.90237 20.1213 5.29289C19.7308 5.68342 19.0976 5.68342 18.7071 5.29289C18.5673 5.15304 18.3891 5.0578 18.1951 5.01922C18.0011 4.98063 17.8 5.00043 17.6173 5.07612C17.4346 5.15181 17.2784 5.27998 17.1685 5.44443C17.0586 5.60888 17 5.80222 17 6V7L21 7C21.5523 7 22 7.44772 22 8V10C22 10.5523 21.5523 11 21 11H15C14.4477 11 14 10.5523 14 10V8C14 7.44772 14.4477 7 15 7V6C15 5.40666 15.1759 4.82664 15.5056 4.33329C15.8352 3.83994 16.3038 3.45543 16.8519 3.22836Z" fill="#171717"/>
</svg>
