<svg width="24" height="24" viewBox="0 0 24 24" fill="none" xmlns="http://www.w3.org/2000/svg">
<path d="M22 7C22 5.89543 21.1046 5 20 5H12C10.8954 5 10 5.89543 10 7V9C10 10.1046 10.8954 11 12 11H20C21.1046 11 22 10.1046 22 9V7Z" fill="#171717"/>
<path d="M22 18C22 17.4477 21.5523 17 21 17H11C10.4477 17 10 17.4477 10 18C10 18.5523 10.4477 19 11 19H21C21.5523 19 22 18.5523 22 18Z" fill="#171717"/>
<path d="M22 14C22 13.4477 21.5523 13 21 13H11C10.4477 13 10 13.4477 10 14C10 14.5523 10.4477 15 11 15H21C21.5523 15 22 14.5523 22 14Z" fill="#171717"/>
<path d="M5.70924 5.29503C5.52811 5.11281 5.27723 5 5 5C4.7381 5 4.49972 5.10068 4.32144 5.26545C4.31176 5.27439 4.30224 5.28354 4.29289 5.29289L2.29289 7.29289C1.90237 7.68342 1.90237 8.31658 2.29289 8.70711C2.68342 9.09763 3.31658 9.09763 3.70711 8.70711L4 8.41421V18C4 18.5523 4.44772 19 5 19C5.55228 19 6 18.5523 6 18V8.41421L6.29289 8.70711C6.68342 9.09763 7.31658 9.09763 7.70711 8.70711C8.09763 8.31658 8.09763 7.68342 7.70711 7.29289L5.70924 5.29503Z" fill="#171717"/>
</svg>
