<svg width="24" height="24" viewBox="0 0 24 24" fill="none" xmlns="http://www.w3.org/2000/svg">
<path d="M22 11C22 9.89543 21.1046 9 20 9H12C10.8954 9 10 9.89543 10 11V13C10 14.1046 10.8954 15 12 15H20C21.1046 15 22 14.1046 22 13V11Z" fill="#171717"/>
<path d="M22 18C22 17.4477 21.5523 17 21 17H11C10.4477 17 10 17.4477 10 18C10 18.5523 10.4477 19 11 19H21C21.5523 19 22 18.5523 22 18Z" fill="#171717"/>
<path d="M22 6C22 5.44772 21.5523 5 21 5H11C10.4477 5 10 5.44772 10 6C10 6.55228 10.4477 7 11 7H21C21.5523 7 22 6.55228 22 6Z" fill="#171717"/>
<path d="M6 8.41421V15.5858L6.29289 15.2929C6.68342 14.9024 7.31658 14.9024 7.70711 15.2929C8.09763 15.6834 8.09763 16.3166 7.70711 16.7071L5.70929 18.7049C5.52816 18.8872 5.27725 19 5 19C4.7381 19 4.49972 18.8993 4.32144 18.7346C4.31176 18.7256 4.30224 18.7165 4.29289 18.7071L2.29289 16.7071C1.90237 16.3166 1.90237 15.6834 2.29289 15.2929C2.68342 14.9024 3.31658 14.9024 3.70711 15.2929L4 15.5858V8.41421L3.70711 8.70711C3.31658 9.09763 2.68342 9.09763 2.29289 8.70711C1.90237 8.31658 1.90237 7.68342 2.29289 7.29289L4.29289 5.29289C4.30192 5.28386 4.3111 5.27502 4.32043 5.26638C4.49882 5.10106 4.73761 5 5 5C5.27716 5 5.52799 5.11276 5.70911 5.2949L7.70711 7.29289C8.09763 7.68342 8.09763 8.31658 7.70711 8.70711C7.31658 9.09763 6.68342 9.09763 6.29289 8.70711L6 8.41421Z" fill="#171717"/>
</svg>
