<svg width="24" height="24" viewBox="0 0 24 24" fill="none" xmlns="http://www.w3.org/2000/svg">
<path d="M22 15C22 13.8954 21.1046 13 20 13H10C8.89543 13 8 13.8954 8 15V17C8 18.1046 8.89543 19 10 19H20C21.1046 19 22 18.1046 22 17V15Z" fill="#171717"/>
<path d="M22 10C22 9.44772 21.5523 9 21 9H9C8.44772 9 8 9.44772 8 10C8 10.5523 8.44772 11 9 11H21C21.5523 11 22 10.5523 22 10Z" fill="#171717"/>
<path d="M22 6C22 5.44772 21.5523 5 21 5H9C8.44772 5 8 5.44772 8 6C8 6.55228 8.44772 7 9 7H21C21.5523 7 22 6.55228 22 6Z" fill="#171717"/>
<path d="M3.70711 18.7071L5.70711 16.7071C6.09763 16.3166 6.09763 15.6834 5.70711 15.2929L3.70711 13.2929C3.31658 12.9024 2.68342 12.9024 2.29289 13.2929C1.90237 13.6834 1.90237 14.3166 2.29289 14.7071L3.58579 16L2.29289 17.2929C1.90237 17.6834 1.90237 18.3166 2.29289 18.7071C2.68342 19.0976 3.31658 19.0976 3.70711 18.7071Z" fill="#171717"/>
</svg>
