<svg width="24" height="24" viewBox="0 0 24 24" fill="none" xmlns="http://www.w3.org/2000/svg">
<path fill-rule="evenodd" clip-rule="evenodd" d="M12 21C16.9706 21 21 16.9706 21 12C21 7.02944 16.9706 3 12 3C7.02944 3 3 7.02944 3 12C3 16.9706 7.02944 21 12 21ZM13.1481 9.22842C12.7841 9.07766 12.394 9.00006 12 9.00006L12 15.0001C12.394 15.0001 12.7841 14.9225 13.1481 14.7717C13.512 14.6209 13.8428 14.4 14.1213 14.1214C14.3999 13.8428 14.6209 13.5121 14.7716 13.1481C14.9224 12.7841 15 12.394 15 12.0001C15 11.6061 14.9224 11.216 14.7716 10.852C14.6209 10.488 14.3999 10.1573 14.1213 9.87874C13.8428 9.60016 13.512 9.37919 13.1481 9.22842Z" fill="#171717"/>
</svg>
