<svg width="24" height="24" viewBox="0 0 24 24" fill="none" xmlns="http://www.w3.org/2000/svg">
<path fill-rule="evenodd" clip-rule="evenodd" d="M5 20H19C20.6569 20 22 18.6569 22 17V11.2426C22 10.447 21.6839 9.68393 21.1213 9.12132L16.8787 4.87868C16.3161 4.31607 15.553 4 14.7574 4H5C3.34315 4 2 5.34315 2 7V17C2 18.6569 3.34315 20 5 20ZM15 10C15 10.5523 15.4477 11 16 11H18.7929C19.2383 11 19.4614 10.4614 19.1464 10.1464L15.8536 6.85355C15.5386 6.53857 15 6.76166 15 7.20711V10ZM9 9.5C9.55228 9.5 10 9.94772 10 10.5V12H11.5C12.0523 12 12.5 12.4477 12.5 13C12.5 13.5523 12.0523 14 11.5 14H10V15.5C10 16.0523 9.55228 16.5 9 16.5C8.44771 16.5 8 16.0523 8 15.5V14H6.5C5.94771 14 5.5 13.5523 5.5 13C5.5 12.4477 5.94771 12 6.5 12H8V10.5C8 9.94772 8.44771 9.5 9 9.5Z" fill="#171717"/>
</svg>
