<svg width="24" height="24" viewBox="0 0 24 24" fill="none" xmlns="http://www.w3.org/2000/svg">
<path fill-rule="evenodd" clip-rule="evenodd" d="M5 20H19C20.6569 20 22 18.6569 22 17V11.2426C22 10.447 21.6839 9.68393 21.1213 9.12132L16.8787 4.87868C16.3161 4.31607 15.553 4 14.7574 4H5C3.34315 4 2 5.34315 2 7V17C2 18.6569 3.34315 20 5 20ZM15 10C15 10.5523 15.4477 11 16 11H18.7929C19.2383 11 19.4614 10.4614 19.1464 10.1464L15.8536 6.85355C15.5386 6.53857 15 6.76166 15 7.20711V10ZM9.01041 11.525C9.40093 11.1345 10.0341 11.1345 10.4246 11.525C10.8151 11.9156 10.8151 12.5487 10.4246 12.9393L8.59619 14.7677H9.71751C10.2698 14.7677 10.7175 15.2154 10.7175 15.7677C10.7175 16.32 10.2698 16.7677 9.71751 16.7677L6.18198 16.7677C5.91676 16.7677 5.66241 16.6623 5.47487 16.4748C5.28734 16.2873 5.18198 16.0325 5.18198 15.7673V12.2322C5.18198 11.6799 5.6297 11.2322 6.18198 11.2322C6.73426 11.2322 7.18198 11.6799 7.18198 12.2322V13.3535L9.01041 11.525Z" fill="#171717"/>
</svg>
