<svg width="24" height="24" viewBox="0 0 24 24" fill="none" xmlns="http://www.w3.org/2000/svg">
<path fill-rule="evenodd" clip-rule="evenodd" d="M5 20H19C20.6569 20 22 18.6569 22 17V11.2426C22 10.447 21.6839 9.68393 21.1213 9.12132L16.8787 4.87868C16.3161 4.31607 15.553 4 14.7574 4H5C3.34315 4 2 5.34315 2 7V17C2 18.6569 3.34315 20 5 20ZM15 10C15 10.5523 15.4477 11 16 11H18.7929C19.2383 11 19.4614 10.4614 19.1464 10.1464L15.8536 6.85355C15.5386 6.53857 15 6.76166 15 7.20711V10ZM8.5 10.5C9.05228 10.5 9.5 10.9477 9.5 11.5V14.0858L10.2929 13.2929C10.6834 12.9024 11.3166 12.9024 11.7071 13.2929C12.0976 13.6834 12.0976 14.3166 11.7071 14.7071L9.20711 17.2071C9.01957 17.3946 8.76522 17.5 8.5 17.5C8.23478 17.5 7.98016 17.3944 7.79263 17.2068L5.29289 14.7071C4.90237 14.3166 4.90237 13.6834 5.29289 13.2929C5.68342 12.9024 6.31658 12.9024 6.70711 13.2929L7.5 14.0858V11.5C7.5 10.9477 7.94772 10.5 8.5 10.5Z" fill="#171717"/>
</svg>
