<svg width="24" height="24" viewBox="0 0 24 24" fill="none" xmlns="http://www.w3.org/2000/svg">
<path fill-rule="evenodd" clip-rule="evenodd" d="M5 20H19C20.6569 20 22 18.6569 22 17V11.2426C22 10.447 21.6839 9.68393 21.1213 9.12132L16.8787 4.87868C16.3161 4.31607 15.553 4 14.7574 4H5C3.34315 4 2 5.34315 2 7V17C2 18.6569 3.34315 20 5 20ZM15 10C15 10.5523 15.4477 11 16 11H18.7929C19.2383 11 19.4614 10.4614 19.1464 10.1464L15.8536 6.85355C15.5386 6.53857 15 6.76166 15 7.20711V10ZM5.18186 12.1821C5.18186 12.0465 5.20884 11.9172 5.25774 11.7993C5.408 11.4369 5.76516 11.1821 6.18186 11.1821H9.71739C10.2697 11.1821 10.7174 11.6298 10.7174 12.1821C10.7174 12.7343 10.2697 13.1821 9.71739 13.1821H8.59607L10.4245 15.0105C10.815 15.401 10.815 16.0342 10.4245 16.4247C10.034 16.8152 9.40081 16.8152 9.01029 16.4247L7.18186 14.5963V15.7176C7.18186 16.2699 6.73414 16.7176 6.18186 16.7176C5.62957 16.7176 5.18186 16.2699 5.18186 15.7176L5.18186 12.1821Z" fill="#171717"/>
</svg>
