<svg width="24" height="24" viewBox="0 0 24 24" fill="none" xmlns="http://www.w3.org/2000/svg">
<path fill-rule="evenodd" clip-rule="evenodd" d="M5 20H19C20.6569 20 22 18.6569 22 17V11.2426C22 10.447 21.6839 9.68393 21.1213 9.12132L16.8787 4.87868C16.3161 4.31607 15.553 4 14.7574 4H5C3.34315 4 2 5.34315 2 7V17C2 18.6569 3.34315 20 5 20ZM15 10C15 10.5523 15.4477 11 16 11H18.7929C19.2383 11 19.4614 10.4614 19.1464 10.1464L15.8536 6.85355C15.5386 6.53857 15 6.76166 15 7.20711V10ZM5.47487 16.4748C5.08435 16.0843 5.08435 15.4511 5.47487 15.0606L7.3033 13.2322H6.18198C5.62969 13.2322 5.18198 12.7845 5.18198 12.2322C5.18198 11.6799 5.62969 11.2322 6.18198 11.2322L9.71751 11.2322C9.98273 11.2322 10.2371 11.3375 10.4246 11.5251C10.6122 11.7126 10.7175 11.9674 10.7175 12.2326V15.7677C10.7175 16.32 10.2698 16.7677 9.71751 16.7677C9.16523 16.7677 8.71751 16.32 8.71751 15.7677V14.6464L6.88909 16.4748C6.49856 16.8654 5.8654 16.8654 5.47487 16.4748Z" fill="#171717"/>
</svg>
