<svg width="24" height="24" viewBox="0 0 24 24" fill="none" xmlns="http://www.w3.org/2000/svg">
<path fill-rule="evenodd" clip-rule="evenodd" d="M5 20H19C20.6569 20 22 18.6569 22 17V11.2426C22 10.447 21.6839 9.68393 21.1213 9.12132L16.8787 4.87868C16.3161 4.31607 15.553 4 14.7574 4H5C3.34315 4 2 5.34315 2 7V17C2 18.6569 3.34315 20 5 20ZM15 10C15 10.5523 15.4477 11 16 11H18.7929C19.2383 11 19.4614 10.4614 19.1464 10.1464L15.8536 6.85355C15.5386 6.53857 15 6.76166 15 7.20711V10ZM10.7174 15.7176C10.7174 15.8532 10.6904 15.9825 10.6416 16.1004C10.4913 16.4627 10.1341 16.7176 9.71743 16.7176H6.1819C5.62961 16.7176 5.1819 16.2699 5.1819 15.7176C5.1819 15.1653 5.62961 14.7176 6.1819 14.7176L7.30322 14.7176L5.47479 12.8892C5.08427 12.4986 5.08427 11.8655 5.47479 11.475C5.86532 11.0844 6.49848 11.0844 6.88901 11.475L8.71743 13.3034V12.1821C8.71743 11.6298 9.16515 11.1821 9.71743 11.1821C10.2697 11.1821 10.7174 11.6298 10.7174 12.1821L10.7174 15.7176Z" fill="#171717"/>
</svg>
