<svg width="24" height="24" viewBox="0 0 24 24" fill="none" xmlns="http://www.w3.org/2000/svg">
<path fill-rule="evenodd" clip-rule="evenodd" d="M2 17C2 18.6569 3.34315 20 5 20H19C20.6569 20 22 18.6569 22 17V11.2426C22 10.447 21.6839 9.68393 21.1213 9.12132L16.8787 4.87868C16.3161 4.31607 15.553 4 14.7574 4H5C3.34315 4 2 5.34315 2 7V17ZM15 10C15 10.5523 15.4477 11 16 11H18.7929C19.2383 11 19.4614 10.4614 19.1464 10.1464L15.8536 6.85355C15.5386 6.53857 15 6.76166 15 7.20711V10ZM5.29289 14.6569C5.19702 14.5611 5.12468 14.4506 5.07588 14.3326C4.92591 13.9701 4.99825 13.5374 5.29289 13.2427L7.79289 10.7427C8.18342 10.3522 8.81658 10.3522 9.20711 10.7427C9.59763 11.1332 9.59763 11.7664 9.20711 12.1569L8.41421 12.9498H11C11.5523 12.9498 12 13.3975 12 13.9498C12 14.5021 11.5523 14.9498 11 14.9498H8.41421L9.20711 15.7427C9.59763 16.1332 9.59763 16.7664 9.20711 17.1569C8.81658 17.5475 8.18342 17.5475 7.79289 17.1569L5.29289 14.6569Z" fill="#171717"/>
</svg>
