<svg width="24" height="24" viewBox="0 0 24 24" fill="none" xmlns="http://www.w3.org/2000/svg">
<path d="M9 11C8.44772 11 8 11.4477 8 12V13H10V12C10 11.4477 9.55228 11 9 11Z" fill="#171717"/>
<path fill-rule="evenodd" clip-rule="evenodd" d="M2 17C2 18.6569 3.34315 20 5 20H19C20.6569 20 22 18.6569 22 17V11.2426C22 10.447 21.6839 9.68393 21.1213 9.12132L16.8787 4.87868C16.3161 4.31607 15.553 4 14.7574 4H5C3.34315 4 2 5.34315 2 7V17ZM15 10C15 10.5523 15.4477 11 16 11H18.7929C19.2383 11 19.4614 10.4614 19.1464 10.1464L15.8536 6.85355C15.5386 6.53857 15 6.76166 15 7.20711V10ZM13 14C13 13.4477 12.5523 13 12 13V12C12 10.3431 10.6569 9 9 9C7.34315 9 6 10.3431 6 12V13C5.44772 13 5 13.4477 5 14V16C5 16.5523 5.44772 17 6 17H12C12.5523 17 13 16.5523 13 16V14Z" fill="#171717"/>
</svg>
