<svg width="24" height="24" viewBox="0 0 24 24" fill="none" xmlns="http://www.w3.org/2000/svg">
<path fill-rule="evenodd" clip-rule="evenodd" d="M5 20H19C20.6569 20 22 18.6569 22 17V11.2426C22 10.447 21.6839 9.68393 21.1213 9.12132L16.8787 4.87868C16.3161 4.31607 15.553 4 14.7574 4H5C3.34315 4 2 5.34315 2 7V17C2 18.6569 3.34315 20 5 20ZM15 10C15 10.5523 15.4477 11 16 11H18.7929C19.2383 11 19.4614 10.4614 19.1464 10.1464L15.8536 6.85355C15.5386 6.53857 15 6.76166 15 7.20711V10ZM9.46427 9C8.3597 9 7.46427 9.89543 7.46427 11V12C7.46427 13.1046 8.3597 14 9.46427 14C10.5688 14 11.4643 13.1046 11.4643 12V11C11.4643 9.89543 10.5688 9 9.46427 9ZM6.86619 13.5C6.59005 13.0217 5.97846 12.8578 5.50017 13.134C5.02187 13.4101 4.858 14.0217 5.13414 14.5C5.57298 15.2601 6.20417 15.8913 6.96427 16.3301C7.72436 16.769 8.58659 17 9.46427 17C10.342 17 11.2042 16.769 11.9643 16.3301C12.7244 15.8913 13.3556 15.2601 13.7944 14.5C14.0705 14.0217 13.9067 13.4101 13.4284 13.134C12.9501 12.8578 12.3385 13.0217 12.0623 13.5C11.799 13.9561 11.4203 14.3348 10.9643 14.5981C10.5082 14.8614 9.99088 15 9.46427 15C8.93766 15 8.42033 14.8614 7.96427 14.5981C7.50821 14.3348 7.1295 13.9561 6.86619 13.5Z" fill="#171717"/>
</svg>
