<svg width="24" height="24" viewBox="0 0 24 24" fill="none" xmlns="http://www.w3.org/2000/svg">
<path fill-rule="evenodd" clip-rule="evenodd" d="M2 17C2 18.6569 3.34315 20 5 20H19C20.6569 20 22 18.6569 22 17V11.2426C22 10.447 21.6839 9.68393 21.1213 9.12132L16.8787 4.87868C16.3161 4.31607 15.553 4 14.7574 4H5C3.34315 4 2 5.34315 2 7V17ZM15 10C15 10.5523 15.4477 11 16 11H18.7929C19.2383 11 19.4614 10.4614 19.1464 10.1464L15.8536 6.85355C15.5386 6.53857 15 6.76166 15 7.20711V10ZM6 9C5.44772 9 5 9.44772 5 10C5 10.5523 5.44772 11 6 11C6.65661 11 7.30679 11.1293 7.91342 11.3806C8.52005 11.6319 9.07124 12.0002 9.53553 12.4645C9.99983 12.9288 10.3681 13.48 10.6194 14.0866C10.8707 14.6932 11 15.3434 11 16C11 16.5523 11.4477 17 12 17C12.5523 17 13 16.5523 13 16C13 15.0807 12.8189 14.1705 12.4672 13.3212C12.1154 12.4719 11.5998 11.7003 10.9497 11.0503C10.2997 10.4002 9.52806 9.88463 8.67878 9.53284C7.8295 9.18106 6.91925 9 6 9ZM5 13C5 12.4477 5.44772 12 6 12C6.52529 12 7.04543 12.1035 7.53073 12.3045C8.01604 12.5055 8.45699 12.8001 8.82843 13.1716C9.19986 13.543 9.4945 13.984 9.69552 14.4693C9.89654 14.9546 10 15.4747 10 16C10 16.5523 9.55228 17 9 17C8.44772 17 8 16.5523 8 16C8 15.7374 7.94827 15.4773 7.84776 15.2346C7.74725 14.992 7.59993 14.7715 7.41421 14.5858C7.2285 14.4001 7.00802 14.2528 6.76537 14.1522C6.52272 14.0517 6.26264 14 6 14C5.44772 14 5 13.5523 5 13ZM7 16C7 16.5523 6.55228 17 6 17C5.44772 17 5 16.5523 5 16C5 15.4477 5.44772 15 6 15C6.55228 15 7 15.4477 7 16Z" fill="#171717"/>
</svg>
