<svg width="24" height="24" viewBox="0 0 24 24" fill="none" xmlns="http://www.w3.org/2000/svg">
<path fill-rule="evenodd" clip-rule="evenodd" d="M7 2C5.34315 2 4 3.34315 4 5V19C4 20.6569 5.34315 22 7 22H17C18.6569 22 20 20.6569 20 19V9.24264C20 8.44699 19.6839 7.68393 19.1213 7.12132L14.8787 2.87868C14.3161 2.31607 13.553 2 12.7574 2H7ZM13 8C13 8.55228 13.4477 9 14 9H16.7929C17.2383 9 17.4614 8.46143 17.1464 8.14645L13.8536 4.85355C13.5386 4.53857 13 4.76165 13 5.20711V8ZM12.4749 13.5754C12.8654 13.9659 12.8654 14.5991 12.4749 14.9896L10.6464 16.818H11.7678C12.3201 16.818 12.7678 17.2657 12.7678 17.818C12.7678 18.3703 12.3201 18.818 11.7678 18.818H8.23223C7.96702 18.818 7.71266 18.7127 7.52513 18.5251C7.33759 18.3376 7.23223 18.0829 7.23223 17.8176L7.23223 14.2825C7.23223 13.7302 7.67995 13.2825 8.23223 13.2825C8.78452 13.2825 9.23223 13.7302 9.23223 14.2825L9.23223 15.4038L11.0607 13.5754C11.4512 13.1849 12.0843 13.1849 12.4749 13.5754Z" fill="#171717"/>
</svg>
