<svg width="24" height="24" viewBox="0 0 24 24" fill="none" xmlns="http://www.w3.org/2000/svg">
<path fill-rule="evenodd" clip-rule="evenodd" d="M4 5C4 3.34315 5.34315 2 7 2H12.7574C13.553 2 14.3161 2.31607 14.8787 2.87868L19.1213 7.12132C19.6839 7.68393 20 8.44699 20 9.24264V19C20 20.6569 18.6569 22 17 22H7C5.34315 22 4 20.6569 4 19V5ZM14 9C13.4477 9 13 8.55228 13 8V5.20711C13 4.76165 13.5386 4.53857 13.8536 4.85355L17.1464 8.14645C17.4614 8.46143 17.2383 9 16.7929 9H14ZM11.2929 11.7929C11.3888 11.697 11.4993 11.6247 11.6172 11.5759C11.9797 11.4259 12.4125 11.4982 12.7071 11.7929L15.2071 14.2929C15.5976 14.6834 15.5976 15.3166 15.2071 15.7071C14.8166 16.0976 14.1834 16.0976 13.7929 15.7071L13 14.9142V17.5C13 18.0523 12.5523 18.5 12 18.5C11.4477 18.5 11 18.0523 11 17.5V14.9142L10.2071 15.7071C9.81658 16.0976 9.18342 16.0976 8.79289 15.7071C8.40237 15.3166 8.40237 14.6834 8.79289 14.2929L11.2929 11.7929Z" fill="#171717"/>
</svg>
