<svg width="24" height="24" viewBox="0 0 24 24" fill="none" xmlns="http://www.w3.org/2000/svg">
<path fill-rule="evenodd" clip-rule="evenodd" d="M4 5C4 3.34315 5.34315 2 7 2H12.7574C13.553 2 14.3161 2.31607 14.8787 2.87868L19.1213 7.12132C19.6839 7.68393 20 8.44699 20 9.24264V19C20 20.6569 18.6569 22 17 22H7C5.34315 22 4 20.6569 4 19V5ZM14 9C13.4477 9 13 8.55228 13 8V5.20711C13 4.76165 13.5386 4.53857 13.8536 4.85355L17.1464 8.14645C17.4614 8.46143 17.2383 9 16.7929 9H14ZM12.7174 17.7176C12.7174 17.8532 12.6904 17.9825 12.6416 18.1004C12.4913 18.4627 12.1341 18.7176 11.7174 18.7176H8.1819C7.62961 18.7176 7.1819 18.2699 7.1819 17.7176C7.1819 17.1653 7.62961 16.7176 8.1819 16.7176L9.30322 16.7176L7.47479 14.8892C7.08427 14.4986 7.08427 13.8655 7.47479 13.475C7.86532 13.0844 8.49848 13.0844 8.88901 13.475L10.7174 15.3034V14.1821C10.7174 13.6298 11.1651 13.1821 11.7174 13.1821C12.2697 13.1821 12.7174 13.6298 12.7174 14.1821L12.7174 17.7176Z" fill="#171717"/>
</svg>
