<svg width="24" height="24" viewBox="0 0 24 24" fill="none" xmlns="http://www.w3.org/2000/svg">
<path fill-rule="evenodd" clip-rule="evenodd" d="M4 5C4 3.34315 5.34315 2 7 2H12.7574C13.553 2 14.3161 2.31607 14.8787 2.87868L19.1213 7.12132C19.6839 7.68393 20 8.44699 20 9.24264V19C20 20.6569 18.6569 22 17 22H7C5.34315 22 4 20.6569 4 19V5ZM14 9C13.4477 9 13 8.55228 13 8V5.20711C13 4.76165 13.5386 4.53857 13.8536 4.85355L17.1464 8.14645C17.4614 8.46143 17.2383 9 16.7929 9H14ZM7.18186 14.1821C7.18186 14.0465 7.20884 13.9172 7.25774 13.7993C7.408 13.4369 7.76516 13.1821 8.18186 13.1821H11.7174C12.2697 13.1821 12.7174 13.6298 12.7174 14.1821C12.7174 14.7343 12.2697 15.1821 11.7174 15.1821H10.5961L12.4245 17.0105C12.815 17.401 12.815 18.0342 12.4245 18.4247C12.034 18.8152 11.4008 18.8152 11.0103 18.4247L9.18186 16.5963V17.7176C9.18186 18.2699 8.73414 18.7176 8.18186 18.7176C7.62957 18.7176 7.18186 18.2699 7.18186 17.7176L7.18186 14.1821Z" fill="#171717"/>
</svg>
