<svg width="24" height="24" viewBox="0 0 24 24" fill="none" xmlns="http://www.w3.org/2000/svg">
<path fill-rule="evenodd" clip-rule="evenodd" d="M5 5C5 3.34315 6.34315 2 8 2H13.7574C14.553 2 15.3161 2.31607 15.8787 2.87868L20.1213 7.12132C20.6839 7.68393 21 8.44699 21 9.24264V19C21 20.6569 19.6569 22 18 22H8C6.34315 22 5 20.6569 5 19V5ZM15 9C14.4477 9 14 8.55228 14 8V5.20711C14 4.76165 14.5386 4.53857 14.8536 4.85355L18.1464 8.14645C18.4614 8.46143 18.2383 9 17.7929 9H15ZM9.79289 15.7071C9.69702 15.6112 9.62468 15.5007 9.57588 15.3828C9.42591 15.0203 9.49824 14.5875 9.79289 14.2929L12.2929 11.7929C12.6834 11.4024 13.3166 11.4024 13.7071 11.7929C14.0976 12.1834 14.0976 12.8166 13.7071 13.2071L12.9142 14H15.5C16.0523 14 16.5 14.4477 16.5 15C16.5 15.5523 16.0523 16 15.5 16H12.9142L13.7071 16.7929C14.0976 17.1834 14.0976 17.8166 13.7071 18.2071C13.3166 18.5976 12.6834 18.5976 12.2929 18.2071L9.79289 15.7071Z" fill="#171717"/>
</svg>
