<svg width="24" height="24" viewBox="0 0 24 24" fill="none" xmlns="http://www.w3.org/2000/svg">
<path fill-rule="evenodd" clip-rule="evenodd" d="M4 5C4 3.34315 5.34315 2 7 2H12.7574C13.553 2 14.3161 2.31607 14.8787 2.87868L19.1213 7.12132C19.6839 7.68393 20 8.44699 20 9.24264V19C20 20.6569 18.6569 22 17 22H7C5.34315 22 4 20.6569 4 19V5ZM14 9C13.4477 9 13 8.55228 13 8V5.20711C13 4.76165 13.5386 4.53857 13.8536 4.85355L17.1464 8.14645C17.4614 8.46143 17.2383 9 16.7929 9H14ZM16 16C16 15.4477 15.5523 15 15 15V14C15 12.3431 13.6569 11 12 11C10.3431 11 9 12.3431 9 14V15C8.44772 15 8 15.4477 8 16V18C8 18.5523 8.44772 19 9 19H15C15.5523 19 16 18.5523 16 18V16ZM12 13C11.4477 13 11 13.4477 11 14V15H13V14C13 13.4477 12.5523 13 12 13Z" fill="#171717"/>
</svg>
