<svg width="24" height="24" viewBox="0 0 24 24" fill="none" xmlns="http://www.w3.org/2000/svg">
<path fill-rule="evenodd" clip-rule="evenodd" d="M4 5C4 3.34315 5.34315 2 7 2H12.7574C13.553 2 14.3161 2.31607 14.8787 2.87868L19.1213 7.12132C19.6839 7.68393 20 8.44699 20 9.24264V19C20 20.6569 18.6569 22 17 22H7C5.34315 22 4 20.6569 4 19V5ZM14 9C13.4477 9 13 8.55228 13 8V5.20711C13 4.76165 13.5386 4.53857 13.8536 4.85355L17.1464 8.14645C17.4614 8.46143 17.2383 9 16.7929 9H14ZM12 12C11.4477 12 11 12.4477 11 13C11 13.5523 11.4477 14 12 14H16C16.5523 14 17 13.5523 17 13C17 12.4477 16.5523 12 16 12H12ZM8 16C7.44772 16 7 16.4477 7 17C7 17.5523 7.44772 18 8 18C8.55228 18 9 17.5523 9 17C9 16.4477 8.55228 16 8 16ZM7 13C7 12.4477 7.44772 12 8 12C8.55228 12 9 12.4477 9 13C9 13.5523 8.55228 14 8 14C7.44772 14 7 13.5523 7 13ZM12 16C11.4477 16 11 16.4477 11 17C11 17.5523 11.4477 18 12 18H16C16.5523 18 17 17.5523 17 17C17 16.4477 16.5523 16 16 16H12Z" fill="#171717"/>
</svg>
