<svg width="24" height="24" viewBox="0 0 24 24" fill="none" xmlns="http://www.w3.org/2000/svg">
<path fill-rule="evenodd" clip-rule="evenodd" d="M4 5C4 3.34315 5.34315 2 7 2H12.7574C13.553 2 14.3161 2.31607 14.8787 2.87868L19.1213 7.12132C19.6839 7.68393 20 8.44699 20 9.24264V19C20 20.6569 18.6569 22 17 22H7C5.34315 22 4 20.6569 4 19V5ZM14 9C13.4477 9 13 8.55228 13 8V5.20711C13 4.76165 13.5386 4.53857 13.8536 4.85355L17.1464 8.14645C17.4614 8.46143 17.2383 9 16.7929 9H14ZM11.25 12.201C11.478 12.0693 11.7367 12 12 12C12.2633 12 12.5219 12.0693 12.75 12.201C12.978 12.3326 13.1674 12.522 13.299 12.75C13.4307 12.978 13.5 13.2367 13.5 13.5C13.5 13.7633 13.4307 14.022 13.299 14.25C13.1674 14.478 12.978 14.6674 12.75 14.799C12.5219 14.9307 12.2633 15 12 15C11.4477 15 11 15.4477 11 16C11 16.5523 11.4477 17 12 17C12.6144 17 13.2179 16.8383 13.75 16.5311C14.282 16.2239 14.7239 15.7821 15.0311 15.25C15.3383 14.7179 15.5 14.1144 15.5 13.5C15.5 12.8856 15.3383 12.2821 15.0311 11.75C14.7239 11.2179 14.282 10.7761 13.75 10.4689C13.2179 10.1617 12.6144 10 12 10C11.3856 10 10.782 10.1617 10.25 10.4689C9.71791 10.7761 9.27608 11.2179 8.96889 11.75C8.69275 12.2283 8.85662 12.8399 9.33491 13.116C9.81321 13.3922 10.4248 13.2283 10.7009 12.75C10.8326 12.522 11.0219 12.3326 11.25 12.201ZM12 18C11.4477 18 11 18.4477 11 19C11 19.5523 11.4477 20 12 20C12.5523 20 13 19.5523 13 19C13 18.4477 12.5523 18 12 18Z" fill="#171717"/>
</svg>
