<svg width="24" height="24" viewBox="0 0 24 24" fill="none" xmlns="http://www.w3.org/2000/svg">
<path fill-rule="evenodd" clip-rule="evenodd" d="M4 5C4 3.34315 5.34315 2 7 2H12.7574C13.553 2 14.3161 2.31607 14.8787 2.87868L19.1213 7.12132C19.6839 7.68393 20 8.44699 20 9.24264V19C20 20.6569 18.6569 22 17 22H7C5.34315 22 4 20.6569 4 19V5ZM14 9C13.4477 9 13 8.55228 13 8V5.20711C13 4.76165 13.5386 4.53857 13.8536 4.85355L17.1464 8.14645C17.4614 8.46143 17.2383 9 16.7929 9H14ZM14 13C14 12.4477 14.4477 12 15 12C15.5523 12 16 12.4477 16 13V17C16 17.5523 15.5523 18 15 18C14.4477 18 14 17.5523 14 17V13ZM8 17C8 16.4477 8.44772 16 9 16C9.55228 16 10 16.4477 10 17C10 17.5523 9.55228 18 9 18C8.44772 18 8 17.5523 8 17ZM12 14C11.4477 14 11 14.4477 11 15V17C11 17.5523 11.4477 18 12 18C12.5523 18 13 17.5523 13 17V15C13 14.4477 12.5523 14 12 14Z" fill="#171717"/>
</svg>
