<svg width="24" height="24" viewBox="0 0 24 24" fill="none" xmlns="http://www.w3.org/2000/svg">
<path fill-rule="evenodd" clip-rule="evenodd" d="M4 5C4 3.34315 5.34315 2 7 2H12.7574C13.553 2 14.3161 2.31607 14.8787 2.87868L19.1213 7.12132C19.6839 7.68393 20 8.44699 20 9.24264V19C20 20.6569 18.6569 22 17 22H7C5.34315 22 4 20.6569 4 19V5ZM14 9C13.4477 9 13 8.55228 13 8V5.20711C13 4.76165 13.5386 4.53857 13.8536 4.85355L17.1464 8.14645C17.4614 8.46143 17.2383 9 16.7929 9H14ZM9 11C8.44772 11 8 11.4477 8 12C8 12.5523 8.44772 13 9 13C9.65661 13 10.3068 13.1293 10.9134 13.3806C11.52 13.6319 12.0712 14.0002 12.5355 14.4645C12.9998 14.9288 13.3681 15.48 13.6194 16.0866C13.8707 16.6932 14 17.3434 14 18C14 18.5523 14.4477 19 15 19C15.5523 19 16 18.5523 16 18C16 17.0807 15.8189 16.1705 15.4672 15.3212C15.1154 14.4719 14.5998 13.7003 13.9497 13.0503C13.2997 12.4002 12.5281 11.8846 11.6788 11.5328C10.8295 11.1811 9.91925 11 9 11ZM8 15C8 14.4477 8.44772 14 9 14C9.52529 14 10.0454 14.1035 10.5307 14.3045C11.016 14.5055 11.457 14.8001 11.8284 15.1716C12.1999 15.543 12.4945 15.984 12.6955 16.4693C12.8965 16.9546 13 17.4747 13 18C13 18.5523 12.5523 19 12 19C11.4477 19 11 18.5523 11 18C11 17.7374 10.9483 17.4773 10.8478 17.2346C10.7472 16.992 10.5999 16.7715 10.4142 16.5858C10.2285 16.4001 10.008 16.2528 9.76537 16.1522C9.52272 16.0517 9.26264 16 9 16C8.44772 16 8 15.5523 8 15ZM10 18C10 18.5523 9.55228 19 9 19C8.44772 19 8 18.5523 8 18C8 17.4477 8.44772 17 9 17C9.55228 17 10 17.4477 10 18Z" fill="#171717"/>
</svg>
