<svg width="24" height="24" viewBox="0 0 24 24" fill="none" xmlns="http://www.w3.org/2000/svg">
<path d="M14.4725 4.0703C14.157 4.15634 13.7804 4.03125 13.5796 3.77316C13.2137 3.30268 12.6422 3 12 3C11.3578 3 10.7863 3.30268 10.4204 3.77316C10.2196 4.03125 9.84297 4.15634 9.52753 4.0703C9.35947 4.02447 9.18259 4 9 4C7.89543 4 7 4.89543 7 6V9.4007C7 9.78579 6.56366 10.0422 6.18009 10.008C6.12077 10.0027 6.0607 10 6 10C4.89543 10 4 10.8954 4 12V13.5C4 17.6421 7.35786 21 11.5 21C15.6421 21 19 17.6421 19 13.5V8C19 7.06626 18.3601 6.28197 17.4949 6.06171C17.2273 5.99359 17.0064 5.77267 16.9383 5.50506C16.718 4.63988 15.9337 4 15 4C14.8174 4 14.6405 4.02447 14.4725 4.0703Z" fill="#171717"/>
</svg>
