<svg width="24" height="24" viewBox="0 0 24 24" fill="none" xmlns="http://www.w3.org/2000/svg">
<path fill-rule="evenodd" clip-rule="evenodd" d="M12 3C7.02944 3 3 7.02944 3 12V20C3 20.5523 3.44772 21 4 21H12C16.9706 21 21 16.9706 21 12C21 7.02944 16.9706 3 12 3ZM12 8.5C12.5523 8.5 13 8.94772 13 9.5V12.0858L13.7929 11.2929C14.1834 10.9024 14.8166 10.9024 15.2071 11.2929C15.5976 11.6834 15.5976 12.3166 15.2071 12.7071L12.7071 15.2071C12.5196 15.3946 12.2652 15.5 12 15.5C11.7348 15.5 11.4802 15.3944 11.2926 15.2068L8.79289 12.7071C8.40237 12.3166 8.40237 11.6834 8.79289 11.2929C9.18342 10.9024 9.81658 10.9024 10.2071 11.2929L11 12.0858V9.5C11 8.94772 11.4477 8.5 12 8.5Z" fill="#171717"/>
</svg>
