<svg width="24" height="24" viewBox="0 0 24 24" fill="none" xmlns="http://www.w3.org/2000/svg">
<path fill-rule="evenodd" clip-rule="evenodd" d="M3 12C3 7.02944 7.02944 3 12 3C16.9706 3 21 7.02944 21 12C21 16.9706 16.9706 21 12 21H4C3.44772 21 3 20.5523 3 20V12ZM9.18198 13.7175C9.18198 13.8531 9.20897 13.9824 9.25786 14.1003C9.40812 14.4627 9.76529 14.7175 10.182 14.7175H13.7175C14.2698 14.7175 14.7175 14.2698 14.7175 13.7175C14.7175 13.1653 14.2698 12.7175 13.7175 12.7175H12.5962L14.4246 10.8891C14.8151 10.4986 14.8151 9.86542 14.4246 9.4749C14.0341 9.08437 13.4009 9.08437 13.0104 9.4749L11.182 11.3033V10.182C11.182 9.62972 10.7343 9.182 10.182 9.182C9.6297 9.182 9.18198 9.62972 9.18198 10.182L9.18198 13.7175Z" fill="#171717"/>
</svg>
