<svg width="24" height="24" viewBox="0 0 24 24" fill="none" xmlns="http://www.w3.org/2000/svg">
<path fill-rule="evenodd" clip-rule="evenodd" d="M12 3C7.02944 3 3 7.02944 3 12V21H12C16.9706 21 21 16.9706 21 12C21 7.02944 16.9706 3 12 3ZM8.29289 12.7071C8.10536 12.8946 8 13.149 8 13.4142V15.5C8 15.7761 8.22386 16 8.5 16H10.5858C10.851 16 11.1054 15.8946 11.2929 15.7071L15.2929 11.7071C15.6834 11.3166 15.6834 10.6834 15.2929 10.2929L13.7071 8.70711C13.3166 8.31658 12.6834 8.31658 12.2929 8.70711L8.29289 12.7071Z" fill="#171717"/>
</svg>
