<svg width="24" height="24" viewBox="0 0 24 24" fill="none" xmlns="http://www.w3.org/2000/svg">
<path fill-rule="evenodd" clip-rule="evenodd" d="M12 3C7.02944 3 3 7.02944 3 12V20C3 20.5523 3.44772 21 4 21H12C16.9706 21 21 16.9706 21 12C21 7.02944 16.9706 3 12 3ZM16 13C16 12.4477 15.5523 12 15 12V11C15 9.34315 13.6569 8 12 8C10.3431 8 9 9.34315 9 11V12C8.44772 12 8 12.4477 8 13V15C8 15.5523 8.44772 16 9 16H15C15.5523 16 16 15.5523 16 15V13ZM12 10C11.4477 10 11 10.4477 11 11V12H13V11C13 10.4477 12.5523 10 12 10Z" fill="#171717"/>
</svg>
