<svg width="24" height="24" viewBox="0 0 24 24" fill="none" xmlns="http://www.w3.org/2000/svg">
<path fill-rule="evenodd" clip-rule="evenodd" d="M12 3C7.02944 3 3 7.02944 3 12V20C3 20.5523 3.44772 21 4 21H12C16.9706 21 21 16.9706 21 12C21 7.02944 16.9706 3 12 3ZM8 9C7.44772 9 7 9.44772 7 10C7 10.5523 7.44772 11 8 11H16C16.5523 11 17 10.5523 17 10C17 9.44772 16.5523 9 16 9H8ZM8 13C7.44772 13 7 13.4477 7 14C7 14.5523 7.44772 15 8 15H14C14.5523 15 15 14.5523 15 14C15 13.4477 14.5523 13 14 13H8Z" fill="#171717"/>
</svg>
