<svg width="24" height="24" viewBox="0 0 24 24" fill="none" xmlns="http://www.w3.org/2000/svg">
<path fill-rule="evenodd" clip-rule="evenodd" d="M12 3C7.02944 3 3 7.02944 3 12V20C3 20.5523 3.44772 21 4 21H12C16.9706 21 21 16.9706 21 12C21 7.02944 16.9706 3 12 3ZM11.9999 8C10.8953 8 9.99991 8.89543 9.99991 10V11C9.99991 12.1046 10.8953 13 11.9999 13C13.1045 13 13.9999 12.1046 13.9999 11V10C13.9999 8.89543 13.1045 8 11.9999 8ZM9.40184 12.5C9.12569 12.0217 8.5141 11.8578 8.03581 12.134C7.55752 12.4101 7.39364 13.0217 7.66979 13.5C8.10863 14.2601 8.73982 14.8913 9.49991 15.3301C10.26 15.769 11.1222 16 11.9999 16C12.8776 16 13.7398 15.769 14.4999 15.3301C15.26 14.8913 15.8912 14.2601 16.33 13.5C16.6062 13.0217 16.4423 12.4101 15.964 12.134C15.4857 11.8578 14.8741 12.0217 14.598 12.5C14.3347 12.9561 13.956 13.3348 13.4999 13.5981C13.0439 13.8614 12.5265 14 11.9999 14C11.4733 14 10.956 13.8614 10.4999 13.5981C10.0439 13.3348 9.66514 12.9561 9.40184 12.5Z" fill="#171717"/>
</svg>
