<svg width="24" height="24" viewBox="0 0 24 24" fill="none" xmlns="http://www.w3.org/2000/svg">
<path fill-rule="evenodd" clip-rule="evenodd" d="M12 3C7.02944 3 3 7.02944 3 12V20C3 20.5523 3.44772 21 4 21H12C16.9706 21 21 16.9706 21 12C21 7.02944 16.9706 3 12 3ZM10.8519 8.22836C11.4001 8.0013 12.0033 7.94189 12.5853 8.05765C13.1672 8.1734 13.7018 8.45912 14.1213 8.87868C14.5118 9.26921 14.5118 9.90237 14.1213 10.2929C13.7308 10.6834 13.0976 10.6834 12.7071 10.2929C12.5673 10.153 12.3891 10.0578 12.1951 10.0192C12.0011 9.98063 11.8 10.0004 11.6173 10.0761C11.4346 10.1518 11.2784 10.28 11.1685 10.4444C11.0586 10.6089 11 10.8022 11 11V12H15C15.5523 12 16 12.4477 16 13V15C16 15.5523 15.5523 16 15 16H9C8.44772 16 8 15.5523 8 15V13C8 12.4477 8.44772 12 9 12V11C9 10.4067 9.17595 9.82664 9.50559 9.33329C9.83524 8.83994 10.3038 8.45543 10.8519 8.22836Z" fill="#171717"/>
</svg>
