<svg width="24" height="24" viewBox="0 0 24 24" fill="none" xmlns="http://www.w3.org/2000/svg">
<path d="M22 15C22 13.8954 21.1046 13 20 13H12C10.8954 13 10 13.8954 10 15V17C10 18.1046 10.8954 19 12 19H20C21.1046 19 22 18.1046 22 17V15Z" fill="#171717"/>
<path d="M22 10C22 9.44772 21.5523 9 21 9H11C10.4477 9 10 9.44772 10 10C10 10.5523 10.4477 11 11 11H21C21.5523 11 22 10.5523 22 10Z" fill="#171717"/>
<path d="M22 6C22 5.44772 21.5523 5 21 5H11C10.4477 5 10 5.44772 10 6C10 6.55228 10.4477 7 11 7H21C21.5523 7 22 6.55228 22 6Z" fill="#171717"/>
<path d="M4 6C4 5.44772 4.44772 5 5 5C5.55228 5 6 5.44772 6 6V15.5858L6.29289 15.2929C6.68342 14.9024 7.31658 14.9024 7.70711 15.2929C8.09763 15.6834 8.09763 16.3166 7.70711 16.7071L5.70929 18.7049C5.52816 18.8872 5.27725 19 5 19C4.7381 19 4.49972 18.8993 4.32144 18.7346C4.31176 18.7256 4.30224 18.7165 4.29289 18.7071L2.29289 16.7071C1.90237 16.3166 1.90237 15.6834 2.29289 15.2929C2.68342 14.9024 3.31658 14.9024 3.70711 15.2929L4 15.5858V6Z" fill="#171717"/>
</svg>
