<svg width="24" height="24" viewBox="0 0 24 24" fill="none" xmlns="http://www.w3.org/2000/svg">
<path d="M22 11C22 9.89543 21.1046 9 20 9H10C8.89543 9 8 9.89543 8 11V13C8 14.1046 8.89543 15 10 15H20C21.1046 15 22 14.1046 22 13V11Z" fill="#171717"/>
<path d="M22 18C22 17.4477 21.5523 17 21 17H9C8.44772 17 8 17.4477 8 18C8 18.5523 8.44772 19 9 19H21C21.5523 19 22 18.5523 22 18Z" fill="#171717"/>
<path d="M22 6C22 5.44772 21.5523 5 21 5H9C8.44772 5 8 5.44772 8 6C8 6.55228 8.44772 7 9 7H21C21.5523 7 22 6.55228 22 6Z" fill="#171717"/>
<path d="M3.70711 14.7071L5.70711 12.7071C6.09763 12.3166 6.09763 11.6834 5.70711 11.2929L3.70711 9.29289C3.31658 8.90237 2.68342 8.90237 2.29289 9.29289C1.90237 9.68342 1.90237 10.3166 2.29289 10.7071L3.58579 12L2.29289 13.2929C1.90237 13.6834 1.90237 14.3166 2.29289 14.7071C2.68342 15.0976 3.31658 15.0976 3.70711 14.7071Z" fill="#171717"/>
</svg>
