<svg width="24" height="24" viewBox="0 0 24 24" fill="none" xmlns="http://www.w3.org/2000/svg">
<path d="M22 7C22 5.89543 21.1046 5 20 5H10C8.89543 5 8 5.89543 8 7V9C8 10.1046 8.89543 11 10 11H20C21.1046 11 22 10.1046 22 9V7Z" fill="#171717"/>
<path d="M22 18C22 17.4477 21.5523 17 21 17H9C8.44772 17 8 17.4477 8 18C8 18.5523 8.44772 19 9 19H21C21.5523 19 22 18.5523 22 18Z" fill="#171717"/>
<path d="M22 14C22 13.4477 21.5523 13 21 13H9C8.44772 13 8 13.4477 8 14C8 14.5523 8.44772 15 9 15H21C21.5523 15 22 14.5523 22 14Z" fill="#171717"/>
<path d="M3.70711 10.7071L5.70711 8.70711C6.09763 8.31658 6.09763 7.68342 5.70711 7.29289L3.70711 5.29289C3.31658 4.90237 2.68342 4.90237 2.29289 5.29289C1.90237 5.68342 1.90237 6.31658 2.29289 6.70711L3.58579 8L2.29289 9.29289C1.90237 9.68342 1.90237 10.3166 2.29289 10.7071C2.68342 11.0976 3.31658 11.0976 3.70711 10.7071Z" fill="#171717"/>
</svg>
