<svg width="24" height="24" viewBox="0 0 24 24" fill="none" xmlns="http://www.w3.org/2000/svg">
<path d="M7 3C4.79086 3 3 4.79086 3 7V17C3 19.2091 4.79086 21 7 21H9C11.2091 21 13 19.2091 13 17V7C13 4.79086 11.2091 3 9 3H7Z" fill="#171717"/>
<path fill-rule="evenodd" clip-rule="evenodd" d="M15 6C15 4.34315 16.3431 3 18 3C19.6569 3 21 4.34315 21 6V18C21 19.6569 19.6569 21 18 21C16.3431 21 15 19.6569 15 18V6ZM19 6V18C19 18.5523 18.5523 19 18 19C17.4477 19 17 18.5523 17 18V6C17 5.44772 17.4477 5 18 5C18.5523 5 19 5.44772 19 6Z" fill="#171717"/>
</svg>
