<svg width="24" height="24" viewBox="0 0 24 24" fill="none" xmlns="http://www.w3.org/2000/svg">
<path fill-rule="evenodd" clip-rule="evenodd" d="M12 3C7.02944 3 3 7.02944 3 12C3 16.9706 7.02944 21 12 21C16.9706 21 21 16.9706 21 12C21 7.02944 16.9706 3 12 3ZM9.52513 14.4748C9.1346 14.0843 9.1346 13.4511 9.52513 13.0606L11.3536 11.2322H10.2322C9.67995 11.2322 9.23223 10.7845 9.23223 10.2322C9.23223 9.67991 9.67995 9.23219 10.2322 9.23219L13.7678 9.23219C14.033 9.23219 14.2873 9.33755 14.4749 9.52509C14.6624 9.71262 14.7678 9.96735 14.7678 10.2326V13.7677C14.7678 14.32 14.3201 14.7677 13.7678 14.7677C13.2155 14.7677 12.7678 14.32 12.7678 13.7677V12.6464L10.9393 14.4748C10.5488 14.8654 9.91565 14.8654 9.52513 14.4748Z" fill="#171717"/>
</svg>
