<svg width="24" height="24" viewBox="0 0 24 24" fill="none" xmlns="http://www.w3.org/2000/svg">
<path fill-rule="evenodd" clip-rule="evenodd" d="M12 3C7.02944 3 3 7.02944 3 12C3 16.9706 7.02944 21 12 21C16.9706 21 21 16.9706 21 12C21 7.02944 16.9706 3 12 3ZM14.4749 9.52517C14.8654 9.91569 14.8654 10.5489 14.4749 10.9394L12.6464 12.7678H13.7678C14.3201 12.7678 14.7678 13.2155 14.7678 13.7678C14.7678 14.3201 14.3201 14.7678 13.7678 14.7678L10.2322 14.7678C9.96702 14.7678 9.71266 14.6625 9.52513 14.4749C9.33759 14.2874 9.23223 14.0326 9.23223 13.7674V10.2323C9.23223 9.67999 9.67995 9.23227 10.2322 9.23227C10.7845 9.23227 11.2322 9.67999 11.2322 10.2323V11.3536L13.0607 9.52517C13.4512 9.13464 14.0843 9.13464 14.4749 9.52517Z" fill="#171717"/>
</svg>
