<svg width="24" height="24" viewBox="0 0 24 24" fill="none" xmlns="http://www.w3.org/2000/svg">
<path fill-rule="evenodd" clip-rule="evenodd" d="M12 3C7.02944 3 3 7.02944 3 12C3 16.9706 7.02944 21 12 21C16.9706 21 21 16.9706 21 12C21 7.02944 16.9706 3 12 3ZM14.4749 13.0607C14.8654 13.4512 14.8654 14.0843 14.4749 14.4749C14.0843 14.8654 13.4512 14.8654 13.0607 14.4749L11.2322 12.6464V13.7678C11.2322 14.3201 10.7845 14.7678 10.2322 14.7678C9.67994 14.7678 9.23223 14.3201 9.23223 13.7678V10.2322C9.23223 9.96702 9.33759 9.71266 9.52512 9.52513C9.71266 9.33759 9.96739 9.23223 10.2326 9.23223L13.7678 9.23223C14.32 9.23223 14.7678 9.67995 14.7678 10.2322C14.7678 10.7845 14.32 11.2322 13.7678 11.2322H12.6464L14.4749 13.0607Z" fill="#171717"/>
</svg>
