<svg width="24" height="24" viewBox="0 0 24 24" fill="none" xmlns="http://www.w3.org/2000/svg">
<path fill-rule="evenodd" clip-rule="evenodd" d="M12 3C7.02944 3 3 7.02944 3 12C3 16.9706 7.02944 21 12 21C16.9706 21 21 16.9706 21 12C21 7.02944 16.9706 3 12 3ZM14.5 11C15.0523 11 15.5 11.4477 15.5 12C15.5 12.5523 15.0523 13 14.5 13H11.9142L12.7071 13.7929C13.0976 14.1834 13.0976 14.8166 12.7071 15.2071C12.3166 15.5976 11.6834 15.5976 11.2929 15.2071L8.79289 12.7071C8.60536 12.5196 8.5 12.2652 8.5 12C8.5 11.7348 8.60562 11.4802 8.79316 11.2926L11.2929 8.79289C11.6834 8.40237 12.3166 8.40237 12.7071 8.79289C13.0976 9.18342 13.0976 9.81658 12.7071 10.2071L11.9142 11H14.5Z" fill="#171717"/>
</svg>
