<svg width="24" height="24" viewBox="0 0 24 24" fill="none" xmlns="http://www.w3.org/2000/svg">
<path fill-rule="evenodd" clip-rule="evenodd" d="M12 3C7.02944 3 3 7.02944 3 12C3 16.9706 7.02944 21 12 21C16.9706 21 21 16.9706 21 12C21 7.02944 16.9706 3 12 3ZM9.52513 9.52513C9.91565 9.1346 10.5488 9.1346 10.9393 9.52513L12.7678 11.3536V10.2322C12.7678 9.67995 13.2155 9.23223 13.7678 9.23223C14.3201 9.23223 14.7678 9.67995 14.7678 10.2322L14.7678 13.7678C14.7678 14.033 14.6624 14.2873 14.4749 14.4749C14.2873 14.6624 14.0326 14.7678 13.7674 14.7678H10.2322C9.67995 14.7678 9.23223 14.3201 9.23223 13.7678C9.23223 13.2155 9.67995 12.7678 10.2322 12.7678H11.3536L9.52512 10.9393C9.1346 10.5488 9.1346 9.91565 9.52513 9.52513Z" fill="#171717"/>
</svg>
