<svg width="24" height="24" viewBox="0 0 24 24" fill="none" xmlns="http://www.w3.org/2000/svg">
<path fill-rule="evenodd" clip-rule="evenodd" d="M4.70711 3.29289C4.31658 2.90237 3.68342 2.90237 3.29289 3.29289C2.90237 3.68342 2.90237 4.31658 3.29289 4.70711L4.9681 6.38231C3.73647 7.92199 3 9.87499 3 12C3 16.9706 7.02944 21 12 21C14.125 21 16.078 20.2635 17.6177 19.0319L19.2929 20.7071C19.6834 21.0976 20.3166 21.0976 20.7071 20.7071C21.0976 20.3166 21.0976 19.6834 20.7071 19.2929L4.70711 3.29289ZM21 12C21 13.397 20.6817 14.7197 20.1137 15.8995L8.10054 3.88634C9.2803 3.3183 10.603 3 12 3C16.9706 3 21 7.02944 21 12Z" fill="#171717"/>
</svg>
