<svg width="24" height="24" viewBox="0 0 24 24" fill="none" xmlns="http://www.w3.org/2000/svg">
<path fill-rule="evenodd" clip-rule="evenodd" d="M12 3C7.02944 3 3 7.02944 3 12C3 16.9706 7.02944 21 12 21C16.9706 21 21 16.9706 21 12C21 7.02944 16.9706 3 12 3ZM13 9C12.4477 9 12 9.44772 12 10C12 10.5523 12.4477 11 13 11H15C15.5523 11 16 10.5523 16 10C16 9.44772 15.5523 9 15 9H13ZM9 13C8.44772 13 8 13.4477 8 14C8 14.5523 8.44772 15 9 15C9.55228 15 10 14.5523 10 14C10 13.4477 9.55228 13 9 13ZM8 10C8 9.44772 8.44772 9 9 9C9.55228 9 10 9.44772 10 10C10 10.5523 9.55228 11 9 11C8.44772 11 8 10.5523 8 10ZM13 13C12.4477 13 12 13.4477 12 14C12 14.5523 12.4477 15 13 15H15C15.5523 15 16 14.5523 16 14C16 13.4477 15.5523 13 15 13H13Z" fill="#171717"/>
</svg>
