<svg width="24" height="24" viewBox="0 0 24 24" fill="none" xmlns="http://www.w3.org/2000/svg">
<path fill-rule="evenodd" clip-rule="evenodd" d="M12 3C7.02944 3 3 7.02944 3 12C3 16.9706 7.02944 21 12 21C16.9706 21 21 16.9706 21 12C21 7.02944 16.9706 3 12 3ZM10 8C9.44772 8 9 8.44772 9 9V12.6301C9 12.8688 9.08539 13.0996 9.24074 13.2809L11.2407 15.6142C11.6398 16.0798 12.3602 16.0798 12.7593 15.6142L14.7593 13.2809C14.9146 13.0996 15 12.8688 15 12.6301V9C15 8.44772 14.5523 8 14 8H10Z" fill="#171717"/>
</svg>
