<svg width="24" height="24" viewBox="0 0 24 24" fill="none" xmlns="http://www.w3.org/2000/svg">
<path fill-rule="evenodd" clip-rule="evenodd" d="M12 3C7.02944 3 3 7.02944 3 12C3 16.9706 7.02944 21 12 21C16.9706 21 21 16.9706 21 12C21 7.02944 16.9706 3 12 3ZM11 7C11 6.44772 11.4477 6 12 6C12.5523 6 13 6.44772 13 7V7.77591C13 7.9604 13.2626 8.07543 13.4378 8.01775C13.6989 7.93183 13.9941 7.95327 14.2508 8.1015C14.7291 8.37765 14.893 8.98924 14.6168 9.46753L12.8756 12.4835C12.7051 12.7915 12.3769 13 12 13C11.4477 13 11 12.5523 11 12V7Z" fill="#171717"/>
</svg>
