<svg width="24" height="24" viewBox="0 0 24 24" fill="none" xmlns="http://www.w3.org/2000/svg">
<path fill-rule="evenodd" clip-rule="evenodd" d="M12 3C16.9706 3 21 7.02944 21 12C21 16.9706 16.9706 21 12 21C7.02944 21 3 16.9706 3 12C3 7.02944 7.02944 3 12 3ZM13 7C13 6.44772 12.5523 6 12 6C11.4477 6 11 6.44772 11 7V9.40192C11 9.78682 10.5833 10.0274 10.25 9.83494L9.46938 9.38424C8.99108 9.1081 8.37949 9.27198 8.10335 9.75027C7.82721 10.2286 7.99109 10.8402 8.46938 11.1163L11.4849 12.8573C11.581 12.9152 11.6876 12.9573 11.8011 12.9802C12.0875 13.0383 12.386 12.9671 12.6151 12.7885C12.8494 12.6055 13 12.3203 13 12V7Z" fill="#171717"/>
</svg>
