<svg width="24" height="24" viewBox="0 0 24 24" fill="none" xmlns="http://www.w3.org/2000/svg">
<path fill-rule="evenodd" clip-rule="evenodd" d="M12 3C16.9706 3 21 7.02944 21 12C21 16.9706 16.9706 21 12 21C7.02944 21 3 16.9706 3 12C3 7.02944 7.02944 3 12 3ZM13 7C13 6.44772 12.5523 6 12 6C11.4477 6 11 6.44772 11 7V7.77591C11 7.9604 10.7374 8.07543 10.5622 8.01775C10.3011 7.93183 10.0059 7.95327 9.74919 8.1015C9.2709 8.37765 9.10703 8.98924 9.38317 9.46753L11.1244 12.4835C11.2949 12.7915 11.6231 13 12 13C12.5523 13 13 12.5523 13 12V7Z" fill="#171717"/>
</svg>
