<svg width="24" height="24" viewBox="0 0 24 24" fill="none" xmlns="http://www.w3.org/2000/svg">
<path fill-rule="evenodd" clip-rule="evenodd" d="M12 3C7.02944 3 3 7.02944 3 12C3 16.9706 7.02944 21 12 21C16.9706 21 21 16.9706 21 12C21 7.02944 16.9706 3 12 3ZM11 7C11 6.44772 11.4477 6 12 6C12.5523 6 13 6.44772 13 7V9.40192C13 9.78682 13.4167 10.0274 13.75 9.83494L14.5306 9.38424C15.0089 9.1081 15.6205 9.27198 15.8966 9.75027C16.1728 10.2286 16.0089 10.8402 15.5306 11.1163L12.5151 12.8573C12.419 12.9152 12.3124 12.9573 12.1989 12.9802C11.9125 13.0383 11.614 12.9671 11.3849 12.7885C11.1506 12.6055 11 12.3203 11 12V7Z" fill="#171717"/>
</svg>
