<svg width="24" height="24" viewBox="0 0 24 24" fill="none" xmlns="http://www.w3.org/2000/svg">
<path fill-rule="evenodd" clip-rule="evenodd" d="M12 3C7.02944 3 3 7.02944 3 12C3 16.9706 7.02944 21 12 21C16.9706 21 21 16.9706 21 12C21 7.02944 16.9706 3 12 3ZM11 7C11 6.44772 11.4477 6 12 6C12.5523 6 13 6.44772 13 7V11.5981C13 11.6858 13.0231 11.7721 13.067 11.8481L14.6155 14.5302C14.8917 15.0085 14.7278 15.6201 14.2495 15.8963C13.7712 16.1724 13.1596 16.0085 12.8835 15.5302L11.1426 12.515C11.0904 12.4282 11.0509 12.3328 11.0269 12.2314C11.0076 12.1504 10.9988 12.0682 11 11.9866V7Z" fill="#171717"/>
</svg>
