<svg width="24" height="24" viewBox="0 0 24 24" fill="none" xmlns="http://www.w3.org/2000/svg">
<path fill-rule="evenodd" clip-rule="evenodd" d="M12 3C16.9706 3 21 7.02944 21 12C21 16.9706 16.9706 21 12 21C7.02944 21 3 16.9706 3 12C3 7.02944 7.02944 3 12 3ZM13 7C13 6.44772 12.5523 6 12 6C11.4477 6 11 6.44772 11 7V11.5981C11 11.6858 10.9769 11.7721 10.933 11.8481L9.38447 14.5302C9.10833 15.0085 9.27221 15.6201 9.7505 15.8963C10.2288 16.1724 10.8404 16.0085 11.1165 15.5302L12.8574 12.515C12.9096 12.4282 12.9491 12.3328 12.9731 12.2314C12.9924 12.1504 13.0012 12.0682 13 11.9866V7Z" fill="#171717"/>
</svg>
