<svg width="24" height="24" viewBox="0 0 24 24" fill="none" xmlns="http://www.w3.org/2000/svg">
<path fill-rule="evenodd" clip-rule="evenodd" d="M7 3C4.79086 3 3 4.79086 3 7V17C3 19.2091 4.79086 21 7 21H17C19.2091 21 21 19.2091 21 17V7C21 4.79086 19.2091 3 17 3H7ZM7 8C5.89543 8 5 8.89543 5 10V17C5 18.1046 5.89543 19 7 19H17C18.1046 19 19 18.1046 19 17V10C19 8.89543 18.1046 8 17 8H7Z" fill="#171717"/>
<path d="M11.8884 9.66942C11.9094 9.5434 12.0906 9.5434 12.1116 9.66942C12.4294 11.5763 13.9237 13.0706 15.8306 13.3884C15.9566 13.4094 15.9566 13.5906 15.8306 13.6116C13.9237 13.9294 12.4294 15.4237 12.1116 17.3306C12.0906 17.4566 11.9094 17.4566 11.8884 17.3306C11.5706 15.4237 10.0763 13.9294 8.16942 13.6116C8.0434 13.5906 8.0434 13.4094 8.16942 13.3884C10.0763 13.0706 11.5706 11.5763 11.8884 9.66942Z" fill="#171717"/>
</svg>
