<svg width="24" height="24" viewBox="0 0 24 24" fill="none" xmlns="http://www.w3.org/2000/svg">
<path d="M16 5C16 7.20914 14.2091 9 12 9C9.79083 9 7.99997 7.20914 7.99997 5C7.99997 2.79086 9.79083 1 12 1C14.2091 1 16 2.79086 16 5Z" fill="#171717"/>
<path d="M13.763 11.1949C13.5882 11.1556 13.4112 11.122 13.2323 11.0943C13.1583 11.0705 13.0812 11.0538 13.002 11.0451C12.1495 10.9511 11.313 10.7368 10.5175 10.4073C9.41349 9.94999 8.41031 9.27969 7.5653 8.43467C6.72028 7.58966 6.04998 6.58648 5.59266 5.48242C5.26319 4.687 5.04891 3.85044 4.95486 2.998C4.89429 2.44904 4.45225 2 3.89997 2H1.99997C1.44768 2 0.995969 2.44837 1.03841 2.99903C1.14362 4.36409 1.464 5.70612 1.98953 6.97488C2.39708 7.95878 2.92302 8.8866 3.5541 9.73846C3.83196 10.1135 3.99997 10.5622 3.99997 11.0289V17C3.99997 18.1046 4.8954 19 5.99997 19H11V15C11 13.2226 12.1593 11.7159 13.763 11.1949Z" fill="#171717"/>
<path fill-rule="evenodd" clip-rule="evenodd" d="M15 12C13.3431 12 12 13.3431 12 15V21C12 22.6569 13.3431 24 15 24H21C22.6568 24 24 22.6569 24 21V15C24 13.3431 22.6568 12 21 12H15ZM21.7071 16.7071C22.0976 16.3166 22.0976 15.6834 21.7071 15.2929C21.3166 14.9024 20.6834 14.9024 20.2929 15.2929L17 18.5858L15.7071 17.2929C15.3166 16.9024 14.6834 16.9024 14.2929 17.2929C13.9023 17.6834 13.9023 18.3166 14.2929 18.7071L16.2929 20.7071C16.6834 21.0976 17.3166 21.0976 17.7071 20.7071L21.7071 16.7071Z" fill="#171717"/>
</svg>
