<svg width="24" height="24" viewBox="0 0 24 24" fill="none" xmlns="http://www.w3.org/2000/svg">
<path d="M16 5C16 7.20914 14.2091 9 12 9C9.79083 9 7.99997 7.20914 7.99997 5C7.99997 2.79086 9.79083 1 12 1C14.2091 1 16 2.79086 16 5Z" fill="#171717"/>
<path d="M13.763 11.1949C13.5882 11.1556 13.4112 11.122 13.2323 11.0943C13.1583 11.0705 13.0812 11.0538 13.002 11.0451C12.1495 10.9511 11.313 10.7368 10.5175 10.4073C9.41349 9.94999 8.41031 9.27969 7.5653 8.43467C6.72028 7.58966 6.04998 6.58648 5.59266 5.48242C5.26319 4.687 5.04891 3.85044 4.95486 2.998C4.89429 2.44904 4.45225 2 3.89997 2H1.99997C1.44768 2 0.995969 2.44837 1.03841 2.99903C1.14362 4.36409 1.464 5.70612 1.98953 6.97488C2.39708 7.95878 2.92302 8.8866 3.5541 9.73846C3.83196 10.1135 3.99997 10.5622 3.99997 11.0289V17C3.99997 18.1046 4.8954 19 5.99997 19H11V15C11 13.2226 12.1593 11.7159 13.763 11.1949Z" fill="#171717"/>
<path fill-rule="evenodd" clip-rule="evenodd" d="M15 12C13.3431 12 12 13.3431 12 15V21C12 22.6569 13.3431 24 15 24H21C22.6568 24 24 22.6569 24 21V15C24 13.3431 22.6568 12 21 12H15ZM15 19C15.5523 19 16 18.5523 16 18C16 17.4477 15.5523 17 15 17C14.4477 17 14 17.4477 14 18C14 18.5523 14.4477 19 15 19ZM19 18C19 18.5523 18.5523 19 18 19C17.4477 19 17 18.5523 17 18C17 17.4477 17.4477 17 18 17C18.5523 17 19 17.4477 19 18ZM22 18C22 18.5523 21.5523 19 21 19C20.4477 19 20 18.5523 20 18C20 17.4477 20.4477 17 21 17C21.5523 17 22 17.4477 22 18Z" fill="#171717"/>
</svg>
