<svg width="24" height="24" viewBox="0 0 24 24" fill="none" xmlns="http://www.w3.org/2000/svg">
<path d="M16 5C16 7.20914 14.2091 9 12 9C9.79083 9 7.99997 7.20914 7.99997 5C7.99997 2.79086 9.79083 1 12 1C14.2091 1 16 2.79086 16 5Z" fill="#171717"/>
<path d="M13.763 11.1949C13.5882 11.1556 13.4112 11.122 13.2323 11.0943C13.1583 11.0705 13.0812 11.0538 13.002 11.0451C12.1495 10.9511 11.313 10.7368 10.5175 10.4073C9.41349 9.94999 8.41031 9.27969 7.5653 8.43467C6.72028 7.58966 6.04998 6.58648 5.59266 5.48242C5.26319 4.687 5.04891 3.85044 4.95486 2.998C4.89429 2.44904 4.45225 2 3.89997 2H1.99997C1.44768 2 0.995969 2.44837 1.03841 2.99903C1.14362 4.36409 1.464 5.70612 1.98953 6.97488C2.39708 7.95878 2.92302 8.8866 3.5541 9.73846C3.83196 10.1135 3.99997 10.5622 3.99997 11.0289V17C3.99997 18.1046 4.8954 19 5.99997 19H11V15C11 13.2226 12.1593 11.7159 13.763 11.1949Z" fill="#171717"/>
<path fill-rule="evenodd" clip-rule="evenodd" d="M15 12C13.3431 12 12 13.3431 12 15V21C12 22.6569 13.3431 24 15 24H21C22.6568 24 24 22.6569 24 21V15C24 13.3431 22.6568 12 21 12H15ZM16.8519 14.2284C17.4001 14.0013 18.0033 13.9419 18.5852 14.0576C19.1672 14.1734 19.7017 14.4591 20.1213 14.8787C20.5118 15.2692 20.5118 15.9024 20.1213 16.2929C19.7308 16.6834 19.0976 16.6834 18.7071 16.2929C18.5672 16.153 18.389 16.0578 18.1951 16.0192C18.0011 15.9806 17.8 16.0004 17.6173 16.0761C17.4346 16.1518 17.2784 16.28 17.1685 16.4444C17.0586 16.6089 17 16.8022 17 17V18H21C21.5523 18 22 18.4477 22 19V21C22 21.5523 21.5523 22 21 22H15C14.4477 22 14 21.5523 14 21V19C14 18.4477 14.4477 18 15 18V17C15 16.4067 15.1759 15.8266 15.5056 15.3333C15.8352 14.8399 16.3037 14.4554 16.8519 14.2284Z" fill="#171717"/>
</svg>
