<svg width="24" height="24" viewBox="0 0 24 24" fill="none" xmlns="http://www.w3.org/2000/svg">
<rect width="24" height="24" fill="white"/>
<path d="M3.70711 2.29289C3.31658 1.90237 2.68342 1.90237 2.29289 2.29289C1.90237 2.68342 1.90237 3.31658 2.29289 3.70711L6.23333 7.64754C6.47465 7.88886 6.40863 8.29568 6.10338 8.44831L5.84458 8.57771C5.28916 8.85542 4.67671 9 4.05573 9H4C3.44772 9 3 9.44772 3 10V14C3 14.5523 3.44772 15 4 15H4.76393C4.91918 15 5.07229 15.0361 5.21115 15.1056L11.5528 18.2764C12.2177 18.6088 13 18.1253 13 17.382V15.6213C13 15.1759 13.5386 14.9528 13.8536 15.2678L15.0435 16.4578C15.2568 16.671 15.217 17.0237 15.0917 17.298C15.0329 17.4267 15 17.5675 15 17.7155V17.7736C15 18.3827 15.5437 18.8549 16.1241 18.67C16.3115 18.6104 16.4965 18.5427 16.6788 18.4672C16.8365 18.4019 17.0192 18.4334 17.1399 18.5541L20.2929 21.7071C20.6834 22.0976 21.3166 22.0976 21.7071 21.7071C22.0976 21.3166 22.0976 20.6834 21.7071 20.2929L3.70711 2.29289Z" fill="#171717"/>
<path d="M15 10.5786C15 10.7112 15.0527 10.8384 15.1464 10.9322L16.4225 12.2082C16.6391 12.4248 17 12.3064 17 12C17 11.4747 16.8965 10.9546 16.6955 10.4693C16.4945 9.98398 16.1999 9.54303 15.8284 9.17159C15.7857 9.12885 15.742 9.08712 15.6975 9.04644C15.4133 8.78687 15 9.01705 15 9.40195V10.5786Z" fill="#171717"/>
<path d="M18.6158 13.9221C18.5329 14.1213 18.568 14.3537 18.7206 14.5063L19.4876 15.2733C19.7148 15.5005 20.095 15.4575 20.2406 15.1711C20.3223 15.0102 20.3979 14.8461 20.4671 14.6789C20.8189 13.8296 21 12.9193 21 12.0001C21 11.0808 20.8189 10.1706 20.4671 9.32129C20.1154 8.47201 19.5997 7.70034 18.9497 7.05033C18.2997 6.40032 17.528 5.8847 16.6788 5.53292C16.4965 5.45743 16.3115 5.3898 16.1241 5.33014C15.5437 5.1453 15 5.61744 15 6.22658V6.28461C15 6.7598 15.3392 7.15938 15.7831 7.32885C15.8268 7.34551 15.8702 7.36278 15.9134 7.38068C16.52 7.63195 17.0712 8.00025 17.5355 8.46454C17.9998 8.92884 18.3681 9.48003 18.6194 10.0867C18.8707 10.6933 19 11.3435 19 12.0001C19 12.6567 18.8707 13.3069 18.6194 13.9135C18.6182 13.9164 18.617 13.9192 18.6158 13.9221Z" fill="#171717"/>
<path d="M11.0967 5.95167C10.7914 6.1043 10.7254 6.51112 10.9667 6.75244L12.1464 7.93218C12.4614 8.24717 13 8.02408 13 7.57863V6.61803C13 5.87465 12.2177 5.39116 11.5528 5.72361L11.0967 5.95167Z" fill="#171717"/>
</svg>
