<svg width="24" height="24" viewBox="0 0 24 24" fill="none" xmlns="http://www.w3.org/2000/svg">
<path fill-rule="evenodd" clip-rule="evenodd" d="M12.7071 2.70708C12.3166 2.31655 11.6834 2.31655 11.2929 2.70708L8.20708 5.79287C7.81655 6.1834 7.81655 6.81656 8.20708 7.20709L11.2929 10.2929C11.6834 10.6834 12.3166 10.6834 12.7071 10.2929L15.7929 7.20708C16.1834 6.81656 16.1834 6.18339 15.7929 5.79287L12.7071 2.70708Z" fill="#171717"/>
<path fill-rule="evenodd" clip-rule="evenodd" d="M5.79287 8.20708C6.1834 7.81655 6.81656 7.81655 7.20709 8.20708L10.2929 11.2929C10.6834 11.6834 10.6834 12.3166 10.2929 12.7071L7.20708 15.7929C6.81656 16.1834 6.18339 16.1834 5.79287 15.7929L2.70708 12.7071C2.31655 12.3166 2.31655 11.6834 2.70708 11.2929L5.79287 8.20708ZM6.3232 10.5052C6.42083 10.4075 6.57912 10.4075 6.67675 10.5052L7.99477 11.8232C8.0924 11.9208 8.0924 12.0791 7.99477 12.1768L6.67675 13.4948C6.57912 13.5924 6.42083 13.5924 6.3232 13.4948L5.00518 12.1768C4.90755 12.0791 4.90754 11.9208 5.00518 11.8232L6.3232 10.5052Z" fill="#171717"/>
<path fill-rule="evenodd" clip-rule="evenodd" d="M16.7929 8.20708C17.1834 7.81655 17.8166 7.81655 18.2071 8.20708L21.2929 11.2929C21.6834 11.6834 21.6834 12.3166 21.2929 12.7071L18.2071 15.7929C17.8166 16.1834 17.1834 16.1834 16.7929 15.7929L13.7071 12.7071C13.3166 12.3166 13.3166 11.6834 13.7071 11.2929L16.7929 8.20708ZM17.3232 10.5052C17.4208 10.4075 17.5791 10.4075 17.6768 10.5052L18.9948 11.8232C19.0924 11.9208 19.0924 12.0791 18.9948 12.1768L17.6768 13.4948C17.5791 13.5924 17.4208 13.5924 17.3232 13.4948L16.0052 12.1768C15.9075 12.0791 15.9075 11.9208 16.0052 11.8232L17.3232 10.5052Z" fill="#171717"/>
<path fill-rule="evenodd" clip-rule="evenodd" d="M11.2929 13.7071C11.6834 13.3166 12.3166 13.3166 12.7071 13.7071L15.7929 16.7929C16.1834 17.1834 16.1834 17.8166 15.7929 18.2071L12.7071 21.2929C12.3166 21.6834 11.6834 21.6834 11.2929 21.2929L8.20708 18.2071C7.81655 17.8166 7.81655 17.1834 8.20708 16.7929L11.2929 13.7071ZM11.8232 16.0052C11.9208 15.9075 12.0791 15.9075 12.1768 16.0052L13.4948 17.3232C13.5924 17.4208 13.5924 17.5791 13.4948 17.6768L12.1768 18.9948C12.0791 19.0924 11.9208 19.0924 11.8232 18.9948L10.5052 17.6768C10.4075 17.5791 10.4075 17.4208 10.5052 17.3232L11.8232 16.0052Z" fill="#171717"/>
</svg>
