<svg width="24" height="24" viewBox="0 0 24 24" fill="none" xmlns="http://www.w3.org/2000/svg">
<path d="M5.07588 18.3828C5.12468 18.5007 5.19702 18.6112 5.29289 18.7071C5.48739 18.9016 5.74208 18.9992 5.997 19L6 19H14C14.5523 19 15 18.5523 15 18C15 17.4477 14.5523 17 14 17H8.89706C8.71887 17 8.62964 16.7846 8.75563 16.6586L18.7071 6.70711C19.0976 6.31658 19.0976 5.68342 18.7071 5.29289C18.3166 4.90237 17.6834 4.90237 17.2929 5.29289L7.34142 15.2444C7.21543 15.3704 7 15.2811 7 15.1029V10C7 9.44772 6.55228 9 6 9C5.44771 9 5 9.44772 5 10V17.999C5 18.0021 5.00001 18.0062 5.00004 18.0092C5.00124 18.1415 5.0281 18.2676 5.07588 18.3828Z" fill="#171717"/>
</svg>
