<svg width="24" height="24" viewBox="0 0 24 24" fill="none" xmlns="http://www.w3.org/2000/svg">
<path d="M10 2C9.44774 2 9.00002 2.44772 9.00002 3V8C9.00002 8.55228 8.55231 9 8.00002 9H5.41424C4.52333 9 4.07716 10.0771 4.70713 10.7071L11.6465 17.6464C11.8417 17.8417 12.1583 17.8417 12.3536 17.6464L19.2929 10.7071C19.9229 10.0771 19.4767 9 18.5858 9H16C15.4477 9 15 8.55228 15 8V3C15 2.44772 14.5523 2 14 2H10Z" fill="#171717"/>
<path d="M5 20C4.44772 20 4 20.4477 4 21C4 21.5523 4.44772 22 5 22H19C19.5523 22 20 21.5523 20 21C20 20.4477 19.5523 20 19 20H5Z" fill="#171717"/>
</svg>
