<svg width="32" height="80" viewBox="0 0 32 80" fill="none" xmlns="http://www.w3.org/2000/svg">
<rect x="0.5" y="0.5" width="31" height="79" rx="4.5" stroke="#9747FF" stroke-dasharray="10 5"/>
<path d="M13.9496 9.63615C14.3401 9.24563 14.9733 9.24563 15.3638 9.63615C15.7544 10.0267 15.7544 10.6598 15.3638 11.0504L11.7555 14.6587C11.6295 14.7847 11.7188 15.0001 11.8969 15.0001H23C23.5523 15.0001 24 15.4478 24 16.0001C24 16.5524 23.5523 17.0001 23 17.0001H11.8969C11.7188 17.0001 11.6295 17.2155 11.7555 17.3415L15.3638 20.9499C15.7544 21.3404 15.7544 21.9736 15.3638 22.3641C14.9733 22.7546 14.3401 22.7546 13.9496 22.3641L8.29277 16.7072C7.90225 16.3167 7.90225 15.6835 8.29277 15.293L13.9496 9.63615Z" fill="#171717"/>
<path d="M25 60.9999C25.5523 60.9999 26 61.4476 26 61.9999L26 65.9999C26 66.5522 25.5523 66.9999 25 66.9999L16 66.9999C15.4477 66.9999 15 67.4476 15 67.9999L15 70.5857C15 71.4766 13.9229 71.9228 13.2929 71.2928L6.35355 64.3535C6.15829 64.1582 6.15829 63.8416 6.35355 63.6463L13.2929 56.707C13.9229 56.077 15 56.5232 15 57.4141L15 59.9999C15 60.5522 15.4477 60.9999 16 60.9999L25 60.9999Z" fill="#171717"/>
</svg>
