<svg width="24" height="24" viewBox="0 0 24 24" fill="none" xmlns="http://www.w3.org/2000/svg">
<path d="M10 17.9999C9.44774 17.9999 9.00002 17.5522 9.00002 16.9999V11.9999C9.00002 11.4476 8.55231 10.9999 8.00002 10.9999H5.41424C4.52333 10.9999 4.07716 9.92278 4.70713 9.29282L11.6465 2.35348C11.8417 2.15822 12.1583 2.15822 12.3536 2.35348L19.2929 9.29282C19.9229 9.92278 19.4767 10.9999 18.5858 10.9999H16C15.4477 10.9999 15 11.4476 15 11.9999V16.9999C15 17.5522 14.5523 17.9999 14 17.9999H10Z" fill="#171717"/>
<path d="M5 19.9999C4.44772 19.9999 4 20.4476 4 20.9999C4 21.5522 4.44772 21.9999 5 21.9999H19C19.5523 21.9999 20 21.5522 20 20.9999C20 20.4476 19.5523 19.9999 19 19.9999H5Z" fill="#171717"/>
</svg>
