<svg width="24" height="24" viewBox="0 0 24 24" fill="none" xmlns="http://www.w3.org/2000/svg">
<path fill-rule="evenodd" clip-rule="evenodd" d="M4 7C2.89543 7 2 7.89543 2 9V15C2 16.1046 2.89543 17 4 17H17C18.1046 17 19 16.1046 19 15V9C19 7.89543 18.1046 7 17 7H4ZM10.8321 9.55468C11.1384 9.09516 11.0142 8.47429 10.5547 8.16793C10.0952 7.86158 9.4743 7.98576 9.16795 8.44528L7.16795 11.4453C6.96338 11.7521 6.94431 12.1467 7.11833 12.4718C7.29235 12.797 7.63121 13 8 13H9.66436C9.86403 13 9.98313 13.2225 9.87237 13.3887L9.16795 14.4453C8.8616 14.9048 8.98577 15.5257 9.4453 15.832C9.90483 16.1384 10.5257 16.0142 10.8321 15.5547L12.8321 12.5547C13.0366 12.2478 13.0557 11.8533 12.8817 11.5281C12.7077 11.203 12.3688 11 12 11H10.3356C10.136 11 10.0169 10.7774 10.1276 10.6113L10.8321 9.55468Z" fill="#171717"/>
<path d="M20 10C20 9.44772 20.4477 9 21 9C21.5523 9 22 9.44772 22 10V14C22 14.5523 21.5523 15 21 15C20.4477 15 20 14.5523 20 14V10Z" fill="#171717"/>
</svg>
