<svg width="24" height="24" viewBox="0 0 24 24" fill="none" xmlns="http://www.w3.org/2000/svg">
<path d="M4.70711 3.29289C4.31658 2.90237 3.68342 2.90237 3.29289 3.29289C2.90237 3.68342 2.90237 4.31658 3.29289 4.70711L4.73223 6.14645C5.04722 6.46143 4.82413 7 4.37868 7H4C2.89543 7 2 7.89543 2 9V15C2 16.1046 2.89543 17 4 17H15.3787C15.5113 17 15.6385 17.0527 15.7322 17.1464L19.2929 20.7071C19.6834 21.0976 20.3166 21.0976 20.7071 20.7071C21.0976 20.3166 21.0976 19.6834 20.7071 19.2929L4.70711 3.29289Z" fill="#171717"/>
<path d="M19 9V13.5787C19 14.0241 18.4614 14.2472 18.1464 13.9322L12.0678 7.85355C11.7528 7.53857 11.9759 7 12.4213 7H17C18.1046 7 19 7.89543 19 9Z" fill="#171717"/>
<path d="M21 9C21.5523 9 22 9.44772 22 10V14C22 14.5523 21.5523 15 21 15C20.4477 15 20 14.5523 20 14V10C20 9.44772 20.4477 9 21 9Z" fill="#171717"/>
</svg>
