<svg width="24" height="24" viewBox="0 0 24 24" fill="none" xmlns="http://www.w3.org/2000/svg">
<path d="M3.29289 3.29289C3.68342 2.90237 4.31658 2.90237 4.70711 3.29289L12.7065 11.2923C12.5256 11.1117 12.2758 11 12 11C11.4477 11 11 11.4477 11 12C11 12.5523 11.4477 13 12 13C12.5523 13 13 12.5523 13 12C13 11.7242 12.8883 11.4744 12.7077 11.2935L20.7071 19.2929C21.0976 19.6834 21.0976 20.3166 20.7071 20.7071C20.3166 21.0976 19.6834 21.0976 19.2929 20.7071L17.6177 19.0319C16.078 20.2635 14.125 21 12 21C7.02944 21 3 16.9706 3 12C3 9.87499 3.73647 7.92199 4.9681 6.38231L3.29289 4.70711C2.90237 4.31658 2.90237 3.68342 3.29289 3.29289Z" fill="#171717"/>
<path d="M20.3941 15.2531C20.7854 14.2442 21 13.1472 21 12C21 7.02944 16.9706 3 12 3C10.8528 3 9.75581 3.21463 8.74687 3.60591C8.42575 3.73045 8.35532 4.14112 8.59887 4.38466L19.6153 15.4011C19.8589 15.6447 20.2696 15.5742 20.3941 15.2531Z" fill="#171717"/>
</svg>
