<svg width="24" height="24" viewBox="0 0 24 24" fill="none" xmlns="http://www.w3.org/2000/svg">
<path fill-rule="evenodd" clip-rule="evenodd" d="M4.70711 3.29289C4.31658 2.90237 3.68342 2.90237 3.29289 3.29289C2.90237 3.68342 2.90237 4.31658 3.29289 4.70711L5.03729 6.45151C5.01271 6.63082 5 6.81393 5 7V17C5 19.2091 6.79086 21 9 21H15C16.2538 21 17.3728 20.4232 18.1062 19.5204L19.2929 20.7071C19.6834 21.0976 20.3166 21.0976 20.7071 20.7071C21.0976 20.3166 21.0976 19.6834 20.7071 19.2929L4.70711 3.29289ZM11.6215 13.0358L13.9642 15.3785C13.7873 16.3021 12.9752 17 12 17C10.8954 17 10 16.1046 10 15C10 14.0248 10.6979 13.2127 11.6215 13.0358Z" fill="#171717"/>
<path d="M19 7V13.5787C19 14.0241 18.4614 14.2472 18.1464 13.9322L12.9659 8.75171C13.5825 8.41101 14 7.75427 14 7C14 5.89543 13.1046 5 12 5C11.2457 5 10.589 5.41754 10.2483 6.03409L8.03787 3.82367C7.78453 3.57033 7.87528 3.14351 8.22688 3.07465C8.47702 3.02567 8.73551 3 9 3H15C17.2091 3 19 4.79086 19 7Z" fill="#171717"/>
<path d="M13 7C13 7.4855 12.654 7.89019 12.1952 7.98097L11.019 6.80483C11.1098 6.34598 11.5145 6 12 6C12.5523 6 13 6.44772 13 7Z" fill="#171717"/>
</svg>
