<svg width="24" height="24" viewBox="0 0 24 24" fill="none" xmlns="http://www.w3.org/2000/svg">
<path d="M9 6C9 4.34315 10.3431 3 12 3C13.6569 3 15 4.34315 15 6V11C15 12.6569 13.6569 14 12 14C10.3431 14 9 12.6569 9 11V6Z" fill="#171717"/>
<path d="M6 10C6.55228 10 7 10.4477 7 11C7 13.7614 9.23858 16 12 16C14.7614 16 17 13.7614 17 11C17 10.4477 17.4477 10 18 10C18.5523 10 19 10.4477 19 11C19 14.3769 16.6088 17.1953 13.4273 17.8544C13.1837 17.9048 13 18.1139 13 18.3627V18.5C13 18.7761 13.2239 19 13.5 19H15C15.5523 19 16 19.4477 16 20C16 20.5523 15.5523 21 15 21H9C8.44771 21 8 20.5523 8 20C8 19.4477 8.44771 19 9 19H10.5C10.7761 19 11 18.7761 11 18.5V18.3627C11 18.1139 10.8163 17.9048 10.5727 17.8544C7.39118 17.1953 5 14.3769 5 11C5 10.4477 5.44772 10 6 10Z" fill="#171717"/>
</svg>
