<svg width="24" height="24" viewBox="0 0 24 24" fill="none" xmlns="http://www.w3.org/2000/svg">
<path fill-rule="evenodd" clip-rule="evenodd" d="M4.70711 1.29289C4.31658 0.902369 3.68342 0.902369 3.29289 1.29289C2.90237 1.68342 2.90237 2.31658 3.29289 2.70711L3.60622 3.02043C3.84183 3.25604 3.78413 3.65276 3.52265 3.85929C2.59522 4.59184 2 5.72641 2 7V13C2 15.2091 3.79086 17 6 17H17.3787C17.5113 17 17.6385 17.0527 17.7322 17.1464L19.2929 18.7071C19.6834 19.0976 20.3166 19.0976 20.7071 18.7071C21.0976 18.3166 21.0976 17.6834 20.7071 17.2929L4.70711 1.29289ZM15.5858 15L13.5858 13H5C4.44772 13 4 13.4477 4 14C4 14.5523 4.44772 15 5 15H15.5858Z" fill="#171717"/>
<path d="M20.9307 14.7165C21.1564 14.9422 21.5348 14.9011 21.6633 14.6089C21.8798 14.1166 22 13.5723 22 13V7C22 4.79086 20.2091 3 18 3H10.4213C9.97586 3 9.75277 3.53857 10.0678 3.85355L20.9307 14.7165Z" fill="#171717"/>
<path d="M16 19C16.5523 19 17 19.4477 17 20C17 20.5523 16.5523 21 16 21H8C7.44772 21 7 20.5523 7 20C7 19.4477 7.44772 19 8 19H16Z" fill="#171717"/>
</svg>
