<svg width="24" height="24" viewBox="0 0 24 24" fill="none" xmlns="http://www.w3.org/2000/svg">
<path d="M17.3159 19.5545C17.5163 19.3207 17.8765 19.2908 18.0943 19.5085L19.2929 20.7071C19.6834 21.0976 20.3166 21.0976 20.7071 20.7071C21.0976 20.3166 21.0976 19.6834 20.7071 19.2929L4.70711 3.29289C4.31658 2.90237 3.68342 2.90237 3.29289 3.29289C2.90237 3.68342 2.90237 4.31658 3.29289 4.70711L5.1421 6.55631C5.2762 6.69041 5.32139 6.88842 5.26923 7.07076C5.09389 7.68361 5 8.33084 5 9V15C5 18.866 8.13401 22 12 22C14.1268 22 16.0321 21.0515 17.3159 19.5545Z" fill="#171717"/>
<path d="M19 9V13.5787C19 14.0241 18.4614 14.2472 18.1464 13.9322L13.1464 8.93225C13.0527 8.83848 13 8.7113 13 8.57869V6C13 5.44772 12.5523 5 12 5C11.4477 5 11 5.44772 11 6C11 6.28998 10.6494 6.4352 10.4444 6.23015L8.09416 3.87996C7.88179 3.66759 7.90266 3.3159 8.15344 3.15065C9.25727 2.42329 10.5792 2 12 2C15.866 2 19 5.13401 19 9Z" fill="#171717"/>
</svg>
