<svg width="24" height="24" viewBox="0 0 24 24" fill="none" xmlns="http://www.w3.org/2000/svg">
<path fill-rule="evenodd" clip-rule="evenodd" d="M8.61995 5C6.56494 5 4.84428 6.55718 4.6398 8.60199L4.2199 12.801C4.10216 13.9784 5.02673 15 6.20998 15H17.79C18.9733 15 19.8978 13.9784 19.7801 12.801L19.3602 8.60199C19.1557 6.55718 17.4351 5 15.38 5H8.61995ZM22 18C22 17.4477 21.5523 17 21 17L3 17C2.44772 17 2 17.4477 2 18C2 18.5523 2.44772 19 3 19L21 19C21.5523 19 22 18.5523 22 18Z" fill="#171717"/>
</svg>
