<svg width="24" height="24" viewBox="0 0 24 24" fill="none" xmlns="http://www.w3.org/2000/svg">
<path fill-rule="evenodd" clip-rule="evenodd" d="M18.1407 20.4773C18.3472 20.2159 18.744 20.1582 18.9796 20.3938L19.2929 20.7071C19.6834 21.0976 20.3166 21.0976 20.7071 20.7071C21.0976 20.3166 21.0976 19.6834 20.7071 19.2929L4.70711 3.29289C4.31658 2.90237 3.68342 2.90237 3.29289 3.29289C2.90237 3.68342 2.90237 4.31658 3.29289 4.70711L4.85355 6.26777C4.94732 6.36154 5 6.48871 5 6.62132V18C5 20.2091 6.79086 22 9 22H15C16.2736 22 17.4082 21.4048 18.1407 20.4773ZM9 18C8.44772 18 8 18.4477 8 19C8 19.5523 8.44772 20 9 20H15C15.5523 20 16 19.5523 16 19C16 18.4477 15.5523 18 15 18H9Z" fill="#171717"/>
<path d="M19 6V13.5787C19 14.0241 18.4614 14.2472 18.1464 13.9322L7.28349 3.06929C7.05779 2.84359 7.09894 2.46524 7.39112 2.33673C7.88343 2.1202 8.42768 2 9 2H15C17.2091 2 19 3.79086 19 6Z" fill="#171717"/>
</svg>
