<svg width="24" height="24" viewBox="0 0 24 24" fill="none" xmlns="http://www.w3.org/2000/svg">
<path d="M4.70711 3.29289C4.31658 2.90237 3.68342 2.90237 3.29289 3.29289C2.90237 3.68342 2.90237 4.31658 3.29289 4.70711L7.58579 9H6C3.79086 9 2 10.7909 2 13V15C2 16.1046 2.89543 17 4 17H5C5.55228 17 6 16.5523 6 16V15C6 13.8954 6.89543 13 8 13H11.5858L12.5858 14H8C7.44772 14 7 14.4477 7 15V20C7 20.5523 7.44772 21 8 21H14C14.5523 21 15 20.5523 15 20V16.4142L19.2929 20.7071C19.6834 21.0976 20.3166 21.0976 20.7071 20.7071C21.0976 20.3166 21.0976 19.6834 20.7071 19.2929L4.70711 3.29289Z" fill="#171717"/>
<path d="M22 15C22 15.6194 21.7184 16.1731 21.2763 16.5399C21.1048 16.6822 20.8574 16.6432 20.6999 16.4857L19.8574 15.6432C19.5747 15.3605 19.7361 14.7861 19.9059 14.4241C19.9663 14.2954 20 14.1516 20 14C20 13.4477 19.5523 13 19 13C18.8484 13 18.7046 13.0337 18.5759 13.0941C18.2139 13.2639 17.6395 13.4253 17.3568 13.1426L14.0678 9.85355C13.7528 9.53857 13.9759 9 14.4213 9H18C20.2091 9 22 10.7909 22 13V15Z" fill="#171717"/>
<path d="M8 3C7.68254 3 7.58841 3.37421 7.81289 3.59868L12.0678 7.85355C12.1615 7.94732 12.2887 8 12.4213 8H15C15.5523 8 16 7.55228 16 7V5C16 3.89543 15.1046 3 14 3H8Z" fill="#171717"/>
</svg>
