<svg width="24" height="24" viewBox="0 0 24 24" fill="none" xmlns="http://www.w3.org/2000/svg">
<path fill-rule="evenodd" clip-rule="evenodd" d="M6 3C4.89543 3 4 3.89543 4 5V11C4 12.1046 4.89543 13 6 13H18C19.1046 13 20 12.1046 20 11V5C20 3.89543 19.1046 3 18 3H6ZM13 9C12.4477 9 12 9.44772 12 10C12 10.5523 12.4477 11 13 11H17C17.5523 11 18 10.5523 18 10C18 9.44772 17.5523 9 17 9H13ZM8 6C8 5.44772 8.44772 5 9 5H17C17.5523 5 18 5.44772 18 6C18 6.55228 17.5523 7 17 7H9C8.44772 7 8 6.55228 8 6ZM9 9C8.44772 9 8 9.44772 8 10C8 10.5523 8.44772 11 9 11C9.55228 11 10 10.5523 10 10C10 9.44772 9.55228 9 9 9Z" fill="#171717"/>
<path fill-rule="evenodd" clip-rule="evenodd" d="M4 17C4 15.8954 4.89543 15 6 15H18C19.1046 15 20 15.8954 20 17V19C20 20.1046 19.1046 21 18 21H6C4.89543 21 4 20.1046 4 19V17ZM12 18C12 17.4477 12.4477 17 13 17H17C17.5523 17 18 17.4477 18 18C18 18.5523 17.5523 19 17 19H13C12.4477 19 12 18.5523 12 18ZM9 17C8.44772 17 8 17.4477 8 18C8 18.5523 8.44772 19 9 19C9.55228 19 10 18.5523 10 18C10 17.4477 9.55228 17 9 17Z" fill="#171717"/>
</svg>
