<svg width="24" height="24" viewBox="0 0 24 24" fill="none" xmlns="http://www.w3.org/2000/svg">
<path fill-rule="evenodd" clip-rule="evenodd" d="M8 6C8 3.79086 9.79086 2 12 2C14.2091 2 16 3.79086 16 6C18.2091 6 20 7.79086 20 10V18C20 20.2091 18.2091 22 16 22H8C5.79086 22 4 20.2091 4 18V10C4 7.79086 5.79086 6 8 6ZM10 6C10 4.89543 10.8954 4 12 4C13.1046 4 14 4.89543 14 6H10ZM10 9C10 9.55228 9.55228 10 9 10C8.44772 10 8 9.55228 8 9C8 8.44772 8.44772 8 9 8C9.55228 8 10 8.44772 10 9ZM15 10C15.5523 10 16 9.55228 16 9C16 8.44772 15.5523 8 15 8C14.4477 8 14 8.44772 14 9C14 9.55228 14.4477 10 15 10Z" fill="#171717"/>
</svg>
