<svg width="24" height="24" viewBox="0 0 24 24" fill="none" xmlns="http://www.w3.org/2000/svg">
<path fill-rule="evenodd" clip-rule="evenodd" d="M8 7V6C8 4.34315 9.34315 3 11 3H13C14.6569 3 16 4.34315 16 6V7H18C19.6336 7 21.0385 7.9793 21.6596 9.38286C21.8582 9.83168 21.5817 10.3222 21.1177 10.482C18.2595 11.4658 15.1922 12 12 12C8.80785 12 5.74046 11.4658 2.88235 10.482C2.41828 10.3222 2.14175 9.83168 2.34037 9.38286C2.9615 7.9793 4.36638 7 6 7H8ZM10 6C10 5.44772 10.4477 5 11 5H13C13.5523 5 14 5.44772 14 6V7H10V6Z" fill="#171717"/>
<path d="M2 13.707V17C2 19.2091 3.79086 21 6 21H18C20.2091 21 22 19.2091 22 17V13.707C22 13.0169 21.317 12.5335 20.6561 12.7323C18.8167 13.2857 16.9028 13.6673 14.9333 13.8584C14.4089 13.9093 14 14.3439 14 14.8707V15C14 15.5523 13.5523 16 13 16H11C10.4477 16 10 15.5523 10 15V14.8707C10 14.3439 9.59105 13.9093 9.06673 13.8584C7.09715 13.6673 5.18333 13.2857 3.34391 12.7323C2.68303 12.5335 2 13.0169 2 13.707Z" fill="#171717"/>
</svg>
