<svg width="24" height="24" viewBox="0 0 24 24" fill="none" xmlns="http://www.w3.org/2000/svg">
<path d="M4 5C2.89543 5 2 5.89543 2 7V8C2 8.55228 2.44772 9 3 9H21C21.5523 9 22 8.55228 22 8V7C22 5.89543 21.1046 5 20 5H4Z" fill="#171717"/>
<path fill-rule="evenodd" clip-rule="evenodd" d="M2 12C2 11.4477 2.44772 11 3 11H21C21.5523 11 22 11.4477 22 12V17C22 18.1046 21.1046 19 20 19H4C2.89543 19 2 18.1046 2 17V12ZM15 15C15 14.4477 15.4477 14 16 14H19C19.5523 14 20 14.4477 20 15V16C20 16.5523 19.5523 17 19 17H16C15.4477 17 15 16.5523 15 16V15Z" fill="#171717"/>
</svg>
