<svg width="24" height="24" viewBox="0 0 24 24" fill="none" xmlns="http://www.w3.org/2000/svg">
<path d="M5.99999 10.9999C7.72536 10.9999 9.30492 10.3757 10.5252 9.3408C10.7899 9.11632 10.7093 8.70403 10.3827 8.58665C9.32619 8.20693 8.18725 8.00002 6.99998 8.00002C5.91437 8.00002 4.86915 8.17301 3.89041 8.49294C3.75527 8.53711 3.64711 8.63955 3.5961 8.77226C3.44266 9.17151 3.31686 9.58447 3.22102 10.0088C3.17037 10.233 3.28993 10.4601 3.50472 10.5421C4.27982 10.8379 5.12098 10.9999 5.99999 10.9999Z" fill="#171717"/>
<path d="M6.99998 6.00002C8.70105 6.00002 10.3194 6.35397 11.7855 6.99223C12.0346 7.10064 12.3303 7.00409 12.4372 6.75446C12.7994 5.90905 13 4.97792 13 3.99994C13 3.8111 12.9925 3.624 12.9778 3.43893C12.9596 3.20893 12.7743 3.0299 12.544 3.01617C12.364 3.00544 12.1826 3 12 3C9.75377 3 7.69974 3.82289 6.12292 5.18364C5.77161 5.48682 6.0498 6.02819 6.51347 6.0097C6.67484 6.00327 6.83704 6.00002 6.99998 6.00002Z" fill="#171717"/>
<path d="M5.99999 12.9999C8.56343 12.9999 10.8766 11.9282 12.5158 10.2084C12.6945 10.0209 12.9852 9.98404 13.1886 10.1445C13.6135 10.4797 14.0106 10.8487 14.3758 11.2473C14.5514 11.4391 14.5351 11.7332 14.3595 11.925C12.8941 13.526 12 15.6586 12 18C12 18.8685 12.123 19.7082 12.3526 20.5027C12.423 20.7466 12.2538 21 12 21C7.44914 21 3.68719 17.6223 3.08432 13.2371C3.03581 12.8843 3.38349 12.6211 3.72822 12.7108C4.45392 12.8995 5.21523 12.9999 5.99999 12.9999Z" fill="#171717"/>
<path d="M19.8299 9.07537C20.1602 9.03248 20.3823 8.69977 20.2488 8.39463C19.3189 6.27015 17.5923 4.57389 15.4469 3.68366C15.2301 3.59371 15 3.76523 15 3.99994C15 5.36794 14.6948 6.66465 14.1487 7.82569C14.0419 8.05287 14.106 8.32603 14.3051 8.479C14.9058 8.94062 15.4617 9.45783 15.9649 10.0229C16.1313 10.2098 16.4072 10.2544 16.6258 10.1326C17.5974 9.59129 18.6795 9.22471 19.8299 9.07537Z" fill="#171717"/>
<path d="M17.6313 12.4292C17.5045 12.1877 17.5805 11.8845 17.8235 11.7606C18.635 11.3466 19.5381 11.0863 20.4942 11.018C20.7499 10.9997 20.968 11.1939 20.9834 11.4498C20.9944 11.6318 21 11.8152 21 12C21 13.6614 20.5498 15.2177 19.7647 16.5535C19.5295 16.9537 18.9474 16.7767 18.8829 16.317C18.6884 14.931 18.2571 13.6211 17.6313 12.4292Z" fill="#171717"/>
<path d="M15.3733 13.8351C15.579 13.5577 15.9934 13.6088 16.1343 13.924C16.6907 15.1689 17 16.5483 17 18C17 18.4555 16.9695 18.9038 16.9106 19.3432C16.8916 19.4842 16.8104 19.6093 16.689 19.6835C16.1434 20.0172 15.5594 20.2944 14.9453 20.507C14.7035 20.5907 14.441 20.4642 14.3598 20.2214C14.1264 19.5235 14 18.7765 14 18C14 16.4399 14.5104 14.9989 15.3733 13.8351Z" fill="#171717"/>
</svg>
