<svg width="24" height="24" viewBox="0 0 24 24" fill="none" xmlns="http://www.w3.org/2000/svg">
<path fill-rule="evenodd" clip-rule="evenodd" d="M17 3.5C17 3.22386 16.7761 3 16.5 3H7.5C7.22386 3 7 3.22386 7 3.5V4.5C7 4.77614 6.77614 5 6.5 5H5.5C5.22386 5 5 4.77614 5 4.5V4.40199C5 4.01691 4.58645 3.78688 4.3022 4.04668C3.50196 4.77809 3 5.83043 3 7V17C3 18.1696 3.50196 19.2219 4.3022 19.9533C4.58645 20.2131 5 19.9831 5 19.598V19.5C5 19.2239 5.22386 19 5.5 19H6.5C6.77614 19 7 19.2239 7 19.5V20.5C7 20.7761 7.22386 21 7.5 21H16.5C16.7761 21 17 20.7761 17 20.5V19.5C17 19.2239 17.2239 19 17.5 19H18.5C18.7761 19 19 19.2239 19 19.5V19.598C19 19.9831 19.4136 20.2131 19.6978 19.9533C20.498 19.2219 21 18.1696 21 17V7C21 5.83043 20.498 4.77809 19.6978 4.04668C19.4136 3.78688 19 4.01691 19 4.40199V4.5C19 4.77614 18.7761 5 18.5 5H17.5C17.2239 5 17 4.77614 17 4.5V3.5ZM5 7.5C5 7.22386 5.22386 7 5.5 7H6.5C6.77614 7 7 7.22386 7 7.5V8.5C7 8.77614 6.77614 9 6.5 9H5.5C5.22386 9 5 8.77614 5 8.5V7.5ZM17.5 7C17.2239 7 17 7.22386 17 7.5V8.5C17 8.77614 17.2239 9 17.5 9H18.5C18.7761 9 19 8.77614 19 8.5V7.5C19 7.22386 18.7761 7 18.5 7H17.5ZM5 11.5C5 11.2239 5.22386 11 5.5 11H6.5C6.77614 11 7 11.2239 7 11.5V12.5C7 12.7761 6.77614 13 6.5 13H5.5C5.22386 13 5 12.7761 5 12.5V11.5ZM17.5 11C17.2239 11 17 11.2239 17 11.5V12.5C17 12.7761 17.2239 13 17.5 13H18.5C18.7761 13 19 12.7761 19 12.5V11.5C19 11.2239 18.7761 11 18.5 11H17.5ZM5 15.5C5 15.2239 5.22386 15 5.5 15H6.5C6.77614 15 7 15.2239 7 15.5V16.5C7 16.7761 6.77614 17 6.5 17H5.5C5.22386 17 5 16.7761 5 16.5V15.5ZM17.5 15C17.2239 15 17 15.2239 17 15.5V16.5C17 16.7761 17.2239 17 17.5 17H18.5C18.7761 17 19 16.7761 19 16.5V15.5C19 15.2239 18.7761 15 18.5 15H17.5Z" fill="#171717"/>
</svg>
