<svg width="24" height="24" viewBox="0 0 24 24" fill="none" xmlns="http://www.w3.org/2000/svg">
<path d="M13 3C17.4183 3 21 6.58172 21 11V18C21 18.5523 20.5523 19 20 19H15.9085C15.1739 19 14.6802 18.2239 14.8375 17.5063C14.9439 17.0211 15 16.5171 15 16C15 12.134 11.866 9 8 9C7.63409 9 7.27473 9.02808 6.92397 9.08219C6.13057 9.2046 5.33987 8.54931 5.65996 7.81309C6.89145 4.98066 9.71442 3 13 3Z" fill="#171717"/>
<path d="M3 16C3 13.2386 5.23858 11 8 11C10.7614 11 13 13.2386 13 16C13 18.7614 10.7614 21 8 21H4C3.44772 21 3 20.5523 3 20V16Z" fill="#171717"/>
</svg>
