<svg width="24" height="24" viewBox="0 0 24 24" fill="none" xmlns="http://www.w3.org/2000/svg">
<path fill-rule="evenodd" clip-rule="evenodd" d="M2 4C2 2.89543 2.89543 2 4 2H12C13.1046 2 14 2.89543 14 4V20C14 21.1046 13.1046 22 12 22H4C2.89543 22 2 21.1046 2 20V4ZM5 17C5 16.4477 5.44772 16 6 16H10C10.5523 16 11 16.4477 11 17V19C11 19.5523 10.5523 20 10 20H6C5.44772 20 5 19.5523 5 19V17ZM5.5 12C5.22386 12 5 12.2239 5 12.5V13.5C5 13.7761 5.22386 14 5.5 14H6.5C6.77614 14 7 13.7761 7 13.5V12.5C7 12.2239 6.77614 12 6.5 12H5.5ZM5 8.5C5 8.22386 5.22386 8 5.5 8H6.5C6.77614 8 7 8.22386 7 8.5V9.5C7 9.77614 6.77614 10 6.5 10H5.5C5.22386 10 5 9.77614 5 9.5V8.5ZM5.5 4C5.22386 4 5 4.22386 5 4.5V5.5C5 5.77614 5.22386 6 5.5 6H6.5C6.77614 6 7 5.77614 7 5.5V4.5C7 4.22386 6.77614 4 6.5 4H5.5ZM9 12.5C9 12.2239 9.22386 12 9.5 12H10.5C10.7761 12 11 12.2239 11 12.5V13.5C11 13.7761 10.7761 14 10.5 14H9.5C9.22386 14 9 13.7761 9 13.5V12.5ZM9.5 8C9.22386 8 9 8.22386 9 8.5V9.5C9 9.77614 9.22386 10 9.5 10H10.5C10.7761 10 11 9.77614 11 9.5V8.5C11 8.22386 10.7761 8 10.5 8H9.5ZM9 4.5C9 4.22386 9.22386 4 9.5 4H10.5C10.7761 4 11 4.22386 11 4.5V5.5C11 5.77614 10.7761 6 10.5 6H9.5C9.22386 6 9 5.77614 9 5.5V4.5Z" fill="#171717"/>
<path fill-rule="evenodd" clip-rule="evenodd" d="M16 10C16 8.89543 16.8954 8 18 8H20C21.1046 8 22 8.89543 22 10V20C22 21.1046 21.1046 22 20 22H18C16.8954 22 16 21.1046 16 20V10ZM18 18.5C18 18.2239 18.2239 18 18.5 18H19.5C19.7761 18 20 18.2239 20 18.5V19.5C20 19.7761 19.7761 20 19.5 20H18.5C18.2239 20 18 19.7761 18 19.5V18.5ZM18.5 14C18.2239 14 18 14.2239 18 14.5V15.5C18 15.7761 18.2239 16 18.5 16H19.5C19.7761 16 20 15.7761 20 15.5V14.5C20 14.2239 19.7761 14 19.5 14H18.5ZM18 10.5C18 10.2239 18.2239 10 18.5 10H19.5C19.7761 10 20 10.2239 20 10.5V11.5C20 11.7761 19.7761 12 19.5 12H18.5C18.2239 12 18 11.7761 18 11.5V10.5Z" fill="#171717"/>
</svg>
