<svg width="24" height="24" viewBox="0 0 24 24" fill="none" xmlns="http://www.w3.org/2000/svg">
<path fill-rule="evenodd" clip-rule="evenodd" d="M12 21C16.9706 21 21 16.9706 21 12C21 7.02944 16.9706 3 12 3C7.02944 3 3 7.02944 3 12C3 16.9706 7.02944 21 12 21ZM17.1052 7.55694C17.2964 7.13635 16.8637 6.70368 16.4431 6.89486L10.5616 9.5683C10.1213 9.7684 9.76854 10.1212 9.56844 10.5614L6.89499 16.443C6.70382 16.8636 7.13649 17.2963 7.55708 17.1051L13.4387 14.4316C13.8789 14.2316 14.2317 13.8787 14.4318 13.4385L17.1052 7.55694Z" fill="#171717"/>
<path d="M13 12C13 12.5523 12.5523 13 12 13C11.4477 13 11 12.5523 11 12C11 11.4477 11.4477 11 12 11C12.5523 11 13 11.4477 13 12Z" fill="#171717"/>
</svg>
