<svg width="24" height="24" viewBox="0 0 24 24" fill="none" xmlns="http://www.w3.org/2000/svg">
<path d="M7 3C4.79086 3 3 4.79086 3 7V7.5C3 7.77614 3.22386 8 3.5 8L14.5858 8L13.7929 7.20711C13.4024 6.81658 13.4024 6.18342 13.7929 5.79289C14.1834 5.40237 14.8166 5.40237 15.2071 5.79289L17.7071 8.29289C18.0976 8.68342 18.0976 9.31658 17.7071 9.70711L15.2071 12.2071C14.8166 12.5976 14.1834 12.5976 13.7929 12.2071C13.4024 11.8166 13.4024 11.1834 13.7929 10.7929L14.5858 10L3.5 10C3.22386 10 3 10.2239 3 10.5V17C3 19.2091 4.79086 21 7 21H17C19.2091 21 21 19.2091 21 17V16.5C21 16.2239 20.7761 16 20.5 16H9.41421L10.2071 16.7929C10.5976 17.1834 10.5976 17.8166 10.2071 18.2071C9.81658 18.5976 9.18342 18.5976 8.79289 18.2071L6.29289 15.7071C5.90237 15.3166 5.90237 14.6834 6.29289 14.2929L8.79289 11.7929C9.18342 11.4024 9.81658 11.4024 10.2071 11.7929C10.5976 12.1834 10.5976 12.8166 10.2071 13.2071L9.41421 14H20.5C20.7761 14 21 13.7761 21 13.5V7C21 4.79086 19.2091 3 17 3H7Z" fill="#171717"/>
</svg>
