<svg width="24" height="24" viewBox="0 0 24 24" fill="none" xmlns="http://www.w3.org/2000/svg">
<path fill-rule="evenodd" clip-rule="evenodd" d="M7 2C5.34315 2 4 3.34315 4 5V19C4 20.6569 5.34315 22 7 22H17C18.6569 22 20 20.6569 20 19V9.24264C20 8.44699 19.6839 7.68393 19.1213 7.12132L14.8787 2.87868C14.3161 2.31607 13.553 2 12.7574 2H7ZM13 8C13 8.55228 13.4477 9 14 9H16.7929C17.2383 9 17.4614 8.46143 17.1464 8.14645L13.8536 4.85355C13.5386 4.53857 13 4.76165 13 5.20711V8Z" fill="#171717"/>
</svg>
