<svg width="24" height="24" viewBox="0 0 24 24" fill="none" xmlns="http://www.w3.org/2000/svg">
<path fill-rule="evenodd" clip-rule="evenodd" d="M22 17C22 18.6569 20.6569 20 19 20H5C3.34315 20 2 18.6569 2 17L2 7C2 5.34315 3.34315 4 5 4L14.7574 4C15.553 4 16.3161 4.31607 16.8787 4.87868L21.1213 9.12132C21.6839 9.68393 22 10.447 22 11.2426V17ZM16 11C15.4477 11 15 10.5523 15 10V7.20711C15 6.76166 15.5386 6.53857 15.8536 6.85355L19.1464 10.1464C19.4614 10.4614 19.2383 11 18.7929 11H16Z" fill="#171717"/>
</svg>
