<svg width="24" height="24" viewBox="0 0 24 24" fill="none" xmlns="http://www.w3.org/2000/svg">
<path fill-rule="evenodd" clip-rule="evenodd" d="M2.28883 13.0792C1.90372 12.4253 1.90372 11.5747 2.28883 10.9208C4.39231 7.34883 7.9568 5 12 5C16.0432 5 19.6077 7.34883 21.7112 10.9208C22.0963 11.5747 22.0963 12.4253 21.7112 13.0792C19.6077 16.6512 16.0432 19 12 19C7.9568 19 4.39231 16.6512 2.28883 13.0792ZM16 12C16 14.2091 14.2091 16 12 16C9.79086 16 8 14.2091 8 12C8 9.79086 9.79086 8 12 8C14.2091 8 16 9.79086 16 12ZM12 14C13.1046 14 14 13.1046 14 12C14 10.8954 13.1046 10 12 10C10.8954 10 10 10.8954 10 12C10 13.1046 10.8954 14 12 14Z" fill="#171717"/>
</svg>
