<svg width="24" height="24" viewBox="0 0 24 24" fill="none" xmlns="http://www.w3.org/2000/svg">
<path fill-rule="evenodd" clip-rule="evenodd" d="M16.8409 10.2657L10.6798 4.10459L10.2314 3.67211C9.59638 3.05967 8.53717 3.50967 8.53717 4.39189V5.48661C8.53717 6.02194 8.32256 6.53492 7.94137 6.91077L4.53873 10.2657C3.74826 11.0451 3.74377 12.3192 4.52872 13.1041L9.26557 17.841C10.0466 18.622 11.313 18.622 12.094 17.841L16.8409 13.0941C17.6219 12.3131 17.6219 11.0467 16.8409 10.2657ZM17.7134 14.3017L16.1609 15.936C15.4575 16.6764 15.2667 17.7664 15.6768 18.7017C16.5643 20.7257 19.4356 20.7257 20.3231 18.7017C20.7332 17.7664 20.5424 16.6764 19.839 15.936L18.2865 14.3017C18.1307 14.1377 17.8692 14.1377 17.7134 14.3017Z" fill="#171717"/>
</svg>
