<svg width="24" height="24" viewBox="0 0 24 24" fill="none" xmlns="http://www.w3.org/2000/svg">
<path fill-rule="evenodd" clip-rule="evenodd" d="M21 12C21 16.9706 16.9706 21 12 21C7.02944 21 3 16.9706 3 12C3 7.02944 7.02944 3 12 3C16.9706 3 21 7.02944 21 12ZM18.0255 12.551C18.4752 13.4504 18.6132 14.5115 18.1254 15.3908C16.9314 17.5432 14.6358 19 12 19C8.13401 19 5 15.866 5 12C5 9.20576 6.63722 6.7939 9.0047 5.6714C9.07425 5.63842 9.14421 5.71158 9.10979 5.78043C9.0496 5.9008 9.01176 6.0318 8.97424 6.16172C8.96675 6.18766 8.95927 6.21355 8.95163 6.23931C8.88156 6.47547 8.74123 6.82822 8.56946 7.22506C8.27857 7.89711 9.0275 8.5835 9.65544 8.20673C9.87004 8.07797 10.1356 8.06778 10.3594 8.1797L10.5858 8.29289C10.851 8.4255 11.158 8.44732 11.4393 8.35355L11.9271 8.19098C12.2435 8.08551 12.5855 8.25652 12.691 8.57295C12.833 8.99887 12.4771 9.4253 12.0326 9.3618L10.3262 9.11803C9.80611 9.04373 9.28135 9.21865 8.90983 9.59017L7.94196 10.558C7.37943 11.1206 7.23997 11.9799 7.59575 12.6915C7.85081 13.2016 8.32712 13.5654 8.88639 13.6773L9.03184 13.7064C9.90861 13.8817 10.5748 14.5984 10.6857 15.4857L10.699 15.5923C10.8547 16.8379 12.1111 17.6296 13.3019 17.2327C13.7524 17.0825 14.1343 16.7762 14.3786 16.369L15.2741 14.8765C15.4242 14.6263 15.5466 14.3603 15.6389 14.0834L15.7947 13.6158C15.9307 13.2079 16.0182 12.7758 15.9204 12.3572C15.8486 12.0491 15.7194 11.7194 15.5 11.5C15.3085 11.3085 15.0329 11.1093 14.7611 10.9354C14.4566 10.7407 14.4613 10.2693 14.7846 10.1077C14.9188 10.0406 15.0779 10.0467 15.2065 10.1239L16.6335 10.9801C17.1994 11.3196 17.6568 11.8135 17.9519 12.4038L18.0255 12.551Z" fill="#171717"/>
</svg>
