<svg width="24" height="24" viewBox="0 0 24 24" fill="none" xmlns="http://www.w3.org/2000/svg">
<path d="M12 12C14.2091 12 16 10.2091 16 8C16 5.79086 14.2091 4 12 4C9.79086 4 8 5.79086 8 8C8 10.2091 9.79086 12 12 12Z" fill="#171717"/>
<path d="M18.9287 19.0033C19.0073 19.55 18.5523 20 18 20L6 20C5.44772 20 4.99266 19.55 5.07129 19.0033C5.28531 17.5153 5.97471 16.1258 7.05025 15.0503C8.36301 13.7375 10.1435 13 12 13C13.8565 13 15.637 13.7375 16.9497 15.0503C18.0253 16.1258 18.7147 17.5153 18.9287 19.0033Z" fill="#171717"/>
<path d="M8.00972 12.2276C8.36273 11.9089 8.27957 11.3739 7.99461 10.9932C7.37002 10.1587 7.0001 9.12254 7.0001 8C7.0001 7.52901 6.74773 7.05593 6.27872 7.01276C6.18702 7.00431 6.09412 7 6.00021 7C4.34336 7 3.00021 8.34315 3.00021 10C3.00021 11.6569 4.34336 13 6.00021 13C6.77316 13 7.47784 12.7077 8.00972 12.2276Z" fill="#171717"/>
<path d="M6.34325 14.3431C6.46439 14.222 6.39687 14.0128 6.22573 14.0051C6.15076 14.0017 6.07558 14 6.00021 14C4.67413 14 3.40236 14.5268 2.46468 15.4645C1.76468 16.1645 1.29367 17.0506 1.09986 18.0066C0.990131 18.5479 1.44793 19 2.00021 19L3.92659 19C4.00544 19 4.07035 18.939 4.08157 18.861C4.32617 17.1604 5.11403 15.5724 6.34325 14.3431Z" fill="#171717"/>
<path d="M19.9186 18.861C19.9299 18.939 19.9948 19 20.0736 19H22.0002C22.5525 19 23.0103 18.5479 22.9006 18.0066C22.7068 17.0506 22.2357 16.1645 21.5357 15.4645C20.5981 14.5268 19.3263 14 18.0002 14C17.9248 14 17.8495 14.0017 17.7745 14.0051C17.6033 14.0128 17.5358 14.222 17.657 14.3431C18.8862 15.5724 19.674 17.1604 19.9186 18.861Z" fill="#171717"/>
<path d="M16.0057 10.9931C15.7207 11.3738 15.6376 11.9087 15.9905 12.2274C16.5224 12.7076 17.2272 13 18.0002 13C19.6571 13 21.0002 11.6569 21.0002 10C21.0002 8.34315 19.6571 7 18.0002 7C17.9062 7 17.8132 7.00432 17.7214 7.01278C17.2524 7.05601 17.0001 7.52905 17.0001 8C17.0001 9.1225 16.6302 10.1586 16.0057 10.9931Z" fill="#171717"/>
</svg>
