<svg width="24" height="24" viewBox="0 0 24 24" fill="none" xmlns="http://www.w3.org/2000/svg">
<path fill-rule="evenodd" clip-rule="evenodd" d="M7.55544 6.34824C8.87104 5.46919 10.4178 5 12 5C13.5823 5 15.129 5.46919 16.4446 6.34824C17.7602 7.22729 18.7855 8.47672 19.391 9.93853C19.9965 11.4003 20.155 13.0089 19.8463 14.5607C19.6029 15.7843 19.0777 16.9293 18.318 17.9074C17.9792 18.3436 17.9734 18.9734 18.364 19.364C18.7545 19.7545 19.3921 19.7574 19.7417 19.3298C20.7755 18.0654 21.4873 16.5627 21.8079 14.9509C22.1937 13.0111 21.9957 11.0004 21.2388 9.17317C20.4819 7.3459 19.2002 5.78412 17.5557 4.6853C15.9112 3.58649 13.9778 3 12 3C10.0222 3 8.08879 3.58649 6.4443 4.6853C4.79981 5.78412 3.51809 7.3459 2.76121 9.17317C2.00433 11.0004 1.8063 13.0111 2.19215 14.9509C2.51276 16.5627 3.2245 18.0654 4.25831 19.3298C4.60789 19.7574 5.24552 19.7545 5.63604 19.364C6.02657 18.9734 6.02079 18.3436 5.682 17.9074C4.92228 16.9293 4.39711 15.7843 4.15372 14.5607C3.84504 13.0089 4.00347 11.4003 4.60897 9.93853C5.21447 8.47672 6.23985 7.22729 7.55544 6.34824ZM12 9C11.2089 9 10.4355 9.2346 9.77772 9.67412C9.11993 10.1136 8.60723 10.7384 8.30448 11.4693C8.00173 12.2002 7.92252 13.0044 8.07686 13.7804C8.16574 14.2272 8.32976 14.653 8.55973 15.0407C8.84149 15.5157 8.85499 16.145 8.46447 16.5355C8.07394 16.9261 7.43262 16.9299 7.1123 16.48C6.62268 15.7923 6.28144 15.0058 6.11529 14.1705C5.88378 13.0067 6.0026 11.8003 6.45673 10.7039C6.91085 9.60754 7.67989 8.67047 8.66658 8.01118C9.65328 7.35189 10.8133 7 12 7C13.1867 7 14.3467 7.35189 15.3334 8.01118C16.3201 8.67047 17.0892 9.60754 17.5433 10.7039C17.9974 11.8003 18.1162 13.0067 17.8847 14.1705C17.7186 15.0058 17.3773 15.7923 16.8877 16.48C16.5674 16.9299 15.9261 16.9261 15.5355 16.5355C15.145 16.145 15.1585 15.5157 15.4403 15.0407C15.6702 14.653 15.8343 14.2272 15.9231 13.7804C16.0775 13.0044 15.9983 12.2002 15.6955 11.4693C15.3928 10.7384 14.8801 10.1136 14.2223 9.67412C13.5645 9.2346 12.7911 9 12 9ZM13 15.3092C13 14.9523 13.2055 14.6352 13.4512 14.3763C13.7913 14.0177 14 13.5332 14 13C14 11.8954 13.1046 11 12 11C10.8954 11 10 11.8954 10 13C10 13.5332 10.2087 14.0177 10.5488 14.3763C10.7945 14.6352 11 14.9523 11 15.3092V20C11 20.5523 11.4477 21 12 21C12.5523 21 13 20.5523 13 20V15.3092Z" fill="#171717"/>
</svg>
