<svg width="24" height="24" viewBox="0 0 24 24" fill="none" xmlns="http://www.w3.org/2000/svg">
<path d="M12 7C13.1046 7 14 6.10457 14 5C14 3.89543 13.1046 3 12 3C10.8955 3 10 3.89543 10 5C10 6.10457 10.8955 7 12 7Z" fill="#171717"/>
<path d="M9.55639 12.3644C9.59548 12.2601 9.75003 12.2881 9.75003 12.3995V20C9.75003 20.5523 10.1977 21 10.75 21C11.3023 21 11.75 20.5523 11.75 20V16.25C11.75 16.1119 11.862 16 12 16C12.1381 16 12.25 16.1119 12.25 16.25V20C12.25 20.5523 12.6977 21 13.25 21C13.8023 21 14.25 20.5523 14.25 20V12.3995C14.25 12.2881 14.4046 12.2601 14.4437 12.3644L14.8137 13.3511C15.0076 13.8682 15.584 14.1302 16.1012 13.9363C16.6183 13.7424 16.8803 13.166 16.6864 12.6489L15.4297 9.29775C15.137 8.51715 14.3907 8 13.557 8H10.443C9.60934 8 8.8631 8.51715 8.57037 9.29775L7.3137 12.6489C7.11978 13.166 7.38178 13.7424 7.8989 13.9363C8.41602 14.1302 8.99244 13.8682 9.18636 13.3511L9.55639 12.3644Z" fill="#171717"/>
</svg>
