<svg width="24" height="24" viewBox="0 0 24 24" fill="none" xmlns="http://www.w3.org/2000/svg">
<path fill-rule="evenodd" clip-rule="evenodd" d="M4.70711 3.29289C4.31658 2.90237 3.68342 2.90237 3.29289 3.29289C2.90237 3.68342 2.90237 4.31658 3.29289 4.70711L4.79174 6.20595C4.93038 6.3446 4.97519 6.55148 4.90635 6.73507L3.31835 10.9697C3.10783 11.5311 3 12.1258 3 12.7253V17C3 19.2091 4.79086 21 7 21H17C17.6103 21 18.1886 20.8633 18.7061 20.619C18.9025 20.5262 19.1393 20.5535 19.2929 20.7071C19.6834 21.0976 20.3166 21.0976 20.7071 20.7071C21.0976 20.3166 21.0976 19.6834 20.7071 19.2929L4.70711 3.29289ZM13 15C13.2328 15 13.3122 14.7264 13.1476 14.5618L7.12192 8.53613C6.86479 8.279 6.42789 8.37364 6.3002 8.71413L5.69634 10.3244C5.57376 10.6513 5.8154 11 6.1645 11H7C8.10457 11 9 11.8954 9 13C9 14.1046 9.89543 15 11 15H13Z" fill="#171717"/>
<path d="M17 11C16.6952 11 16.4064 11.0682 16.1479 11.1901C15.8847 11.3142 15.8725 11.6582 16.0782 11.864L20.1464 15.9322C20.4614 16.2472 21 16.0241 21 15.5786V12.7253C21 12.1258 20.8922 11.5311 20.6816 10.9697L18.9096 6.24438C18.1778 4.29286 16.3122 3 14.228 3H9.772C9.28009 3 8.80036 3.07202 8.34483 3.20771C8.01156 3.30699 7.93589 3.72163 8.18179 3.96752L9.07498 4.86072C9.18999 4.97573 9.35355 5.02476 9.5156 5.01092C9.60033 5.00368 9.68585 5 9.772 5H14.228C15.4785 5 16.5979 5.77572 17.037 6.94663L18.3037 10.3244C18.4262 10.6513 18.1846 11 17.8355 11H17Z" fill="#171717"/>
</svg>
