<svg width="24" height="24" viewBox="0 0 24 24" fill="none" xmlns="http://www.w3.org/2000/svg">
<path fill-rule="evenodd" clip-rule="evenodd" d="M14 12.7929C14 12.666 14.0756 12.5519 14.1897 12.4963C15.8537 11.6844 17 9.97609 17 8C17 5.23858 14.7614 3 12 3C9.23858 3 7 5.23858 7 8C7 9.93398 8.09802 11.6115 9.70466 12.4432C9.88116 12.5345 10 12.7124 10 12.9111V18.5858C10 18.851 10.1054 19.1054 10.2929 19.2929L11.2929 20.2929C11.6834 20.6834 12.3166 20.6834 12.7071 20.2929L13.7071 19.2929C13.8946 19.1054 14 18.851 14 18.5858V18.2071C14 18.0745 13.9473 17.9473 13.8536 17.8536L13.3536 17.3536C13.1583 17.1583 13.1583 16.8417 13.3536 16.6464L13.6464 16.3536C13.8417 16.1583 13.8417 15.8417 13.6464 15.6464L13.1464 15.1464C13.0527 15.0527 13 14.9255 13 14.7929V14.2071C13 14.0745 13.0527 13.9473 13.1464 13.8536L13.8536 13.1464C13.9473 13.0527 14 12.9255 14 12.7929ZM14 7C14 8.10457 13.1046 9 12 9C10.8954 9 10 8.10457 10 7C10 5.89543 10.8954 5 12 5C13.1046 5 14 5.89543 14 7Z" fill="#171717"/>
</svg>
