<svg width="24" height="24" viewBox="0 0 24 24" fill="none" xmlns="http://www.w3.org/2000/svg">
<path fill-rule="evenodd" clip-rule="evenodd" d="M7 5C4.79086 5 3 6.79086 3 9V15C3 17.2091 4.79086 19 7 19H17C19.2091 19 21 17.2091 21 15V9C21 6.79086 19.2091 5 17 5H7ZM7.13324 7.72604C6.70579 7.37631 6.07577 7.43932 5.72604 7.86676C5.37631 8.29421 5.43932 8.92423 5.86676 9.27396L11.3668 13.774C11.7351 14.0753 12.2649 14.0753 12.6332 13.774L18.1332 9.27396C18.5607 8.92423 18.6237 8.29421 18.274 7.86676C17.9242 7.43932 17.2942 7.37631 16.8668 7.72604L12 11.7079L7.13324 7.72604Z" fill="#171717"/>
</svg>
