<svg width="24" height="24" viewBox="0 0 24 24" fill="none" xmlns="http://www.w3.org/2000/svg">
<path d="M20.6939 14.3359C20.8158 13.8809 20.2523 13.5808 19.8595 13.8408C18.753 14.5734 17.4263 15 16 15C12.134 15 9 11.866 9 8C9 6.57367 9.4266 5.24698 10.1592 4.14055C10.4192 3.74773 10.1191 3.18416 9.66405 3.30612C5.82598 4.33479 3 7.83737 3 12C3 16.9706 7.02944 21 12 21C16.1626 21 19.6652 18.174 20.6939 14.3359Z" fill="#171717"/>
<path d="M16 11C15.4477 11 15 10.5523 15 10V6.41421L13.7071 7.70711C13.3166 8.09763 12.6834 8.09763 12.2929 7.70711C11.9024 7.31658 11.9024 6.68342 12.2929 6.29289L15.2929 3.29289C15.6834 2.90237 16.3166 2.90237 16.7071 3.29289L19.7071 6.29289C20.0976 6.68342 20.0976 7.31658 19.7071 7.70711C19.3166 8.09763 18.6834 8.09763 18.2929 7.70711L17 6.41421V10C17 10.5523 16.5523 11 16 11Z" fill="#171717"/>
</svg>
