<svg width="24" height="24" viewBox="0 0 24 24" fill="none" xmlns="http://www.w3.org/2000/svg">
<path d="M9 11.148C9 10.8992 9.18296 10.6882 9.42929 10.653L18.4293 9.36729C18.7305 9.32426 19 9.55799 19 9.86227V12.8879C19 13.026 18.8632 13.1228 18.7293 13.0893C18.4958 13.031 18.2515 13.0001 18 13.0001C16.3431 13.0001 15 14.3432 15 16.0001C15 17.6569 16.3431 19 18 19C19.6569 19 21 17.6569 21 16.0001V4.00019C21 3.43974 20.5428 2.99895 20 3C19.9534 3.00009 19.9062 3.00344 19.8586 3.01024L7.85858 4.72452C7.36593 4.7949 7 5.21682 7 5.71447V14.8879C7 15.026 6.86319 15.1228 6.72928 15.0893C6.49582 15.031 6.25152 15.0001 6 15.0001C4.34315 15.0001 3 16.3432 3 18.0001C3 19.6569 4.34315 21.0001 6 21.0001C7.65685 21.0001 9 19.6569 9 18.0001V11.148Z" fill="#171717"/>
</svg>
