<svg width="24" height="24" viewBox="0 0 24 24" fill="none" xmlns="http://www.w3.org/2000/svg">
<path d="M7.75046 15.1702C8.19404 14.8758 9.18736 14.2165 9.90677 13.7464C9.872 13.951 9.84042 14.1844 9.83403 14.4306L9.83366 14.4371C9.83015 14.4934 9.80636 14.875 9.95477 15.2177C10.0531 15.4448 10.2336 15.6867 10.5309 15.8436C10.8136 15.9929 11.1066 16.0149 11.3489 15.9925C11.5716 15.9719 11.8294 15.8975 12.0194 15.8382C12.2358 15.7706 12.4738 15.6864 12.6945 15.6047C13.063 15.4683 13.4166 15.3264 13.5752 15.2627L13.6446 15.235C14.1838 15.0216 14.7128 14.8095 15.2393 14.5983C15.9457 14.315 16.6482 14.0333 17.3643 13.7532C17.8786 13.5519 18.1325 12.9719 17.9313 12.4576C17.73 11.9432 17.15 11.6894 16.6357 11.8906C15.9195 12.1708 15.1966 12.4606 14.4783 12.7487C13.9512 12.96 13.4264 13.1705 12.9088 13.3752L12.8205 13.4105C12.6534 13.4776 12.3377 13.6042 12.0004 13.729L11.9401 13.7512C11.97 13.5954 12.0033 13.4168 12.0267 13.2471L12.0307 13.2182C12.0561 13.034 12.0853 12.8226 12.1044 12.6068L12.1066 12.5955L12.1084 12.5871C12.1137 12.5617 12.1271 12.4974 12.1361 12.437C12.1577 12.2933 12.1924 11.9638 12.0091 11.6157C11.8912 11.3919 11.7027 11.2091 11.4621 11.1019C11.2398 11.0028 11.0301 10.9931 10.8847 11.0031C10.6152 11.0217 10.3841 11.122 10.258 11.1821C10.0512 11.2806 9.79898 11.4411 9.68107 11.5162C9.65513 11.5327 9.63568 11.5451 9.62466 11.5517C9.17899 11.8211 7.24364 13.106 6.61983 13.5201L6.44804 13.6341C5.9875 13.939 5.86128 14.5594 6.16611 15.0199C6.47094 15.4805 7.09139 15.6067 7.55193 15.3019L7.75046 15.1702Z" fill="#171717"/>
<path fill-rule="evenodd" clip-rule="evenodd" d="M3 7C3 4.79086 4.79086 3 7 3H17C19.2091 3 21 4.79086 21 7V17C21 19.2091 19.2091 21 17 21H7C4.79086 21 3 19.2091 3 17V7ZM5 10C5 8.89543 5.89543 8 7 8H17C18.1046 8 19 8.89543 19 10V17C19 18.1046 18.1046 19 17 19H7C5.89543 19 5 18.1046 5 17V10Z" fill="#171717"/>
</svg>
