<svg width="24" height="24" viewBox="0 0 24 24" fill="none" xmlns="http://www.w3.org/2000/svg">
<path d="M14.8349 18.9816C15.0156 18.4597 14.5523 18 14 18H10C9.44772 18 8.98442 18.4597 9.16514 18.9816C9.31232 19.4066 9.55459 19.7972 9.87868 20.1213C10.4413 20.6839 11.2044 21 12 21C12.7956 21 13.5587 20.6839 14.1213 20.1213C14.4454 19.7972 14.6877 19.4066 14.8349 18.9816Z" fill="#171717"/>
<path d="M4 13.3673C4 12.5293 4.47345 11.7633 5.22295 11.3885C5.72242 11.1388 6.10897 10.7094 6.30504 10.1865L8.02669 5.59551C8.61214 4.03429 10.1046 3 11.772 3H12.228C13.8954 3 15.3879 4.03429 15.9733 5.59551L17.695 10.1866C17.891 10.7094 18.2776 11.1388 18.777 11.3885C19.5266 11.7633 20 12.5293 20 13.3673V13.9098C20 15.6165 18.6165 17 16.9098 17H7.09017C5.38352 17 4 15.6165 4 13.9098V13.3673Z" fill="#171717"/>
</svg>
