<svg width="24" height="24" viewBox="0 0 24 24" fill="none" xmlns="http://www.w3.org/2000/svg">
<path d="M14.7071 5.29286C14.3166 5.68339 14.3166 6.31655 14.7071 6.70708L17.2929 9.29286C17.6834 9.68339 18.3166 9.68339 18.7071 9.29286L20.2929 7.70708C20.6834 7.31655 20.6834 6.68339 20.2929 6.29286L17.7071 3.70708C17.3166 3.31655 16.6834 3.31655 16.2929 3.70708L14.7071 5.29286Z" fill="#171717"/>
<path d="M4.17157 15.8284C3.42143 16.5785 3 17.596 3 18.6568V20C3 20.5523 3.44772 21 4 21H5.34315C6.40401 21 7.42143 20.5785 8.17157 19.8284L16.2929 11.7071C16.6834 11.3166 16.6834 10.6834 16.2929 10.2929L13.7071 7.70708C13.3166 7.31655 12.6834 7.31655 12.2929 7.70708L4.17157 15.8284Z" fill="#171717"/>
</svg>
