<svg width="24" height="24" viewBox="0 0 24 24" fill="none" xmlns="http://www.w3.org/2000/svg">
<path fill-rule="evenodd" clip-rule="evenodd" d="M21 12C21 16.9706 16.9706 21 12 21C7.02944 21 3 16.9706 3 12C3 7.02944 7.02944 3 12 3C16.9706 3 21 7.02944 21 12ZM5 11.6667C5 7.98477 7.98477 5 11.6667 5H12.3333C16.0152 5 19 7.98477 19 11.6667C19 11.8508 18.8508 12 18.6667 12H13.501C13.347 12 13.2508 11.8333 13.3277 11.7L14.8658 9.03595C15.142 8.55765 14.9781 7.94606 14.4998 7.66992C14.0215 7.39378 13.4099 7.55765 13.1338 8.03595L10.9895 11.75C10.9002 11.9047 10.7351 12 10.5565 12H5.33333C5.14924 12 5 11.8508 5 11.6667Z" fill="#171717"/>
</svg>
