<svg width="24" height="24" viewBox="0 0 24 24" fill="none" xmlns="http://www.w3.org/2000/svg">
<path fill-rule="evenodd" clip-rule="evenodd" d="M7 3C4.79086 3 3 4.79086 3 7V17C3 19.2091 4.79086 21 7 21H17C19.2091 21 21 19.2091 21 17V7C21 4.79086 19.2091 3 17 3H7ZM16 10L8 10C7.44772 10 7 10.4477 7 11V13C7 13.5523 7.44772 14 8 14H9C9.55228 14 10 14.4477 10 15C10 15.5523 9.55229 16 9 16H8C6.34315 16 5 14.6569 5 13V11C5 9.34315 6.34315 8 8 8H16C17.6569 8 19 9.34315 19 11V13C19 14.6569 17.6569 16 16 16H14.4142L15.2071 16.7929C15.5976 17.1834 15.5976 17.8166 15.2071 18.2071C14.8166 18.5976 14.1834 18.5976 13.7929 18.2071L11.2929 15.7071C10.9024 15.3166 10.9024 14.6834 11.2929 14.2929L13.7929 11.7929C14.1834 11.4024 14.8166 11.4024 15.2071 11.7929C15.5976 12.1834 15.5976 12.8166 15.2071 13.2071L14.4142 14H16C16.5523 14 17 13.5523 17 13L17 11C17 10.4477 16.5523 10 16 10Z" fill="#171717"/>
</svg>
