<svg width="24" height="24" viewBox="0 0 24 24" fill="none" xmlns="http://www.w3.org/2000/svg">
<path d="M2 7C2 4.79086 3.79086 3 6 3H18C20.2091 3 22 4.79086 22 7V17C22 19.2091 20.2091 21 18 21H15.7143C14.7675 21 14 20.2325 14 19.2857C14 13.6051 9.39493 9 3.71429 9C2.76751 9 2 8.23249 2 7.28571V7Z" fill="#171717"/>
<path d="M4 20C4 20.5523 3.55228 21 3 21C2.44772 21 2 20.5523 2 20C2 19.4477 2.44772 19 3 19C3.55228 19 4 19.4477 4 20Z" fill="#171717"/>
<path fill-rule="evenodd" clip-rule="evenodd" d="M2 16C2 15.4477 2.44772 15 3 15C5.76142 15 8 17.2386 8 20C8 20.5523 7.55228 21 7 21C6.44772 21 6 20.5523 6 20C6 18.3431 4.65685 17 3 17C2.44772 17 2 16.5523 2 16Z" fill="#171717"/>
<path fill-rule="evenodd" clip-rule="evenodd" d="M2 12C2 11.4477 2.44772 11 3 11C7.97056 11 12 15.0294 12 20C12 20.5523 11.5523 21 11 21C10.4477 21 10 20.5523 10 20C10 16.134 6.86599 13 3 13C2.44772 13 2 12.5523 2 12Z" fill="#171717"/>
</svg>
