<svg width="24" height="24" viewBox="0 0 24 24" fill="none" xmlns="http://www.w3.org/2000/svg">
<path fill-rule="evenodd" clip-rule="evenodd" d="M7 4C8.86384 4 10.4299 5.27477 10.874 7H20C20.5523 7 21 7.44772 21 8C21 8.55228 20.5523 9 20 9H10.874C10.4299 10.7252 8.86384 12 7 12C4.79086 12 3 10.2091 3 8C3 5.79086 4.79086 4 7 4ZM9 8C9 9.10457 8.10457 10 7 10C5.89543 10 5 9.10457 5 8C5 6.89543 5.89543 6 7 6C8.10457 6 9 6.89543 9 8Z" fill="#171717"/>
<path fill-rule="evenodd" clip-rule="evenodd" d="M21 16C21 18.2091 19.2091 20 17 20C15.1362 20 13.5701 18.7252 13.126 17H4C3.44772 17 3 16.5523 3 16C3 15.4477 3.44772 15 4 15H13.126C13.5701 13.2748 15.1362 12 17 12C19.2091 12 21 13.7909 21 16ZM15 16C15 17.1046 15.8954 18 17 18C18.1046 18 19 17.1046 19 16C19 14.8954 18.1046 14 17 14C15.8954 14 15 14.8954 15 16Z" fill="#171717"/>
</svg>
