<svg width="24" height="24" viewBox="0 0 24 24" fill="none" xmlns="http://www.w3.org/2000/svg">
<path d="M5.88873 3.85383C7.69767 2.64514 9.82441 2 12 2C14.1756 2 16.3023 2.64514 18.1113 3.85383C19.9202 5.06253 21.3301 6.7805 22.1627 8.79048C22.9952 10.8005 23.2131 13.0122 22.7886 15.146C22.4294 16.9518 21.6239 18.6332 20.4522 20.0399C20.0988 20.4643 19.4616 20.4616 19.0711 20.0711C18.6805 19.6805 18.6856 19.0505 19.0304 18.6191C19.9268 17.4975 20.5451 16.1735 20.8271 14.7558C21.1743 13.01 20.9961 11.2004 20.3149 9.55585C19.6337 7.91131 18.4802 6.50571 17.0001 5.51677C15.5201 4.52784 13.78 4 12 4C10.22 4 8.47992 4.52784 6.99987 5.51677C5.51983 6.50571 4.36628 7.91131 3.68509 9.55585C3.0039 11.2004 2.82567 13.01 3.17294 14.7558C3.45494 16.1735 4.07318 17.4975 4.96962 18.6191C5.31443 19.0505 5.31946 19.6805 4.92894 20.0711C4.53841 20.4616 3.90126 20.4643 3.5478 20.0399C2.37615 18.6332 1.57057 16.9518 1.21137 15.146C0.786929 13.0122 1.00477 10.8005 1.83733 8.79048C2.66989 6.78049 4.07979 5.06253 5.88873 3.85383Z" fill="#171717"/>
<path d="M12 16C13.6569 16 15 14.6569 15 13C15 11.3431 13.6569 10 12 10C10.3431 10 9 11.3431 9 13C9 14.6569 10.3431 16 12 16Z" fill="#171717"/>
<path d="M16.9003 21.0066C17.0101 21.5479 16.5523 22 16 22H8C7.44772 22 6.98995 21.5479 7.09967 21.0066C7.16337 20.6924 7.25731 20.3842 7.3806 20.0866C7.63188 19.48 8.00017 18.9288 8.46447 18.4645C8.92876 18.0002 9.47995 17.6319 10.0866 17.3806C10.6932 17.1293 11.3434 17 12 17C12.6566 17 13.3068 17.1293 13.9134 17.3806C14.52 17.6319 15.0712 18.0002 15.5355 18.4645C15.9998 18.9288 16.3681 19.48 16.6194 20.0866C16.7427 20.3842 16.8366 20.6924 16.9003 21.0066Z" fill="#171717"/>
<path d="M12 6C10.6155 6 9.26216 6.41054 8.11101 7.17971C6.95987 7.94888 6.06266 9.04213 5.53285 10.3212C5.00303 11.6003 4.86441 13.0078 5.13451 14.3656C5.33928 15.3951 5.77201 16.361 6.39596 17.1946C6.7269 17.6368 7.36684 17.6332 7.75736 17.2426C8.14789 16.8521 8.13768 16.223 7.83253 15.7626C7.47488 15.2231 7.2236 14.6165 7.09608 13.9755C6.90315 13.0055 7.00217 12.0002 7.38061 11.0866C7.75904 10.173 8.39991 9.39206 9.22215 8.84265C10.0444 8.29324 11.0111 8 12 8C12.9889 8 13.9556 8.29324 14.7779 8.84265C15.6001 9.39206 16.241 10.173 16.6194 11.0866C16.9978 12.0002 17.0969 13.0055 16.9039 13.9755C16.7764 14.6165 16.5251 15.2231 16.1675 15.7626C15.8623 16.223 15.8521 16.8521 16.2426 17.2426C16.6332 17.6332 17.2731 17.6368 17.604 17.1946C18.228 16.361 18.6607 15.3951 18.8655 14.3656C19.1356 13.0078 18.997 11.6003 18.4672 10.3212C17.9373 9.04213 17.0401 7.94888 15.889 7.17971C14.7379 6.41054 13.3845 6 12 6Z" fill="#171717"/>
</svg>
