<svg width="24" height="24" viewBox="0 0 24 24" fill="none" xmlns="http://www.w3.org/2000/svg">
<path fill-rule="evenodd" clip-rule="evenodd" d="M12 21C16.9706 21 21 16.9706 21 12C21 7.02944 16.9706 3 12 3C7.02944 3 3 7.02944 3 12C3 16.9706 7.02944 21 12 21ZM9.5 7.66987C10.2601 7.23103 11.1223 7 12 7C12.8777 7 13.7399 7.23103 14.5 7.66987C15.2601 8.10872 15.8913 8.7399 16.3301 9.5C16.769 10.2601 17 11.1223 17 12C17 12.5427 16.9117 13.0795 16.7405 13.5899C16.5649 14.1135 16.7179 14.7239 17.1962 15C17.6744 15.2761 18.2935 15.114 18.4987 14.6012C18.8287 13.7768 19 12.8941 19 12C19 10.7712 18.6766 9.56413 18.0622 8.5C17.4478 7.43587 16.5641 6.5522 15.5 5.93782C14.4359 5.32344 13.2288 5 12 5C10.7712 5 9.56413 5.32344 8.5 5.93782C7.43587 6.5522 6.5522 7.43587 5.93782 8.5C5.32344 9.56413 5 10.7712 5 12C5 12.8941 5.17126 13.7768 5.50127 14.6012C5.7065 15.114 6.32556 15.2761 6.80385 15C7.28214 14.7239 7.43512 14.1135 7.25951 13.5899C7.08833 13.0795 7 12.5427 7 12C7 11.1223 7.23103 10.2601 7.66987 9.5C8.10871 8.7399 8.7399 8.10871 9.5 7.66987ZM14 15C14 16.1046 13.1046 17 12 17C10.8954 17 10 16.1046 10 15C10 14.1195 10.5689 13.372 11.3592 13.1049L12.0194 9.80388C12.1277 9.26232 12.6546 8.91111 13.1961 9.01942C13.7377 9.12773 14.0889 9.65456 13.9806 10.1961L13.3203 13.4977C13.737 13.8642 14 14.4014 14 15Z" fill="#171717"/>
</svg>
