<svg width="24" height="24" viewBox="0 0 24 24" fill="none" xmlns="http://www.w3.org/2000/svg">
<path fill-rule="evenodd" clip-rule="evenodd" d="M3 7C3 4.79086 4.79086 3 7 3H17C19.2091 3 21 4.79086 21 7V15.3431C21 16.404 20.5786 17.4214 19.8284 18.1716L18.1716 19.8284C17.4214 20.5786 16.404 21 15.3431 21H7C4.79086 21 3 19.2091 3 17V7ZM10 10.5C10 11.3284 9.32843 12 8.5 12C7.67157 12 7 11.3284 7 10.5C7 9.67157 7.67157 9 8.5 9C9.32843 9 10 9.67157 10 10.5ZM15.5 12C16.3284 12 17 11.3284 17 10.5C17 9.67157 16.3284 9 15.5 9C14.6716 9 14 9.67157 14 10.5C14 11.3284 14.6716 12 15.5 12ZM12.1529 14.9971C12.5847 14.9806 13.0187 15.4515 13.0022 15.8834C13.0008 15.922 13 15.9608 13 15.9998V16.4935C13 16.7375 12.8241 16.9482 12.5812 16.9718C12.3889 16.9905 12.1949 17 12 17C10.7444 17 9.52948 16.6065 8.51999 15.8877C8.07008 15.5674 8.07392 14.926 8.46445 14.5355C8.85497 14.145 9.48425 14.1585 9.95926 14.4403C10.5718 14.8036 11.2758 15 12 15C12.0511 15 12.102 14.999 12.1529 14.9971ZM17 15C15.8954 15 15 15.8954 15 17V18.3101C15 18.9337 15.754 19.246 16.195 18.805L18.805 16.195C19.246 15.754 18.9337 15 18.3101 15H17Z" fill="#171717"/>
</svg>
