<svg width="24" height="24" viewBox="0 0 24 24" fill="none" xmlns="http://www.w3.org/2000/svg">
<path d="M10.8954 4.01377C10.7524 3.4803 10.2041 3.16372 9.67061 3.30666C9.13714 3.4496 8.82056 3.99794 8.9635 4.53141L9.22232 5.49733C9.36526 6.0308 9.9136 6.34738 10.4471 6.20444C10.9805 6.0615 11.2971 5.51316 11.1542 4.97969L10.8954 4.01377Z" fill="#171717"/>
<path d="M7.05024 5.63605C6.65972 5.24553 6.02655 5.24553 5.63603 5.63605C5.24551 6.02658 5.24551 6.65974 5.63603 7.05027L6.34314 7.75737C6.73366 8.1479 7.36683 8.1479 7.75735 7.75737C8.14787 7.36685 8.14787 6.73368 7.75735 6.34316L7.05024 5.63605Z" fill="#171717"/>
<path d="M17 12C17 14.7614 14.7614 17 12 17C9.23857 17 7 14.7614 7 12C7 9.23857 9.23857 6.99999 12 6.99999C14.7614 6.99999 17 9.23857 17 12Z" fill="#171717"/>
<path d="M17.7956 13.553C17.9385 13.0195 18.4868 12.7029 19.0203 12.8458L19.9862 13.1047C20.5197 13.2476 20.8363 13.7959 20.6933 14.3294C20.5504 14.8629 20.0021 15.1795 19.4686 15.0365L18.5027 14.7777C17.9692 14.6348 17.6526 14.0864 17.7956 13.553Z" fill="#171717"/>
<path d="M4.53141 8.96352C3.99795 8.82058 3.44961 9.13716 3.30667 9.67063C3.16373 10.2041 3.48031 10.7524 4.01378 10.8954L4.9797 11.1542C5.51317 11.2971 6.0615 10.9806 6.20445 10.4471C6.34739 9.91362 6.03081 9.36528 5.49734 9.22234L4.53141 8.96352Z" fill="#171717"/>
<path d="M16.2426 16.2426C16.6331 15.8521 17.2663 15.8521 17.6568 16.2426L18.3639 16.9497C18.7544 17.3403 18.7544 17.9734 18.3639 18.3639C17.9734 18.7545 17.3402 18.7545 16.9497 18.3639L16.2426 17.6568C15.8521 17.2663 15.8521 16.6331 16.2426 16.2426Z" fill="#171717"/>
<path d="M13.5529 17.7956C14.0863 17.6526 14.6347 17.9692 14.7776 18.5027L15.0364 19.4686C15.1794 20.0021 14.8628 20.5504 14.3293 20.6933C13.7959 20.8363 13.2475 20.5197 13.1046 19.9862L12.8458 19.0203C12.7028 18.4868 13.0194 17.9385 13.5529 17.7956Z" fill="#171717"/>
<path d="M10.447 17.7955C10.9805 17.9384 11.2971 18.4868 11.1541 19.0202L10.8953 19.9862C10.7524 20.5196 10.204 20.8362 9.67058 20.6933C9.13711 20.5503 8.82053 20.002 8.96347 19.4685L9.22229 18.5026C9.36523 17.9691 9.91357 17.6526 10.447 17.7955Z" fill="#171717"/>
<path d="M15.0365 4.53147C15.1794 3.998 14.8628 3.44967 14.3294 3.30672C13.7959 3.16378 13.2476 3.48036 13.1046 4.01383L12.8458 4.97976C12.7029 5.51322 13.0194 6.06156 13.5529 6.2045C14.0864 6.34744 14.6347 6.03086 14.7776 5.49739L15.0365 4.53147Z" fill="#171717"/>
<path d="M7.75737 16.2426C8.14789 16.6331 8.14789 17.2663 7.75737 17.6568L7.05026 18.3639C6.65974 18.7544 6.02657 18.7544 5.63605 18.3639C5.24552 17.9734 5.24552 17.3402 5.63605 16.9497L6.34315 16.2426C6.73368 15.8521 7.36684 15.8521 7.75737 16.2426Z" fill="#171717"/>
<path d="M18.3639 7.05036C18.7545 6.65983 18.7545 6.02667 18.3639 5.63615C17.9734 5.24562 17.3402 5.24562 16.9497 5.63615L16.2426 6.34325C15.8521 6.73378 15.8521 7.36694 16.2426 7.75747C16.6331 8.14799 17.2663 8.14799 17.6568 7.75747L18.3639 7.05036Z" fill="#171717"/>
<path d="M6.2045 13.5529C6.34744 14.0863 6.03086 14.6347 5.49739 14.7776L4.53146 15.0364C3.998 15.1794 3.44966 14.8628 3.30672 14.3293C3.16378 13.7959 3.48036 13.2475 4.01383 13.1046L4.97975 12.8458C5.51322 12.7028 6.06155 13.0194 6.2045 13.5529Z" fill="#171717"/>
<path d="M19.9862 10.8954C20.5196 10.7525 20.8362 10.2041 20.6933 9.67066C20.5503 9.1372 20.002 8.82061 19.4685 8.96355L18.5026 9.22237C17.9691 9.36531 17.6525 9.91365 17.7955 10.4471C17.9384 10.9806 18.4868 11.2972 19.0202 11.1542L19.9862 10.8954Z" fill="#171717"/>
</svg>
