<svg width="24" height="24" viewBox="0 0 24 24" fill="none" xmlns="http://www.w3.org/2000/svg">
<path d="M12 3C12.5523 3 13 3.44772 13 4V7.58579L14.2929 6.29289C14.6834 5.90237 15.3166 5.90237 15.7071 6.29289C16.0976 6.68342 16.0976 7.31658 15.7071 7.70711L12.7071 10.7071C12.3166 11.0976 11.6834 11.0976 11.2929 10.7071L8.29289 7.70711C7.90237 7.31658 7.90237 6.68342 8.29289 6.29289C8.68342 5.90237 9.31658 5.90237 9.70711 6.29289L11 7.58579V4C11 3.44772 11.4477 3 12 3Z" fill="#171717"/>
<path d="M5.63591 10.6361C6.02644 10.2455 6.6596 10.2455 7.05012 10.6361L7.75723 11.3432C8.14776 11.7337 8.14776 12.3669 7.75723 12.7574C7.36671 13.1479 6.73354 13.1479 6.34302 12.7574L5.63591 12.0503C5.24539 11.6598 5.24539 11.0266 5.63591 10.6361Z" fill="#171717"/>
<path d="M16.2428 12.7574C15.8522 12.3669 15.8522 11.7337 16.2428 11.3432L16.9499 10.6361C17.3404 10.2456 17.9735 10.2456 18.3641 10.6361C18.7546 11.0266 18.7546 11.6598 18.3641 12.0503L17.657 12.7574C17.2664 13.1479 16.6333 13.1479 16.2428 12.7574Z" fill="#171717"/>
<path d="M17.9067 18C17.3864 18 17 17.5202 17 17C17 14.2386 14.7614 12 12 12C9.23858 12 7 14.2386 7 17C7 17.5202 6.61357 18 6.09335 18H4C3.44772 18 3 18.4477 3 19C3 19.5523 3.44772 20 4 20H20C20.5523 20 21 19.5523 21 19C21 18.4477 20.5523 18 20 18H17.9067Z" fill="#171717"/>
<path d="M4.53136 13.9634C3.99789 13.8205 3.44955 14.137 3.30661 14.6705C3.16367 15.204 3.48025 15.7523 4.01372 15.8953L4.97964 16.1541C5.51311 16.297 6.06145 15.9804 6.20439 15.447C6.34733 14.9135 6.03075 14.3652 5.49728 14.2222L4.53136 13.9634Z" fill="#171717"/>
<path d="M18.5028 14.2224C17.9693 14.3653 17.6527 14.9137 17.7957 15.4471C17.9386 15.9806 18.487 16.2972 19.0204 16.1542L19.9864 15.8954C20.5198 15.7525 20.8364 15.2041 20.6935 14.6707C20.5505 14.1372 20.0022 13.8206 19.4687 13.9636L18.5028 14.2224Z" fill="#171717"/>
</svg>
