<svg width="24" height="24" viewBox="0 0 24 24" fill="none" xmlns="http://www.w3.org/2000/svg">
<path d="M17 7C17 9.20914 15.2091 11 13 11C10.7908 11 8.99997 9.20914 8.99997 7C8.99997 4.79086 10.7908 3 13 3C15.2091 3 17 4.79086 17 7Z" fill="#171717"/>
<path d="M20.7531 19.0202C19.9709 15.9478 17.4105 13.5857 14.2323 13.0943C14.1583 13.0705 14.0812 13.0538 14.002 13.0451C13.1495 12.9511 12.313 12.7368 11.5175 12.4073C10.4135 11.95 9.41031 11.2797 8.5653 10.4347C7.72028 9.58966 7.04998 8.58648 6.59266 7.48242C6.26319 6.687 6.04891 5.85044 5.95486 4.998C5.89429 4.44904 5.45225 4 4.89997 4H2.99997C2.44768 4 1.99597 4.44837 2.03841 4.99903C2.14362 6.36409 2.464 7.70612 2.98953 8.97488C3.39708 9.95878 3.92302 10.8866 4.5541 11.7385C4.83196 12.1135 4.99997 12.5622 4.99997 13.0289V19C4.99997 20.1046 5.8954 21 6.99997 21H19C20.1045 21 21.0256 20.0907 20.7531 19.0202Z" fill="#171717"/>
</svg>
