<svg width="24" height="24" viewBox="0 0 24 24" fill="none" xmlns="http://www.w3.org/2000/svg">
<path fill-rule="evenodd" clip-rule="evenodd" d="M4.70711 3.29289C4.31658 2.90237 3.68342 2.90237 3.29289 3.29289C2.90237 3.68342 2.90237 4.31658 3.29289 4.70711L3.55382 4.96803C3.20193 5.56355 3 6.25819 3 7V17C3 19.2091 4.79086 21 7 21H17C17.7418 21 18.4365 20.7981 19.032 20.4462L19.2929 20.7071C19.6834 21.0976 20.3166 21.0976 20.7071 20.7071C21.0976 20.3166 21.0976 19.6834 20.7071 19.2929L4.70711 3.29289ZM15.0677 16.482L9.46914 10.8834C9.32923 10.9578 9.16954 11 9 11C8.44772 11 8 10.5523 8 10V9.41421L5.06774 6.48196C5.02356 6.64718 5 6.82084 5 7V13C5 14.1046 5.89543 15 7 15C8.10457 15 9 15.8954 9 17C9 18.1046 9.89543 19 11 19H13C14.1046 19 15 18.1046 15 17C15 16.8208 15.0236 16.6472 15.0677 16.482Z" fill="#171717"/>
<path d="M11.4081 7.1939L13 8.7858V8C13 7.44772 12.5523 7 12 7C11.7785 7 11.5738 7.07201 11.4081 7.1939Z" fill="#171717"/>
<path d="M14 9.7858L15.1952 10.981C15.654 10.8902 16 10.4855 16 10V8C16 7.44772 15.5523 7 15 7C14.4477 7 14 7.44772 14 8V9.7858Z" fill="#171717"/>
<path d="M19 13C19 13.3316 18.9193 13.6444 18.7764 13.9198C18.656 14.152 18.6602 14.446 18.8451 14.6309L20.1464 15.9322C20.4614 16.2472 21 16.0241 21 15.5787V7C21 4.79086 19.2091 3 17 3H8.42131C7.97586 3 7.75277 3.53857 8.06775 3.85355L9.06775 4.85355C9.16152 4.94732 9.2887 5 9.42131 5H17C18.1046 5 19 5.89543 19 7V13Z" fill="#171717"/>
</svg>
