<svg width="24" height="24" viewBox="0 0 24 24" fill="none" xmlns="http://www.w3.org/2000/svg">
<path d="M9 7C8.44772 7 8 7.44772 8 8V10C8 10.5523 8.44772 11 9 11C9.55228 11 10 10.5523 10 10V8C10 7.44772 9.55228 7 9 7Z" fill="#171717"/>
<path d="M11 8C11 7.44772 11.4477 7 12 7C12.5523 7 13 7.44772 13 8V10C13 10.5523 12.5523 11 12 11C11.4477 11 11 10.5523 11 10V8Z" fill="#171717"/>
<path d="M15 7C14.4477 7 14 7.44772 14 8V10C14 10.5523 14.4477 11 15 11C15.5523 11 16 10.5523 16 10V8C16 7.44772 15.5523 7 15 7Z" fill="#171717"/>
<path fill-rule="evenodd" clip-rule="evenodd" d="M3 7C3 4.79086 4.79086 3 7 3H17C19.2091 3 21 4.79086 21 7V17C21 19.2091 19.2091 21 17 21H7C4.79086 21 3 19.2091 3 17V7ZM5 7C5 5.89543 5.89543 5 7 5H17C18.1046 5 19 5.89543 19 7V13C19 14.1046 18.1046 15 17 15C15.8954 15 15 15.8954 15 17C15 18.1046 14.1046 19 13 19H11C9.89543 19 9 18.1046 9 17C9 15.8954 8.10457 15 7 15C5.89543 15 5 14.1046 5 13V7Z" fill="#171717"/>
</svg>
