<svg width="24" height="24" viewBox="0 0 24 24" fill="none" xmlns="http://www.w3.org/2000/svg">
<path fill-rule="evenodd" clip-rule="evenodd" d="M10 4C10 3.44772 10.4477 3 11 3H13C13.5523 3 14 3.44772 14 4V6.5C14 6.77614 13.7761 7 13.5 7C13.2239 7 13 7.22386 13 7.5C13 7.77614 12.7761 8 12.5 8H11.5C11.2239 8 11 7.77614 11 7.5C11 7.22386 10.7761 7 10.5 7C10.2239 7 10 6.77614 10 6.5V4ZM7 5C7 4.44772 7.44772 4 8 4C8.55228 4 9 4.44772 9 5V7.5C9 7.77614 9.22386 8 9.5 8C9.77614 8 10 8.22386 10 8.5C10 8.77614 10.2239 9 10.5 9H13.5C13.7761 9 14 8.77614 14 8.5C14 8.22386 14.2239 8 14.5 8C14.7761 8 15 7.77614 15 7.5V5C15 4.44772 15.4477 4 16 4C16.5523 4 17 4.44772 17 5V10C17 10.5523 16.5523 11 16 11H8C7.44772 11 7 10.5523 7 10V5ZM8 12C7.44772 12 7 12.4477 7 13V13.8074C7 13.9346 7.02428 14.0607 7.07152 14.1788L8.92848 18.8212C8.97572 18.9393 9 19.0654 9 19.1926V20C9 20.5523 9.44772 21 10 21H14C14.5523 21 15 20.5523 15 20V19.1926C15 19.0654 15.0243 18.9393 15.0715 18.8212L16.9285 14.1788C16.9757 14.0607 17 13.9346 17 13.8074V13C17 12.4477 16.5523 12 16 12H8Z" fill="#171717"/>
</svg>
