<svg width="24" height="24" viewBox="0 0 24 24" fill="none" xmlns="http://www.w3.org/2000/svg">
<path d="M4.70711 3.29289C4.31658 2.90237 3.68342 2.90237 3.29289 3.29289C2.90237 3.68342 2.90237 4.31658 3.29289 4.70711L7 8.41421V10C7 10.5523 7.44772 11 8 11H9.58579L10.5858 12H8C7.44772 12 7 12.4477 7 13V13.8074C7 13.9346 7.02428 14.0607 7.07152 14.1788L8.92848 18.8212C8.97572 18.9393 9 19.0654 9 19.1926V20C9 20.5523 9.44772 21 10 21H14C14.5523 21 15 20.5523 15 20V19.1926C15 19.0654 15.0243 18.9393 15.0715 18.8212L15.7388 17.153L19.2929 20.7071C19.6834 21.0976 20.3166 21.0976 20.7071 20.7071C21.0976 20.3166 21.0976 19.6834 20.7071 19.2929L4.70711 3.29289Z" fill="#171717"/>
<path d="M15.4213 11C15.2887 11 15.1615 10.9473 15.0678 10.8536L13.4163 9.20209C13.3417 9.12751 13.3945 9 13.5 9C13.7761 9 14 8.77614 14 8.5C14 8.22386 14.2239 8 14.5 8C14.7761 8 15 7.77614 15 7.5V5C15 4.44772 15.4477 4 16 4C16.5523 4 17 4.44772 17 5V10C17 10.5523 16.5523 11 16 11H15.4213Z" fill="#171717"/>
<path d="M10 5.57869C10 5.7113 10.0527 5.83848 10.1464 5.93225L12.0678 7.85355C12.1615 7.94732 12.2887 8 12.4213 8H12.5C12.7761 8 13 7.77614 13 7.5C13 7.22386 13.2239 7 13.5 7C13.7761 7 14 6.77614 14 6.5V4C14 3.44772 13.5523 3 13 3H11C10.4477 3 10 3.44772 10 4V5.57869Z" fill="#171717"/>
</svg>
