<svg width="24" height="24" viewBox="0 0 24 24" fill="none" xmlns="http://www.w3.org/2000/svg">
<path fill-rule="evenodd" clip-rule="evenodd" d="M7 3C4.79086 3 3 4.79086 3 7V18.7765C3 19.597 3.99204 20.008 4.57223 19.4278C6.12671 17.8733 8.23503 17 10.4334 17H17C19.2091 17 21 15.2091 21 13V7C21 4.79086 19.2091 3 17 3H7ZM8.79289 9.29289C8.69702 9.38877 8.62468 9.49927 8.57588 9.61722C8.42591 9.97968 8.49825 10.4125 8.79289 10.7071L11.2929 13.2071C11.6834 13.5976 12.3166 13.5976 12.7071 13.2071C13.0976 12.8166 13.0976 12.1834 12.7071 11.7929L11.9142 11H14.5C15.0523 11 15.5 10.5523 15.5 10C15.5 9.44772 15.0523 9 14.5 9H11.9142L12.7071 8.20711C13.0976 7.81658 13.0976 7.18342 12.7071 6.79289C12.3166 6.40237 11.6834 6.40237 11.2929 6.79289L8.79289 9.29289Z" fill="#171717"/>
</svg>
