<svg width="24" height="24" viewBox="0 0 24 24" fill="none" xmlns="http://www.w3.org/2000/svg">
<path fill-rule="evenodd" clip-rule="evenodd" d="M7 3C4.79086 3 3 4.79086 3 7V18.7765C3 19.597 3.99204 20.008 4.57223 19.4278C6.12671 17.8733 8.23503 17 10.4334 17H17C19.2091 17 21 15.2091 21 13V7C21 4.79086 19.2091 3 17 3H7ZM15.2071 9.29289C15.303 9.38877 15.3753 9.49927 15.4241 9.61722C15.5741 9.97968 15.5018 10.4125 15.2071 10.7071L12.7071 13.2071C12.3166 13.5976 11.6834 13.5976 11.2929 13.2071C10.9024 12.8166 10.9024 12.1834 11.2929 11.7929L12.0858 11H9.5C8.94772 11 8.5 10.5523 8.5 10C8.5 9.44772 8.94772 9 9.5 9H12.0858L11.2929 8.20711C10.9024 7.81658 10.9024 7.18342 11.2929 6.79289C11.6834 6.40237 12.3166 6.40237 12.7071 6.79289L15.2071 9.29289Z" fill="#171717"/>
</svg>
