<svg width="24" height="24" viewBox="0 0 24 24" fill="none" xmlns="http://www.w3.org/2000/svg">
<path fill-rule="evenodd" clip-rule="evenodd" d="M7 3C4.79086 3 3 4.79086 3 7V18.7765C3 19.597 3.99204 20.008 4.57223 19.4278C6.12671 17.8733 8.23503 17 10.4334 17H17C19.2091 17 21 15.2091 21 13V7C21 4.79086 19.2091 3 17 3H7ZM12 6.5C12.5523 6.5 13 6.94772 13 7.5V10.0858L13.7929 9.29289C14.1834 8.90237 14.8166 8.90237 15.2071 9.29289C15.5976 9.68342 15.5976 10.3166 15.2071 10.7071L12.7071 13.2071C12.5196 13.3946 12.2652 13.5 12 13.5C11.7348 13.5 11.4802 13.3944 11.2926 13.2068L8.79289 10.7071C8.40237 10.3166 8.40237 9.68342 8.79289 9.29289C9.18342 8.90237 9.81658 8.90237 10.2071 9.29289L11 10.0858V7.5C11 6.94772 11.4477 6.5 12 6.5Z" fill="#171717"/>
</svg>
