<svg width="24" height="24" viewBox="0 0 24 24" fill="none" xmlns="http://www.w3.org/2000/svg">
<path fill-rule="evenodd" clip-rule="evenodd" d="M7 3C4.79086 3 3 4.79086 3 7V18.7765C3 19.597 3.99204 20.008 4.57223 19.4278C6.12671 17.8733 8.23503 17 10.4334 17H17C19.2091 17 21 15.2091 21 13V7C21 4.79086 19.2091 3 17 3H7ZM14.7677 8.23223C14.7677 8.09664 14.7407 7.96736 14.6918 7.84945C14.5416 7.4871 14.1844 7.23223 13.7677 7.23223H10.2322C9.67991 7.23223 9.23219 7.67995 9.23219 8.23223C9.23219 8.78452 9.67991 9.23223 10.2322 9.23223L11.3535 9.23223L9.52509 11.0607C9.13456 11.4512 9.13456 12.0844 9.52509 12.4749C9.91561 12.8654 10.5488 12.8654 10.9393 12.4749L12.7677 10.6464V11.7678C12.7677 12.3201 13.2154 12.7678 13.7677 12.7678C14.32 12.7678 14.7677 12.3201 14.7677 11.7678L14.7677 8.23223Z" fill="#171717"/>
</svg>
