<svg width="24" height="24" viewBox="0 0 24 24" fill="none" xmlns="http://www.w3.org/2000/svg">
<path fill-rule="evenodd" clip-rule="evenodd" d="M7 3C4.79086 3 3 4.79086 3 7V18.7765C3 19.597 3.99204 20.008 4.57223 19.4278C6.12671 17.8733 8.23503 17 10.4334 17H17C19.2091 17 21 15.2091 21 13V7C21 4.79086 19.2091 3 17 3H7ZM11.2929 6.79289C11.3888 6.69702 11.4993 6.62468 11.6172 6.57588C11.9797 6.42591 12.4125 6.49825 12.7071 6.79289L15.2071 9.29289C15.5976 9.68342 15.5976 10.3166 15.2071 10.7071C14.8166 11.0976 14.1834 11.0976 13.7929 10.7071L13 9.91421V12.5C13 13.0523 12.5523 13.5 12 13.5C11.4477 13.5 11 13.0523 11 12.5V9.91421L10.2071 10.7071C9.81658 11.0976 9.18342 11.0976 8.79289 10.7071C8.40237 10.3166 8.40237 9.68342 8.79289 9.29289L11.2929 6.79289Z" fill="#171717"/>
</svg>
