<svg width="24" height="24" viewBox="0 0 24 24" fill="none" xmlns="http://www.w3.org/2000/svg">
<path fill-rule="evenodd" clip-rule="evenodd" d="M7 3C4.79086 3 3 4.79086 3 7V18.7765C3 19.597 3.99204 20.008 4.57223 19.4278C6.12671 17.8733 8.23503 17 10.4334 17H17C19.2091 17 21 15.2091 21 13V7C21 4.79086 19.2091 3 17 3H7ZM10.2322 7.23221C10.0966 7.23221 9.96736 7.2592 9.84945 7.30809C9.4871 7.45835 9.23223 7.81552 9.23223 8.23221L9.23223 11.7677C9.23223 12.32 9.67995 12.7677 10.2322 12.7677C10.7845 12.7677 11.2322 12.32 11.2322 11.7677L11.2322 10.6464L13.0607 12.4749C13.4512 12.8654 14.0843 12.8654 14.4749 12.4749C14.8654 12.0843 14.8654 11.4512 14.4749 11.0606L12.6464 9.23221H13.7678C14.3201 9.23221 14.7678 8.7845 14.7678 8.23221C14.7678 7.67993 14.3201 7.23221 13.7678 7.23221H10.2322Z" fill="#171717"/>
</svg>
