<svg width="24" height="24" viewBox="0 0 24 24" fill="none" xmlns="http://www.w3.org/2000/svg">
<path fill-rule="evenodd" clip-rule="evenodd" d="M7 3C4.79086 3 3 4.79086 3 7V18.7765C3 19.597 3.99204 20.008 4.57223 19.4278C6.12671 17.8733 8.23503 17 10.4334 17H17C19.2091 17 21 15.2091 21 13V7C21 4.79086 19.2091 3 17 3H7ZM8.29289 10.7071C8.10536 10.8946 8 11.149 8 11.4142V13.5C8 13.7761 8.22386 14 8.5 14H10.5858C10.851 14 11.1054 13.8946 11.2929 13.7071L15.2929 9.70711C15.6834 9.31658 15.6834 8.68342 15.2929 8.29289L13.7071 6.70711C13.3166 6.31658 12.6834 6.31658 12.2929 6.70711L8.29289 10.7071Z" fill="#171717"/>
</svg>
