<svg width="24" height="24" viewBox="0 0 24 24" fill="none" xmlns="http://www.w3.org/2000/svg">
<path fill-rule="evenodd" clip-rule="evenodd" d="M7 3C4.79086 3 3 4.79086 3 7V18.7765C3 19.597 3.99204 20.008 4.57223 19.4278C6.12671 17.8733 8.23503 17 10.4334 17H17C19.2091 17 21 15.2091 21 13V7C21 4.79086 19.2091 3 17 3H7ZM12 6C10.8954 6 10 6.89543 10 8V9C10 10.1046 10.8954 11 12 11C13.1046 11 14 10.1046 14 9V8C14 6.89543 13.1046 6 12 6ZM9.40193 10.5C9.12579 10.0217 8.5142 9.85783 8.0359 10.134C7.55761 10.4101 7.39374 11.0217 7.66988 11.5C8.10872 12.2601 8.73991 12.8913 9.5 13.3301C10.2601 13.769 11.1223 14 12 14C12.8777 14 13.7399 13.769 14.5 13.3301C15.2601 12.8913 15.8913 12.2601 16.3301 11.5C16.6063 11.0217 16.4424 10.4101 15.9641 10.134C15.4858 9.85783 14.8742 10.0217 14.5981 10.5C14.3348 10.9561 13.9561 11.3348 13.5 11.5981C13.0439 11.8614 12.5266 12 12 12C11.4734 12 10.9561 11.8614 10.5 11.5981C10.0439 11.3348 9.66523 10.9561 9.40193 10.5Z" fill="#171717"/>
</svg>
