<svg width="24" height="24" viewBox="0 0 24 24" fill="none" xmlns="http://www.w3.org/2000/svg">
<path fill-rule="evenodd" clip-rule="evenodd" d="M7 3C4.79086 3 3 4.79086 3 7V18.7765C3 19.597 3.99204 20.008 4.57223 19.4278C6.12671 17.8733 8.23503 17 10.4334 17H17C19.2091 17 21 15.2091 21 13V7C21 4.79086 19.2091 3 17 3H7ZM11.25 7.20096C11.478 7.06931 11.7367 7 12 7C12.2633 7 12.5219 7.06931 12.75 7.20096C12.978 7.33261 13.1674 7.52197 13.299 7.75C13.4307 7.97803 13.5 8.23669 13.5 8.5C13.5 8.76331 13.4307 9.02197 13.299 9.25C13.1674 9.47803 12.978 9.66739 12.75 9.79904C12.5219 9.93069 12.2633 10 12 10C11.4477 10 11 10.4477 11 11C11 11.5523 11.4477 12 12 12C12.6144 12 13.2179 11.8383 13.75 11.5311C14.282 11.2239 14.7239 10.7821 15.0311 10.25C15.3383 9.71793 15.5 9.11438 15.5 8.5C15.5 7.88562 15.3383 7.28207 15.0311 6.75C14.7239 6.21793 14.282 5.7761 13.75 5.46891C13.2179 5.16172 12.6144 5 12 5C11.3856 5 10.782 5.16172 10.25 5.46891C9.71791 5.7761 9.27608 6.21793 8.96889 6.75C8.69275 7.22829 8.85662 7.83988 9.33491 8.11603C9.81321 8.39217 10.4248 8.22829 10.7009 7.75C10.8326 7.52197 11.0219 7.33261 11.25 7.20096ZM12 13C11.4477 13 11 13.4477 11 14C11 14.5523 11.4477 15 12 15C12.5523 15 13 14.5523 13 14C13 13.4477 12.5523 13 12 13Z" fill="#171717"/>
</svg>
