<svg width="24" height="24" viewBox="0 0 24 24" fill="none" xmlns="http://www.w3.org/2000/svg">
<path fill-rule="evenodd" clip-rule="evenodd" d="M7 3C4.79086 3 3 4.79086 3 7V18.7765C3 19.597 3.99204 20.008 4.57223 19.4278C6.12671 17.8733 8.23503 17 10.4334 17H17C19.2091 17 21 15.2091 21 13V7C21 4.79086 19.2091 3 17 3H7ZM10 6C9.44772 6 9 6.44772 9 7V10.6301C9 10.8688 9.08539 11.0996 9.24074 11.2809L11.2407 13.6142C11.6398 14.0798 12.3602 14.0798 12.7593 13.6142L14.7593 11.2809C14.9146 11.0996 15 10.8688 15 10.6301V7C15 6.44772 14.5523 6 14 6H10Z" fill="#171717"/>
</svg>
