<svg width="24" height="24" viewBox="0 0 24 24" fill="none" xmlns="http://www.w3.org/2000/svg">
<path d="M3 7C3 4.79086 4.79086 3 7 3H17C19.2091 3 21 4.79086 21 7V13C21 15.2091 19.2091 17 17 17H10.4334C8.23503 17 6.12671 17.8733 4.57223 19.4278C3.99204 20.008 3 19.597 3 18.7765V7Z" fill="#171717"/>
<path d="M10 13C10 13.5523 9.55228 14 9 14C8.44772 14 8 13.5523 8 13C8 12.4477 8.44772 12 9 12C9.55228 12 10 12.4477 10 13Z" fill="white"/>
<path d="M10 13C10 13.5523 9.55228 14 9 14C8.44772 14 8 13.5523 8 13C8 12.4477 8.44772 12 9 12C9.55228 12 10 12.4477 10 13Z" fill="#171717" fill-opacity="0.15"/>
<path fill-rule="evenodd" clip-rule="evenodd" d="M8 10C8 9.44772 8.44772 9 9 9C9.52529 9 10.0454 9.10346 10.5307 9.30448C11.016 9.5055 11.457 9.80014 11.8284 10.1716C12.1999 10.543 12.4945 10.984 12.6955 11.4693C12.8965 11.9546 13 12.4747 13 13C13 13.5523 12.5523 14 12 14C11.4477 14 11 13.5523 11 13C11 12.7374 10.9483 12.4773 10.8478 12.2346C10.7472 11.992 10.5999 11.7715 10.4142 11.5858C10.2285 11.4001 10.008 11.2527 9.76537 11.1522C9.52272 11.0517 9.26264 11 9 11C8.44772 11 8 10.5523 8 10Z" fill="white"/>
<path fill-rule="evenodd" clip-rule="evenodd" d="M8 7C8 6.44772 8.44772 6 9 6C9.91925 6 10.8295 6.18106 11.6788 6.53284C12.5281 6.88463 13.2997 7.40024 13.9497 8.05025C14.5998 8.70026 15.1154 9.47194 15.4672 10.3212C15.8189 11.1705 16 12.0807 16 13C16 13.5523 15.5523 14 15 14C14.4477 14 14 13.5523 14 13C14 12.3434 13.8707 11.6932 13.6194 11.0866C13.3681 10.48 12.9998 9.92876 12.5355 9.46447C12.0712 9.00017 11.52 8.63188 10.9134 8.3806C10.3068 8.12933 9.65661 8 9 8C8.44772 8 8 7.55228 8 7Z" fill="white"/>
</svg>
