<svg width="24" height="24" viewBox="0 0 24 24" fill="none" xmlns="http://www.w3.org/2000/svg">
<path fill-rule="evenodd" clip-rule="evenodd" d="M4 5C4 3.34315 5.34315 2 7 2H12.7574C13.553 2 14.3161 2.31607 14.8787 2.87868L19.1213 7.12132C19.6839 7.68393 20 8.44699 20 9.24264V19C20 20.6569 18.6569 22 17 22H7C5.34315 22 4 20.6569 4 19V5ZM14 9C13.4477 9 13 8.55228 13 8V5.20711C13 4.76165 13.5386 4.53857 13.8536 4.85355L17.1464 8.14645C17.4614 8.46143 17.2383 9 16.7929 9H14ZM12 11.5C12.5523 11.5 13 11.9477 13 12.5V15.0858L13.7929 14.2929C14.1834 13.9024 14.8166 13.9024 15.2071 14.2929C15.5976 14.6834 15.5976 15.3166 15.2071 15.7071L12.7079 18.2063L12.7005 18.2136C12.5201 18.3907 12.2728 18.5 12 18.5C11.8644 18.5 11.7351 18.473 11.6172 18.4241C11.4993 18.3753 11.3888 18.303 11.2929 18.2071L8.79289 15.7071C8.40237 15.3166 8.40237 14.6834 8.79289 14.2929C9.18342 13.9024 9.81658 13.9024 10.2071 14.2929L11 15.0858V12.5C11 11.9477 11.4477 11.5 12 11.5Z" fill="#171717"/>
</svg>
