<svg width="24" height="24" viewBox="0 0 24 24" fill="none" xmlns="http://www.w3.org/2000/svg">
<path fill-rule="evenodd" clip-rule="evenodd" d="M7 2C5.34315 2 4 3.34315 4 5V19C4 20.6569 5.34315 22 7 22H17C18.6569 22 20 20.6569 20 19V9.24264C20 8.44699 19.6839 7.68393 19.1213 7.12132L14.8787 2.87868C14.3161 2.31607 13.553 2 12.7574 2H7ZM13 8C13 8.55228 13.4477 9 14 9H16.7929C17.2383 9 17.4614 8.46143 17.1464 8.14645L13.8536 4.85355C13.5386 4.53857 13 4.76165 13 5.20711V8ZM7.52513 18.5251C7.1346 18.1346 7.1346 17.5014 7.52513 17.1109L9.35355 15.2825L8.23223 15.2825C7.67995 15.2825 7.23223 14.8348 7.23223 14.2825C7.23223 13.7302 7.67995 13.2825 8.23223 13.2825L11.7678 13.2825C12.033 13.2825 12.2873 13.3878 12.4749 13.5754C12.6624 13.7629 12.7678 14.0176 12.7678 14.2829L12.7678 17.818C12.7678 18.3703 12.3201 18.818 11.7678 18.818C11.2155 18.818 10.7678 18.3703 10.7678 17.818L10.7678 16.6967L8.93934 18.5251C8.54882 18.9157 7.91565 18.9157 7.52513 18.5251Z" fill="#171717"/>
</svg>
