<svg width="24" height="24" viewBox="0 0 24 24" fill="none" xmlns="http://www.w3.org/2000/svg">
<path d="M19.0063 21.2305C19.2318 21.0275 19.5854 20.9996 19.8 21.2142L20.2929 21.7071C20.6834 22.0976 21.3166 22.0976 21.7071 21.7071C22.0976 21.3166 22.0976 20.6834 21.7071 20.2929L3.70711 2.29289C3.31658 1.90237 2.68342 1.90237 2.29289 2.29289C1.90237 2.68342 1.90237 3.31658 2.29289 3.70711L3.85355 5.26777C3.94732 5.36154 4 5.48871 4 5.62132V19C4 20.6569 5.34315 22 7 22H17C17.7714 22 18.4748 21.7089 19.0063 21.2305Z" fill="#171717"/>
<path d="M20 9.24264V14.5787C20 15.0241 19.4614 15.2472 19.1464 14.9322L6.7987 2.5845C6.57914 2.36493 6.68949 2 7 2H12.7574C13.553 2 14.3161 2.31607 14.8787 2.87868L19.1213 7.12132C19.6839 7.68393 20 8.44699 20 9.24264Z" fill="#171717"/>
</svg>
