<svg width="24" height="24" viewBox="0 0 24 24" fill="none" xmlns="http://www.w3.org/2000/svg">
<path fill-rule="evenodd" clip-rule="evenodd" d="M4 5C4 3.34315 5.34315 2 7 2H12.7574C13.553 2 14.3161 2.31607 14.8787 2.87868L19.1213 7.12132C19.6839 7.68393 20 8.44699 20 9.24264V19C20 20.6569 18.6569 22 17 22H7C5.34315 22 4 20.6569 4 19V5ZM14 9C13.4477 9 13 8.55228 13 8V5.20711C13 4.76165 13.5386 4.53857 13.8536 4.85355L17.1464 8.14645C17.4614 8.46143 17.2383 9 16.7929 9H14ZM12 11C11.4477 11 11 11.4477 11 12V16C11 16.5523 11.4477 17 12 17C12.5523 17 13 16.5523 13 16V12C13 11.4477 12.5523 11 12 11ZM12 18C11.4477 18 11 18.4477 11 19C11 19.5523 11.4477 20 12 20C12.5523 20 13 19.5523 13 19C13 18.4477 12.5523 18 12 18Z" fill="#171717"/>
</svg>
