<svg width="24" height="24" viewBox="0 0 24 24" fill="none" xmlns="http://www.w3.org/2000/svg">
<path fill-rule="evenodd" clip-rule="evenodd" d="M4 5C4 3.34315 5.34315 2 7 2H12.7574C13.553 2 14.3161 2.31607 14.8787 2.87868L19.1213 7.12132C19.6839 7.68393 20 8.44699 20 9.24264V19C20 20.6569 18.6569 22 17 22H7C5.34315 22 4 20.6569 4 19V5ZM14 9C13.4477 9 13 8.55228 13 8V5.20711C13 4.76165 13.5386 4.53857 13.8536 4.85355L17.1464 8.14645C17.4614 8.46143 17.2383 9 16.7929 9H14ZM12 11C10.8954 11 10 11.8954 10 13V14C10 15.1046 10.8954 16 12 16C13.1046 16 14 15.1046 14 14V13C14 11.8954 13.1046 11 12 11ZM9.40193 15.5C9.12579 15.0217 8.5142 14.8578 8.0359 15.134C7.55761 15.4101 7.39374 16.0217 7.66988 16.5C8.10872 17.2601 8.73991 17.8913 9.5 18.3301C10.2601 18.769 11.1223 19 12 19C12.8777 19 13.7399 18.769 14.5 18.3301C15.2601 17.8913 15.8913 17.2601 16.3301 16.5C16.6063 16.0217 16.4424 15.4101 15.9641 15.134C15.4858 14.8578 14.8742 15.0217 14.5981 15.5C14.3348 15.9561 13.9561 16.3348 13.5 16.5981C13.0439 16.8614 12.5266 17 12 17C11.4734 17 10.9561 16.8614 10.5 16.5981C10.0439 16.3348 9.66523 15.9561 9.40193 15.5Z" fill="#171717"/>
</svg>
