<svg width="24" height="24" viewBox="0 0 24 24" fill="none" xmlns="http://www.w3.org/2000/svg">
<path fill-rule="evenodd" clip-rule="evenodd" d="M4 5C4 3.34315 5.34315 2 7 2H12.7574C13.553 2 14.3161 2.31607 14.8787 2.87868L19.1213 7.12132C19.6839 7.68393 20 8.44699 20 9.24264V19C20 20.6569 18.6569 22 17 22H7C5.34315 22 4 20.6569 4 19V5ZM14 9C13.4477 9 13 8.55228 13 8V5.20711C13 4.76165 13.5386 4.53857 13.8536 4.85355L17.1464 8.14645C17.4614 8.46143 17.2383 9 16.7929 9H14ZM10 11C9.44772 11 9 11.4477 9 12V15.6301C9 15.8688 9.08539 16.0996 9.24074 16.2809L11.2407 18.6142C11.6398 19.0798 12.3602 19.0798 12.7593 18.6142L14.7593 16.2809C14.9146 16.0996 15 15.8688 15 15.6301V12C15 11.4477 14.5523 11 14 11H10Z" fill="#171717"/>
</svg>
