<svg width="24" height="24" viewBox="0 0 24 24" fill="none" xmlns="http://www.w3.org/2000/svg">
<path fill-rule="evenodd" clip-rule="evenodd" d="M4 5C4 3.34315 5.34315 2 7 2H12.7574C13.553 2 14.3161 2.31607 14.8787 2.87868L19.1213 7.12132C19.6839 7.68393 20 8.44699 20 9.24264V19C20 20.6569 18.6569 22 17 22H7C5.34315 22 4 20.6569 4 19V5ZM14 9C13.4477 9 13 8.55228 13 8V5.20711C13 4.76165 13.5386 4.53857 13.8536 4.85355L17.1464 8.14645C17.4614 8.46143 17.2383 9 16.7929 9H14ZM10.8519 11.2284C11.4001 11.0013 12.0033 10.9419 12.5853 11.0576C13.1672 11.1734 13.7018 11.4591 14.1213 11.8787C14.5118 12.2692 14.5118 12.9024 14.1213 13.2929C13.7308 13.6834 13.0976 13.6834 12.7071 13.2929C12.5673 13.153 12.3891 13.0578 12.1951 13.0192C12.0011 12.9806 11.8 13.0004 11.6173 13.0761C11.4346 13.1518 11.2784 13.28 11.1685 13.4444C11.0586 13.6089 11 13.8022 11 14V15H15C15.5523 15 16 15.4477 16 16V18C16 18.5523 15.5523 19 15 19H9C8.44772 19 8 18.5523 8 18V16C8 15.4477 8.44772 15 9 15V14C9 13.4067 9.17595 12.8266 9.50559 12.3333C9.83524 11.8399 10.3038 11.4554 10.8519 11.2284Z" fill="#171717"/>
</svg>
