<svg width="24" height="24" viewBox="0 0 24 24" fill="none" xmlns="http://www.w3.org/2000/svg">
<path d="M3 7C3 4.79086 4.79086 3 7 3H17C19.2091 3 21 4.79086 21 7V10.5172C21 10.6953 20.7846 10.7846 20.6586 10.6586L18.3536 8.35355C18.1583 8.15829 17.8417 8.15829 17.6464 8.35355L15.3536 10.6464C15.1583 10.8417 14.8417 10.8417 14.6464 10.6464L12.3536 8.35355C12.1583 8.15829 11.8417 8.15829 11.6464 8.35355L9.35355 10.6464C9.15829 10.8417 8.84171 10.8417 8.64645 10.6464L6.35355 8.35355C6.15829 8.15829 5.84171 8.15829 5.64645 8.35355L3.34142 10.6586C3.21543 10.7846 3 10.6953 3 10.5172L3 7Z" fill="#171717"/>
<path d="M21 17C21 19.2091 19.2091 21 17 21H7C4.79086 21 3 19.2091 3 17V14.2071C3 14.0745 3.05268 13.9473 3.14645 13.8536L5.64645 11.3536C5.84171 11.1583 6.15829 11.1583 6.35355 11.3536L8.64645 13.6464C8.84171 13.8417 9.15829 13.8417 9.35355 13.6464L11.6464 11.3536C11.8417 11.1583 12.1583 11.1583 12.3536 11.3536L14.6464 13.6464C14.8417 13.8417 15.1583 13.8417 15.3536 13.6464L17.6464 11.3536C17.8417 11.1583 18.1583 11.1583 18.3536 11.3536L20.8536 13.8536C20.9473 13.9473 21 14.0745 21 14.2071V17Z" fill="#171717"/>
</svg>
