<svg width="24" height="24" viewBox="0 0 24 24" fill="none" xmlns="http://www.w3.org/2000/svg">
<path d="M10.481 3C10.8077 3 11.0459 3.30951 11.0164 3.63489C11.0056 3.75514 11 3.87692 11 4V4.5C11 4.77614 10.7761 5 10.5 5H5C3.89543 5 3 5.89543 3 7V12.5172C3 12.6953 3.21543 12.7846 3.34142 12.6586L5.29289 10.7071C5.68342 10.3166 6.31658 10.3166 6.70711 10.7071L10.1464 14.1464C10.3417 14.3417 10.6583 14.3417 10.8536 14.1464L11.2929 13.7071C11.6834 13.3166 12.3166 13.3166 12.7071 13.7071L16.6586 17.6586C16.7846 17.7846 17 17.6953 17 17.5172V14.5C17 14.2239 17.2239 14 17.5 14H18.5C18.7761 14 19 14.2239 19 14.5V17C19 19.2091 17.2091 21 15 21H5C2.79086 21 1 19.2091 1 17V7C1 4.79086 2.79086 3 5 3H10.481Z" fill="#171717"/>
<path fill-rule="evenodd" clip-rule="evenodd" d="M15 1C13.3431 1 12 2.34315 12 4V10C12 11.6569 13.3431 13 15 13H21C22.6569 13 24 11.6569 24 10V4C24 2.34315 22.6569 1 21 1H15ZM17.5 10C18.1028 10 18.6699 9.84763 19.1651 9.57931L20.2929 10.7071C20.6834 11.0976 21.3166 11.0976 21.7071 10.7071C22.0976 10.3166 22.0976 9.68342 21.7071 9.29289L20.5793 8.1651C20.8476 7.66993 21 7.10276 21 6.5C21 4.567 19.433 3 17.5 3C15.567 3 14 4.567 14 6.5C14 8.433 15.567 10 17.5 10ZM17.5 8C18.3284 8 19 7.32843 19 6.5C19 5.67157 18.3284 5 17.5 5C16.6716 5 16 5.67157 16 6.5C16 7.32843 16.6716 8 17.5 8Z" fill="#171717"/>
</svg>
