<svg width="24" height="24" viewBox="0 0 24 24" fill="none" xmlns="http://www.w3.org/2000/svg">
<path d="M22 12C22 11.4477 21.5523 11 21 11H12C11.4477 11 11 11.4477 11 12C11 12.5523 11.4477 13 12 13H21C21.5523 13 22 12.5523 22 12Z" fill="#171717"/>
<path d="M22 7C22 6.44772 21.5523 6 21 6H12C11.4477 6 11 6.44772 11 7C11 7.55228 11.4477 8 12 8H21C21.5523 8 22 7.55228 22 7Z" fill="#171717"/>
<path d="M22 17C22 16.4477 21.5523 16 21 16H12C11.4477 16 11 16.4477 11 17C11 17.5523 11.4477 18 12 18H21C21.5523 18 22 17.5523 22 17Z" fill="#171717"/>
<path d="M6.70924 6.29503C6.52811 6.11281 6.27723 6 6 6C5.7381 6 5.49972 6.10068 5.32144 6.26545C5.31176 6.27439 5.30224 6.28354 5.29289 6.29289L3.29289 8.29289C2.90237 8.68342 2.90237 9.31658 3.29289 9.70711C3.68342 10.0976 4.31658 10.0976 4.70711 9.70711L5 9.41421V17C5 17.5523 5.44772 18 6 18C6.55228 18 7 17.5523 7 17V9.41422L7.29289 9.70711C7.68342 10.0976 8.31658 10.0976 8.70711 9.70711C9.09763 9.31658 9.09763 8.68342 8.70711 8.29289L6.70924 6.29503Z" fill="#171717"/>
</svg>
