<svg width="24" height="24" viewBox="0 0 24 24" fill="none" xmlns="http://www.w3.org/2000/svg">
<path fill-rule="evenodd" clip-rule="evenodd" d="M8 7C8 5.89543 8.89543 5 10 5H14C15.1046 5 16 5.89543 16 7V11C16 12.1046 15.1046 13 14 13H10C8.89543 13 8 12.1046 8 11V7ZM10 7.5C10 7.22386 10.2239 7 10.5 7H13.5C13.7761 7 14 7.22386 14 7.5V10.5C14 10.7761 13.7761 11 13.5 11H10.5C10.2239 11 10 10.7761 10 10.5V7.5Z" fill="#171717"/>
<path d="M19 7C18.4477 7 18 7.44772 18 8C18 8.55228 18.4477 9 19 9H21C21.5523 9 22 8.55228 22 8C22 7.44772 21.5523 7 21 7H19Z" fill="#171717"/>
<path d="M19 11C18.4477 11 18 11.4477 18 12C18 12.5523 18.4477 13 19 13C19.5523 13 20 12.5523 20 12C20 11.4477 19.5523 11 19 11Z" fill="#171717"/>
<path d="M2 16C2 15.4477 2.44772 15 3 15H21C21.5523 15 22 15.4477 22 16C22 16.5523 21.5523 17 21 17H3C2.44772 17 2 16.5523 2 16Z" fill="#171717"/>
<path d="M6 8C6 7.44772 5.55228 7 5 7H3C2.44772 7 2 7.44772 2 8C2 8.55228 2.44772 9 3 9H5C5.55228 9 6 8.55228 6 8Z" fill="#171717"/>
<path d="M6 12C6 11.4477 5.55228 11 5 11C4.44771 11 4 11.4477 4 12C4 12.5523 4.44772 13 5 13C5.55228 13 6 12.5523 6 12Z" fill="#171717"/>
</svg>
