<svg width="24" height="24" viewBox="0 0 24 24" fill="none" xmlns="http://www.w3.org/2000/svg">
<path d="M10 4C9.44772 4 9 4.44772 9 5V19C9 19.5523 9.44772 20 10 20C10.5523 20 11 19.5523 11 19V5C11 4.44772 10.5523 4 10 4Z" fill="#171717"/>
<path d="M20 7C20.5523 7 21 7.44772 21 8C21 8.55228 20.5523 9 20 9H14C13.4477 9 13 8.55228 13 8C13 7.44772 13.4477 7 14 7H20Z" fill="#171717"/>
<path d="M20 11C20.5523 11 21 11.4477 21 12C21 12.5523 20.5523 13 20 13H14C13.4477 13 13 12.5523 13 12C13 11.4477 13.4477 11 14 11H20Z" fill="#171717"/>
<path d="M21 16C21 15.4477 20.5523 15 20 15H14C13.4477 15 13 15.4477 13 16C13 16.5523 13.4477 17 14 17H20C20.5523 17 21 16.5523 21 16Z" fill="#171717"/>
<path d="M6.70711 12.7071L4.70711 14.7071C4.31658 15.0976 3.68342 15.0976 3.29289 14.7071C2.90237 14.3166 2.90237 13.6834 3.29289 13.2929L4.58579 12L3.29289 10.7071C2.90237 10.3166 2.90237 9.68342 3.29289 9.29289C3.68342 8.90237 4.31658 8.90237 4.70711 9.29289L6.70711 11.2929C7.09763 11.6834 7.09763 12.3166 6.70711 12.7071Z" fill="#171717"/>
</svg>
