<svg width="24" height="24" viewBox="0 0 24 24" fill="none" xmlns="http://www.w3.org/2000/svg">
<path d="M2 7C2 6.44772 2.44772 6 3 6H14C14.5523 6 15 6.44772 15 7C15 7.55228 14.5523 8 14 8H3C2.44772 8 2 7.55228 2 7Z" fill="#171717"/>
<path d="M2 12C2 11.4477 2.44772 11 3 11H11C11.5523 11 12 11.4477 12 12C12 12.5523 11.5523 13 11 13H3C2.44772 13 2 12.5523 2 12Z" fill="#171717"/>
<path d="M2 17C2 16.4477 2.44772 16 3 16H14C14.5523 16 15 16.4477 15 17C15 17.5523 14.5523 18 14 18H3C2.44772 18 2 17.5523 2 17Z" fill="#171717"/>
<path d="M21 11C21.5523 11 22 11.4477 22 12C22 12.5523 21.5523 13 21 13L15 13C14.4477 13 14 12.5523 14 12C14 11.4477 14.4477 11 15 11L21 11Z" fill="#171717"/>
</svg>
