<svg width="24" height="24" viewBox="0 0 24 24" fill="none" xmlns="http://www.w3.org/2000/svg">
<path d="M7.95833 12C7.95833 11.4477 8.4247 11 9 11H20.9583C21.5336 11 21.9583 11.4477 21.9583 12C21.9583 12.5523 21.5336 13 20.9583 13H9C8.4247 13 7.95833 12.5523 7.95833 12Z" fill="#171717"/>
<path d="M8 8C8 7.44772 8.46637 7 9.04167 7H21C21.5753 7 22 7.44772 22 8C22 8.55228 21.5753 9 21 9H9.04167C8.46637 9 8 8.55228 8 8Z" fill="#171717"/>
<path d="M8 16C8 15.4477 8.46637 15 9.04167 15H21C21.5753 15 22 15.4477 22 16C22 16.5523 21.5753 17 21 17H9.04167C8.46637 17 8 16.5523 8 16Z" fill="#171717"/>
<path fill-rule="evenodd" clip-rule="evenodd" d="M5.38268 5.07615C5.75636 5.23093 6 5.59557 6 6.00003V10C6 10.5523 5.55228 11 5 11C4.44772 11 4 10.5523 4 10V8.00003C3.74408 8.00003 3.48816 7.9024 3.29289 7.70714C2.90237 7.31661 2.90237 6.68345 3.29289 6.29292L4.29289 5.29292C4.57889 5.00692 5.00901 4.92137 5.38268 5.07615Z" fill="#171717"/>
<path d="M4 13C3.44772 13 3 13.4477 3 14C3 14.5523 3.44772 15 4 15H4.92857C4.94677 15 4.96338 15.0068 4.97599 15.018L4.2 15.6C3.44458 16.1666 3 17.0557 3 18C3 18.5523 3.44772 19 4 19H6C6.55228 19 7 18.5523 7 18C7 17.4477 6.55228 17 6 17H5.66667L6.25714 16.5571C6.72478 16.2064 7 15.656 7 15.0714C7 13.9274 6.07259 13 4.92857 13H4Z" fill="#171717"/>
</svg>
