<svg width="24" height="24" viewBox="0 0 24 24" fill="none" xmlns="http://www.w3.org/2000/svg">
<path d="M4 7C4 6.44772 4.44772 6 5 6H16C16.5523 6 17 6.44772 17 7C17 7.55228 16.5523 8 16 8H5C4.44772 8 4 7.55228 4 7Z" fill="#171717"/>
<path d="M4 12C4 11.4477 4.44772 11 5 11H13C13.5523 11 14 11.4477 14 12C14 12.5523 13.5523 13 13 13H5C4.44772 13 4 12.5523 4 12Z" fill="#171717"/>
<path d="M5 16C4.44772 16 4 16.4477 4 17C4 17.5523 4.44772 18 5 18H16C16.5523 18 17 17.5523 17 17C17 16.4477 16.5523 16 16 16H5Z" fill="#171717"/>
<path d="M18.2929 14.7071L16.2929 12.7071C15.9024 12.3166 15.9024 11.6834 16.2929 11.2929L18.2929 9.29289C18.6834 8.90237 19.3166 8.90237 19.7071 9.29289C20.0976 9.68342 20.0976 10.3166 19.7071 10.7071L18.4142 12L19.7071 13.2929C20.0976 13.6834 20.0976 14.3166 19.7071 14.7071C19.3166 15.0976 18.6834 15.0976 18.2929 14.7071Z" fill="#171717"/>
</svg>
