<svg width="24" height="24" viewBox="0 0 24 24" fill="none" xmlns="http://www.w3.org/2000/svg">
<path d="M16 6C16.5523 6 17 6.44772 17 7C17 7.55228 16.5523 8 16 8H8C7.44772 8 7 7.55228 7 7C7 6.44772 7.44772 6 8 6H16Z" fill="#171717"/>
<path d="M13 11C13.5523 11 14 11.4477 14 12C14 12.5523 13.5523 13 13 13H11C10.4477 13 10 12.5523 10 12C10 11.4477 10.4477 11 11 11H13Z" fill="#171717"/>
<path d="M17 17C17 16.4477 16.5523 16 16 16H8C7.44771 16 7 16.4477 7 17C7 17.5523 7.44771 18 8 18H16C16.5523 18 17 17.5523 17 17Z" fill="#171717"/>
<path d="M7.70711 12.7071L5.70711 14.7071C5.31658 15.0976 4.68342 15.0976 4.29289 14.7071C3.90237 14.3166 3.90237 13.6834 4.29289 13.2929L5.58579 12L4.29289 10.7071C3.90237 10.3166 3.90237 9.68342 4.29289 9.29289C4.68342 8.90237 5.31658 8.90237 5.70711 9.29289L7.70711 11.2929C8.09763 11.6834 8.09763 12.3166 7.70711 12.7071Z" fill="#171717"/>
<path d="M16.2929 12.7071C15.9024 12.3166 15.9024 11.6834 16.2929 11.2929L18.2929 9.29289C18.6834 8.90237 19.3166 8.90237 19.7071 9.29289C20.0976 9.68342 20.0976 10.3166 19.7071 10.7071L18.4142 12L19.7071 13.2929C20.0976 13.6834 20.0976 14.3166 19.7071 14.7071C19.3166 15.0976 18.6834 15.0976 18.2929 14.7071L16.2929 12.7071Z" fill="#171717"/>
</svg>
