<svg width="24" height="24" viewBox="0 0 24 24" fill="none" xmlns="http://www.w3.org/2000/svg">
<path d="M20 6C20.5523 6 21 6.44772 21 7C21 7.55228 20.5523 8 20 8H4C3.44772 8 3 7.55228 3 7C3 6.44772 3.44772 6 4 6H20Z" fill="#171717"/>
<path d="M4 11C3.44772 11 3 11.4477 3 12C3 12.5523 3.44772 13 4 13H13.5C14.3284 13 15 13.6716 15 14.5C15 15.3284 14.3284 16 13.5 16H12.4142L12.7071 15.7071C13.0976 15.3166 13.0976 14.6834 12.7071 14.2929C12.3166 13.9024 11.6834 13.9024 11.2929 14.2929L9.29289 16.2929C8.90237 16.6834 8.90237 17.3166 9.29289 17.7071L11.2929 19.7071C11.6834 20.0976 12.3166 20.0976 12.7071 19.7071C13.0976 19.3166 13.0976 18.6834 12.7071 18.2929L12.4142 18H13.5C15.433 18 17 16.433 17 14.5C17 12.567 15.433 11 13.5 11H4Z" fill="#171717"/>
<path d="M4 16C3.44772 16 3 16.4477 3 17C3 17.5523 3.44772 18 4 18H6C6.55228 18 7 17.5523 7 17C7 16.4477 6.55228 16 6 16H4Z" fill="#171717"/>
<path d="M18 17C18 16.4477 18.4477 16 19 16H20C20.5523 16 21 16.4477 21 17C21 17.5523 20.5523 18 20 18H19C18.4477 18 18 17.5523 18 17Z" fill="#171717"/>
<path d="M19 11C18.4477 11 18 11.4477 18 12C18 12.5523 18.4477 13 19 13H20C20.5523 13 21 12.5523 21 12C21 11.4477 20.5523 11 20 11H19Z" fill="#171717"/>
</svg>
