<svg width="24" height="24" viewBox="0 0 24 24" fill="none" xmlns="http://www.w3.org/2000/svg">
<path d="M3.70711 2.29289C3.31658 1.90237 2.68342 1.90237 2.29289 2.29289C1.90237 2.68342 1.90237 3.31658 2.29289 3.70711L2.64332 4.05753C2.8286 4.24281 2.83637 4.53802 2.68911 4.75474C2.25417 5.39487 2 6.16775 2 7V7.28571C2 8.23249 2.76751 9 3.71429 9C9.39493 9 14 13.6051 14 19.2857C14 20.2325 14.7675 21 15.7143 21H18C18.3631 21 18.7149 20.9516 19.0494 20.8609C19.2361 20.8103 19.439 20.8532 19.5758 20.99L20.2929 21.7071C20.6834 22.0976 21.3166 22.0976 21.7071 21.7071C22.0976 21.3166 22.0976 20.6834 21.7071 20.2929L3.70711 2.29289Z" fill="#171717"/>
<path d="M22 17C22 17.3064 21.6393 17.4251 21.4227 17.2084L8.06782 3.85355C7.75283 3.53857 7.97592 3 8.42137 3H18C20.2091 3 22 4.79086 22 7V17Z" fill="#171717"/>
<path d="M4 20C4 20.5523 3.55228 21 3 21C2.44772 21 2 20.5523 2 20C2 19.4477 2.44772 19 3 19C3.55228 19 4 19.4477 4 20Z" fill="#171717"/>
<path d="M3 15C2.44772 15 2 15.4477 2 16C2 16.5523 2.44772 17 3 17C4.65685 17 6 18.3431 6 20C6 20.5523 6.44772 21 7 21C7.55228 21 8 20.5523 8 20C8 17.2386 5.76142 15 3 15Z" fill="#171717"/>
<path d="M2 12C2 11.4477 2.44772 11 3 11C7.97056 11 12 15.0294 12 20C12 20.5523 11.5523 21 11 21C10.4477 21 10 20.5523 10 20C10 16.134 6.86599 13 3 13C2.44772 13 2 12.5523 2 12Z" fill="#171717"/>
</svg>
