<svg width="24" height="24" viewBox="0 0 24 24" fill="none" xmlns="http://www.w3.org/2000/svg">
<path fill-rule="evenodd" clip-rule="evenodd" d="M16 22C17.1046 22 18 21.1046 18 20V18.4031C18 17.4948 17.6909 16.6136 17.1235 15.9043L14.9995 13.2494C14.4152 12.519 14.4152 11.481 14.9995 10.7506L17.1235 8.09566C17.6909 7.3864 18 6.50516 18 5.59688V4C18 2.89543 17.1046 2 16 2H8C6.89543 2 6 2.89543 6 4V5.59688C6 6.50516 6.30912 7.3864 6.87652 8.09566L9.00049 10.7506C9.58484 11.481 9.58484 12.519 9.00049 13.2494L6.87652 15.9043C6.30912 16.6136 6 17.4948 6 18.4031V20C6 21.1046 6.89543 22 8 22H16ZM15 20H9C8.44772 20 8 19.5523 8 19V18.4031C8 17.949 8.15456 17.5084 8.43826 17.1537L9.96174 15.2494C10.3413 14.775 10.9159 14.4988 11.5235 14.4988L12.4765 14.4988C13.0841 14.4988 13.6587 14.775 14.0383 15.2494L15.5617 17.1537C15.8454 17.5084 16 17.949 16 18.4031V19C16 19.5523 15.5523 20 15 20Z" fill="#171717"/>
</svg>
