<svg width="24" height="24" viewBox="0 0 24 24" fill="none" xmlns="http://www.w3.org/2000/svg">
<path d="M7.79044 8.83733C6.7644 9.26232 5.81045 9.83949 4.96004 10.5478C4.53567 10.9013 3.9052 10.9052 3.51467 10.5147L2.80757 9.80761C2.41704 9.41709 2.41482 8.78089 2.83222 8.41923C3.96611 7.43677 5.25227 6.64149 6.64239 6.06569C8.34095 5.36212 10.1614 5 12 5C13.8385 5 15.659 5.36212 17.3575 6.06569C18.7476 6.64149 20.0338 7.43677 21.1677 8.41924C21.5851 8.78089 21.5829 9.41709 21.1923 9.80761L20.4852 10.5147C20.0947 10.9052 19.4642 10.9013 19.0399 10.5478C18.1895 9.83949 17.2355 9.26232 16.2095 8.83733C14.8749 8.28452 13.4445 8 12 8C10.5554 8 9.12502 8.28452 7.79044 8.83733Z" fill="#171717"/>
<path d="M9.70384 13.4567C9.28476 13.6303 8.88772 13.8504 8.51993 14.1123C8.07003 14.4326 7.44072 14.4408 7.05019 14.0502L6.34309 13.3431C5.95256 12.9526 5.94946 12.3144 6.38088 11.9696C7.04057 11.4424 7.77251 11.0095 8.55579 10.6851C9.64772 10.2328 10.818 9.99999 11.9999 9.99999C13.1818 9.99999 14.3522 10.2328 15.4441 10.6851C16.2274 11.0095 16.9593 11.4424 17.619 11.9696C18.0504 12.3144 18.0473 12.9526 17.6568 13.3431L16.9497 14.0502C16.5592 14.4408 15.9299 14.4326 15.48 14.1123C15.1122 13.8504 14.7151 13.6303 14.296 13.4567C13.5681 13.1552 12.7879 13 11.9999 13C11.212 13 10.4318 13.1552 9.70384 13.4567Z" fill="#171717"/>
<path d="M9.95932 15.5597C9.48432 15.8415 9.48821 16.4881 9.87873 16.8787L11.2929 18.2929C11.6835 18.6834 12.3166 18.6834 12.7072 18.2929L14.1214 16.8787C14.5119 16.4881 14.5158 15.8415 14.0408 15.5597C13.8774 15.4628 13.707 15.3775 13.5308 15.3045C13.1228 15.1355 12.6902 15.0354 12.2505 15.0078C12.1673 15.0026 12.0837 15 12.0001 15C11.9164 15 11.8328 15.0026 11.7496 15.0078C11.31 15.0354 10.8773 15.1355 10.4693 15.3045C10.2931 15.3775 10.1227 15.4628 9.95932 15.5597Z" fill="#171717"/>
</svg>
