<svg width="24" height="24" viewBox="0 0 24 24" fill="none" xmlns="http://www.w3.org/2000/svg">
<path d="M11.9038 7.85355C12.2188 7.53857 11.9957 7 11.5503 7H7C4.79086 7 3 8.79086 3 11V17C3 19.2091 4.79086 21 7 21H13C15.2091 21 17 19.2091 17 17V12.4497C17 12.0043 16.4614 11.7812 16.1464 12.0962L14.1213 14.1213C12.9497 15.2929 11.0503 15.2929 9.87868 14.1213C8.70711 12.9497 8.70711 11.0503 9.87868 9.87868L11.9038 7.85355Z" fill="#171717"/>
<path d="M14 3C13.4477 3 13 3.44772 13 4C13 4.55228 13.4477 5 14 5H17.1029C17.2811 5 17.3704 5.21543 17.2444 5.34142L11.2929 11.2929C10.9024 11.6834 10.9024 12.3166 11.2929 12.7071C11.6834 13.0976 12.3166 13.0976 12.7071 12.7071L18.6586 6.75563C18.7846 6.62964 19 6.71888 19 6.89706V10C19 10.5523 19.4477 11 20 11C20.5523 11 21 10.5523 21 10V4C21 3.72612 20.8899 3.47796 20.7115 3.29736C20.7086 3.29437 20.7056 3.2914 20.7026 3.28845C20.6078 3.19478 20.4989 3.12392 20.3828 3.07588C20.2649 3.02699 20.1356 3 20 3H14Z" fill="#171717"/>
</svg>
