<svg width="24" height="24" viewBox="0 0 24 24" fill="none" xmlns="http://www.w3.org/2000/svg">
<path d="M6.7556 13.3414C6.62961 13.2154 6.71884 13 6.89703 13L14 13C14.5523 13 15 12.5523 15 12C15 11.4477 14.5523 11 14 11L6.8971 11C6.71892 11 6.62968 10.7846 6.75568 10.6586L8.94975 8.4645C9.34028 8.07398 9.34028 7.44081 8.94975 7.05029C8.55923 6.65976 7.92606 6.65976 7.53554 7.05029L3.29836 11.2875C3.20942 11.3751 3.1368 11.4792 3.08548 11.5948C3.03053 11.7187 3 11.8558 3 12C3 12.1316 3.02542 12.2573 3.07162 12.3724C3.12043 12.4942 3.19419 12.6084 3.2929 12.7071L7.53554 16.9498C7.92606 17.3403 8.55923 17.3403 8.94975 16.9498C9.34028 16.5593 9.34028 15.9261 8.94975 15.5356L6.7556 13.3414Z" fill="#171717"/>
<path d="M13 21C11.8954 21 11 20.1046 11 19L11 16C11 15.4477 11.4477 15 12 15H14C15.6569 15 17 13.6569 17 12C17 10.3431 15.6569 9 14 9H12C11.4477 9 11 8.55228 11 8V5C11 3.89543 11.8954 3 13 3H17C19.2091 3 21 4.79086 21 7V17C21 19.2091 19.2091 21 17 21H13Z" fill="#171717"/>
</svg>
