<svg width="24" height="24" viewBox="0 0 24 24" fill="none" xmlns="http://www.w3.org/2000/svg">
<path d="M14.2929 6.70711C13.9024 6.31658 13.9024 5.68342 14.2929 5.29289C14.6834 4.90237 15.3166 4.90237 15.7071 5.29289L18.7071 8.29289C19.0976 8.68342 19.0976 9.31658 18.7071 9.70711L15.7071 12.7071C15.3166 13.0976 14.6834 13.0976 14.2929 12.7071C13.9024 12.3166 13.9024 11.6834 14.2929 11.2929L15.5858 10H10C8.34315 10 7 11.3431 7 13C7 14.6569 8.34315 16 10 16H18C18.5523 16 19 16.4477 19 17C19 17.5523 18.5523 18 18 18H10C7.23858 18 5 15.7614 5 13C5 10.2386 7.23858 8 10 8H15.5858L14.2929 6.70711Z" fill="black"/>
</svg>
