<svg width="24" height="24" viewBox="0 0 24 24" fill="none" xmlns="http://www.w3.org/2000/svg">
<path fill-rule="evenodd" clip-rule="evenodd" d="M3 7C3 4.79086 4.79086 3 7 3H17C19.2091 3 21 4.79086 21 7V17C21 19.2091 19.2091 21 17 21H7C4.79086 21 3 19.2091 3 17V7ZM6 14C6 12.8954 6.89543 12 8 12V10C8 7.79086 9.79086 6 12 6C14.2091 6 16 7.79086 16 10C16 10.5523 15.5523 11 15 11C14.4477 11 14 10.5523 14 10C14 8.89543 13.1046 8 12 8C10.8954 8 10 8.89543 10 10V12H16C17.1046 12 18 12.8954 18 14V16C18 17.1046 17.1046 18 16 18H8C6.89543 18 6 17.1046 6 16V14Z" fill="#171717"/>
</svg>
