<svg width="24" height="24" viewBox="0 0 24 24" fill="none" xmlns="http://www.w3.org/2000/svg">
<path d="M10.6587 12.7556C10.7847 12.6296 11.0001 12.7188 11.0001 12.897L11.0001 20C11.0001 20.5523 11.4478 21 12.0001 21C12.5524 21 13.0001 20.5523 13.0001 20L13.0001 12.8971C13.0001 12.7189 13.2156 12.6297 13.3415 12.7557L15.5356 14.9498C15.9261 15.3403 16.5593 15.3403 16.9498 14.9498C17.3404 14.5592 17.3404 13.9261 16.9498 13.5355L12.7127 9.29836C12.6251 9.20942 12.521 9.1368 12.4053 9.08548C12.2814 9.03053 12.1443 9 12.0001 9C11.8685 9 11.7428 9.02542 11.6278 9.07163C11.5059 9.12044 11.3917 9.19419 11.293 9.2929L7.05034 13.5355C6.65982 13.9261 6.65981 14.5592 7.05034 14.9498C7.44086 15.3403 8.07403 15.3403 8.46455 14.9498L10.6587 12.7556Z" fill="#171717"/>
<path d="M19.6329 12.8978C19.261 13.0218 18.9062 12.7615 18.6687 12.4496C18.5815 12.3351 18.4854 12.2253 18.3813 12.1213L14.1481 7.88813C13.8882 7.62586 13.5789 7.41051 13.2337 7.25735C12.8594 7.09127 12.4464 7 12.0174 7C11.6263 7 11.2479 7.07589 10.8999 7.21561C10.5321 7.36316 10.1891 7.58559 9.89605 7.87869L5.65341 12.1213C5.54647 12.2283 5.44207 12.3413 5.34612 12.4592C5.0987 12.7634 4.73902 13.0218 4.36707 12.8978C3.5727 12.633 3 11.8834 3 11L3 7C3 4.79086 4.79086 3 7 3L17 3C19.2091 3 21 4.79086 21 7V11C21 11.8834 20.4273 12.633 19.6329 12.8978Z" fill="#171717"/>
</svg>
