<svg width="24" height="24" viewBox="0 0 24 24" fill="none" xmlns="http://www.w3.org/2000/svg">
<path fill-rule="evenodd" clip-rule="evenodd" d="M4.46931 6.41262C4.57669 6.21083 4.54668 5.9609 4.38505 5.79926L2.29289 3.70711C1.90237 3.31658 1.90237 2.68342 2.29289 2.29289C2.68342 1.90237 3.31658 1.90237 3.70711 2.29289L21.7071 20.2929C22.0976 20.6834 22.0976 21.3166 21.7071 21.7071C21.3166 22.0976 20.6834 22.0976 20.2929 21.7071L16.8964 18.3107C16.7012 18.1154 16.3846 18.1154 16.1893 18.3107L12.7071 21.7929C12.3166 22.1834 11.6834 22.1834 11.2929 21.7929L6.10824 16.6082C4.43821 14.9382 3.5 12.6732 3.5 10.3114C3.5 8.90243 3.8506 7.57534 4.46931 6.41262ZM12.1595 13.5737C12.3191 13.7333 12.2258 14 12 14C9.79086 14 8 12.2091 8 10C8 9.77419 8.26666 9.68088 8.42633 9.84055L12.1595 13.5737Z" fill="#171717"/>
<path d="M16 10C16 10.4125 15.9376 10.8105 15.8216 11.1849C15.7623 11.3765 15.8028 11.5886 15.9446 11.7304L18.7361 14.5219C18.9646 14.7504 19.3472 14.7053 19.4963 14.4186C20.1497 13.1614 20.5 11.7545 20.5 10.3114C20.5 5.72114 16.7789 2 12.1886 2H11.8114C10.4373 2 9.14101 2.33347 7.99916 2.92391C7.71258 3.0721 7.66815 3.45395 7.89628 3.68208L10.2696 6.0554C10.4114 6.19723 10.6235 6.23775 10.8151 6.17841C11.1895 6.06245 11.5875 6 12 6C14.2091 6 16 7.79086 16 10Z" fill="#171717"/>
</svg>
