<svg width="24" height="24" viewBox="0 0 24 24" fill="none" xmlns="http://www.w3.org/2000/svg">
<path fill-rule="evenodd" clip-rule="evenodd" d="M11.8114 2C7.22114 2 3.5 5.72114 3.5 10.3114C3.5 12.6732 4.43821 14.9382 6.10824 16.6082L11.2929 21.7929C11.6834 22.1834 12.3166 22.1834 12.7071 21.7929L17.8918 16.6082C19.5618 14.9382 20.5 12.6732 20.5 10.3114C20.5 5.72114 16.7789 2 12.1886 2H11.8114ZM16 11C16 10.4477 15.5523 10 15 10V9C15 7.34315 13.6569 6 12 6C10.3431 6 9 7.34315 9 9V10C8.44772 10 8 10.4477 8 11V13C8 13.5523 8.44772 14 9 14H15C15.5523 14 16 13.5523 16 13V11ZM12 8C11.4477 8 11 8.44772 11 9V10H13V9C13 8.44772 12.5523 8 12 8Z" fill="#171717"/>
</svg>
