<svg width="24" height="24" viewBox="0 0 24 24" fill="none" xmlns="http://www.w3.org/2000/svg">
<path fill-rule="evenodd" clip-rule="evenodd" d="M11.8114 2C7.22114 2 3.5 5.72114 3.5 10.3114C3.5 12.6732 4.43821 14.9382 6.10824 16.6082L11.2929 21.7929C11.6834 22.1834 12.3166 22.1834 12.7071 21.7929L17.8918 16.6082C19.5618 14.9382 20.5 12.6732 20.5 10.3114C20.5 5.72114 16.7789 2 12.1886 2H11.8114ZM11.25 8.20096C11.478 8.06931 11.7367 8 12 8C12.2633 8 12.5219 8.06931 12.75 8.20096C12.978 8.33261 13.1674 8.52197 13.299 8.75C13.4307 8.97803 13.5 9.23669 13.5 9.5C13.5 9.76331 13.4307 10.022 13.299 10.25C13.1674 10.478 12.978 10.6674 12.75 10.799C12.5219 10.9307 12.2633 11 12 11C11.4477 11 11 11.4477 11 12C11 12.5523 11.4477 13 12 13C12.6144 13 13.2179 12.8383 13.75 12.5311C14.282 12.2239 14.7239 11.7821 15.0311 11.25C15.3383 10.7179 15.5 10.1144 15.5 9.5C15.5 8.88562 15.3383 8.28207 15.0311 7.75C14.7239 7.21793 14.282 6.7761 13.75 6.46891C13.2179 6.16172 12.6144 6 12 6C11.3856 6 10.782 6.16172 10.25 6.46891C9.71791 6.7761 9.27608 7.21793 8.96889 7.75C8.69275 8.22829 8.85662 8.83988 9.33491 9.11603C9.81321 9.39217 10.4248 9.22829 10.7009 8.75C10.8326 8.52197 11.0219 8.33261 11.25 8.20096ZM12 14C11.4477 14 11 14.4477 11 15C11 15.5523 11.4477 16 12 16C12.5523 16 13 15.5523 13 15C13 14.4477 12.5523 14 12 14Z" fill="#171717"/>
</svg>
