<svg width="24" height="24" viewBox="0 0 24 24" fill="none" xmlns="http://www.w3.org/2000/svg">
<path fill-rule="evenodd" clip-rule="evenodd" d="M11.8114 2C7.22114 2 3.5 5.72114 3.5 10.3114C3.5 12.6732 4.43821 14.9382 6.10824 16.6082L11.2929 21.7929C11.6834 22.1834 12.3166 22.1834 12.7071 21.7929L17.8918 16.6082C19.5618 14.9382 20.5 12.6732 20.5 10.3114C20.5 5.72114 16.7789 2 12.1886 2H11.8114ZM10 7C9.44772 7 9 7.44772 9 8V11.6301C9 11.8688 9.08539 12.0996 9.24074 12.2809L11.2407 14.6142C11.6398 15.0798 12.3602 15.0798 12.7593 14.6142L14.7593 12.2809C14.9146 12.0996 15 11.8688 15 11.6301V8C15 7.44772 14.5523 7 14 7H10Z" fill="#171717"/>
</svg>
