<svg width="24" height="24" viewBox="0 0 24 24" fill="none" xmlns="http://www.w3.org/2000/svg">
<path fill-rule="evenodd" clip-rule="evenodd" d="M11.8114 2C7.22114 2 3.5 5.72114 3.5 10.3114C3.5 12.6732 4.43821 14.9382 6.10824 16.6082L11.2929 21.7929C11.6834 22.1834 12.3166 22.1834 12.7071 21.7929L17.8918 16.6082C19.5618 14.9382 20.5 12.6732 20.5 10.3114C20.5 5.72114 16.7789 2 12.1886 2H11.8114ZM10.8519 6.22836C11.4001 6.0013 12.0033 5.94189 12.5853 6.05765C13.1672 6.1734 13.7018 6.45912 14.1213 6.87868C14.5118 7.26921 14.5118 7.90237 14.1213 8.29289C13.7308 8.68342 13.0976 8.68342 12.7071 8.29289C12.5673 8.15304 12.3891 8.0578 12.1951 8.01922C12.0011 7.98063 11.8 8.00043 11.6173 8.07612C11.4346 8.15181 11.2784 8.27998 11.1685 8.44443C11.0586 8.60888 11 8.80222 11 9V10H15C15.5523 10 16 10.4477 16 11V13C16 13.5523 15.5523 14 15 14H9C8.44772 14 8 13.5523 8 13V11C8 10.4477 8.44772 10 9 10V9C9 8.40666 9.17595 7.82664 9.50559 7.33329C9.83524 6.83994 10.3038 6.45543 10.8519 6.22836Z" fill="#171717"/>
</svg>
