<svg width="24" height="24" viewBox="0 0 24 24" fill="none" xmlns="http://www.w3.org/2000/svg">
<path fill-rule="evenodd" clip-rule="evenodd" d="M11.8114 2C7.22114 2 3.5 5.72114 3.5 10.3114C3.5 12.6732 4.43821 14.9382 6.10824 16.6082L11.2929 21.7929C11.6834 22.1834 12.3166 22.1834 12.7071 21.7929L17.8918 16.6082C19.5618 14.9382 20.5 12.6732 20.5 10.3114C20.5 5.72114 16.7789 2 12.1886 2H11.8114ZM9 6C8.44772 6 8 6.44772 8 7C8 7.55228 8.44772 8 9 8C9.65661 8 10.3068 8.12933 10.9134 8.3806C11.52 8.63188 12.0712 9.00017 12.5355 9.46447C12.9998 9.92876 13.3681 10.48 13.6194 11.0866C13.8707 11.6932 14 12.3434 14 13C14 13.5523 14.4477 14 15 14C15.5523 14 16 13.5523 16 13C16 12.0807 15.8189 11.1705 15.4672 10.3212C15.1154 9.47194 14.5998 8.70026 13.9497 8.05025C13.2997 7.40024 12.5281 6.88463 11.6788 6.53284C10.8295 6.18106 9.91925 6 9 6ZM8 10C8 9.44772 8.44772 9 9 9C9.52529 9 10.0454 9.10346 10.5307 9.30448C11.016 9.5055 11.457 9.80014 11.8284 10.1716C12.1999 10.543 12.4945 10.984 12.6955 11.4693C12.8965 11.9546 13 12.4747 13 13C13 13.5523 12.5523 14 12 14C11.4477 14 11 13.5523 11 13C11 12.7374 10.9483 12.4773 10.8478 12.2346C10.7472 11.992 10.5999 11.7715 10.4142 11.5858C10.2285 11.4001 10.008 11.2528 9.76537 11.1522C9.52272 11.0517 9.26264 11 9 11C8.44772 11 8 10.5523 8 10ZM10 13C10 13.5523 9.55228 14 9 14C8.44772 14 8 13.5523 8 13C8 12.4477 8.44772 12 9 12C9.55228 12 10 12.4477 10 13Z" fill="#171717"/>
</svg>
