<svg width="24" height="24" viewBox="0 0 24 24" fill="none" xmlns="http://www.w3.org/2000/svg">
<path d="M16 5C16 7.20914 14.2091 9 12 9C9.79083 9 7.99997 7.20914 7.99997 5C7.99997 2.79086 9.79083 1 12 1C14.2091 1 16 2.79086 16 5Z" fill="#171717"/>
<path d="M13.763 11.1949C13.5882 11.1556 13.4112 11.122 13.2323 11.0943C13.1583 11.0705 13.0812 11.0538 13.002 11.0451C12.1495 10.9511 11.313 10.7368 10.5175 10.4073C9.41349 9.94999 8.41031 9.27969 7.5653 8.43467C6.72028 7.58966 6.04998 6.58648 5.59266 5.48242C5.26319 4.687 5.04891 3.85044 4.95486 2.998C4.89429 2.44904 4.45225 2 3.89997 2H1.99997C1.44768 2 0.995969 2.44837 1.03841 2.99903C1.14362 4.36409 1.464 5.70612 1.98953 6.97488C2.39708 7.95878 2.92302 8.8866 3.5541 9.73846C3.83196 10.1135 3.99997 10.5622 3.99997 11.0289V17C3.99997 18.1046 4.8954 19 5.99997 19H11V15C11 13.2226 12.1593 11.7159 13.763 11.1949Z" fill="#171717"/>
<path fill-rule="evenodd" clip-rule="evenodd" d="M15 12C13.3431 12 12 13.3431 12 15V21C12 22.6569 13.3431 24 15 24H21C22.6568 24 24 22.6569 24 21V15C24 13.3431 22.6568 12 21 12H15ZM17.2929 14.7929C17.3887 14.697 17.4992 14.6247 17.6172 14.5759C17.9797 14.4259 18.4124 14.4982 18.7071 14.7929L21.2071 17.2929C21.5976 17.6834 21.5976 18.3166 21.2071 18.7071C20.8166 19.0976 20.1834 19.0976 19.7929 18.7071L19 17.9142V20.5C19 21.0523 18.5523 21.5 18 21.5C17.4477 21.5 17 21.0523 17 20.5V17.9142L16.2071 18.7071C15.8166 19.0976 15.1834 19.0976 14.7929 18.7071C14.4023 18.3166 14.4023 17.6834 14.7929 17.2929L17.2929 14.7929Z" fill="#171717"/>
</svg>
