<svg width="24" height="24" viewBox="0 0 24 24" fill="none" xmlns="http://www.w3.org/2000/svg">
<path d="M16 5C16 7.20914 14.2091 9 12 9C9.79083 9 7.99997 7.20914 7.99997 5C7.99997 2.79086 9.79083 1 12 1C14.2091 1 16 2.79086 16 5Z" fill="#171717"/>
<path d="M13.763 11.1949C13.5882 11.1556 13.4112 11.122 13.2323 11.0943C13.1583 11.0705 13.0812 11.0538 13.002 11.0451C12.1495 10.9511 11.313 10.7368 10.5175 10.4073C9.41349 9.94999 8.41031 9.27969 7.5653 8.43467C6.72028 7.58966 6.04998 6.58648 5.59266 5.48242C5.26319 4.687 5.04891 3.85044 4.95486 2.998C4.89429 2.44904 4.45225 2 3.89997 2H1.99997C1.44768 2 0.995969 2.44837 1.03841 2.99903C1.14362 4.36409 1.464 5.70612 1.98953 6.97488C2.39708 7.95878 2.92302 8.8866 3.5541 9.73846C3.83196 10.1135 3.99997 10.5622 3.99997 11.0289V17C3.99997 18.1046 4.8954 19 5.99997 19H11V15C11 13.2226 12.1593 11.7159 13.763 11.1949Z" fill="#171717"/>
<path fill-rule="evenodd" clip-rule="evenodd" d="M15 12C13.3431 12 12 13.3431 12 15V21C12 22.6569 13.3431 24 15 24H21C22.6568 24 24 22.6569 24 21V15C24 13.3431 22.6568 12 21 12H15ZM17.9642 14C16.8597 14 15.9642 14.8954 15.9642 16V17C15.9642 18.1046 16.8597 19 17.9642 19C19.0688 19 19.9642 18.1046 19.9642 17V16C19.9642 14.8954 19.0688 14 17.9642 14ZM15.3662 18.5C15.09 18.0217 14.4784 17.8578 14.0001 18.134C13.5218 18.4101 13.358 19.0217 13.6341 19.5C14.073 20.2601 14.7041 20.8913 15.4642 21.3301C16.2243 21.769 17.0866 22 17.9642 22C18.8419 22 19.7041 21.769 20.4642 21.3301C21.2243 20.8913 21.8555 20.2601 22.2944 19.5C22.5705 19.0217 22.4066 18.4101 21.9283 18.134C21.45 17.8578 20.8385 18.0217 20.5623 18.5C20.299 18.9561 19.9203 19.3348 19.4642 19.5981C19.0082 19.8614 18.4908 20 17.9642 20C17.4376 20 16.9203 19.8614 16.4642 19.5981C16.0082 19.3348 15.6295 18.9561 15.3662 18.5Z" fill="#171717"/>
</svg>
