<svg width="24" height="24" viewBox="0 0 24 24" fill="none" xmlns="http://www.w3.org/2000/svg">
<path d="M16 5C16 7.20914 14.2091 9 12 9C9.79083 9 7.99997 7.20914 7.99997 5C7.99997 2.79086 9.79083 1 12 1C14.2091 1 16 2.79086 16 5Z" fill="#171717"/>
<path d="M13.763 11.1949C13.5882 11.1556 13.4112 11.122 13.2323 11.0943C13.1583 11.0705 13.0812 11.0538 13.002 11.0451C12.1495 10.9511 11.313 10.7368 10.5175 10.4073C9.41349 9.94999 8.41031 9.27969 7.5653 8.43467C6.72028 7.58966 6.04998 6.58648 5.59266 5.48242C5.26319 4.687 5.04891 3.85044 4.95486 2.998C4.89429 2.44904 4.45225 2 3.89997 2H1.99997C1.44768 2 0.995969 2.44837 1.03841 2.99903C1.14362 4.36409 1.464 5.70612 1.98953 6.97488C2.39708 7.95878 2.92302 8.8866 3.5541 9.73846C3.83196 10.1135 3.99997 10.5622 3.99997 11.0289V17C3.99997 18.1046 4.8954 19 5.99997 19H11V15C11 13.2226 12.1593 11.7159 13.763 11.1949Z" fill="#171717"/>
<path fill-rule="evenodd" clip-rule="evenodd" d="M15 12C13.3431 12 12 13.3431 12 15V21C12 22.6569 13.3431 24 15 24H21C22.6568 24 24 22.6569 24 21V15C24 13.3431 22.6568 12 21 12H15ZM17.9155 16.0215C17.9942 15.9977 18.0775 15.9936 18.1582 16.0096C18.2388 16.0256 18.3143 16.0613 18.3778 16.1135C18.4414 16.1657 18.4911 16.2327 18.5226 16.3087C18.554 16.3846 18.5663 16.4672 18.5582 16.549C18.5502 16.6308 18.522 16.7094 18.4764 16.7778C18.4307 16.8462 18.3688 16.9022 18.2963 16.941C18.2238 16.9797 18.1429 17 18.0606 17C17.5083 17 17.0606 17.4477 17.0606 18C17.0606 18.5523 17.5083 19 18.0606 19C18.4718 19 18.8765 18.8986 19.2391 18.7048C19.6017 18.511 19.9109 18.2308 20.1393 17.8889C20.3677 17.5471 20.5083 17.1542 20.5486 16.745C20.5889 16.3359 20.5277 15.9231 20.3703 15.5433C20.213 15.1635 19.9644 14.8283 19.6466 14.5675C19.3288 14.3067 18.9516 14.1282 18.5484 14.048C18.1451 13.9678 17.7283 13.9883 17.3349 14.1076C16.9415 14.227 16.5836 14.4415 16.2929 14.7322C15.9023 15.1228 15.9023 15.7559 16.2929 16.1464C16.6834 16.537 17.3166 16.537 17.7071 16.1464C17.7652 16.0883 17.8368 16.0454 17.9155 16.0215ZM18 20C17.4477 20 17 20.4477 17 21C17 21.5523 17.4477 22 18 22C18.5523 22 19 21.5523 19 21C19 20.4477 18.5523 20 18 20Z" fill="#171717"/>
</svg>
