<svg width="24" height="24" viewBox="0 0 24 24" fill="none" xmlns="http://www.w3.org/2000/svg">
<path d="M16 5C16 7.20914 14.2091 9 12 9C9.79083 9 7.99997 7.20914 7.99997 5C7.99997 2.79086 9.79083 1 12 1C14.2091 1 16 2.79086 16 5Z" fill="#171717"/>
<path d="M13.763 11.1949C13.5882 11.1556 13.4112 11.122 13.2323 11.0943C13.1583 11.0705 13.0812 11.0538 13.002 11.0451C12.1495 10.9511 11.313 10.7368 10.5175 10.4073C9.41349 9.94999 8.41031 9.27969 7.5653 8.43467C6.72028 7.58966 6.04998 6.58648 5.59266 5.48242C5.26319 4.687 5.04891 3.85044 4.95486 2.998C4.89429 2.44904 4.45225 2 3.89997 2H1.99997C1.44768 2 0.995969 2.44837 1.03841 2.99903C1.14362 4.36409 1.464 5.70612 1.98953 6.97488C2.39708 7.95878 2.92302 8.8866 3.5541 9.73846C3.83196 10.1135 3.99997 10.5622 3.99997 11.0289V17C3.99997 18.1046 4.8954 19 5.99997 19H11V15C11 13.2226 12.1593 11.7159 13.763 11.1949Z" fill="#171717"/>
<path fill-rule="evenodd" clip-rule="evenodd" d="M15 12C13.3431 12 12 13.3431 12 15V21C12 22.6569 13.3431 24 15 24H21C22.6568 24 24 22.6569 24 21V15C24 13.3431 22.6568 12 21 12H15ZM15 14C14.4477 14 14 14.4477 14 15C14 15.5523 14.4477 16 15 16C15.6566 16 16.3068 16.1293 16.9134 16.3806C17.52 16.6319 18.0712 17.0002 18.5355 17.4645C18.9998 17.9288 19.3681 18.48 19.6194 19.0866C19.8706 19.6932 20 20.3434 20 21C20 21.5523 20.4477 22 21 22C21.5523 22 22 21.5523 22 21C22 20.0807 21.8189 19.1705 21.4671 18.3212C21.1153 17.4719 20.5997 16.7003 19.9497 16.0503C19.2997 15.4002 18.528 14.8846 17.6788 14.5328C16.8295 14.1811 15.9192 14 15 14ZM14 18C14 17.4477 14.4477 17 15 17C15.5253 17 16.0454 17.1035 16.5307 17.3045C17.016 17.5055 17.457 17.8001 17.8284 18.1716C18.1998 18.543 18.4945 18.984 18.6955 19.4693C18.8965 19.9546 19 20.4747 19 21C19 21.5523 18.5523 22 18 22C17.4477 22 17 21.5523 17 21C17 20.7374 16.9482 20.4773 16.8477 20.2346C16.7472 19.992 16.5999 19.7715 16.4142 19.5858C16.2285 19.4001 16.008 19.2528 15.7653 19.1522C15.5227 19.0517 15.2626 19 15 19C14.4477 19 14 18.5523 14 18ZM16 21C16 21.5523 15.5523 22 15 22C14.4477 22 14 21.5523 14 21C14 20.4477 14.4477 20 15 20C15.5523 20 16 20.4477 16 21Z" fill="#171717"/>
</svg>
