<svg width="24" height="24" viewBox="0 0 24 24" fill="none" xmlns="http://www.w3.org/2000/svg">
<g clip-path="url(#clip0_111_3948)">
<path d="M14 5C14 7.20914 12.2092 9 10 9C7.7909 9 6.00004 7.20914 6.00004 5C6.00004 2.79086 7.7909 1 10 1C12.2092 1 14 2.79086 14 5Z" fill="#171717"/>
<path d="M2.24689 17.0202C3.12792 13.5595 6.26508 11 10 11C11.0431 11 12.0395 11.1996 12.9531 11.5627C11.7834 12.2607 11 13.5389 11 15V19H4.00004C2.89547 19 1.97439 18.0907 2.24689 17.0202Z" fill="#171717"/>
<path fill-rule="evenodd" clip-rule="evenodd" d="M15 12C13.3432 12 12 13.3431 12 15V21C12 22.6569 13.3432 24 15 24H21C22.6569 24 24 22.6569 24 21V15C24 13.3431 22.6569 12 21 12H15ZM17.2929 14.7929C17.3888 14.697 17.4993 14.6247 17.6173 14.5759C17.9797 14.4259 18.4125 14.4982 18.7071 14.7929L21.2071 17.2929C21.5977 17.6834 21.5977 18.3166 21.2071 18.7071C20.8166 19.0976 20.1835 19.0976 19.7929 18.7071L19 17.9142V20.5C19 21.0523 18.5523 21.5 18 21.5C17.4478 21.5 17 21.0523 17 20.5V17.9142L16.2071 18.7071C15.8166 19.0976 15.1835 19.0976 14.7929 18.7071C14.4024 18.3166 14.4024 17.6834 14.7929 17.2929L17.2929 14.7929Z" fill="#171717"/>
</g>
<defs>
<clipPath id="clip0_111_3948">
<rect width="24" height="24" fill="white"/>
</clipPath>
</defs>
</svg>
