<svg width="24" height="24" viewBox="0 0 24 24" fill="none" xmlns="http://www.w3.org/2000/svg">
<path d="M13.9999 5C13.9999 7.20914 12.2091 9 9.99992 9C7.79078 9 5.99992 7.20914 5.99992 5C5.99992 2.79086 7.79078 1 9.99992 1C12.2091 1 13.9999 2.79086 13.9999 5Z" fill="#171717"/>
<path d="M2.24677 17.0202C3.1278 13.5595 6.26495 11 9.99992 11C11.0429 11 12.0393 11.1996 12.953 11.5627C11.7833 12.2607 10.9999 13.5389 10.9999 15V19H3.99992C2.89535 19 1.97426 18.0907 2.24677 17.0202Z" fill="#171717"/>
<path fill-rule="evenodd" clip-rule="evenodd" d="M14.9999 12C13.3431 12 11.9999 13.3431 11.9999 15V21C11.9999 22.6569 13.3431 24 14.9999 24H20.9999C22.6568 24 23.9999 22.6569 23.9999 21V15C23.9999 13.3431 22.6568 12 20.9999 12H14.9999ZM21.707 16.7071C22.0975 16.3166 22.0975 15.6834 21.707 15.2929C21.3165 14.9024 20.6833 14.9024 20.2928 15.2929L16.9999 18.5858L15.707 17.2929C15.3165 16.9024 14.6833 16.9024 14.2928 17.2929C13.9023 17.6834 13.9023 18.3166 14.2928 18.7071L16.2928 20.7071C16.6833 21.0976 17.3165 21.0976 17.707 20.7071L21.707 16.7071Z" fill="#171717"/>
</svg>
