<svg width="24" height="24" viewBox="0 0 24 24" fill="none" xmlns="http://www.w3.org/2000/svg">
<g clip-path="url(#clip0_111_3956)">
<path d="M14 5C14 7.20914 12.2092 9 10 9C7.7909 9 6.00004 7.20914 6.00004 5C6.00004 2.79086 7.7909 1 10 1C12.2092 1 14 2.79086 14 5Z" fill="#171717"/>
<path d="M2.24689 17.0202C3.12792 13.5595 6.26508 11 10 11C11.0431 11 12.0395 11.1996 12.9531 11.5627C11.7834 12.2607 11 13.5389 11 15V19H4.00004C2.89547 19 1.97439 18.0907 2.24689 17.0202Z" fill="#171717"/>
<path fill-rule="evenodd" clip-rule="evenodd" d="M15 12C13.3432 12 12 13.3431 12 15V21C12 22.6569 13.3432 24 15 24H21C22.6569 24 24 22.6569 24 21V15C24 13.3431 22.6569 12 21 12H15ZM22 19C22 18.4477 21.5523 18 21 18V17C21 15.3431 19.6569 14 18 14C16.3432 14 15 15.3431 15 17V18C14.4478 18 14 18.4477 14 19V21C14 21.5523 14.4478 22 15 22H21C21.5523 22 22 21.5523 22 21V19ZM18 16C17.4478 16 17 16.4477 17 17V18H19V17C19 16.4477 18.5523 16 18 16Z" fill="#171717"/>
</g>
<defs>
<clipPath id="clip0_111_3956">
<rect width="24" height="24" fill="white"/>
</clipPath>
</defs>
</svg>
