<svg width="24" height="24" viewBox="0 0 24 24" fill="none" xmlns="http://www.w3.org/2000/svg">
<path d="M14 5C14 7.20914 12.2091 9 9.99998 9C7.79084 9 5.99998 7.20914 5.99998 5C5.99998 2.79086 7.79084 1 9.99998 1C12.2091 1 14 2.79086 14 5Z" fill="#171717"/>
<path d="M2.24683 17.0202C3.12786 13.5595 6.26502 11 9.99998 11C11.043 11 12.0394 11.1996 12.9531 11.5627C11.7834 12.2607 11 13.5389 11 15V19H3.99998C2.89541 19 1.97432 18.0907 2.24683 17.0202Z" fill="#171717"/>
<path fill-rule="evenodd" clip-rule="evenodd" d="M15 12C13.3431 12 12 13.3431 12 15V21C12 22.6569 13.3431 24 15 24H21C22.6568 24 24 22.6569 24 21V15C24 13.3431 22.6568 12 21 12H15ZM17.9642 14C16.8597 14 15.9642 14.8954 15.9642 16V17C15.9642 18.1046 16.8597 19 17.9642 19C19.0688 19 19.9642 18.1046 19.9642 17V16C19.9642 14.8954 19.0688 14 17.9642 14ZM15.3662 18.5C15.09 18.0217 14.4784 17.8578 14.0001 18.134C13.5219 18.4101 13.358 19.0217 13.6341 19.5C14.073 20.2601 14.7042 20.8913 15.4642 21.3301C16.2243 21.769 17.0866 22 17.9642 22C18.8419 22 19.7042 21.769 20.4642 21.3301C21.2243 20.8913 21.8555 20.2601 22.2944 19.5C22.5705 19.0217 22.4066 18.4101 21.9283 18.134C21.4501 17.8578 20.8385 18.0217 20.5623 18.5C20.299 18.9561 19.9203 19.3348 19.4642 19.5981C19.0082 19.8614 18.4909 20 17.9642 20C17.4376 20 16.9203 19.8614 16.4642 19.5981C16.0082 19.3348 15.6295 18.9561 15.3662 18.5Z" fill="#171717"/>
</svg>
