<svg width="24" height="24" viewBox="0 0 24 24" fill="none" xmlns="http://www.w3.org/2000/svg">
<path d="M14 5C14 7.20914 12.2091 9 9.99998 9C7.79084 9 5.99998 7.20914 5.99998 5C5.99998 2.79086 7.79084 1 9.99998 1C12.2091 1 14 2.79086 14 5Z" fill="#171717"/>
<path d="M2.24683 17.0202C3.12786 13.5595 6.26502 11 9.99998 11C11.043 11 12.0394 11.1996 12.9531 11.5627C11.7834 12.2607 11 13.5389 11 15V19H3.99998C2.89541 19 1.97432 18.0907 2.24683 17.0202Z" fill="#171717"/>
<path fill-rule="evenodd" clip-rule="evenodd" d="M15 12C13.3431 12 12 13.3431 12 15V21C12 22.6569 13.3431 24 15 24H21C22.6568 24 24 22.6569 24 21V15C24 13.3431 22.6568 12 21 12H15ZM17 16C17 15.4477 17.4477 15 18 15C18.5523 15 19 15.4477 19 16V20C19 20.5523 18.5523 21 18 21C17.4477 21 17 20.5523 17 20V16ZM14 18C14 17.4477 14.4477 17 15 17C15.5523 17 16 17.4477 16 18C16 18.5523 15.5523 19 15 19C14.4477 19 14 18.5523 14 18ZM21 16C20.4477 16 20 16.4477 20 17V19C20 19.5523 20.4477 20 21 20C21.5523 20 22 19.5523 22 19V17C22 16.4477 21.5523 16 21 16Z" fill="#171717"/>
</svg>
