<svg width="24" height="24" viewBox="0 0 24 24" fill="none" xmlns="http://www.w3.org/2000/svg">
<path d="M14 5C14 7.20914 12.2091 9 9.99998 9C7.79084 9 5.99998 7.20914 5.99998 5C5.99998 2.79086 7.79084 1 9.99998 1C12.2091 1 14 2.79086 14 5Z" fill="#171717"/>
<path d="M2.24683 17.0202C3.12786 13.5595 6.26502 11 9.99998 11C11.043 11 12.0394 11.1996 12.9531 11.5627C11.7834 12.2607 11 13.5389 11 15V19H3.99998C2.89541 19 1.97432 18.0907 2.24683 17.0202Z" fill="#171717"/>
<path fill-rule="evenodd" clip-rule="evenodd" d="M15 12C13.3431 12 12 13.3431 12 15V21C12 22.6569 13.3431 24 15 24H21C22.6568 24 24 22.6569 24 21V15C24 13.3431 22.6568 12 21 12H15ZM15 14C14.4477 14 14 14.4477 14 15C14 15.5523 14.4477 16 15 16C15.6566 16 16.3068 16.1293 16.9134 16.3806C17.52 16.6319 18.0712 17.0002 18.5355 17.4645C18.9998 17.9288 19.3681 18.48 19.6194 19.0866C19.8706 19.6932 20 20.3434 20 21C20 21.5523 20.4477 22 21 22C21.5523 22 22 21.5523 22 21C22 20.0807 21.8189 19.1705 21.4671 18.3212C21.1154 17.4719 20.5997 16.7003 19.9497 16.0503C19.2997 15.4002 18.528 14.8846 17.6788 14.5328C16.8295 14.1811 15.9192 14 15 14ZM14 18C14 17.4477 14.4477 17 15 17C15.5253 17 16.0454 17.1035 16.5307 17.3045C17.016 17.5055 17.457 17.8001 17.8284 18.1716C18.1998 18.543 18.4945 18.984 18.6955 19.4693C18.8965 19.9546 19 20.4747 19 21C19 21.5523 18.5523 22 18 22C17.4477 22 17 21.5523 17 21C17 20.7374 16.9482 20.4773 16.8477 20.2346C16.7472 19.992 16.5999 19.7715 16.4142 19.5858C16.2285 19.4001 16.008 19.2528 15.7653 19.1522C15.5227 19.0517 15.2626 19 15 19C14.4477 19 14 18.5523 14 18ZM16 21C16 21.5523 15.5523 22 15 22C14.4477 22 14 21.5523 14 21C14 20.4477 14.4477 20 15 20C15.5523 20 16 20.4477 16 21Z" fill="#171717"/>
</svg>
