<svg width="24" height="24" viewBox="0 0 24 24" fill="none" xmlns="http://www.w3.org/2000/svg">
<path fill-rule="evenodd" clip-rule="evenodd" d="M5 20H19C20.6569 20 22 18.6569 22 17V11.2426C22 10.447 21.6839 9.68393 21.1213 9.12132L16.8787 4.87868C16.3161 4.31607 15.553 4 14.7574 4H5C3.34315 4 2 5.34315 2 7V17C2 18.6569 3.34315 20 5 20ZM15 10C15 10.5523 15.4477 11 16 11H18.7929C19.2383 11 19.4614 10.4614 19.1464 10.1464L15.8536 6.85355C15.5386 6.53857 15 6.76166 15 7.20711V10ZM5.29289 13.7071C5.10536 13.8946 5 14.149 5 14.4142V16.5C5 16.7761 5.22386 17 5.5 17H7.58579C7.851 17 8.10536 16.8946 8.29289 16.7071L12.2929 12.7071C12.6834 12.3166 12.6834 11.6834 12.2929 11.2929L10.7071 9.70711C10.3166 9.31658 9.68342 9.31658 9.29289 9.70711L5.29289 13.7071Z" fill="#171717"/>
</svg>
