<svg width="24" height="24" viewBox="0 0 24 24" fill="none" xmlns="http://www.w3.org/2000/svg">
<path fill-rule="evenodd" clip-rule="evenodd" d="M5 20H19C20.6569 20 22 18.6569 22 17V11.2426C22 10.447 21.6839 9.68393 21.1213 9.12132L16.8787 4.87868C16.3161 4.31607 15.553 4 14.7574 4H5C3.34315 4 2 5.34315 2 7V17C2 18.6569 3.34315 20 5 20ZM15 10C15 10.5523 15.4477 11 16 11H18.7929C19.2383 11 19.4614 10.4614 19.1464 10.1464L15.8536 6.85355C15.5386 6.53857 15 6.76166 15 7.20711V10ZM8.24999 9.20096C8.47801 9.06931 8.73668 9 8.99999 9C9.26329 9 9.52196 9.06931 9.74999 9.20096C9.97802 9.33261 10.1674 9.52197 10.299 9.75C10.4307 9.97803 10.5 10.2367 10.5 10.5C10.5 10.7633 10.4307 11.022 10.299 11.25C10.1674 11.478 9.97801 11.6674 9.74999 11.799C9.52196 11.9307 9.26329 12 8.99999 12C8.4477 12 7.99999 12.4477 7.99999 13C7.99999 13.5523 8.4477 14 8.99999 14C9.61436 14 10.2179 13.8383 10.75 13.5311C11.2821 13.2239 11.7239 12.7821 12.0311 12.25C12.3383 11.7179 12.5 11.1144 12.5 10.5C12.5 9.88562 12.3383 9.28207 12.0311 8.75C11.7239 8.21793 11.2821 7.7761 10.75 7.46891C10.2179 7.16172 9.61437 7 8.99999 7C8.38561 7 7.78205 7.16172 7.24999 7.46891C6.71792 7.7761 6.27609 8.21793 5.9689 8.75C5.69276 9.22829 5.85663 9.83988 6.33492 10.116C6.81322 10.3922 7.42481 10.2283 7.70095 9.75C7.8326 9.52197 8.02196 9.33261 8.24999 9.20096ZM9 15C8.44772 15 8 15.4477 8 16C8 16.5523 8.44772 17 9 17C9.55228 17 10 16.5523 10 16C10 15.4477 9.55228 15 9 15Z" fill="#171717"/>
</svg>
