<svg width="24" height="24" viewBox="0 0 24 24" fill="none" xmlns="http://www.w3.org/2000/svg">
<path fill-rule="evenodd" clip-rule="evenodd" d="M5 20H19C20.6569 20 22 18.6569 22 17V11.2426C22 10.447 21.6839 9.68393 21.1213 9.12132L16.8787 4.87868C16.3161 4.31607 15.553 4 14.7574 4H5C3.34315 4 2 5.34315 2 7V17C2 18.6569 3.34315 20 5 20ZM15 10C15 10.5523 15.4477 11 16 11H18.7929C19.2383 11 19.4614 10.4614 19.1464 10.1464L15.8536 6.85355C15.5386 6.53857 15 6.76166 15 7.20711V10ZM11.7071 13.2427C11.803 13.3386 11.8753 13.4491 11.9241 13.567C12.0741 13.9295 12.0018 14.3623 11.7071 14.6569L9.20711 17.1569C8.81658 17.5475 8.18342 17.5475 7.79289 17.1569C7.40237 16.7664 7.40237 16.1332 7.79289 15.7427L8.58579 14.9498H6C5.44772 14.9498 5 14.5021 5 13.9498C5 13.3975 5.44772 12.9498 6 12.9498H8.58579L7.79289 12.1569C7.40237 11.7664 7.40237 11.1332 7.79289 10.7427C8.18342 10.3522 8.81658 10.3522 9.20711 10.7427L11.7071 13.2427Z" fill="#171717"/>
</svg>
