<svg width="24" height="24" viewBox="0 0 24 24" fill="none" xmlns="http://www.w3.org/2000/svg">
<path fill-rule="evenodd" clip-rule="evenodd" d="M2 17C2 18.6569 3.34315 20 5 20H19C20.6569 20 22 18.6569 22 17V11.2426C22 10.447 21.6839 9.68393 21.1213 9.12132L16.8787 4.87868C16.3161 4.31607 15.553 4 14.7574 4H5C3.34315 4 2 5.34315 2 7V17ZM15 10C15 10.5523 15.4477 11 16 11H18.7929C19.2383 11 19.4614 10.4614 19.1464 10.1464L15.8536 6.85355C15.5386 6.53857 15 6.76166 15 7.20711V10ZM7 9C6.44772 9 6 9.44772 6 10V13.6301C6 13.8688 6.08539 14.0996 6.24074 14.2809L8.24074 16.6142C8.63984 17.0798 9.36016 17.0798 9.75926 16.6142L11.7593 14.2809C11.9146 14.0996 12 13.8688 12 13.6301V10C12 9.44772 11.5523 9 11 9H7Z" fill="#171717"/>
</svg>
