<svg width="24" height="24" viewBox="0 0 24 24" fill="none" xmlns="http://www.w3.org/2000/svg">
<path fill-rule="evenodd" clip-rule="evenodd" d="M2 17C2 18.6569 3.34315 20 5 20H19C20.6569 20 22 18.6569 22 17V11.2426C22 10.447 21.6839 9.68393 21.1213 9.12132L16.8787 4.87868C16.3161 4.31607 15.553 4 14.7574 4H5C3.34315 4 2 5.34315 2 7V17ZM15 10C15 10.5523 15.4477 11 16 11H18.7929C19.2383 11 19.4614 10.4614 19.1464 10.1464L15.8536 6.85355C15.5386 6.53857 15 6.76166 15 7.20711V10ZM11 12C11 11.4477 11.4477 11 12 11C12.5523 11 13 11.4477 13 12V16C13 16.5523 12.5523 17 12 17C11.4477 17 11 16.5523 11 16V12ZM5 16C5 15.4477 5.44772 15 6 15C6.55228 15 7 15.4477 7 16C7 16.5523 6.55228 17 6 17C5.44772 17 5 16.5523 5 16ZM9 13C8.44772 13 8 13.4477 8 14V16C8 16.5523 8.44772 17 9 17C9.55228 17 10 16.5523 10 16V14C10 13.4477 9.55228 13 9 13Z" fill="#171717"/>
</svg>
