<svg width="24" height="24" viewBox="0 0 24 24" fill="none" xmlns="http://www.w3.org/2000/svg">
<path fill-rule="evenodd" clip-rule="evenodd" d="M2 17C2 18.6569 3.34315 20 5 20H19C20.6569 20 22 18.6569 22 17V11.2426C22 10.447 21.6839 9.68393 21.1213 9.12132L16.8787 4.87868C16.3161 4.31607 15.553 4 14.7574 4H5C3.34315 4 2 5.34315 2 7V17ZM15 10C15 10.5523 15.4477 11 16 11H18.7929C19.2383 11 19.4614 10.4614 19.1464 10.1464L15.8536 6.85355C15.5386 6.53857 15 6.76166 15 7.20711V10ZM7.85195 9.22836C8.40013 9.0013 9.00333 8.94189 9.58527 9.05765C10.1672 9.1734 10.7018 9.45912 11.1213 9.87868C11.5118 10.2692 11.5118 10.9024 11.1213 11.2929C10.7308 11.6834 10.0976 11.6834 9.70711 11.2929C9.56725 11.153 9.38907 11.0578 9.19509 11.0192C9.00111 10.9806 8.80004 11.0004 8.61732 11.0761C8.43459 11.1518 8.27841 11.28 8.16853 11.4444C8.05865 11.6089 8 11.8022 8 12V13H12C12.5523 13 13 13.4477 13 14V16C13 16.5523 12.5523 17 12 17H6C5.44772 17 5 16.5523 5 16V14C5 13.4477 5.44772 13 6 13V12C6 11.4067 6.17595 10.8266 6.50559 10.3333C6.83524 9.83994 7.30377 9.45543 7.85195 9.22836Z" fill="#171717"/>
</svg>
