<svg width="24" height="24" viewBox="0 0 24 24" fill="none" xmlns="http://www.w3.org/2000/svg">
<path fill-rule="evenodd" clip-rule="evenodd" d="M2 17C2 18.6569 3.34315 20 5 20H19C20.6569 20 22 18.6569 22 17V11.2426C22 10.447 21.6839 9.68393 21.1213 9.12132L16.8787 4.87868C16.3161 4.31607 15.553 4 14.7574 4H5C3.34315 4 2 5.34315 2 7V17ZM15 10C15 10.5523 15.4477 11 16 11H18.7929C19.2383 11 19.4614 10.4614 19.1464 10.1464L15.8536 6.85355C15.5386 6.53857 15 6.76166 15 7.20711V10ZM8 10C8 9.44772 8.44772 9 9 9C9.55228 9 10 9.44772 10 10V16C10 16.5523 9.55228 17 9 17C8.44772 17 8 16.5523 8 16V10ZM5 13C5 12.4477 5.44772 12 6 12C6.55228 12 7 12.4477 7 13C7 13.5523 6.55228 14 6 14C5.44772 14 5 13.5523 5 13ZM12 11C11.4477 11 11 11.4477 11 12V14C11 14.5523 11.4477 15 12 15C12.5523 15 13 14.5523 13 14V12C13 11.4477 12.5523 11 12 11Z" fill="#171717"/>
</svg>
