<svg width="24" height="24" viewBox="0 0 24 24" fill="none" xmlns="http://www.w3.org/2000/svg">
<path fill-rule="evenodd" clip-rule="evenodd" d="M3 5C3 3.89543 3.89543 3 5 3H7C8.10457 3 9 3.89543 9 5L15 5C15 3.89543 15.8954 3 17 3H19C20.1046 3 21 3.89543 21 5V7C21 8.10457 20.1046 9 19 9V15C20.1046 15 21 15.8954 21 17V19C21 20.1046 20.1046 21 19 21H17C15.8954 21 15 20.1046 15 19H9C9 20.1046 8.10457 21 7 21H5C3.89543 21 3 20.1046 3 19V17C3 15.8954 3.89543 15 5 15L5 9C3.89543 9 3 8.10457 3 7V5ZM7 9V15C8.10457 15 9 15.8954 9 17H15C15 15.8954 15.8954 15 17 15V9C15.8954 9 15 8.10457 15 7H9.00082C9.00082 8.10457 8.10457 9 7 9ZM7 5.5C7 5.22386 6.77614 5 6.5 5H5.5C5.22386 5 5 5.22386 5 5.5V6.5C5 6.77614 5.22386 7 5.5 7H6.5C6.77614 7 7 6.77614 7 6.5V5.5ZM17 6.5C17 6.77614 17.2239 7 17.5 7H18.5C18.7761 7 19 6.77614 19 6.5V5.5C19 5.22386 18.7761 5 18.5 5H17.5C17.2239 5 17 5.22386 17 5.5V6.5ZM17.5 17C17.2239 17 17 17.2239 17 17.5V18.5C17 18.7761 17.2239 19 17.5 19H18.5C18.7761 19 19 18.7761 19 18.5V17.5C19 17.2239 18.7761 17 18.5 17H17.5ZM5.5 17C5.22386 17 5 17.2239 5 17.5V18.5C5 18.7761 5.22386 19 5.5 19H6.5C6.77614 19 7 18.7761 7 18.5V17.5C7 17.2239 6.77614 17 6.5 17H5.5Z" fill="#171717"/>
</svg>
