<svg width="24" height="24" viewBox="0 0 24 24" fill="none" xmlns="http://www.w3.org/2000/svg">
<path fill-rule="evenodd" clip-rule="evenodd" d="M8 5C6.34315 5 5 6.34315 5 8C5 8.55228 4.55228 9 4 9C3.44772 9 3 8.55228 3 8C3 5.23858 5.23858 3 8 3C8.55228 3 9 3.44772 9 4C9 4.55228 8.55228 5 8 5ZM15 4C15 3.44772 15.4477 3 16 3C18.7614 3 21 5.23858 21 8C21 8.55228 20.5523 9 20 9C19.4477 9 19 8.55228 19 8C19 6.34315 17.6569 5 16 5C15.4477 5 15 4.55228 15 4ZM4 15C4.55228 15 5 15.4477 5 16C5 17.6569 6.34315 19 8 19C8.55228 19 9 19.4477 9 20C9 20.5523 8.55228 21 8 21C5.23858 21 3 18.7614 3 16C3 15.4477 3.44772 15 4 15ZM20 15C20.5523 15 21 15.4477 21 16C21 18.7614 18.7614 21 16 21C15.4477 21 15 20.5523 15 20C15 19.4477 15.4477 19 16 19C17.6569 19 19 17.6569 19 16C19 15.4477 19.4477 15 20 15Z" fill="#171717"/>
</svg>
