<svg width="24" height="24" viewBox="0 0 24 24" fill="none" xmlns="http://www.w3.org/2000/svg">
<rect width="24" height="24" fill="white"/>
<path fill-rule="evenodd" clip-rule="evenodd" d="M5 3C3.89543 3 3 3.89543 3 5V7C3 8.10457 3.89543 9 5 9L5 15C3.89543 15 3 15.8954 3 17V19C3 20.1046 3.89543 21 5 21H7C8.10457 21 9 20.1046 9 19H15C15 20.1046 15.8954 21 17 21H19C20.1046 21 21 20.1046 21 19V17C21 15.8954 20.1046 15 19 15V9C20.1046 9 21 8.10457 21 7V5C21 3.89543 20.1046 3 19 3H17C15.8954 3 15 3.89543 15 5L9 5C9 3.89543 8.10457 3 7 3H5ZM7 5.5C7 5.22386 6.77614 5 6.5 5H5.5C5.22386 5 5 5.22386 5 5.5L5 6.5C5 6.77614 5.22386 7 5.5 7H6.5C6.77614 7 7 6.77614 7 6.5V5.5ZM16.482 15.0677C16.6472 15.0236 16.8208 15 17 15V9C16.8208 9 16.6472 8.97644 16.482 8.93226L14.9323 10.482C14.9764 10.6472 15 10.8208 15 11V13C15 13.1792 14.9764 13.3528 14.9323 13.518L16.482 15.0677ZM15.0677 16.482L13.518 14.9323C13.3528 14.9764 13.1792 15 13 15H11C10.8208 15 10.6472 14.9764 10.482 14.9323L8.93226 16.482C8.97644 16.6472 9 16.8208 9 17H15C15 16.8208 15.0236 16.6472 15.0677 16.482ZM15.0677 7.51804L13.518 9.06774C13.3528 9.02356 13.1792 9 13 9H11C10.8208 9 10.6472 9.02356 10.482 9.06774L8.93226 7.51804C8.97644 7.35282 9 7.17916 9 7H15C15 7.17916 15.0236 7.35282 15.0677 7.51804ZM7 15V9C7.17916 9 7.35282 8.97644 7.51804 8.93226L9.06774 10.482C9.02356 10.6472 9 10.8208 9 11V13C9 13.1792 9.02356 13.3528 9.06774 13.518L7.51804 15.0677C7.35282 15.0236 7.17916 15 7 15ZM13 11.5C13 11.2239 12.7761 11 12.5 11H11.5C11.2239 11 11 11.2239 11 11.5V12.5C11 12.7761 11.2239 13 11.5 13H12.5C12.7761 13 13 12.7761 13 12.5V11.5ZM6.5 17C6.77614 17 7 17.2239 7 17.5V18.5C7 18.7761 6.77614 19 6.5 19H5.5C5.22386 19 5 18.7761 5 18.5L5 17.5C5 17.2239 5.22386 17 5.5 17H6.5ZM19 5.5C19 5.22386 18.7761 5 18.5 5H17.5C17.2239 5 17 5.22386 17 5.5V6.5C17 6.77614 17.2239 7 17.5 7H18.5C18.7761 7 19 6.77614 19 6.5V5.5ZM18.5 17C18.7761 17 19 17.2239 19 17.5V18.5C19 18.7761 18.7761 19 18.5 19H17.5C17.2239 19 17 18.7761 17 18.5V17.5C17 17.2239 17.2239 17 17.5 17H18.5Z" fill="#171717"/>
</svg>
