<svg width="24" height="24" viewBox="0 0 24 24" fill="none" xmlns="http://www.w3.org/2000/svg">
<path d="M12 4C12.5523 4 13 4.44772 13 5V7H19C19.5523 7 20 7.44772 20 8V10C20 10.5523 19.5523 11 19 11H13V13H15C15.5523 13 16 13.4477 16 14V16C16 16.5523 15.5523 17 15 17H13V19C13 19.5523 12.5523 20 12 20C11.4477 20 11 19.5523 11 19V17H9C8.44772 17 8 16.5523 8 16V14C8 13.4477 8.44772 13 9 13H11V11H5C4.44772 11 4 10.5523 4 10V8C4 7.44772 4.44772 7 5 7H11V5C11 4.44772 11.4477 4 12 4Z" fill="#171717"/>
</svg>
