<svg width="24" height="24" viewBox="0 0 24 24" fill="none" xmlns="http://www.w3.org/2000/svg">
<path fill-rule="evenodd" clip-rule="evenodd" d="M10.481 3C10.8077 3 11.0459 3.30951 11.0164 3.63489C11.0056 3.75514 11 3.87692 11 4V5.00973C11 5.07109 10.9699 5.12747 10.9299 5.174C10.9034 5.20479 10.8805 5.23908 10.8618 5.27639L9.3618 8.27639C9.19558 8.60884 9.43733 9 9.80902 9H10.8C10.9105 9 11 9.08954 11 9.2V10C11 12.2091 12.7909 14 15 14H20.5C20.7761 14 21 14.2239 21 14.5V17C21 19.2091 19.2091 21 17 21H7C4.79086 21 3 19.2091 3 17V7C3 4.79086 4.79086 3 7 3H10.481ZM5 7C5 5.89543 5.89543 5 7 5H8.67639C8.82507 5 8.92177 5.15646 8.85528 5.28944L7.05528 8.88944C7.0214 8.9572 6.95215 9 6.87639 9H5.2C5.08954 9 5 8.91046 5 8.8V7Z" fill="#171717"/>
<path fill-rule="evenodd" clip-rule="evenodd" d="M15 1C13.3431 1 12 2.34315 12 4V10C12 11.6569 13.3431 13 15 13H21C22.6569 13 24 11.6569 24 10V4C24 2.34315 22.6569 1 21 1H15ZM17.9155 5.02153C17.9942 4.99766 18.0776 4.99357 18.1582 5.00961C18.2388 5.02565 18.3143 5.06133 18.3779 5.11349C18.4414 5.16566 18.4911 5.23269 18.5226 5.30866C18.5541 5.38462 18.5663 5.46718 18.5583 5.54901C18.5502 5.63084 18.5221 5.70942 18.4764 5.77779C18.4307 5.84615 18.3689 5.9022 18.2964 5.94096C18.2238 5.97972 18.1429 6 18.0607 6C17.5084 6 17.0607 6.44772 17.0607 7C17.0607 7.55228 17.5084 8 18.0607 8C18.4718 8 18.8766 7.89861 19.2392 7.7048C19.6017 7.511 19.9109 7.23077 20.1393 6.88893C20.3677 6.54709 20.5083 6.15419 20.5486 5.74504C20.5889 5.33589 20.5277 4.92312 20.3704 4.54329C20.213 4.16346 19.9644 3.82829 19.6466 3.56747C19.3288 3.30666 18.9516 3.12824 18.5484 3.04804C18.1452 2.96783 17.7284 2.98831 17.3349 3.10765C16.9415 3.22699 16.5836 3.44152 16.2929 3.73224C15.9024 4.12276 15.9024 4.75593 16.2929 5.14645C16.6834 5.53697 17.3166 5.53697 17.7071 5.14644C17.7652 5.0883 17.8368 5.0454 17.9155 5.02153ZM18 9C17.4477 9 17 9.44772 17 10C17 10.5523 17.4477 11 18 11C18.5523 11 19 10.5523 19 10C19 9.44772 18.5523 9 18 9Z" fill="#171717"/>
</svg>
