<svg width="24" height="24" viewBox="0 0 24 24" fill="none" xmlns="http://www.w3.org/2000/svg">
<path fill-rule="evenodd" clip-rule="evenodd" d="M10.481 3C10.8077 3 11.0459 3.30951 11.0164 3.63489C11.0056 3.75514 11 3.87692 11 4V5.00973C11 5.07109 10.9699 5.12747 10.9299 5.174C10.9034 5.20479 10.8805 5.23908 10.8618 5.27639L9.3618 8.27639C9.19558 8.60884 9.43733 9 9.80902 9H10.8C10.9105 9 11 9.08954 11 9.2V10C11 12.2091 12.7909 14 15 14H20.5C20.7761 14 21 14.2239 21 14.5V17C21 19.2091 19.2091 21 17 21H7C4.79086 21 3 19.2091 3 17V7C3 4.79086 4.79086 3 7 3H10.481ZM5 7C5 5.89543 5.89543 5 7 5H8.67639C8.82507 5 8.92177 5.15646 8.85528 5.28944L7.05528 8.88944C7.0214 8.9572 6.95215 9 6.87639 9H5.2C5.08954 9 5 8.91046 5 8.8V7Z" fill="#171717"/>
<path fill-rule="evenodd" clip-rule="evenodd" d="M15 1C13.3431 1 12 2.34315 12 4V10C12 11.6569 13.3431 13 15 13H21C22.6569 13 24 11.6569 24 10V4C24 2.34315 22.6569 1 21 1H15ZM15 3C14.4477 3 14 3.44772 14 4C14 4.55228 14.4477 5 15 5C15.6566 5 16.3068 5.12933 16.9134 5.3806C17.52 5.63188 18.0712 6.00017 18.5355 6.46447C18.9998 6.92876 19.3681 7.47996 19.6194 8.08658C19.8707 8.69321 20 9.34339 20 10C20 10.5523 20.4477 11 21 11C21.5523 11 22 10.5523 22 10C22 9.08075 21.8189 8.1705 21.4672 7.32122C21.1154 6.47194 20.5998 5.70026 19.9497 5.05025C19.2997 4.40024 18.5281 3.88463 17.6788 3.53284C16.8295 3.18106 15.9193 3 15 3ZM14 7C14 6.44772 14.4477 6 15 6C15.5253 6 16.0454 6.10346 16.5307 6.30448C17.016 6.5055 17.457 6.80014 17.8284 7.17157C18.1999 7.54301 18.4945 7.98396 18.6955 8.46927C18.8965 8.95457 19 9.47471 19 10C19 10.5523 18.5523 11 18 11C17.4477 11 17 10.5523 17 10C17 9.73736 16.9483 9.47729 16.8478 9.23463C16.7472 8.99198 16.5999 8.7715 16.4142 8.58579C16.2285 8.40007 16.008 8.25275 15.7654 8.15224C15.5227 8.05173 15.2626 8 15 8C14.4477 8 14 7.55228 14 7ZM16 10C16 10.5523 15.5523 11 15 11C14.4477 11 14 10.5523 14 10C14 9.44771 14.4477 9 15 9C15.5523 9 16 9.44771 16 10Z" fill="#171717"/>
</svg>
