<svg width="24" height="24" viewBox="0 0 24 24" fill="none" xmlns="http://www.w3.org/2000/svg">
<path fill-rule="evenodd" clip-rule="evenodd" d="M7.94871 5.68377C7.8126 5.27543 7.43046 5 7.00003 5C6.5696 5 6.18746 5.27543 6.05134 5.68377L2.05134 17.6838C1.8767 18.2077 2.15986 18.774 2.6838 18.9487C3.20774 19.1233 3.77406 18.8402 3.94871 18.3162L5.05412 15H8.94593L10.0513 18.3162C10.226 18.8402 10.7923 19.1233 11.3163 18.9487C11.8402 18.774 12.1234 18.2077 11.9487 17.6838L7.94871 5.68377ZM8.27927 13L7.00003 9.16228L5.72079 13H8.27927Z" fill="#171717"/>
<path fill-rule="evenodd" clip-rule="evenodd" d="M16.25 8C15.0074 8 14 9.00736 14 10.25V16.5C14 17.8807 15.1193 19 16.5 19H18.5C20.433 19 22 17.433 22 15.5C22 14.3169 21.4129 13.2708 20.5142 12.6373C20.8214 12.1665 21 11.6041 21 11C21 9.34315 19.6569 8 18 8H16.25ZM18 12C18.5523 12 19 11.5523 19 11C19 10.4477 18.5523 10 18 10H16.25C16.1119 10 16 10.1119 16 10.25V12H18ZM16 14V16.5C16 16.7761 16.2239 17 16.5 17H18.5C19.3284 17 20 16.3284 20 15.5C20 14.6716 19.3284 14 18.5 14H16Z" fill="#171717"/>
</svg>
