<svg width="24" height="24" viewBox="0 0 24 24" fill="none" xmlns="http://www.w3.org/2000/svg">
<path fill-rule="evenodd" clip-rule="evenodd" d="M8.94868 5.68377C8.81257 5.27543 8.43043 5 8 5C7.56957 5 7.18743 5.27543 7.05132 5.68377L3.05132 17.6838C2.87667 18.2077 3.15983 18.774 3.68377 18.9487C4.20772 19.1233 4.77404 18.8402 4.94868 18.3162L6.05409 15H9.94591L11.0513 18.3162C11.226 18.8402 11.7923 19.1233 12.3162 18.9487C12.8402 18.774 13.1233 18.2077 12.9487 17.6838L8.94868 5.68377ZM9.27924 13L8 9.16228L6.72076 13H9.27924Z" fill="#171717"/>
<path fill-rule="evenodd" clip-rule="evenodd" d="M16 12.3368C16.4546 12.1208 16.9632 12 17.5 12C19.433 12 21 13.567 21 15.5C21 17.433 19.433 19 17.5 19C15.567 19 14 17.433 14 15.5C14 15.3899 14.0051 15.2811 14.015 15.1736C14.0051 15.1172 14 15.0592 14 15V9C14 8.44771 14.4477 8 15 8C15.5523 8 16 8.44771 16 9V12.3368ZM17.5 14C16.6716 14 16 14.6716 16 15.5C16 16.3284 16.6716 17 17.5 17C18.3284 17 19 16.3284 19 15.5C19 14.6716 18.3284 14 17.5 14Z" fill="#171717"/>
</svg>
