<svg width="24" height="24" viewBox="0 0 24 24" fill="none" xmlns="http://www.w3.org/2000/svg">
<path fill-rule="evenodd" clip-rule="evenodd" d="M8.66667 4.5C7.47005 4.5 6.5 5.47005 6.5 6.66667V17.2222C6.5 18.4802 7.5198 19.5 8.77778 19.5H12C14.4853 19.5 16.5 17.4853 16.5 15C16.5 13.5604 15.824 12.2786 14.772 11.4549C15.2324 10.7489 15.5 9.90571 15.5 9C15.5 6.51472 13.4853 4.5 11 4.5H8.66667ZM11 10.5C11.8284 10.5 12.5 9.82843 12.5 9C12.5 8.17157 11.8284 7.5 11 7.5H9.5V10.5H11ZM9.5 13.5V16.5H12C12.8284 16.5 13.5 15.8284 13.5 15C13.5 14.1716 12.8284 13.5 12 13.5H9.5Z" fill="#171717"/>
</svg>
