<svg width="24" height="24" viewBox="0 0 24 24" fill="none" xmlns="http://www.w3.org/2000/svg">
<path d="M9 18C8.44772 18 8 18.4477 8 19V20C8 20.5523 8.44772 21 9 21H15C15.5523 21 16 20.5523 16 20V19C16 18.4477 15.5523 18 15 18H9Z" fill="#171717"/>
<path d="M11.5 7.04829C11.5 6.89148 11.3322 6.80142 11.2318 6.92189L7.38169 11.542C7.14655 11.8242 7.08503 12.2125 7.22144 12.5536L8.74857 16.3714C8.90043 16.7511 9.26814 17 9.67705 17H14.323C14.7319 17 15.0996 16.7511 15.2515 16.3714L16.7786 12.5536C16.915 12.2125 16.8535 11.8242 16.6183 11.542L12.7682 6.92189C12.6678 6.80141 12.5 6.89148 12.5 7.04831V10.6754C12.5 10.9035 12.6579 11.0969 12.8636 11.1955C13.5358 11.5178 14 12.2047 14 13C14 14.1045 13.1046 15 12 15C10.8954 15 10 14.1045 10 13C10 12.2047 10.4642 11.5178 11.1364 11.1955C11.3421 11.0969 11.5 10.9035 11.5 10.6754V7.04829Z" fill="#171717"/>
<path d="M11 2C10.4477 2 10 2.44772 10 3C10 3.27614 9.77614 3.5 9.5 3.5H5.15461C4.97613 3.5 4.81761 3.39725 4.68813 3.27441C4.50886 3.10434 4.26661 3 4 3C3.44772 3 3 3.44772 3 4C3 4.55228 3.44772 5 4 5C4.26661 5 4.50886 4.89566 4.68813 4.72559C4.81761 4.60275 4.97613 4.5 5.15461 4.5H7.19855C7.40662 4.5 7.48499 4.79395 7.31153 4.90887C5.14481 6.34434 3.67419 8.7463 3.51446 11.5C3.49847 11.7757 3.27614 12 3 12C2.44772 12 2 12.4477 2 13V15C2 15.5523 2.44772 16 3 16H5C5.55228 16 6 15.5523 6 15V13C6 12.4477 5.55228 12 5 12C4.72386 12 4.49827 11.7755 4.5164 11.5C4.72364 8.35164 6.87359 5.73394 9.77876 4.83438C9.88945 4.80011 10 4.88412 10 5C10 5.55228 10.4477 6 11 6H13C13.5523 6 14 5.55228 14 5C14 4.88412 14.1105 4.80011 14.2212 4.83438C17.1264 5.73394 19.2764 8.35164 19.4836 11.5C19.5017 11.7755 19.2761 12 19 12C18.4477 12 18 12.4477 18 13V15C18 15.5523 18.4477 16 19 16H21C21.5523 16 22 15.5523 22 15V13C22 12.4477 21.5523 12 21 12C20.7239 12 20.5015 11.7757 20.4855 11.5C20.3258 8.7463 18.8552 6.34434 16.6885 4.90887C16.515 4.79395 16.5934 4.5 16.8015 4.5H18.8454C19.0239 4.5 19.1824 4.60275 19.3119 4.72559C19.4911 4.89566 19.7334 5 20 5C20.5523 5 21 4.55228 21 4C21 3.44772 20.5523 3 20 3C19.7334 3 19.4911 3.10434 19.3119 3.27441C19.1824 3.39725 19.0239 3.5 18.8454 3.5H14.5C14.2239 3.5 14 3.27614 14 3C14 2.44772 13.5523 2 13 2H11Z" fill="#171717"/>
</svg>
