<svg width="24" height="24" viewBox="0 0 24 24" fill="none" xmlns="http://www.w3.org/2000/svg">
<path d="M6.30217 10.3286L10.6317 3.57461C10.7395 3.40644 11.0001 3.48279 11.0001 3.68254V8.99821C10.4022 9.35785 10.0001 10.03 10.0001 10.7999C10.0001 11.9487 10.8955 12.8799 12.0001 12.8799C13.1046 12.8799 14.0001 11.9487 14.0001 10.7999C14.0001 10.03 13.5979 9.35785 13.0001 8.99821V3.68254C13.0001 3.48279 13.2606 3.40644 13.3684 3.57461L17.6979 10.3286C17.8856 10.6215 17.9077 10.9908 17.7562 11.3039L15.2732 16.4355C15.1061 16.7807 14.7565 16.9999 14.373 16.9999H9.62709C9.24364 16.9999 8.89395 16.7807 8.72693 16.4355L6.24389 11.3039C6.09239 10.9908 6.11446 10.6215 6.30217 10.3286Z" fill="#171717"/>
<path d="M9 17.9999C8.44772 17.9999 8 18.4477 8 18.9999V19.9999C8 20.5522 8.44772 20.9999 9 20.9999H15C15.5523 20.9999 16 20.5522 16 19.9999V18.9999C16 18.4477 15.5523 17.9999 15 17.9999H9Z" fill="#171717"/>
</svg>
