<svg width="24" height="24" viewBox="0 0 24 24" fill="none" xmlns="http://www.w3.org/2000/svg">
<path d="M4.70711 3.29289C4.31658 2.90237 3.68342 2.90237 3.29289 3.29289C2.90237 3.68342 2.90237 4.31658 3.29289 4.70711L7 8.41421V14.8879C7 15.0259 6.86319 15.1227 6.72928 15.0893C6.49582 15.031 6.25152 15 6 15C4.34315 15 3 16.3432 3 18C3 19.6569 4.34315 21 6 21C7.65685 21 9 19.6569 9 18V11.1479C9 10.9516 9.11398 10.7787 9.28313 10.6973L15.0331 16.4473C15.2273 17.7461 16.2539 18.7727 17.5527 18.9669L19.2929 20.7071C19.6834 21.0976 20.3166 21.0976 20.7071 20.7071C21.0976 20.3166 21.0976 19.6834 20.7071 19.2929L4.70711 3.29289Z" fill="#171717"/>
<path d="M18 13C17.7579 13 17.5225 13.0287 17.2971 13.0828L20.9172 16.7029C20.9713 16.4775 21 16.2421 21 16V4.15302C21 3.54447 20.461 3.07701 19.8586 3.16307L8.93749 4.72323L14.1875 9.97323L18.4293 9.36725C18.7305 9.32422 19 9.55795 19 9.86223V12.8879C19 13.0259 18.8632 13.1227 18.7293 13.0893C18.4958 13.031 18.2515 13 18 13Z" fill="#171717"/>
</svg>
