<svg width="24" height="24" viewBox="0 0 24 24" fill="none" xmlns="http://www.w3.org/2000/svg">
<path d="M12 15.9999C12.2764 15.9999 12.5266 15.8878 12.7076 15.7065L16.7071 11.707C17.0976 11.3165 17.0976 10.6833 16.7071 10.2928C16.3166 9.90227 15.6834 9.90227 15.2929 10.2928L13.3414 12.2443C13.2154 12.3703 13 12.281 13 12.1028L13 4.17146C13 3.57568 13.5203 3.10767 14.0998 3.24616C18.0575 4.19205 21 7.75235 21 11.9999C21 16.9705 16.9706 20.9999 12 20.9999C7.02944 20.9999 3 16.9705 3 11.9999C3 7.75235 5.94246 4.19205 9.9002 3.24616C10.4797 3.10767 11 3.57568 11 4.17146L11 12.1028C11 12.281 10.7846 12.3703 10.6586 12.2443L8.70711 10.2928C8.31658 9.90227 7.68342 9.90227 7.29289 10.2928C6.90237 10.6833 6.90237 11.3165 7.29289 11.707L11.2922 15.7063C11.4732 15.8877 11.7235 15.9999 12 15.9999Z" fill="#171717"/>
</svg>
