<svg width="24" height="24" viewBox="0 0 24 24" fill="none" xmlns="http://www.w3.org/2000/svg">
<path d="M12 3C7.02944 3 3 7.02944 3 12C3 16.9706 7.02944 21 12 21C16.2475 21 19.8078 18.0575 20.7537 14.0998C20.8922 13.5203 20.4242 13 19.8284 13L11.8971 13C11.7189 13 11.6296 13.2154 11.7556 13.3414L13.7071 15.2929C14.0976 15.6834 14.0976 16.3166 13.7071 16.7071C13.3166 17.0976 12.6834 17.0976 12.2929 16.7071L8.29356 12.7078C8.10602 12.5202 8 12.2652 8 12C8 11.7271 8.10929 11.4798 8.28648 11.2994L8.29289 11.2929L12.2929 7.29289C12.6834 6.90237 13.3166 6.90237 13.7071 7.29289C14.0976 7.68342 14.0976 8.31658 13.7071 8.70711L11.7556 10.6586C11.6296 10.7846 11.7189 11 11.8971 11L19.8284 11C20.4242 11 20.8922 10.4797 20.7537 9.9002C19.8078 5.94246 16.2475 3 12 3Z" fill="#171717"/>
</svg>
