<svg width="24" height="24" viewBox="0 0 24 24" fill="none" xmlns="http://www.w3.org/2000/svg">
<path d="M12 3C7.02944 3 3 7.02944 3 12C3 16.9706 7.02944 21 12 21C13.7243 21 15.3354 20.5151 16.7043 19.6742C17.2121 19.3622 17.2491 18.6633 16.8276 18.2418L10.3414 11.7556C10.2154 11.6296 10 11.7189 10 11.8971V15C10 15.5523 9.55228 16 9 16C8.44772 16 8 15.5523 8 15V9C8 8.44772 8.44772 8 9 8H15C15.5523 8 16 8.44772 16 9C16 9.55228 15.5523 10 15 10H11.8971C11.7189 10 11.6296 10.2154 11.7556 10.3414L18.2418 16.8276C18.6633 17.2491 19.3622 17.2121 19.6742 16.7043C20.5151 15.3354 21 13.7243 21 12C21 7.02944 16.9706 3 12 3Z" fill="#171717"/>
</svg>
