<svg width="24" height="24" viewBox="0 0 24 24" fill="none" xmlns="http://www.w3.org/2000/svg">
<path d="M12 3C7.02944 3 3 7.02944 3 12C3 13.7243 3.48492 15.3354 4.32584 16.7043C4.63782 17.2121 5.3367 17.2491 5.75816 16.8276L12.2444 10.3414C12.3704 10.2154 12.2811 10 12.1029 10H9C8.44772 10 8 9.55228 8 9C8 8.44772 8.44772 8 9 8H15C15.5523 8 16 8.44772 16 9V15C16 15.5523 15.5523 16 15 16C14.4477 16 14 15.5523 14 15V11.8971C14 11.7189 13.7846 11.6296 13.6586 11.7556L7.17237 18.2418C6.75092 18.6633 6.78787 19.3622 7.29573 19.6742C8.66461 20.5151 10.2757 21 12 21C16.9706 21 21 16.9706 21 12C21 7.02944 16.9706 3 12 3Z" fill="#171717"/>
</svg>
