<svg width="24" height="24" viewBox="0 0 24 24" fill="none" xmlns="http://www.w3.org/2000/svg">
<path d="M10 7C10 6.44772 10.4477 6 11 6H13C13.5523 6 14 6.44772 14 7V17C14 17.5523 13.5523 18 13 18H11C10.4477 18 10 17.5523 10 17V7Z" fill="#171717"/>
<path d="M4 7C4 6.44772 4.44772 6 5 6H7C7.55228 6 8 6.44772 8 7V17C8 17.5523 7.55228 18 7 18H5C4.44772 18 4 17.5523 4 17V7Z" fill="#171717"/>
<path d="M16 7C16 6.44772 16.4477 6 17 6H19C19.5523 6 20 6.44772 20 7V17C20 17.5523 19.5523 18 19 18H17C16.4477 18 16 17.5523 16 17V7Z" fill="#171717"/>
</svg>
