<svg width="24" height="24" viewBox="0 0 24 24" fill="none" xmlns="http://www.w3.org/2000/svg">
<path d="M9 4C9 3.44772 8.55228 3 8 3C7.44772 3 7 3.44772 7 4C7 5.65685 5.65685 7 4 7C3.44772 7 3 7.44772 3 8C3 8.55228 3.44772 9 4 9C6.76142 9 9 6.76142 9 4Z" fill="#171717"/>
<path d="M17 4C17 3.44772 16.5523 3 16 3C15.4477 3 15 3.44772 15 4C15 6.76142 17.2386 9 20 9C20.5523 9 21 8.55228 21 8C21 7.44772 20.5523 7 20 7C18.3431 7 17 5.65685 17 4Z" fill="#171717"/>
<path d="M4 15C3.44772 15 3 15.4477 3 16C3 16.5523 3.44772 17 4 17C5.65685 17 7 18.3431 7 20C7 20.5523 7.44772 21 8 21C8.55228 21 9 20.5523 9 20C9 17.2386 6.76142 15 4 15Z" fill="#171717"/>
<path d="M20 15C17.2386 15 15 17.2386 15 20C15 20.5523 15.4477 21 16 21C16.5523 21 17 20.5523 17 20C17 18.3431 18.3431 17 20 17C20.5523 17 21 16.5523 21 16C21 15.4477 20.5523 15 20 15Z" fill="#171717"/>
</svg>
