<svg width="24" height="24" viewBox="0 0 24 24" fill="none" xmlns="http://www.w3.org/2000/svg">
<path fill-rule="evenodd" clip-rule="evenodd" d="M8 4C8 3.44772 7.55228 3 7 3C6.44772 3 6 3.44772 6 4V6L4 6C3.44772 6 3 6.44771 3 7C3 7.55228 3.44771 8 4 8H6V13C6 15.7614 8.23858 18 11 18H16V20C16 20.5523 16.4477 21 17 21C17.5523 21 18 20.5523 18 20V18H20C20.5523 18 21 17.5523 21 17C21 16.4477 20.5523 16 20 16H18L18 11C18 8.23858 15.7614 6 13 6L8 6V4ZM8 8V13C8 14.6569 9.34315 16 11 16H16L16 11C16 9.34315 14.6569 8 13 8L8 8Z" fill="#171717"/>
</svg>
