<svg width="24" height="24" viewBox="0 0 24 24" fill="none" xmlns="http://www.w3.org/2000/svg">
<path d="M5 8C5 6.34315 6.34315 5 8 5C8.55228 5 9 4.55228 9 4C9 3.44772 8.55228 3 8 3C5.23858 3 3 5.23858 3 8C3 8.55228 3.44772 9 4 9C4.55228 9 5 8.55228 5 8Z" fill="#171717"/>
<path d="M16 3C15.4477 3 15 3.44772 15 4C15 4.55228 15.4477 5 16 5C17.6569 5 19 6.34315 19 8C19 8.55228 19.4477 9 20 9C20.5523 9 21 8.55228 21 8C21 5.23858 18.7614 3 16 3Z" fill="#171717"/>
<path d="M5 16C5 15.4477 4.55228 15 4 15C3.44772 15 3 15.4477 3 16C3 18.7614 5.23858 21 8 21C8.55228 21 9 20.5523 9 20C9 19.4477 8.55228 19 8 19C6.34315 19 5 17.6569 5 16Z" fill="#171717"/>
<path d="M21 16C21 15.4477 20.5523 15 20 15C19.4477 15 19 15.4477 19 16C19 17.6569 17.6569 19 16 19C15.4477 19 15 19.4477 15 20C15 20.5523 15.4477 21 16 21C18.7614 21 21 18.7614 21 16Z" fill="#171717"/>
<path d="M12 8C12.5523 8 13 8.44772 13 9V11H15C15.5523 11 16 11.4477 16 12C16 12.5523 15.5523 13 15 13H13V15C13 15.5523 12.5523 16 12 16C11.4477 16 11 15.5523 11 15V13H9C8.44772 13 8 12.5523 8 12C8 11.4477 8.44772 11 9 11H11V9C11 8.44772 11.4477 8 12 8Z" fill="#171717"/>
</svg>
