<svg width="24" height="24" viewBox="0 0 24 24" fill="none" xmlns="http://www.w3.org/2000/svg">
<rect width="24" height="24" fill="white"/>
<path d="M16.1241 18.67C15.5437 18.8549 15 18.3827 15 17.7736V17.7155C15 17.2404 15.3392 16.8408 15.7831 16.6713C15.8268 16.6546 15.8702 16.6374 15.9134 16.6195C16.52 16.3682 17.0712 15.9999 17.5355 15.5356C17.9998 15.0713 18.3681 14.5201 18.6194 13.9135C18.8707 13.3069 19 12.6567 19 12.0001C19 11.3435 18.8707 10.6933 18.6194 10.0867C18.3681 9.48003 17.9998 8.92884 17.5355 8.46454C17.0712 8.00025 16.52 7.63195 15.9134 7.38068C15.8702 7.36278 15.8268 7.34551 15.7831 7.32885C15.3392 7.15938 15 6.7598 15 6.28461V6.22658C15 5.61745 15.5437 5.1453 16.1241 5.33014C16.3115 5.3898 16.4965 5.45743 16.6788 5.53292C17.528 5.8847 18.2997 6.40032 18.9497 7.05033C19.5997 7.70034 20.1154 8.47201 20.4671 9.32129C20.8189 10.1706 21 11.0808 21 12.0001C21 12.9193 20.8189 13.8296 20.4671 14.6789C20.1154 15.5281 19.5997 16.2998 18.9497 16.9498C18.2997 17.5998 17.528 18.1155 16.6788 18.4672C16.4965 18.5427 16.3115 18.6104 16.1241 18.67Z" fill="#171717"/>
<path d="M15.6975 14.9536C15.4133 15.2132 15 14.983 15 14.5981V9.40195C15 9.01705 15.4133 8.78687 15.6975 9.04644C15.742 9.08712 15.7857 9.12885 15.8284 9.17159C16.1999 9.54303 16.4945 9.98398 16.6955 10.4693C16.8965 10.9546 17 11.4747 17 12C17 12.5253 16.8965 13.0455 16.6955 13.5308C16.4945 14.0161 16.1998 14.457 15.8284 14.8284C15.7857 14.8712 15.742 14.9129 15.6975 14.9536Z" fill="#171717"/>
<path d="M4 9C3.44772 9 3 9.44772 3 10V14C3 14.5523 3.44772 15 4 15H4.76393C4.91918 15 5.07229 15.0361 5.21115 15.1056L11.5528 18.2764C12.2177 18.6088 13 18.1253 13 17.382V6.61803C13 5.87465 12.2177 5.39116 11.5528 5.72361L5.84458 8.57771C5.28916 8.85542 4.67671 9 4.05573 9H4Z" fill="#171717"/>
</svg>
