<svg width="24" height="24" viewBox="0 0 24 24" fill="none" xmlns="http://www.w3.org/2000/svg">
<rect width="24" height="24" fill="white"/>
<path d="M5 10.0001C5 9.44779 5.44772 9.00008 6 9.00008H6.05573C6.67671 9.00008 7.28916 8.8555 7.84458 8.57779L13.5528 5.72368C14.2177 5.39123 15 5.87473 15 6.61811V17.382C15 18.1254 14.2177 18.6089 13.5528 18.2765L7.21115 15.1056C7.07229 15.0362 6.91918 15.0001 6.76393 15.0001H6C5.44772 15.0001 5 14.5524 5 14.0001V10.0001Z" fill="#171717"/>
<path d="M17 14.5982C17 14.9831 17.4133 15.2132 17.6975 14.9537C17.742 14.913 17.7857 14.8713 17.8284 14.8285C18.1998 14.4571 18.4945 14.0161 18.6955 13.5308C18.8965 13.0455 19 12.5254 19 12.0001C19 11.4748 18.8965 10.9547 18.6955 10.4694C18.4945 9.98406 18.1999 9.5431 17.8284 9.17167C17.7857 9.12892 17.742 9.0872 17.6975 9.04651C17.4133 8.78695 17 9.01713 17 9.40203V14.5982Z" fill="#171717"/>
</svg>
