<svg width="24" height="24" viewBox="0 0 24 24" fill="none" xmlns="http://www.w3.org/2000/svg">
<path d="M7 6C7 5.44772 7.44772 5 8 5H16C16.5523 5 17 5.44772 17 6L19 6C19.5523 6 20 6.44772 20 7C20 7.55229 19.5523 8 19 8L17 8C17 8.55228 16.5523 9 16 9H8C7.44772 9 7 8.55228 7 8H5C4.44771 8 4 7.55228 4 7C4 6.44771 4.44772 6 5 6L7 6Z" fill="#171717"/>
<path d="M20 17C20 16.4477 19.5523 16 19 16H17V15C17 14.4477 16.5523 14 16 14H8C7.44772 14 7 14.4477 7 15V16H5C4.44772 16 4 16.4477 4 17C4 17.5523 4.44771 18 5 18H7V19C7 19.5523 7.44772 20 8 20H16C16.5523 20 17 19.5523 17 19V18H19C19.5523 18 20 17.5523 20 17Z" fill="#171717"/>
</svg>
