<svg width="24" height="24" viewBox="0 0 24 24" fill="none" xmlns="http://www.w3.org/2000/svg">
<path d="M10 5C10 4.44772 9.55228 4 9 4C8.44772 4 8 4.44772 8 5V7H7C6.44772 7 6 7.44772 6 8V16C6 16.5523 6.44772 17 7 17H8V19C8 19.5523 8.44772 20 9 20C9.55228 20 10 19.5523 10 19L10 5Z" fill="#171717"/>
<path d="M20 5C20 4.44772 19.5523 4 19 4C18.4477 4 18 4.44772 18 5V7H15C14.4477 7 14 7.44772 14 8V16C14 16.5523 14.4477 17 15 17H18V19C18 19.5523 18.4477 20 19 20C19.5523 20 20 19.5523 20 19V16.0012C20 16.0008 20 16.0004 20 16V8C20 7.99978 20 8.00022 20 8V5Z" fill="#171717"/>
</svg>
