<svg width="24" height="24" viewBox="0 0 24 24" fill="none" xmlns="http://www.w3.org/2000/svg">
<path d="M20 5C20 4.44772 19.5523 4 19 4H5C4.44772 4 4 4.44772 4 5C4 5.55229 4.44771 6 5 6H7V9C7 9.55229 7.44772 10 8 10H16C16.5523 10 17 9.55229 17 9V6H19C19.5523 6 20 5.55229 20 5Z" fill="#171717"/>
<path d="M20 15C20 14.4477 19.5523 14 19 14L5 14C4.44772 14 4 14.4477 4 15C4 15.5523 4.44771 16 5 16H7V17C7 17.5523 7.44772 18 8 18H16C16.5523 18 17 17.5523 17 17V16H19C19.5523 16 20 15.5523 20 15Z" fill="#171717"/>
</svg>
