<svg width="24" height="24" viewBox="0 0 24 24" fill="none" xmlns="http://www.w3.org/2000/svg">
<path d="M6 12C6 11.4477 6.44772 11 7 11H17C17.5523 11 18 11.4477 18 12C18 12.5523 17.5523 13 17 13H7C6.44772 13 6 12.5523 6 12Z" fill="#171717"/>
<path d="M3 8C3 7.44772 3.44772 7 4 7H20C20.5523 7 21 7.44772 21 8C21 8.55228 20.5523 9 20 9H4C3.44772 9 3 8.55228 3 8Z" fill="#171717"/>
<path d="M4 16C4 15.4477 4.44772 15 5 15H19C19.5523 15 20 15.4477 20 16C20 16.5523 19.5523 17 19 17H5C4.44772 17 4 16.5523 4 16Z" fill="#171717"/>
</svg>
