<svg width="24" height="24" viewBox="0 0 24 24" fill="none" xmlns="http://www.w3.org/2000/svg">
<path d="M9 12C9 11.4477 9.44772 11 10 11H20C20.5523 11 21 11.4477 21 12C21 12.5523 20.5523 13 20 13H10C9.44772 13 9 12.5523 9 12Z" fill="#171717"/>
<path d="M3 8C3 7.44772 3.44772 7 4 7H20C20.5523 7 21 7.44772 21 8C21 8.55228 20.5523 9 20 9H4C3.44772 9 3 8.55228 3 8Z" fill="#171717"/>
<path d="M5 16C5 15.4477 5.44772 15 6 15H20C20.5523 15 21 15.4477 21 16C21 16.5523 20.5523 17 20 17H6C5.44772 17 5 16.5523 5 16Z" fill="#171717"/>
</svg>
