<svg width="24" height="24" viewBox="0 0 24 24" fill="none" xmlns="http://www.w3.org/2000/svg">
<path d="M22 12C22 11.4477 21.5523 11 21 11H12C11.4477 11 11 11.4477 11 12C11 12.5523 11.4477 13 12 13H21C21.5523 13 22 12.5523 22 12Z" fill="#171717"/>
<path d="M22 7C22 6.44772 21.5523 6 21 6H12C11.4477 6 11 6.44772 11 7C11 7.55228 11.4477 8 12 8H21C21.5523 8 22 7.55228 22 7Z" fill="#171717"/>
<path d="M22 17C22 16.4477 21.5523 16 21 16H12C11.4477 16 11 16.4477 11 17C11 17.5523 11.4477 18 12 18H21C21.5523 18 22 17.5523 22 17Z" fill="#171717"/>
<path d="M6.70924 17.705C6.52811 17.8872 6.27723 18 6 18C5.7381 18 5.49972 17.8993 5.32144 17.7346C5.31176 17.7256 5.30224 17.7165 5.29289 17.7071L3.29289 15.7071C2.90237 15.3166 2.90237 14.6834 3.29289 14.2929C3.68342 13.9024 4.31658 13.9024 4.70711 14.2929L5 14.5858V7C5 6.44771 5.44772 6 6 6C6.55228 6 7 6.44771 7 7V14.5858L7.29289 14.2929C7.68342 13.9024 8.31658 13.9024 8.70711 14.2929C9.09763 14.6834 9.09763 15.3166 8.70711 15.7071L6.70924 17.705Z" fill="#171717"/>
</svg>
