<svg width="24" height="24" viewBox="0 0 24 24" fill="none" xmlns="http://www.w3.org/2000/svg">
<path fill-rule="evenodd" clip-rule="evenodd" d="M21 7C21 5.89543 20.1046 5 19 5H15C13.8954 5 13 5.89543 13 7V11C13 12.1046 13.8954 13 15 13H19C20.1046 13 21 12.1046 21 11V7ZM19 7.5C19 7.22386 18.7761 7 18.5 7H15.5C15.2239 7 15 7.22386 15 7.5V10.5C15 10.7761 15.2239 11 15.5 11H18.5C18.7761 11 19 10.7761 19 10.5V7.5Z" fill="#171717"/>
<path d="M11 8C11 7.44772 10.5523 7 10 7H4C3.44772 7 3 7.44772 3 8C3 8.55228 3.44772 9 4 9H10C10.5523 9 11 8.55228 11 8Z" fill="#171717"/>
<path d="M11 12C11 11.4477 10.5523 11 10 11H8C7.44771 11 7 11.4477 7 12C7 12.5523 7.44772 13 8 13H10C10.5523 13 11 12.5523 11 12Z" fill="#171717"/>
<path d="M20 15C20.5523 15 21 15.4477 21 16C21 16.5523 20.5523 17 20 17H6C5.44771 17 5 16.5523 5 16C5 15.4477 5.44771 15 6 15H20Z" fill="#171717"/>
</svg>
