<svg width="24" height="24" viewBox="0 0 24 24" fill="none" xmlns="http://www.w3.org/2000/svg">
<path fill-rule="evenodd" clip-rule="evenodd" d="M3 7C3 5.89543 3.89543 5 5 5H9C10.1046 5 11 5.89543 11 7V11C11 12.1046 10.1046 13 9 13H5C3.89543 13 3 12.1046 3 11V7ZM5 7.5C5 7.22386 5.22386 7 5.5 7H8.5C8.77614 7 9 7.22386 9 7.5V10.5C9 10.7761 8.77614 11 8.5 11H5.5C5.22386 11 5 10.7761 5 10.5V7.5Z" fill="#171717"/>
<path d="M13 8C13 7.44772 13.4477 7 14 7H20C20.5523 7 21 7.44772 21 8C21 8.55228 20.5523 9 20 9H14C13.4477 9 13 8.55228 13 8Z" fill="#171717"/>
<path d="M13 12C13 11.4477 13.4477 11 14 11H16C16.5523 11 17 11.4477 17 12C17 12.5523 16.5523 13 16 13H14C13.4477 13 13 12.5523 13 12Z" fill="#171717"/>
<path d="M4 15C3.44772 15 3 15.4477 3 16C3 16.5523 3.44772 17 4 17H18C18.5523 17 19 16.5523 19 16C19 15.4477 18.5523 15 18 15H4Z" fill="#171717"/>
</svg>
