<svg width="24" height="24" viewBox="0 0 24 24" fill="none" xmlns="http://www.w3.org/2000/svg">
<path fill-rule="evenodd" clip-rule="evenodd" d="M12 4C11.4477 4 11 4.44772 11 5V19C11 19.5523 11.4477 20 12 20C12.5523 20 13 19.5523 13 19V5C13 4.44772 12.5523 4 12 4ZM19.2929 12.7071L21.2929 14.7071C21.6834 15.0976 22.3166 15.0976 22.7071 14.7071C23.0976 14.3166 23.0976 13.6834 22.7071 13.2929L21.4142 12L22.7071 10.7071C23.0976 10.3166 23.0976 9.68342 22.7071 9.29289C22.3166 8.90237 21.6834 8.90237 21.2929 9.29289L19.2929 11.2929C18.9024 11.6834 18.9024 12.3166 19.2929 12.7071ZM2.70711 14.7071L4.70711 12.7071C5.09763 12.3166 5.09763 11.6834 4.70711 11.2929L2.70711 9.29289C2.31658 8.90237 1.68342 8.90237 1.29289 9.29289C0.902369 9.68342 0.902369 10.3166 1.29289 10.7071L2.58579 12L1.29289 13.2929C0.902369 13.6834 0.902369 14.3166 1.29289 14.7071C1.68342 15.0976 2.31658 15.0976 2.70711 14.7071ZM15 8C15 7.44772 15.4477 7 16 7H18C18.5523 7 19 7.44772 19 8C19 8.55228 18.5523 9 18 9H16C15.4477 9 15 8.55228 15 8ZM8 7C8.55229 7 9 7.44772 9 8C9 8.55228 8.55229 9 8 9H6C5.44772 9 5 8.55228 5 8C5 7.44772 5.44772 7 6 7H8ZM16 13C15.4477 13 15 12.5523 15 12C15 11.4477 15.4477 11 16 11C16.5523 11 17 11.4477 17 12C17 12.5523 16.5523 13 16 13ZM8 11C8.55229 11 9 11.4477 9 12C9 12.5523 8.55229 13 8 13C7.44772 13 7 12.5523 7 12C7 11.4477 7.44772 11 8 11ZM15 16C15 15.4477 15.4477 15 16 15H18C18.5523 15 19 15.4477 19 16C19 16.5523 18.5523 17 18 17H16C15.4477 17 15 16.5523 15 16ZM8 15C8.55229 15 9 15.4477 9 16C9 16.5523 8.55229 17 8 17H6C5.44772 17 5 16.5523 5 16C5 15.4477 5.44772 15 6 15H8Z" fill="#171717"/>
</svg>
