<svg width="24" height="24" viewBox="0 0 24 24" fill="none" xmlns="http://www.w3.org/2000/svg">
<path d="M14 4C14.5523 4 15 4.44772 15 5V19C15 19.5523 14.5523 20 14 20C13.4477 20 13 19.5523 13 19V5C13 4.44772 13.4477 4 14 4Z" fill="#171717"/>
<path d="M4 7C3.44772 7 3 7.44772 3 8C3 8.55228 3.44772 9 4 9H10C10.5523 9 11 8.55228 11 8C11 7.44772 10.5523 7 10 7H4Z" fill="#171717"/>
<path d="M4 11C3.44772 11 3 11.4477 3 12C3 12.5523 3.44772 13 4 13H10C10.5523 13 11 12.5523 11 12C11 11.4477 10.5523 11 10 11H4Z" fill="#171717"/>
<path d="M3 16C3 15.4477 3.44772 15 4 15H10C10.5523 15 11 15.4477 11 16C11 16.5523 10.5523 17 10 17H4C3.44772 17 3 16.5523 3 16Z" fill="#171717"/>
<path d="M17.2929 12.7071L19.2929 14.7071C19.6834 15.0976 20.3166 15.0976 20.7071 14.7071C21.0976 14.3166 21.0976 13.6834 20.7071 13.2929L19.4142 12L20.7071 10.7071C21.0976 10.3166 21.0976 9.68342 20.7071 9.29289C20.3166 8.90237 19.6834 8.90237 19.2929 9.29289L17.2929 11.2929C16.9024 11.6834 16.9024 12.3166 17.2929 12.7071Z" fill="#171717"/>
</svg>
