<svg width="24" height="24" viewBox="0 0 24 24" fill="none" xmlns="http://www.w3.org/2000/svg">
<path d="M7 12C7 11.4477 7.4247 11 8 11H20C20.5753 11 21 11.4477 21 12C21 12.5523 20.5753 13 20 13H8C7.4247 13 7 12.5523 7 12Z" fill="#171717"/>
<path d="M7 8C7 7.44772 7.4247 7 8 7L20 7C20.5753 7 21 7.44772 21 8C21 8.55228 20.5753 9 20 9H8C7.4247 9 7 8.55228 7 8Z" fill="#171717"/>
<path d="M7 16C7 15.4477 7.4247 15 8 15H20C20.5753 15 21 15.4477 21 16C21 16.5523 20.5753 17 20 17H8C7.4247 17 7 16.5523 7 16Z" fill="#171717"/>
<path d="M5 8C5 8.55228 4.55228 9 4 9C3.44772 9 3 8.55228 3 8C3 7.44772 3.44772 7 4 7C4.55228 7 5 7.44772 5 8Z" fill="#171717"/>
<path d="M5 12C5 12.5523 4.55228 13 4 13C3.44772 13 3 12.5523 3 12C3 11.4477 3.44772 11 4 11C4.55228 11 5 11.4477 5 12Z" fill="#171717"/>
<path d="M5 16C5 16.5523 4.55228 17 4 17C3.44772 17 3 16.5523 3 16C3 15.4477 3.44772 15 4 15C4.55228 15 5 15.4477 5 16Z" fill="#171717"/>
</svg>
