<svg width="24" height="24" viewBox="0 0 24 24" fill="none" xmlns="http://www.w3.org/2000/svg">
<path d="M20 7C20 6.44772 19.5523 6 19 6H8C7.44772 6 7 6.44772 7 7C7 7.55228 7.44772 8 8 8H19C19.5523 8 20 7.55228 20 7Z" fill="#171717"/>
<path d="M20 12C20 11.4477 19.5523 11 19 11H11C10.4477 11 10 11.4477 10 12C10 12.5523 10.4477 13 11 13H19C19.5523 13 20 12.5523 20 12Z" fill="#171717"/>
<path d="M19 16C19.5523 16 20 16.4477 20 17C20 17.5523 19.5523 18 19 18H8C7.44771 18 7 17.5523 7 17C7 16.4477 7.44771 16 8 16H19Z" fill="#171717"/>
<path d="M5.70711 14.7071L7.70711 12.7071C8.09763 12.3166 8.09763 11.6834 7.70711 11.2929L5.70711 9.29289C5.31658 8.90237 4.68342 8.90237 4.29289 9.29289C3.90237 9.68342 3.90237 10.3166 4.29289 10.7071L5.58579 12L4.29289 13.2929C3.90237 13.6834 3.90237 14.3166 4.29289 14.7071C4.68342 15.0976 5.31658 15.0976 5.70711 14.7071Z" fill="#171717"/>
</svg>
