<svg width="24" height="24" viewBox="0 0 24 24" fill="none" xmlns="http://www.w3.org/2000/svg">
<path d="M4 6C3.44772 6 3 6.44772 3 7C3 7.55228 3.44772 8 4 8H20C20.5523 8 21 7.55228 21 7C21 6.44772 20.5523 6 20 6H4Z" fill="#171717"/>
<path d="M20 11C20.5523 11 21 11.4477 21 12C21 12.5523 20.5523 13 20 13H10.5C9.67157 13 9 13.6716 9 14.5C9 15.3284 9.67157 16 10.5 16H11.5858L11.2929 15.7071C10.9024 15.3166 10.9024 14.6834 11.2929 14.2929C11.6834 13.9024 12.3166 13.9024 12.7071 14.2929L14.7071 16.2929C15.0976 16.6834 15.0976 17.3166 14.7071 17.7071L12.7071 19.7071C12.3166 20.0976 11.6834 20.0976 11.2929 19.7071C10.9024 19.3166 10.9024 18.6834 11.2929 18.2929L11.5858 18H10.5C8.567 18 7 16.433 7 14.5C7 12.567 8.567 11 10.5 11H20Z" fill="#171717"/>
<path d="M20 16C20.5523 16 21 16.4477 21 17C21 17.5523 20.5523 18 20 18H18C17.4477 18 17 17.5523 17 17C17 16.4477 17.4477 16 18 16H20Z" fill="#171717"/>
<path d="M6 17C6 16.4477 5.55228 16 5 16H4C3.44772 16 3 16.4477 3 17C3 17.5523 3.44772 18 4 18H5C5.55229 18 6 17.5523 6 17Z" fill="#171717"/>
<path d="M5 11C5.55228 11 6 11.4477 6 12C6 12.5523 5.55229 13 5 13H4C3.44772 13 3 12.5523 3 12C3 11.4477 3.44772 11 4 11H5Z" fill="#171717"/>
</svg>
