<svg width="24" height="24" viewBox="0 0 24 24" fill="none" xmlns="http://www.w3.org/2000/svg">
<path d="M8 3C7.44772 3 7 3.44772 7 4C7 4.55228 7.44772 5 8 5H16C16.5523 5 17 4.55228 17 4C17 3.44772 16.5523 3 16 3H8Z" fill="#171717"/>
<path fill-rule="evenodd" clip-rule="evenodd" d="M7 8C7 7.44772 7.44772 7 8 7H16C16.5523 7 17 7.44772 17 8V10.1716C17 10.702 16.7893 11.2107 16.4142 11.5858L15.5858 12.4142C15.2107 12.7893 15 13.298 15 13.8284V19C15 20.1046 14.1046 21 13 21H11C9.89543 21 9 20.1046 9 19V13.8284C9 13.298 8.78929 12.7893 8.41421 12.4142L7.58579 11.5858C7.21071 11.2107 7 10.702 7 10.1716V8ZM13 10C13 10.5523 12.5523 11 12 11C11.4477 11 11 10.5523 11 10C11 9.44772 11.4477 9 12 9C12.5523 9 13 9.44772 13 10Z" fill="#171717"/>
</svg>
