<svg width="24" height="24" viewBox="0 0 24 24" fill="none" xmlns="http://www.w3.org/2000/svg">
<path d="M4.70711 3.29289C4.31658 2.90237 3.68342 2.90237 3.29289 3.29289C2.90237 3.68342 2.90237 4.31658 3.29289 4.70711L7 8.41421V10.1716C7 10.702 7.21071 11.2107 7.58579 11.5858L8.41421 12.4142C8.78929 12.7893 9 13.298 9 13.8284V19C9 20.1046 9.89543 21 11 21H13C14.1046 21 15 20.1046 15 19V16.4142L19.2929 20.7071C19.6834 21.0976 20.3166 21.0976 20.7071 20.7071C21.0976 20.3166 21.0976 19.6834 20.7071 19.2929L4.70711 3.29289Z" fill="#171717"/>
<path d="M16.4142 11.5858C16.2446 11.7554 15.9696 11.7554 15.8 11.5858L12.0678 7.85355C11.7528 7.53857 11.9759 7 12.4213 7H16C16.5523 7 17 7.44772 17 8V10.1716C17 10.702 16.7893 11.2107 16.4142 11.5858Z" fill="#171717"/>
<path d="M16 5H9.42131C9.2887 5 9.16152 4.94732 9.06775 4.85355L7.81962 3.60542C7.60314 3.38893 7.64276 3.01681 7.94853 3.0013C7.96558 3.00044 7.98274 3 8 3H16C16.5523 3 17 3.44772 17 4C17 4.55228 16.5523 5 16 5Z" fill="#171717"/>
</svg>
