<svg width="24" height="24" viewBox="0 0 24 24" fill="none" xmlns="http://www.w3.org/2000/svg">
<path d="M12 4C10.7713 4 9.56416 4.32344 8.50002 4.93782C7.43589 5.5522 6.55222 6.43587 5.93784 7.5C5.32347 8.56414 5.00002 9.77124 5.00002 11C5.00002 11.3493 5.02616 11.6969 5.0777 12.04C5.09293 12.1413 5.03093 12.2392 4.93189 12.2657C3.86496 12.5516 3.2318 13.6483 3.51768 14.7152L4.55296 18.5789C4.83884 19.6458 5.93551 20.279 7.00245 19.9931L7.96837 19.7343C9.0353 19.4484 9.66847 18.3517 9.38259 17.2848L8.34731 13.4211C8.22412 12.9613 7.95037 12.5821 7.59332 12.3223C7.31856 12.1223 7.06367 11.8648 7.02786 11.5269C7.00936 11.3524 7.00002 11.1765 7.00002 11C7.00002 10.1223 7.23105 9.2601 7.66989 8.5C8.10874 7.7399 8.73993 7.10872 9.50002 6.66987C10.2601 6.23103 11.1223 6 12 6C12.8777 6 13.7399 6.23103 14.5 6.66987C15.2601 7.10871 15.8913 7.7399 16.3301 8.5C16.769 9.2601 17 10.1223 17 11C17 11.1496 16.9933 11.2988 16.98 11.4471C16.9476 11.8084 16.666 12.0784 16.3653 12.2814C15.9798 12.5415 15.6828 12.9366 15.5529 13.4211L14.5177 17.2848C14.2318 18.3517 14.8649 19.4484 15.9319 19.7343L16.8978 19.9931C17.9647 20.279 19.0614 19.6458 19.3473 18.5789L20.3826 14.7152C20.6685 13.6483 20.0353 12.5516 18.9684 12.2657C18.9232 12.2536 18.895 12.209 18.9028 12.1629C18.9672 11.7801 19 11.3911 19 11C19 9.77124 18.6766 8.56413 18.0622 7.5C17.4478 6.43587 16.5642 5.5522 15.5 4.93782C14.4359 4.32344 13.2288 4 12 4Z" fill="#171717"/>
</svg>
