<svg width="24" height="24" viewBox="0 0 24 24" fill="none" xmlns="http://www.w3.org/2000/svg">
<path d="M13.1336 15.333C13.3198 15.1003 13.6669 15.0811 13.8776 15.2918L19.2929 20.7071C19.6834 21.0976 20.3166 21.0976 20.7071 20.7071C21.0976 20.3166 21.0976 19.6834 20.7071 19.2929L4.70711 3.29289C4.31658 2.90237 3.68342 2.90237 3.29289 3.29289C2.90237 3.68342 2.90237 4.31658 3.29289 4.70711L5.92794 7.34215C6.06185 7.47607 6.10861 7.67415 6.04873 7.85382L4.43874 12.6838C4.2229 13.3313 4.70487 14 5.38742 14H8.18436C8.84568 14 9.32487 14.6304 9.14787 15.2676L7.65379 20.6463C7.50818 21.1705 8.18613 21.5173 8.52599 21.0925L13.1336 15.333Z" fill="#171717"/>
<path d="M17.7002 9.62469L16.3331 11.3337C16.1469 11.5664 15.7998 11.5856 15.5891 11.3749L7.77206 3.55786C7.63814 3.42394 7.59138 3.22586 7.65127 3.04619L7.77207 2.68377C7.90819 2.27543 8.29033 2 8.72076 2H13.6126C14.2951 2 14.7771 2.6687 14.5613 3.31623L13.4387 6.68377C13.2229 7.3313 13.7049 8 14.3874 8H16.9194C17.7579 8 18.2241 8.96993 17.7002 9.62469Z" fill="#171717"/>
</svg>
