<svg width="24" height="24" viewBox="0 0 24 24" fill="none" xmlns="http://www.w3.org/2000/svg">
<path d="M14.1249 16.3376C14.3089 16.0984 14.6613 16.0755 14.8747 16.2889L19.2929 20.7071C19.6834 21.0976 20.3166 21.0976 20.7071 20.7071C21.0976 20.3166 21.0976 19.6834 20.7071 19.2929L4.70711 3.29289C4.31658 2.90237 3.68342 2.90237 3.29289 3.29289C2.90237 3.68342 2.90237 4.31658 3.29289 4.70711L7.98773 9.40194C8.16531 9.57953 8.18361 9.86129 8.03049 10.0603L6.23824 12.3903C5.73238 13.0479 6.20119 14 7.03086 14H9.75338C10.3931 14 10.8684 14.5924 10.7296 15.2169L9.48845 20.8019C9.37242 21.3241 10.0467 21.6392 10.3729 21.2153L14.1249 16.3376Z" fill="#171717"/>
<path d="M17.7618 11.6097L17.2664 12.2536C17.0824 12.4929 16.73 12.5158 16.5165 12.3023L14.2137 9.99946C14.2026 9.99946 14.2246 9.9998 14.2137 9.99946L16.9691 9.99998C17.7988 9.99998 18.2676 10.9521 17.7618 11.6097Z" fill="#171717"/>
<path d="M13.2704 8.78305C13.2509 8.87109 13.1328 8.91862 13.069 8.85485L11.0557 6.84153C10.8781 6.66394 10.8598 6.38218 11.013 6.18312L13.6271 2.7847C13.9533 2.36075 14.6276 2.67589 14.5115 3.19802L13.2704 8.78305Z" fill="#171717"/>
</svg>
