<svg width="24" height="24" viewBox="0 0 24 24" fill="none" xmlns="http://www.w3.org/2000/svg">
<path d="M4.70711 3.29289C4.31658 2.90237 3.68342 2.90237 3.29289 3.29289C2.90237 3.68342 2.90237 4.31658 3.29289 4.70711L9 10.4142V11C9 12.6569 10.3431 14 12 14C12.1836 14 12.3633 13.9835 12.5377 13.9519L14.1169 15.5311C13.474 15.8319 12.7566 16 12 16C9.23858 16 7 13.7614 7 11C7 10.4477 6.55228 10 6 10C5.44772 10 5 10.4477 5 11C5 14.3769 7.39118 17.1953 10.5727 17.8544C10.8163 17.9048 11 18.1139 11 18.3627V18.5C11 18.7761 10.7761 19 10.5 19H9C8.44771 19 8 19.4477 8 20C8 20.5523 8.44771 21 9 21H15C15.5523 21 16 20.5523 16 20C16 19.4477 15.5523 19 15 19H13.5C13.2239 19 13 18.7761 13 18.5V18.3627C13 18.1139 13.1837 17.9048 13.4273 17.8544C14.2045 17.6934 14.9345 17.4035 15.594 17.0082L19.2929 20.7071C19.6834 21.0976 20.3166 21.0976 20.7071 20.7071C21.0976 20.3166 21.0976 19.6834 20.7071 19.2929L4.70711 3.29289Z" fill="#171717"/>
<path d="M16.8427 12.2492C16.7959 12.4311 16.841 12.6268 16.9738 12.7596L17.7951 13.5809C18.0376 13.8234 18.4464 13.7545 18.5656 13.4329C18.8465 12.6752 19 11.8555 19 11C19 10.4477 18.5523 10 18 10C17.4477 10 17 10.4477 17 11C17 11.4313 16.9454 11.8499 16.8427 12.2492Z" fill="#171717"/>
<path d="M9.30789 4.67464C9.22177 4.84925 9.27031 5.0561 9.40798 5.19377L14.1464 9.93225C14.4614 10.2472 15 10.0241 15 9.57869V6C15 4.34315 13.6569 3 12 3C10.8189 3 9.79726 3.68251 9.30789 4.67464Z" fill="#171717"/>
</svg>
