<svg width="24" height="24" viewBox="0 0 24 24" fill="none" xmlns="http://www.w3.org/2000/svg">
<path fill-rule="evenodd" clip-rule="evenodd" d="M2 7C2 4.79086 3.79086 3 6 3H18C20.2091 3 22 4.79086 22 7V13C22 15.2091 20.2091 17 18 17H6C3.79086 17 2 15.2091 2 13V7ZM16 19C16.5523 19 17 19.4477 17 20C17 20.5523 16.5523 21 16 21H8C7.44772 21 7 20.5523 7 20C7 19.4477 7.44772 19 8 19H16ZM5 13C4.44772 13 4 13.4477 4 14C4 14.5523 4.44772 15 5 15H19C19.5523 15 20 14.5523 20 14C20 13.4477 19.5523 13 19 13H5Z" fill="#171717"/>
</svg>
