<svg width="24" height="24" viewBox="0 0 24 24" fill="none" xmlns="http://www.w3.org/2000/svg">
<path d="M4.70711 3.29289C4.31658 2.90237 3.68342 2.90237 3.29289 3.29289C2.90237 3.68342 2.90237 4.31658 3.29289 4.70711L5.02773 6.44194C5.19816 6.61237 5.2196 6.87864 5.10446 7.09038C4.85669 7.54605 4.69433 8.05668 4.6398 8.60199L4.2199 12.801C4.10216 13.9784 5.02673 15 6.20997 15H13.3787C13.5113 15 13.6385 15.0527 13.7322 15.1464L14.7322 16.1464C15.0472 16.4614 14.8241 17 14.3787 17H3C2.44772 17 2 17.4477 2 18C2 18.5523 2.44772 19 3 19L17.3787 19C17.5113 19 17.6385 19.0527 17.7322 19.1464L19.2929 20.7071C19.6834 21.0976 20.3166 21.0976 20.7071 20.7071C21.0976 20.3166 21.0976 19.6834 20.7071 19.2929L4.70711 3.29289Z" fill="#171717"/>
<path d="M19.7801 12.801C19.8427 13.4267 19.6109 14.0084 19.2024 14.4161C19.0345 14.5837 18.7667 14.5525 18.599 14.3848L10.0678 5.85355C9.75277 5.53857 9.97586 5 10.4213 5H15.38C17.4351 5 19.1557 6.55718 19.3602 8.60199L19.7801 12.801Z" fill="#171717"/>
</svg>
