<svg width="24" height="24" viewBox="0 0 24 24" fill="none" xmlns="http://www.w3.org/2000/svg">
<path fill-rule="evenodd" clip-rule="evenodd" d="M6 5C6 3.89543 6.89543 3 8 3H14C15.1046 3 16 3.89543 16 5V7C16 7.55228 15.5523 8 15 8H7C6.44772 8 6 7.55228 6 7V5ZM19 13C18.4477 13 18 13.4477 18 14C18 14.5523 18.4477 15 19 15C19.5523 15 20 14.5523 20 14C20 13.4477 19.5523 13 19 13ZM8 14C7.44772 14 7 14.4477 7 15V20C7 20.5523 7.44772 21 8 21H14C14.5523 21 15 20.5523 15 20V15C15 14.4477 14.5523 14 14 14H8ZM6 9C3.79086 9 2 10.7909 2 13V15C2 16.1046 2.89543 17 4 17H5C5.55228 17 6 16.5523 6 16V15C6 13.8954 6.89543 13 8 13H14C15.1046 13 16 13.8954 16 15V16C16 16.5523 16.4477 17 17 17H20C21.1046 17 22 16.1046 22 15V13C22 10.7909 20.2091 9 18 9H6Z" fill="#171717"/>
</svg>
