<svg width="24" height="24" viewBox="0 0 24 24" fill="none" xmlns="http://www.w3.org/2000/svg">
<path fill-rule="evenodd" clip-rule="evenodd" d="M8 2C5.79086 2 4 3.79086 4 6V10C4 12.2091 5.79086 14 8 14H16C18.2091 14 20 12.2091 20 10V6C20 3.79086 18.2091 2 16 2H8ZM8 4C6.89543 4 6 4.89543 6 6C6 7.10457 6.89543 8 8 8H16C17.1046 8 18 7.10457 18 6C18 4.89543 17.1046 4 16 4H8ZM11 12C11 11.4477 11.4477 11 12 11C12.5523 11 13 11.4477 13 12C13 12.5523 12.5523 13 12 13C11.4477 13 11 12.5523 11 12Z" fill="#171717"/>
<path fill-rule="evenodd" clip-rule="evenodd" d="M4.89771 15.1368C4.52793 14.913 4 15.1585 4 15.5908V18C4 20.2091 5.79086 22 8 22H16C18.2091 22 20 20.2091 20 18V15.5908C20 15.1585 19.4721 14.913 19.1023 15.1368C18.1971 15.6847 17.1354 16 16 16H8C6.86465 16 5.80295 15.6847 4.89771 15.1368ZM11 20C11 19.4477 11.4477 19 12 19C12.5523 19 13 19.4477 13 20C13 20.5523 12.5523 21 12 21C11.4477 21 11 20.5523 11 20Z" fill="#171717"/>
</svg>
