<svg width="24" height="24" viewBox="0 0 24 24" fill="none" xmlns="http://www.w3.org/2000/svg">
<path fill-rule="evenodd" clip-rule="evenodd" d="M4.0112 5.69834C4.02283 5.54238 3.97234 5.38656 3.86176 5.27597L3.29289 4.70711C2.90237 4.31658 2.90237 3.68342 3.29289 3.29289C3.68342 2.90237 4.31658 2.90237 4.70711 3.29289L20.7071 19.2929C21.0976 19.6834 21.0976 20.3166 20.7071 20.7071C20.3166 21.0976 19.6834 21.0976 19.2929 20.7071C19.1931 20.6073 19.0292 20.6162 18.9331 20.7197C18.2026 21.5072 17.1589 22 16 22H8C5.79086 22 4 20.2092 4 18V15.5908C4 15.1585 4.52793 14.913 4.89771 15.1368C5.80295 15.6847 6.86465 16 8 16H13.3787C13.8241 16 14.0472 15.4614 13.7322 15.1465L12.7322 14.1464C12.6385 14.0527 12.5113 14 12.3787 14H8C5.79086 14 4 12.2091 4 10V6C4 5.89852 4.00378 5.79792 4.0112 5.69834ZM13 20C13 19.4477 12.5523 19 12 19C11.4477 19 11 19.4477 11 20C11 20.5523 11.4477 21 12 21C12.5523 21 13 20.5523 13 20Z" fill="#171717"/>
<path d="M16 8H13.4213C12.9759 8 12.7528 8.53857 13.0678 8.85355L17.5363 13.3221C17.6887 13.4745 17.9233 13.5147 18.1064 13.4011C19.2431 12.6956 20 11.4362 20 10V6C20 3.79086 18.2091 2 16 2H8C7.73551 2 7.47702 2.02567 7.22688 2.07465C6.87528 2.14351 6.78453 2.57033 7.03787 2.82367L8.06775 3.85355C8.16152 3.94732 8.2887 4 8.42131 4H16C17.1046 4 18 4.89543 18 6C18 7.10457 17.1046 8 16 8Z" fill="#171717"/>
</svg>
