<svg width="24" height="24" viewBox="0 0 24 24" fill="none" xmlns="http://www.w3.org/2000/svg">
<path fill-rule="evenodd" clip-rule="evenodd" d="M4.70711 3.29289C4.31658 2.90237 3.68342 2.90237 3.29289 3.29289C2.90237 3.68342 2.90237 4.31658 3.29289 4.70711L3.85355 5.26777C3.94732 5.36154 4 5.48871 4 5.62132V11C4 12.1046 4.89543 13 6 13H11.3787C11.5113 13 11.6385 13.0527 11.7322 13.1464C12.0472 13.4614 11.8241 14 11.3787 14H6C4.89543 14 4 14.8954 4 16V18C4 19.1046 4.89543 20 6 20H18C18.0795 20 18.1579 19.9954 18.2349 19.9864C18.4122 19.9656 18.5958 20.01 18.7221 20.1363L19.2929 20.7071C19.6834 21.0976 20.3166 21.0976 20.7071 20.7071C21.0976 20.3166 21.0976 19.6834 20.7071 19.2929L4.70711 3.29289ZM16.5858 18L14.5858 16H13C12.4477 16 12 16.4477 12 17C12 17.5523 12.4477 18 13 18H16.5858ZM8 10C8 9.75714 8.29019 9.70441 8.46192 9.87614L9.12386 10.5381C9.29559 10.7098 9.24286 11 9 11C8.44772 11 8 10.5523 8 10ZM9 16C8.44772 16 8 16.4477 8 17C8 17.5523 8.44772 18 9 18C9.55228 18 10 17.5523 10 17C10 16.4477 9.55228 16 9 16Z" fill="#171717"/>
<path d="M16.4213 11C15.9759 11 15.7528 11.5386 16.0678 11.8536L17.0678 12.8536C17.1615 12.9473 17.2887 13 17.4213 13H18C19.1046 13 20 12.1046 20 11V5C20 3.89543 19.1046 3 18 3H8.42131C7.97586 3 7.75277 3.53857 8.06775 3.85355L9.06775 4.85355C9.16152 4.94732 9.2887 5 9.42131 5H17C17.5523 5 18 5.44772 18 6C18 6.55228 17.5523 7 17 7H12.4213C11.9759 7 11.7528 7.53857 12.0678 7.85355L13.0678 8.85355C13.1615 8.94732 13.2887 9 13.4213 9H17C17.5523 9 18 9.44772 18 10C18 10.5523 17.5523 11 17 11H16.4213Z" fill="#171717"/>
</svg>
