<svg width="24" height="24" viewBox="0 0 24 24" fill="none" xmlns="http://www.w3.org/2000/svg">
<path d="M15.3137 5.00003C15.0485 5.00003 14.7941 4.89468 14.6066 4.70714L12.7071 2.80766C12.3166 2.41714 11.6834 2.41714 11.2929 2.80766L9.39342 4.70714C9.20588 4.89468 8.95153 5.00003 8.68631 5.00003H6C5.44772 5.00003 5 5.44775 5 6.00003V8.68634C5 8.95156 4.89464 9.20591 4.70711 9.39345L2.80761 11.2929C2.41709 11.6835 2.41709 12.3166 2.80761 12.7072L4.70711 14.6067C4.89464 14.7942 5 15.0485 5 15.3138V18C5 18.5523 5.44771 19 6 19H8.68627C8.95149 19 9.20584 19.1054 9.39338 19.2929L11.2929 21.1924C11.6834 21.583 12.3166 21.583 12.7071 21.1924L14.6066 19.2929C14.7942 19.1054 15.0485 19 15.3137 19H18C18.5523 19 19 18.5523 19 18V15.3138C19 15.0485 19.1054 14.7942 19.2929 14.6067L21.1924 12.7072C21.5829 12.3166 21.5829 11.6835 21.1924 11.2929L19.2929 9.39345C19.1054 9.20591 19 8.95156 19 8.68634V6.00003C19 5.44775 18.5523 5.00003 18 5.00003H15.3137Z" fill="#171717"/>
</svg>
