<svg width="24" height="24" viewBox="0 0 24 24" fill="none" xmlns="http://www.w3.org/2000/svg">
<path fill-rule="evenodd" clip-rule="evenodd" d="M14.6066 4.70702C14.7941 4.89455 15.0485 4.99991 15.3137 4.99991H18C18.5523 4.99991 19 5.44763 19 5.99991V8.68622C19 8.95144 19.1053 9.20579 19.2929 9.39333L21.1924 11.2928C21.5829 11.6833 21.5829 12.3165 21.1924 12.707L19.2929 14.6065C19.1053 14.7941 19 15.0484 19 15.3136V17.9999C19 18.5522 18.5523 18.9999 18 18.9999H15.3137C15.0485 18.9999 14.7941 19.1053 14.6066 19.2928L12.7071 21.1923C12.3166 21.5828 11.6834 21.5828 11.2929 21.1923L9.39337 19.2928C9.20583 19.1053 8.95148 18.9999 8.68626 18.9999H5.99999C5.44771 18.9999 4.99999 18.5522 4.99999 17.9999V15.3136C4.99999 15.0484 4.89463 14.7941 4.7071 14.6065L2.8076 12.707C2.41708 12.3165 2.41708 11.6833 2.8076 11.2928L4.7071 9.39333C4.89463 9.20579 4.99999 8.95144 4.99999 8.68622V5.99991C4.99999 5.44763 5.44771 4.99991 5.99999 4.99991H8.6863C8.95152 4.99991 9.20587 4.89455 9.39341 4.70702L11.2929 2.80754C11.6834 2.41702 12.3166 2.41702 12.7071 2.80754L14.6066 4.70702ZM12 8.49994C12.5523 8.49994 13 8.94765 13 9.49994V10.9999H14.5C15.0523 10.9999 15.5 11.4477 15.5 11.9999C15.5 12.5522 15.0523 12.9999 14.5 12.9999H13V14.4999C13 15.0522 12.5523 15.4999 12 15.4999C11.4477 15.4999 11 15.0522 11 14.4999V12.9999H9.5C8.94772 12.9999 8.5 12.5522 8.5 11.9999C8.5 11.4477 8.94772 10.9999 9.5 10.9999H11V9.49994C11 8.94765 11.4477 8.49994 12 8.49994Z" fill="#171717"/>
</svg>
