<svg width="24" height="24" viewBox="0 0 24 24" fill="none" xmlns="http://www.w3.org/2000/svg">
<path fill-rule="evenodd" clip-rule="evenodd" d="M14.6066 4.70702C14.7941 4.89455 15.0485 4.99991 15.3137 4.99991H18C18.5523 4.99991 19 5.44763 19 5.99991V8.68622C19 8.95144 19.1053 9.20579 19.2929 9.39333L21.1924 11.2928C21.5829 11.6833 21.5829 12.3165 21.1924 12.707L19.2929 14.6065C19.1053 14.7941 19 15.0484 19 15.3136V17.9999C19 18.5522 18.5523 18.9999 18 18.9999H15.3137C15.0485 18.9999 14.7941 19.1053 14.6066 19.2928L12.7071 21.1923C12.3166 21.5828 11.6834 21.5828 11.2929 21.1923L9.39337 19.2928C9.20583 19.1053 8.95148 18.9999 8.68626 18.9999H5.99999C5.44771 18.9999 4.99999 18.5522 4.99999 17.9999V15.3136C4.99999 15.0484 4.89463 14.7941 4.7071 14.6065L2.8076 12.707C2.41708 12.3165 2.41708 11.6833 2.8076 11.2928L4.7071 9.39333C4.89463 9.20579 4.99999 8.95144 4.99999 8.68622V5.99991C4.99999 5.44763 5.44771 4.99991 5.99999 4.99991H8.6863C8.95152 4.99991 9.20587 4.89455 9.39341 4.70702L11.2929 2.80754C11.6834 2.41702 12.3166 2.41702 12.7071 2.80754L14.6066 4.70702ZM11.2499 9.2009C11.478 9.06925 11.7366 8.99994 11.9999 8.99994C12.2632 8.99994 12.5219 9.06925 12.7499 9.2009C12.978 9.33255 13.1673 9.52191 13.299 9.74994C13.4306 9.97797 13.4999 10.2366 13.4999 10.4999C13.4999 10.7632 13.4306 11.0219 13.299 11.2499C13.1673 11.478 12.978 11.6673 12.7499 11.799C12.5219 11.9306 12.2632 11.9999 11.9999 11.9999C11.4477 11.9999 10.9999 12.4477 10.9999 12.9999C10.9999 13.5522 11.4477 13.9999 11.9999 13.9999C12.6143 13.9999 13.2179 13.8382 13.7499 13.531C14.282 13.2238 14.7238 12.782 15.031 12.2499C15.3382 11.7179 15.4999 11.1143 15.4999 10.4999C15.4999 9.88556 15.3382 9.28201 15.031 8.74994C14.7238 8.21787 14.282 7.77604 13.7499 7.46885C13.2179 7.16166 12.6143 6.99994 11.9999 6.99994C11.3856 6.99994 10.782 7.16166 10.2499 7.46885C9.71787 7.77604 9.27604 8.21787 8.96885 8.74994C8.69271 9.22823 8.85658 9.83982 9.33488 10.116C9.81317 10.3921 10.4248 10.2282 10.7009 9.74994C10.8326 9.52191 11.0219 9.33255 11.2499 9.2009ZM12 14.9999C11.4477 14.9999 11 15.4477 11 15.9999C11 16.5522 11.4477 16.9999 12 16.9999C12.5522 16.9999 13 16.5522 13 15.9999C13 15.4477 12.5522 14.9999 12 14.9999Z" fill="#171717"/>
</svg>
