<svg width="24" height="24" viewBox="0 0 24 24" fill="none" xmlns="http://www.w3.org/2000/svg">
<path fill-rule="evenodd" clip-rule="evenodd" d="M14.6066 4.70702C14.7941 4.89455 15.0485 4.99991 15.3137 4.99991H18C18.5523 4.99991 19 5.44763 19 5.99991V8.68622C19 8.95144 19.1054 9.20579 19.2929 9.39333L21.1924 11.2928C21.5829 11.6833 21.5829 12.3165 21.1924 12.707L19.2929 14.6065C19.1054 14.7941 19 15.0484 19 15.3136V17.9999C19 18.5522 18.5523 18.9999 18 18.9999H15.3137C15.0485 18.9999 14.7942 19.1053 14.6066 19.2928L12.7071 21.1923C12.3166 21.5828 11.6834 21.5828 11.2929 21.1923L9.39338 19.2928C9.20585 19.1053 8.95149 18.9999 8.68628 18.9999H6.00001C5.44772 18.9999 5.00001 18.5522 5.00001 17.9999V15.3136C5.00001 15.0484 4.89465 14.7941 4.70711 14.6065L2.80762 12.707C2.41709 12.3165 2.41709 11.6833 2.80762 11.2928L4.70711 9.39333C4.89465 9.20579 5.00001 8.95144 5.00001 8.68622V5.99991C5.00001 5.44763 5.44772 4.99991 6.00001 4.99991H8.68632C8.95153 4.99991 9.20589 4.89455 9.39342 4.70702L11.2929 2.80754C11.6834 2.41702 12.3166 2.41702 12.7071 2.80754L14.6066 4.70702ZM10.8519 8.2283C11.4001 8.00124 12.0033 7.94183 12.5853 8.05758C13.1672 8.17334 13.7018 8.45906 14.1213 8.87862C14.5118 9.26914 14.5118 9.90231 14.1213 10.2928C13.7308 10.6834 13.0976 10.6834 12.7071 10.2928C12.5673 10.153 12.3891 10.0577 12.1951 10.0192C12.0011 9.98057 11.8 10.0004 11.6173 10.0761C11.4346 10.1517 11.2784 10.2799 11.1685 10.4444C11.0586 10.6088 11 10.8022 11 10.9999V11.9999H15C15.5523 11.9999 16 12.4477 16 12.9999V14.9999C16 15.5522 15.5523 15.9999 15 15.9999H9C8.44772 15.9999 8 15.5522 8 14.9999V12.9999C8 12.4477 8.44772 11.9999 9 11.9999V10.9999C9 10.4066 9.17595 9.82658 9.50559 9.33323C9.83524 8.83988 10.3038 8.45536 10.8519 8.2283Z" fill="#171717"/>
</svg>
