<svg width="24" height="24" viewBox="0 0 24 24" fill="none" xmlns="http://www.w3.org/2000/svg">
<path fill-rule="evenodd" clip-rule="evenodd" d="M14 7C13.4477 7 13 7.44772 13 8V14C13 14.0592 13.0051 14.1172 13.015 14.1736C13.0051 14.2811 13 14.3899 13 14.5C13 16.433 14.567 18 16.5 18C18.433 18 20 16.433 20 14.5C20 12.567 18.433 11 16.5 11C15.9632 11 15.4546 11.1208 15 11.3368V8C15 7.44772 14.5523 7 14 7ZM15 14.5C15 13.6716 15.6716 13 16.5 13C17.3284 13 18 13.6716 18 14.5C18 15.3284 17.3284 16 16.5 16C15.6716 16 15 15.3284 15 14.5Z" fill="#171717"/>
<path fill-rule="evenodd" clip-rule="evenodd" d="M10.1056 17.4472L9.9039 17.0439C9.27691 17.6366 8.4309 18 7.5 18C5.567 18 4 16.433 4 14.5C4 12.567 5.567 11 7.5 11C9.433 11 11 12.567 11 14.5C11 14.6736 11.0404 14.8448 11.118 15L11.8944 16.5528C12.1414 17.0468 11.9412 17.6474 11.4472 17.8944C10.9532 18.1414 10.3526 17.9412 10.1056 17.4472ZM6 14.5C6 13.6716 6.67157 13 7.5 13C8.32843 13 9 13.6716 9 14.5C9 15.3284 8.32843 16 7.5 16C6.67157 16 6 15.3284 6 14.5Z" fill="#171717"/>
</svg>
