<svg width="24" height="24" viewBox="0 0 24 24" fill="none" xmlns="http://www.w3.org/2000/svg">
<path fill-rule="evenodd" clip-rule="evenodd" d="M7.94868 5.68377C7.81257 5.27543 7.43043 5 7 5C6.56957 5 6.18743 5.27543 6.05131 5.68377L2.05131 17.6838C1.87667 18.2077 2.15983 18.774 2.68377 18.9487C3.20771 19.1233 3.77403 18.8402 3.94868 18.3162L5.05409 15H8.9459L10.0513 18.3162C10.226 18.8402 10.7923 19.1233 11.3162 18.9487C11.8402 18.774 12.1233 18.2077 11.9487 17.6838L7.94868 5.68377ZM8.27924 13L7 9.16228L5.72076 13H8.27924Z" fill="#171717"/>
<path fill-rule="evenodd" clip-rule="evenodd" d="M14.6667 5C13.7462 5 13 5.74619 13 6.66667V17.2222C13 18.2041 13.7959 19 14.7778 19H18C20.2091 19 22 17.2091 22 15C22 13.5457 21.2239 12.2726 20.0632 11.5725C20.6478 10.877 21 9.97964 21 9C21 6.79086 19.2091 5 17 5H14.6667ZM17 11C18.1046 11 19 10.1046 19 9C19 7.89543 18.1046 7 17 7H15V11H17ZM15 13V17H18C19.1046 17 20 16.1046 20 15C20 13.8954 19.1046 13 18 13H15Z" fill="#171717"/>
</svg>
