<svg width="24" height="24" viewBox="0 0 24 24" fill="none" xmlns="http://www.w3.org/2000/svg">
<path d="M9.27924 17H7C6.44772 17 6 17.4477 6 18C6 18.5523 6.44772 19 7 19H9.97695C9.99245 19.0004 10.0079 19.0004 10.0233 19H13C13.5523 19 14 18.5523 14 18C14 17.4477 13.5523 17 13 17H11.3874L14.7208 7.00003L17 7.00003C17.5523 7.00003 18 6.55231 18 6.00003C18 5.44774 17.5523 5.00003 17 5.00003L14.0231 5.00003C14.0076 4.99966 13.9921 4.99967 13.9766 5.00003L11 5.00003C10.4477 5.00003 10 5.44774 10 6.00003C10 6.55231 10.4477 7.00003 11 7.00003L12.6126 7.00003L9.27924 17Z" fill="#171717"/>
</svg>
