<svg width="24" height="24" viewBox="0 0 24 24" fill="none" xmlns="http://www.w3.org/2000/svg">
<path d="M6.56085 10.6135C6.52604 10.5446 6.45602 10.5 6.37881 10.5H3C2.44772 10.5 2 10.9477 2 11.5C2 12.0523 2.44772 12.5 3 12.5H7.55168C7.74542 12.5 7.83387 12.2414 7.69146 12.11C7.2307 11.685 6.84621 11.1786 6.56085 10.6135Z" fill="#171717"/>
<path d="M17.4392 12.3865C17.474 12.4554 17.544 12.5 17.6212 12.5H21C21.5523 12.5 22 12.0523 22 11.5C22 10.9477 21.5523 10.5 21 10.5H16.4483C16.2546 10.5 16.1661 10.7586 16.3085 10.89C16.7693 11.315 17.1538 11.8214 17.4392 12.3865Z" fill="#171717"/>
<path fill-rule="evenodd" clip-rule="evenodd" d="M10.75 7C9.7835 7 9 7.7835 9 8.75C9 9.7165 9.7835 10.5 10.75 10.5H12.75C15.0972 10.5 17 12.4028 17 14.75C17 17.0972 15.0972 19 12.75 19H10.4142C9.24349 19 8.12072 18.5349 7.29289 17.7071C6.90237 17.3166 6.90237 16.6834 7.29289 16.2929C7.68342 15.9024 8.31658 15.9024 8.70711 16.2929C9.15986 16.7456 9.77392 17 10.4142 17H12.75C13.9926 17 15 15.9926 15 14.75C15 13.5074 13.9926 12.5 12.75 12.5H10.75C8.67893 12.5 7 10.8211 7 8.75C7 6.67893 8.67893 5 10.75 5H12.5858C13.7565 5 14.8793 5.46507 15.7071 6.29289C16.0976 6.68342 16.0976 7.31658 15.7071 7.70711C15.3166 8.09763 14.6834 8.09763 14.2929 7.70711C13.8401 7.25435 13.2261 7 12.5858 7H10.75Z" fill="#171717"/>
</svg>
