<svg width="24" height="24" viewBox="0 0 24 24" fill="none" xmlns="http://www.w3.org/2000/svg">
<path d="M9 6C9 5.44772 8.55228 5 8 5C7.44772 5 7 5.44772 7 6V12C7 14.7614 9.23858 17 12 17C14.7614 17 17 14.7614 17 12V6C17 5.44772 16.5523 5 16 5C15.4477 5 15 5.44772 15 6V12C15 13.6569 13.6569 15 12 15C10.3431 15 9 13.6569 9 12V6Z" fill="#171717"/>
<path d="M8 19C7.44772 19 7 19.4477 7 20C7 20.5523 7.44772 21 8 21L16 21C16.5523 21 17 20.5523 17 20C17 19.4477 16.5523 19 16 19L8 19Z" fill="#171717"/>
</svg>
