<svg width="24" height="24" viewBox="0 0 24 24" fill="none" xmlns="http://www.w3.org/2000/svg">
<path d="M12.4793 4C12.1673 4 11.8629 4.09597 11.6073 4.27489L2.81923 10.4265C2.30579 10.7859 2 11.3733 2 12C2 12.6267 2.30579 13.2141 2.81923 13.5735L11.6073 19.7251C11.8629 19.904 12.1673 20 12.4793 20C13.3192 20 14 19.3192 14 18.4793V17.7207C14 16.9116 14.9107 16.4375 15.5735 16.9014L19.6073 19.7251C19.8629 19.904 20.1673 20 20.4793 20C21.3192 20 22 19.3192 22 18.4793V5.52066C22 4.68082 21.3192 4 20.4793 4C20.1673 4 19.8629 4.09597 19.6073 4.27489L15.5735 7.09858C14.9107 7.56252 14 7.08837 14 6.27934V5.52066C14 4.68082 13.3192 4 12.4793 4Z" fill="#171717"/>
</svg>
