<svg width="24" height="24" viewBox="0 0 24 24" fill="none" xmlns="http://www.w3.org/2000/svg">
<path d="M3.52066 4C3.83265 4 4.1371 4.09597 4.39269 4.27489L8.42654 7.09858C9.08931 7.56252 10 7.08837 10 6.27934V5.52066C10 4.68082 10.6808 4 11.5207 4C11.8327 4 12.1371 4.09597 12.3927 4.27489L21.1808 10.4265C21.6942 10.7859 22 11.3733 22 12C22 12.6267 21.6942 13.2141 21.1808 13.5735L12.3927 19.7251C12.1371 19.904 11.8327 20 11.5207 20C10.6808 20 10 19.3192 10 18.4793V17.7207C10 16.9116 9.08931 16.4375 8.42654 16.9014L4.39269 19.7251C4.1371 19.904 3.83265 20 3.52066 20C2.68082 20 2 19.3192 2 18.4793V5.52066C2 4.68082 2.68082 4 3.52066 4Z" fill="#171717"/>
</svg>
