<svg width="24" height="24" viewBox="0 0 24 24" fill="none" xmlns="http://www.w3.org/2000/svg">
<path fill-rule="evenodd" clip-rule="evenodd" d="M3 7C3 4.79086 4.79086 3 7 3H17C19.2091 3 21 4.79086 21 7V17C21 19.2091 19.2091 21 17 21H7C4.79086 21 3 19.2091 3 17V7ZM12.4855 8.14251C12.7944 7.95715 13.1792 7.95229 13.4927 8.1298C13.8062 8.30731 14 8.63973 14 9V15C14 15.3603 13.8062 15.6927 13.4927 15.8702C13.1792 16.0477 12.7944 16.0429 12.4855 15.8575L7.4855 12.8575C7.1843 12.6768 7 12.3513 7 12C7 11.6487 7.1843 11.3232 7.4855 11.1425L12.4855 8.14251ZM16 8C15.4477 8 15 8.44772 15 9V15C15 15.5523 15.4477 16 16 16C16.5523 16 17 15.5523 17 15V9C17 8.44772 16.5523 8 16 8Z" fill="#171717"/>
</svg>
