<svg width="24" height="24" viewBox="0 0 24 24" fill="none" xmlns="http://www.w3.org/2000/svg">
<path d="M17 6C17 4.89543 17.8954 4 19 4C20.1046 4 21 4.89543 21 6V18C21 19.1046 20.1046 20 19 20C17.8954 20 17 19.1046 17 18V6Z" fill="#171717"/>
<path d="M12.6073 4.27489C12.8629 4.09597 13.1673 4 13.4793 4C14.3192 4 15 4.68082 15 5.52066V18.4793C15 19.3192 14.3192 20 13.4793 20C13.1673 20 12.8629 19.904 12.6073 19.7251L3.81923 13.5735C3.30579 13.2141 3 12.6267 3 12C3 11.3733 3.30579 10.7859 3.81923 10.4265L12.6073 4.27489Z" fill="#171717"/>
</svg>
