<svg width="24" height="24" viewBox="0 0 24 24" fill="none" xmlns="http://www.w3.org/2000/svg">
<path fill-rule="evenodd" clip-rule="evenodd" d="M21 7C21 4.79086 19.2091 3 17 3H7C4.79086 3 3 4.79086 3 7V17C3 19.2091 4.79086 21 7 21H17C19.2091 21 21 19.2091 21 17V7ZM11.5145 8.14251C11.2056 7.95715 10.8208 7.95229 10.5073 8.1298C10.1938 8.30731 10 8.63973 10 9V15C10 15.3603 10.1938 15.6927 10.5073 15.8702C10.8208 16.0477 11.2056 16.0429 11.5145 15.8575L16.5145 12.8575C16.8157 12.6768 17 12.3513 17 12C17 11.6487 16.8157 11.3232 16.5145 11.1425L11.5145 8.14251ZM8 8C8.55229 8 9 8.44772 9 9V15C9 15.5523 8.55229 16 8 16C7.44771 16 7 15.5523 7 15V9C7 8.44772 7.44771 8 8 8Z" fill="#171717"/>
</svg>
