<svg width="24" height="24" viewBox="0 0 24 24" fill="none" xmlns="http://www.w3.org/2000/svg">
<path d="M4.52066 4C4.83265 4 5.1371 4.09597 5.39269 4.27489L14.1808 10.4265C14.6942 10.7859 15 11.3733 15 12C15 12.6267 14.6942 13.2141 14.1808 13.5735L5.39269 19.7251C5.1371 19.904 4.83265 20 4.52066 20C3.68082 20 3 19.3192 3 18.4793V5.52066C3 4.68082 3.68082 4 4.52066 4Z" fill="#171717"/>
<path d="M19 4C20.1046 4 21 4.89543 21 6V18C21 19.1046 20.1046 20 19 20C17.8954 20 17 19.1046 17 18V6C17 4.89543 17.8954 4 19 4Z" fill="#171717"/>
</svg>
