<svg width="24" height="24" viewBox="0 0 24 24" fill="none" xmlns="http://www.w3.org/2000/svg">
<path d="M5 4C3.89543 4 3 4.89543 3 6V18C3 19.1046 3.89543 20 5 20C6.10457 20 7 19.1046 7 18V6C7 4.89543 6.10457 4 5 4Z" fill="#171717"/>
<path d="M19.4793 4C19.1673 4 18.8629 4.09597 18.6073 4.27489L9.81923 10.4265C9.30579 10.7859 9 11.3733 9 12C9 12.6267 9.30579 13.2141 9.81923 13.5735L18.6073 19.7251C18.8629 19.904 19.1673 20 19.4793 20C20.3192 20 21 19.3192 21 18.4793V5.52066C21 4.68082 20.3192 4 19.4793 4Z" fill="#171717"/>
</svg>
