<svg width="24" height="24" viewBox="0 0 24 24" fill="none" xmlns="http://www.w3.org/2000/svg">
<path d="M4.46447 5.45799C6.41709 3.514 9.58291 3.514 11.5355 5.45799L12 5.9204L12.4645 5.45799C14.4171 3.514 17.5829 3.514 19.5355 5.45799C20.5175 6.43561 21.0056 7.71869 21 9H20C19.8813 9 19.7637 9.007 19.6477 9.0207C19.372 9.05324 19.0926 8.90402 19.0164 8.63711L18.8846 8.17584C18.5633 7.05148 17.6181 6.21625 16.4627 6.0359C15.3073 5.85554 14.1525 6.36294 13.5038 7.3359L12.5429 8.77735C12.4501 8.91645 12.294 9 12.1269 9H12C10.3431 9 9 10.3431 9 12C9 13.6569 10.3431 15 12 15H14C14.0409 15 14.0817 14.9992 14.1223 14.9975C14.3819 14.9869 14.633 15.1358 14.7044 15.3856L15.1154 16.8242C15.1209 16.8433 15.1266 16.8624 15.1324 16.8814L12 20L4.46447 12.4978C2.51184 10.5538 2.51184 7.40198 4.46447 5.45799Z" fill="#171717"/>
<path d="M16.9615 8.72528C16.8544 8.35049 16.5394 8.07208 16.1542 8.01197C15.7691 7.95185 15.3842 8.12098 15.1679 8.4453L13.4648 11H12C11.4477 11 11 11.4477 11 12C11 12.5523 11.4477 13 12 13H14C14.3344 13 14.6466 12.8329 14.8321 12.5547L15.6325 11.354L17.0385 16.2747C17.1518 16.6712 17.4968 16.9575 17.9075 16.9957C18.3181 17.0339 18.71 16.8161 18.8944 16.4472L20.618 13H22C22.5523 13 23 12.5523 23 12C23 11.4477 22.5523 11 22 11H20C19.6212 11 19.275 11.214 19.1056 11.5528L18.2553 13.2534L16.9615 8.72528Z" fill="#171717"/>
</svg>
