<svg width="24" height="24" viewBox="0 0 24 24" fill="none" xmlns="http://www.w3.org/2000/svg">
<path d="M10.481 3C10.8077 3 11.0459 3.30951 11.0164 3.63489C11.0056 3.75514 11 3.87692 11 4V4.5C11 4.77614 10.7761 5 10.5 5H5C3.89543 5 3 5.89543 3 7V12.5172C3 12.6953 3.21543 12.7846 3.34142 12.6586L5.29289 10.7071C5.68342 10.3166 6.31658 10.3166 6.70711 10.7071L10.1464 14.1464C10.3417 14.3417 10.6583 14.3417 10.8536 14.1464L11.2929 13.7071C11.6834 13.3166 12.3166 13.3166 12.7071 13.7071L16.6586 17.6586C16.7846 17.7846 17 17.6953 17 17.5172V14.5C17 14.2239 17.2239 14 17.5 14H18.5C18.7761 14 19 14.2239 19 14.5V17C19 19.2091 17.2091 21 15 21H5C2.79086 21 1 19.2091 1 17V7C1 4.79086 2.79086 3 5 3H10.481Z" fill="#171717"/>
<path fill-rule="evenodd" clip-rule="evenodd" d="M15 1C13.3431 1 12 2.34315 12 4V10C12 11.6569 13.3431 13 15 13H21C22.6569 13 24 11.6569 24 10V4C24 2.34315 22.6569 1 21 1H15ZM17.9155 5.02153C17.9942 4.99766 18.0776 4.99357 18.1582 5.00961C18.2388 5.02565 18.3143 5.06133 18.3779 5.11349C18.4414 5.16566 18.4911 5.23269 18.5226 5.30866C18.5541 5.38462 18.5663 5.46718 18.5583 5.54901C18.5502 5.63084 18.5221 5.70942 18.4764 5.77779C18.4307 5.84615 18.3689 5.9022 18.2964 5.94096C18.2238 5.97972 18.1429 6 18.0607 6C17.5084 6 17.0607 6.44772 17.0607 7C17.0607 7.55228 17.5084 8 18.0607 8C18.4718 8 18.8766 7.89861 19.2392 7.7048C19.6017 7.511 19.9109 7.23077 20.1393 6.88893C20.3677 6.54709 20.5083 6.15419 20.5486 5.74504C20.5889 5.33589 20.5277 4.92312 20.3704 4.54329C20.213 4.16346 19.9644 3.82829 19.6466 3.56747C19.3288 3.30666 18.9516 3.12824 18.5484 3.04804C18.1452 2.96783 17.7284 2.98831 17.3349 3.10765C16.9415 3.22699 16.5836 3.44152 16.2929 3.73224C15.9024 4.12276 15.9024 4.75593 16.2929 5.14645C16.6834 5.53697 17.3166 5.53697 17.7071 5.14644C17.7652 5.0883 17.8368 5.0454 17.9155 5.02153ZM18 9C17.4477 9 17 9.44772 17 10C17 10.5523 17.4477 11 18 11C18.5523 11 19 10.5523 19 10C19 9.44772 18.5523 9 18 9Z" fill="#171717"/>
</svg>
