<svg width="24" height="24" viewBox="0 0 24 24" fill="none" xmlns="http://www.w3.org/2000/svg">
<path d="M10.481 3C10.8077 3 11.0459 3.30951 11.0164 3.63489C11.0056 3.75514 11 3.87692 11 4V4.5C11 4.77614 10.7761 5 10.5 5H5C3.89543 5 3 5.89543 3 7V12.5172C3 12.6953 3.21543 12.7846 3.34142 12.6586L5.29289 10.7071C5.68342 10.3166 6.31658 10.3166 6.70711 10.7071L10.1464 14.1464C10.3417 14.3417 10.6583 14.3417 10.8536 14.1464L11.2929 13.7071C11.6834 13.3166 12.3166 13.3166 12.7071 13.7071L16.6586 17.6586C16.7846 17.7846 17 17.6953 17 17.5172V14.5C17 14.2239 17.2239 14 17.5 14H18.5C18.7761 14 19 14.2239 19 14.5V17C19 19.2091 17.2091 21 15 21H5C2.79086 21 1 19.2091 1 17V7C1 4.79086 2.79086 3 5 3H10.481Z" fill="#171717"/>
<path fill-rule="evenodd" clip-rule="evenodd" d="M15 1C13.3431 1 12 2.34315 12 4V10C12 11.6569 13.3431 13 15 13H21C22.6569 13 24 11.6569 24 10V4C24 2.34315 22.6569 1 21 1H15ZM16.8519 3.22836C17.4001 3.0013 18.0033 2.94189 18.5853 3.05765C19.1672 3.1734 19.7018 3.45912 20.1213 3.87868C20.5118 4.2692 20.5118 4.90237 20.1213 5.29289C19.7308 5.68342 19.0976 5.68342 18.7071 5.29289C18.5673 5.15304 18.3891 5.0578 18.1951 5.01922C18.0011 4.98063 17.8 5.00043 17.6173 5.07612C17.4346 5.15181 17.2784 5.27998 17.1685 5.44443C17.0586 5.60888 17 5.80222 17 6V7L21 7C21.5523 7 22 7.44772 22 8V10C22 10.5523 21.5523 11 21 11H15C14.4477 11 14 10.5523 14 10V8C14 7.44772 14.4477 7 15 7V6C15 5.40666 15.1759 4.82664 15.5056 4.33329C15.8352 3.83994 16.3038 3.45543 16.8519 3.22836Z" fill="#171717"/>
</svg>
