<svg width="24" height="24" viewBox="0 0 24 24" fill="none" xmlns="http://www.w3.org/2000/svg">
<path d="M10.481 3C10.8077 3 11.0459 3.30951 11.0164 3.63489C11.0056 3.75514 11 3.87692 11 4V4.5C11 4.77614 10.7761 5 10.5 5H5C3.89543 5 3 5.89543 3 7V12.5172C3 12.6953 3.21543 12.7846 3.34142 12.6586L5.29289 10.7071C5.68342 10.3166 6.31658 10.3166 6.70711 10.7071L10.1464 14.1464C10.3417 14.3417 10.6583 14.3417 10.8536 14.1464L11.2929 13.7071C11.6834 13.3166 12.3166 13.3166 12.7071 13.7071L16.6586 17.6586C16.7846 17.7846 17 17.6953 17 17.5172V14.5C17 14.2239 17.2239 14 17.5 14H18.5C18.7761 14 19 14.2239 19 14.5V17C19 19.2091 17.2091 21 15 21H5C2.79086 21 1 19.2091 1 17V7C1 4.79086 2.79086 3 5 3H10.481Z" fill="#171717"/>
<path fill-rule="evenodd" clip-rule="evenodd" d="M15 1C13.3431 1 12 2.34315 12 4V10C12 11.6569 13.3431 13 15 13H21C22.6569 13 24 11.6569 24 10V4C24 2.34315 22.6569 1 21 1H15ZM15 3C14.4477 3 14 3.44772 14 4C14 4.55228 14.4477 5 15 5C15.6566 5 16.3068 5.12933 16.9134 5.3806C17.52 5.63188 18.0712 6.00017 18.5355 6.46447C18.9998 6.92876 19.3681 7.47996 19.6194 8.08658C19.8707 8.69321 20 9.34339 20 10C20 10.5523 20.4477 11 21 11C21.5523 11 22 10.5523 22 10C22 9.08075 21.8189 8.1705 21.4672 7.32122C21.1154 6.47194 20.5998 5.70026 19.9497 5.05025C19.2997 4.40024 18.5281 3.88463 17.6788 3.53284C16.8295 3.18106 15.9193 3 15 3ZM14 7C14 6.44772 14.4477 6 15 6C15.5253 6 16.0454 6.10346 16.5307 6.30448C17.016 6.5055 17.457 6.80014 17.8284 7.17157C18.1999 7.54301 18.4945 7.98396 18.6955 8.46927C18.8965 8.95457 19 9.47471 19 10C19 10.5523 18.5523 11 18 11C17.4477 11 17 10.5523 17 10C17 9.73736 16.9483 9.47729 16.8478 9.23463C16.7472 8.99198 16.5999 8.7715 16.4142 8.58579C16.2285 8.40007 16.008 8.25275 15.7654 8.15224C15.5227 8.05173 15.2626 8 15 8C14.4477 8 14 7.55228 14 7ZM16 10C16 10.5523 15.5523 11 15 11C14.4477 11 14 10.5523 14 10C14 9.44771 14.4477 9 15 9C15.5523 9 16 9.44771 16 10Z" fill="#171717"/>
</svg>
