<svg width="24" height="24" viewBox="0 0 24 24" fill="none" xmlns="http://www.w3.org/2000/svg">
<path fill-rule="evenodd" clip-rule="evenodd" d="M5 3C3.89543 3 3 3.89543 3 5V17C3 19.2091 4.79086 21 7 21H17C19.2091 21 21 19.2091 21 17V8C21 6.89543 20.1046 6 19 6H15.0704C14.4017 6 13.7772 5.6658 13.4063 5.1094L12.5937 3.8906C12.2228 3.3342 11.5983 3 10.9296 3H5ZM14.7678 15.2678C14.7678 15.4034 14.7409 15.5326 14.692 15.6506C14.5417 16.0129 14.1845 16.2678 13.7678 16.2678L10.2323 16.2678C9.68003 16.2678 9.23231 15.8201 9.23231 15.2678C9.23231 14.7155 9.68003 14.2678 10.2323 14.2678L11.3536 14.2678L9.52521 12.4393C9.13468 12.0488 9.13468 11.4157 9.52521 11.0251C9.91573 10.6346 10.5489 10.6346 10.9394 11.0251L12.7678 12.8536V11.7322C12.7678 11.1799 13.2156 10.7322 13.7678 10.7322C14.3201 10.7322 14.7678 11.1799 14.7678 11.7322V15.2678Z" fill="#171717"/>
</svg>
