<svg width="24" height="24" viewBox="0 0 24 24" fill="none" xmlns="http://www.w3.org/2000/svg">
<path fill-rule="evenodd" clip-rule="evenodd" d="M5 3C3.89543 3 3 3.89543 3 5V17C3 19.2091 4.79086 21 7 21H17C19.2091 21 21 19.2091 21 17V8C21 6.89543 20.1046 6 19 6H15.0704C14.4017 6 13.7772 5.6658 13.4063 5.1094L12.5937 3.8906C12.2228 3.3342 11.5983 3 10.9296 3H5ZM11.2929 10.2929C11.3888 10.197 11.4993 10.1247 11.6172 10.0759C11.9797 9.92591 12.4125 9.99825 12.7071 10.2929L15.2071 12.7929C15.5976 13.1834 15.5976 13.8166 15.2071 14.2071C14.8166 14.5976 14.1834 14.5976 13.7929 14.2071L13 13.4142V16C13 16.5523 12.5523 17 12 17C11.4477 17 11 16.5523 11 16V13.4142L10.2071 14.2071C9.81658 14.5976 9.18342 14.5976 8.79289 14.2071C8.40237 13.8166 8.40237 13.1834 8.79289 12.7929L11.2929 10.2929Z" fill="#171717"/>
</svg>
