<svg width="24" height="24" viewBox="0 0 24 24" fill="none" xmlns="http://www.w3.org/2000/svg">
<path fill-rule="evenodd" clip-rule="evenodd" d="M5 3C3.89543 3 3 3.89543 3 5V17C3 19.2091 4.79086 21 7 21H17C19.2091 21 21 19.2091 21 17V8C21 6.89543 20.1046 6 19 6H15.0704C14.4017 6 13.7772 5.6658 13.4063 5.1094L12.5937 3.8906C12.2228 3.3342 11.5983 3 10.9296 3H5ZM8.29289 13.7071C8.10536 13.8946 8 14.149 8 14.4142V16.5C8 16.7761 8.22386 17 8.5 17H10.5858C10.851 17 11.1054 16.8946 11.2929 16.7071L15.2929 12.7071C15.6834 12.3166 15.6834 11.6834 15.2929 11.2929L13.7071 9.70711C13.3166 9.31658 12.6834 9.31658 12.2929 9.70711L8.29289 13.7071Z" fill="#171717"/>
</svg>
