<svg width="24" height="24" viewBox="0 0 24 24" fill="none" xmlns="http://www.w3.org/2000/svg">
<path fill-rule="evenodd" clip-rule="evenodd" d="M5 3C3.89543 3 3 3.89543 3 5V17C3 19.2091 4.79086 21 7 21H17C19.2091 21 21 19.2091 21 17V8C21 6.89543 20.1046 6 19 6H15.0704C14.4017 6 13.7772 5.6658 13.4063 5.1094L12.5937 3.8906C12.2228 3.3342 11.5983 3 10.9296 3H5ZM8.79289 14.2071C8.69702 14.1112 8.62468 14.0007 8.57588 13.8828C8.42591 13.5203 8.49825 13.0875 8.79289 12.7929L11.2929 10.2929C11.6834 9.90237 12.3166 9.90237 12.7071 10.2929C13.0976 10.6834 13.0976 11.3166 12.7071 11.7071L11.9142 12.5H14.5C15.0523 12.5 15.5 12.9477 15.5 13.5C15.5 14.0523 15.0523 14.5 14.5 14.5H11.9142L12.7071 15.2929C13.0976 15.6834 13.0976 16.3166 12.7071 16.7071C12.3166 17.0976 11.6834 17.0976 11.2929 16.7071L8.79289 14.2071Z" fill="#171717"/>
</svg>
