<svg width="24" height="24" viewBox="0 0 24 24" fill="none" xmlns="http://www.w3.org/2000/svg">
<path d="M3 5C3 3.89543 3.89543 3 5 3H10.9296C11.5983 3 12.2228 3.3342 12.5937 3.8906L13.4063 5.1094C13.7772 5.6658 14.4017 6 15.0704 6H19C20.1046 6 21 6.89543 21 8V17C21 19.2091 19.2091 21 17 21H7C4.79086 21 3 19.2091 3 17V5Z" fill="#171717"/>
<path fill-rule="evenodd" clip-rule="evenodd" d="M15.5 13C15.5 13.5523 15.0523 14 14.5 14H9.5C8.94772 14 8.5 13.5523 8.5 13C8.5 12.4477 8.94772 12 9.5 12H14.5C15.0523 12 15.5 12.4477 15.5 13Z" fill="white"/>
</svg>
