<svg width="24" height="24" viewBox="0 0 24 24" fill="none" xmlns="http://www.w3.org/2000/svg">
<path fill-rule="evenodd" clip-rule="evenodd" d="M5 3C3.89543 3 3 3.89543 3 5V17C3 19.2091 4.79086 21 7 21H17C19.2091 21 21 19.2091 21 17V8C21 6.89543 20.1046 6 19 6H15.0704C14.4017 6 13.7772 5.6658 13.4063 5.1094L12.5937 3.8906C12.2228 3.3342 11.5983 3 10.9296 3H5ZM15.2071 12.7929C15.303 12.8888 15.3753 12.9993 15.4241 13.1172C15.5741 13.4797 15.5018 13.9125 15.2071 14.2071L12.7071 16.7071C12.3166 17.0976 11.6834 17.0976 11.2929 16.7071C10.9024 16.3166 10.9024 15.6834 11.2929 15.2929L12.0858 14.5H9.5C8.94772 14.5 8.5 14.0523 8.5 13.5C8.5 12.9477 8.94772 12.5 9.5 12.5H12.0858L11.2929 11.7071C10.9024 11.3166 10.9024 10.6834 11.2929 10.2929C11.6834 9.90237 12.3166 9.90237 12.7071 10.2929L15.2071 12.7929Z" fill="#171717"/>
</svg>
