<svg width="24" height="24" viewBox="0 0 24 24" fill="none" xmlns="http://www.w3.org/2000/svg">
<path fill-rule="evenodd" clip-rule="evenodd" d="M5 3C3.89543 3 3 3.89543 3 5V17C3 19.2091 4.79086 21 7 21H17C19.2091 21 21 19.2091 21 17V8C21 6.89543 20.1046 6 19 6H15.0704C14.4017 6 13.7772 5.6658 13.4063 5.1094L12.5937 3.8906C12.2228 3.3342 11.5983 3 10.9296 3H5ZM10.8519 9.22836C11.4001 9.0013 12.0033 8.94189 12.5853 9.05765C13.1672 9.1734 13.7018 9.45912 14.1213 9.87868C14.5118 10.2692 14.5118 10.9024 14.1213 11.2929C13.7308 11.6834 13.0976 11.6834 12.7071 11.2929C12.5673 11.153 12.3891 11.0578 12.1951 11.0192C12.0011 10.9806 11.8 11.0004 11.6173 11.0761C11.4346 11.1518 11.2784 11.28 11.1685 11.4444C11.0586 11.6089 11 11.8022 11 12V13H15C15.5523 13 16 13.4477 16 14V16C16 16.5523 15.5523 17 15 17H9C8.44772 17 8 16.5523 8 16V14C8 13.4477 8.44772 13 9 13V12C9 11.4067 9.17595 10.8266 9.50559 10.3333C9.83524 9.83994 10.3038 9.45543 10.8519 9.22836Z" fill="#171717"/>
</svg>
