<svg width="24" height="24" viewBox="0 0 24 24" fill="none" xmlns="http://www.w3.org/2000/svg">
<path d="M7 7C7 6.44772 7.44772 6 8 6H16C16.5523 6 17 6.44772 17 7V8L19 8C19.5523 8 20 8.44772 20 9C20 9.55229 19.5523 10 19 10L5 10C4.44771 10 4 9.55228 4 9C4 8.44771 4.44772 8 5 8L7 8V7Z" fill="#171717"/>
<path d="M20 19C20 18.4477 19.5523 18 19 18H17V15C17 14.4477 16.5523 14 16 14H8C7.44772 14 7 14.4477 7 15V18H5C4.44772 18 4 18.4477 4 19C4 19.5523 4.44771 20 5 20L19 20C19.5523 20 20 19.5523 20 19Z" fill="#171717"/>
</svg>
