<svg width="24" height="24" viewBox="0 0 24 24" fill="none" xmlns="http://www.w3.org/2000/svg">
<path d="M19 4C19.5523 4 20 4.44772 20 5L20 19C20 19.5523 19.5523 20 19 20C18.4477 20 18 19.5523 18 19L18 5C18 4.44772 18.4477 4 19 4Z" fill="#171717"/>
<path d="M5 4C5.55228 4 6 4.44772 6 5L6 19C6 19.5523 5.55228 20 5 20C4.44771 20 4 19.5523 4 19L4 5C4 4.44772 4.44772 4 5 4Z" fill="#171717"/>
<path d="M10 7C10 6.44772 10.4477 6 11 6H13C13.5523 6 14 6.44772 14 7V17C14 17.5523 13.5523 18 13 18H11C10.4477 18 10 17.5523 10 17V7Z" fill="#171717"/>
</svg>
