<svg width="24" height="24" viewBox="0 0 24 24" fill="none" xmlns="http://www.w3.org/2000/svg">
<path d="M5 4C5.55228 4 6 4.44772 6 5L6 19C6 19.5523 5.55228 20 5 20C4.44771 20 4 19.5523 4 19L4 5C4 4.44772 4.44772 4 5 4Z" fill="#171717"/>
<path d="M15 4C15.5523 4 16 4.44772 16 5L16 19C16 19.5523 15.5523 20 15 20C14.4477 20 14 19.5523 14 19L14 5C14 4.44772 14.4477 4 15 4Z" fill="#171717"/>
<path d="M4 8C4 7.44772 4.44772 7 5 7H9C9.55228 7 10 7.44772 10 8V16C10 16.5523 9.55228 17 9 17H5C4.44772 17 4 16.5523 4 16V8Z" fill="#171717"/>
<path d="M14 8C14 7.44772 14.4477 7 15 7H17C17.5523 7 18 7.44772 18 8V16C18 16.5523 17.5523 17 17 17H15C14.4477 17 14 16.5523 14 16V8Z" fill="#171717"/>
</svg>
