<svg width="24" height="24" viewBox="0 0 24 24" fill="none" xmlns="http://www.w3.org/2000/svg">
<path d="M20 5C20 4.44772 19.5523 4 19 4H5C4.44772 4 4 4.44772 4 5C4 5.55229 4.44771 6 5 6L19 6C19.5523 6 20 5.55229 20 5Z" fill="#171717"/>
<path d="M6 11C6 10.4477 6.44772 10 7 10H17C17.5523 10 18 10.4477 18 11V13C18 13.5523 17.5523 14 17 14H7C6.44772 14 6 13.5523 6 13V11Z" fill="#171717"/>
<path d="M19 18C19.5523 18 20 18.4477 20 19C20 19.5523 19.5523 20 19 20L5 20C4.44771 20 4 19.5523 4 19C4 18.4477 4.44772 18 5 18L19 18Z" fill="#171717"/>
</svg>
