<svg width="24" height="24" viewBox="0 0 24 24" fill="none" xmlns="http://www.w3.org/2000/svg">
<path d="M8 5C8 4.44772 7.55228 4 7 4C6.44772 4 6 4.44772 6 5V7H5C4.44772 7 4 7.44772 4 8V16C4 16.5523 4.44772 17 5 17H6V19C6 19.5523 6.44772 20 7 20C7.55228 20 8 19.5523 8 19V17H9C9.55228 17 10 16.5523 10 16V8C10 7.44772 9.55228 7 9 7H8V5Z" fill="#171717"/>
<path d="M18 5C18 4.44772 17.5523 4 17 4C16.4477 4 16 4.44772 16 5L16 7C15.4477 7 15 7.44772 15 8V16C15 16.5523 15.4477 17 16 17V19C16 19.5523 16.4477 20 17 20C17.5523 20 18 19.5523 18 19L18 17C18.5523 17 19 16.5523 19 16V8C19 7.44772 18.5523 7 18 7V5Z" fill="#171717"/>
</svg>
