<svg width="24" height="24" viewBox="0 0 24 24" fill="none" xmlns="http://www.w3.org/2000/svg">
<path fill-rule="evenodd" clip-rule="evenodd" d="M12 3C7.02944 3 3 7.02944 3 12V20C3 20.5523 3.44772 21 4 21H12C16.9706 21 21 16.9706 21 12C21 7.02944 16.9706 3 12 3ZM8.79289 11.2929C8.69702 11.3888 8.62468 11.4993 8.57588 11.6172C8.42591 11.9797 8.49825 12.4125 8.79289 12.7071L11.2929 15.2071C11.6834 15.5976 12.3166 15.5976 12.7071 15.2071C13.0976 14.8166 13.0976 14.1834 12.7071 13.7929L11.9142 13H14.5C15.0523 13 15.5 12.5523 15.5 12C15.5 11.4477 15.0523 11 14.5 11H11.9142L12.7071 10.2071C13.0976 9.81658 13.0976 9.18342 12.7071 8.79289C12.3166 8.40237 11.6834 8.40237 11.2929 8.79289L8.79289 11.2929Z" fill="#171717"/>
</svg>
