<svg width="24" height="24" viewBox="0 0 24 24" fill="none" xmlns="http://www.w3.org/2000/svg">
<path fill-rule="evenodd" clip-rule="evenodd" d="M3 12C3 7.02944 7.02944 3 12 3C16.9706 3 21 7.02944 21 12C21 16.9706 16.9706 21 12 21H4C3.44772 21 3 20.5523 3 20V12ZM13.7175 14.7175C13.8531 14.7175 13.9824 14.6905 14.1003 14.6416C14.4626 14.4914 14.7175 14.1342 14.7175 13.7175V10.182C14.7175 9.62967 14.2698 9.18196 13.7175 9.18196C13.1652 9.18196 12.7175 9.62967 12.7175 10.182V11.3033L10.889 9.47485C10.4985 9.08433 9.86536 9.08433 9.47483 9.47485C9.08431 9.86538 9.08431 10.4985 9.47483 10.8891L11.3033 12.7175H10.1819C9.62966 12.7175 9.18194 13.1652 9.18194 13.7175C9.18194 14.2698 9.62966 14.7175 10.1819 14.7175H13.7175Z" fill="#171717"/>
</svg>
