<svg width="24" height="24" viewBox="0 0 24 24" fill="none" xmlns="http://www.w3.org/2000/svg">
<path fill-rule="evenodd" clip-rule="evenodd" d="M12 3C7.02944 3 3 7.02944 3 12V20C3 20.5523 3.44772 21 4 21H12C16.9706 21 21 16.9706 21 12C21 7.02944 16.9706 3 12 3ZM14.7677 10.182C14.7677 10.0464 14.7407 9.91712 14.6918 9.79922C14.5416 9.43687 14.1844 9.182 13.7677 9.182H10.2322C9.67991 9.182 9.23219 9.62972 9.23219 10.182C9.23219 10.7343 9.67991 11.182 10.2322 11.182L11.3535 11.182L9.52509 13.0104C9.13456 13.401 9.13456 14.0341 9.52509 14.4246C9.91561 14.8152 10.5488 14.8152 10.9393 14.4246L12.7677 12.5962V13.7175C12.7677 14.2698 13.2154 14.7175 13.7677 14.7175C14.32 14.7175 14.7677 14.2698 14.7677 13.7175L14.7677 10.182Z" fill="#171717"/>
</svg>
