<svg width="24" height="24" viewBox="0 0 24 24" fill="none" xmlns="http://www.w3.org/2000/svg">
<path fill-rule="evenodd" clip-rule="evenodd" d="M12 3C7.02944 3 3 7.02944 3 12V20C3 20.5523 3.44772 21 4 21H12C16.9706 21 21 16.9706 21 12C21 7.02944 16.9706 3 12 3ZM10.2322 9.18198C10.0966 9.18198 9.96736 9.20897 9.84945 9.25786C9.4871 9.40812 9.23223 9.76529 9.23223 10.182L9.23223 13.7175C9.23223 14.2698 9.67995 14.7175 10.2322 14.7175C10.7845 14.7175 11.2322 14.2698 11.2322 13.7175L11.2322 12.5962L13.0607 14.4246C13.4512 14.8151 14.0843 14.8151 14.4749 14.4246C14.8654 14.0341 14.8654 13.4009 14.4749 13.0104L12.6464 11.182H13.7678C14.3201 11.182 14.7678 10.7343 14.7678 10.182C14.7678 9.6297 14.3201 9.18198 13.7678 9.18198H10.2322Z" fill="#171717"/>
</svg>
