<svg width="24" height="24" viewBox="0 0 24 24" fill="none" xmlns="http://www.w3.org/2000/svg">
<path fill-rule="evenodd" clip-rule="evenodd" d="M12 3C7.02944 3 3 7.02944 3 12V20C3 20.5523 3.44772 21 4 21H12C16.9706 21 21 16.9706 21 12C21 7.02944 16.9706 3 12 3ZM11.2929 8.79289C11.3888 8.69702 11.4993 8.62468 11.6172 8.57588C11.9797 8.42591 12.4125 8.49825 12.7071 8.79289L15.2071 11.2929C15.5976 11.6834 15.5976 12.3166 15.2071 12.7071C14.8166 13.0976 14.1834 13.0976 13.7929 12.7071L13 11.9142V14.5C13 15.0523 12.5523 15.5 12 15.5C11.4477 15.5 11 15.0523 11 14.5V11.9142L10.2071 12.7071C9.81658 13.0976 9.18342 13.0976 8.79289 12.7071C8.40237 12.3166 8.40237 11.6834 8.79289 11.2929L11.2929 8.79289Z" fill="#171717"/>
</svg>
