<svg width="24" height="24" viewBox="0 0 24 24" fill="none" xmlns="http://www.w3.org/2000/svg">
<path d="M3.70711 2.29289C3.31658 1.90237 2.68342 1.90237 2.29289 2.29289C1.90237 2.68342 1.90237 3.31658 2.29289 3.70711L4.65167 6.06588C4.83182 6.24603 4.84643 6.53196 4.69733 6.73854C3.62932 8.2183 3 10.0357 3 12V20C3 20.5523 3.44772 21 4 21H12C13.9643 21 15.7817 20.3707 17.2615 19.3027C17.468 19.1536 17.754 19.1682 17.9341 19.3483L20.2929 21.7071C20.6834 22.0976 21.3166 22.0976 21.7071 21.7071C22.0976 21.3166 22.0976 20.6834 21.7071 20.2929L3.70711 2.29289Z" fill="#171717"/>
<path d="M21 12C21 13.1472 20.7854 14.2442 20.3941 15.2531C20.2696 15.5742 19.8589 15.6447 19.6153 15.4011L8.59887 4.38466C8.35532 4.14112 8.42575 3.73045 8.74687 3.60591C9.75581 3.21463 10.8528 3 12 3C16.9706 3 21 7.02944 21 12Z" fill="#171717"/>
</svg>
