<svg width="24" height="24" viewBox="0 0 24 24" fill="none" xmlns="http://www.w3.org/2000/svg">
<path fill-rule="evenodd" clip-rule="evenodd" d="M12 3C7.02944 3 3 7.02944 3 12V20C3 20.5523 3.44772 21 4 21H12C16.9706 21 21 16.9706 21 12C21 7.02944 16.9706 3 12 3ZM7 10C7 9.44772 7.44772 9 8 9H16C16.5523 9 17 9.44772 17 10C17 10.5523 16.5523 11 16 11H8C7.44772 11 7 10.5523 7 10ZM7 14C7 13.4477 7.44772 13 8 13C8.55228 13 9 13.4477 9 14C9 14.5523 8.55228 15 8 15C7.44772 15 7 14.5523 7 14ZM12 13C11.4477 13 11 13.4477 11 14C11 14.5523 11.4477 15 12 15H16C16.5523 15 17 14.5523 17 14C17 13.4477 16.5523 13 16 13H12Z" fill="#171717"/>
</svg>
