<svg width="24" height="24" viewBox="0 0 24 24" fill="none" xmlns="http://www.w3.org/2000/svg">
<path fill-rule="evenodd" clip-rule="evenodd" d="M12 3C7.02944 3 3 7.02944 3 12V20C3 20.5523 3.44772 21 4 21H12C16.9706 21 21 16.9706 21 12C21 7.02944 16.9706 3 12 3ZM9 8C8.44772 8 8 8.44772 8 9C8 9.55228 8.44772 10 9 10C9.65661 10 10.3068 10.1293 10.9134 10.3806C11.52 10.6319 12.0712 11.0002 12.5355 11.4645C12.9998 11.9288 13.3681 12.48 13.6194 13.0866C13.8707 13.6932 14 14.3434 14 15C14 15.5523 14.4477 16 15 16C15.5523 16 16 15.5523 16 15C16 14.0807 15.8189 13.1705 15.4672 12.3212C15.1154 11.4719 14.5998 10.7003 13.9497 10.0503C13.2997 9.40024 12.5281 8.88463 11.6788 8.53284C10.8295 8.18106 9.91925 8 9 8ZM8 12C8 11.4477 8.44772 11 9 11C9.52529 11 10.0454 11.1035 10.5307 11.3045C11.016 11.5055 11.457 11.8001 11.8284 12.1716C12.1999 12.543 12.4945 12.984 12.6955 13.4693C12.8965 13.9546 13 14.4747 13 15C13 15.5523 12.5523 16 12 16C11.4477 16 11 15.5523 11 15C11 14.7374 10.9483 14.4773 10.8478 14.2346C10.7472 13.992 10.5999 13.7715 10.4142 13.5858C10.2285 13.4001 10.008 13.2528 9.76537 13.1522C9.52272 13.0517 9.26264 13 9 13C8.44772 13 8 12.5523 8 12ZM10 15C10 15.5523 9.55228 16 9 16C8.44772 16 8 15.5523 8 15C8 14.4477 8.44772 14 9 14C9.55228 14 10 14.4477 10 15Z" fill="#171717"/>
</svg>
