<svg width="24" height="24" viewBox="0 0 24 24" fill="none" xmlns="http://www.w3.org/2000/svg">
<path fill-rule="evenodd" clip-rule="evenodd" d="M7 3C4.79086 3 3 4.79086 3 7V18.7765C3 19.597 3.99204 20.008 4.57223 19.4278C6.12671 17.8733 8.23503 17 10.4334 17H17C19.2091 17 21 15.2091 21 13V7C21 4.79086 19.2091 3 17 3H7ZM12 6.5C12.5523 6.5 13 6.94772 13 7.5V9H14.5C15.0523 9 15.5 9.44772 15.5 10C15.5 10.5523 15.0523 11 14.5 11H13V12.5C13 13.0523 12.5523 13.5 12 13.5C11.4477 13.5 11 13.0523 11 12.5V11H9.5C8.94772 11 8.5 10.5523 8.5 10C8.5 9.44772 8.94772 9 9.5 9H11V7.5C11 6.94772 11.4477 6.5 12 6.5Z" fill="#171717"/>
</svg>
