<svg width="24" height="24" viewBox="0 0 24 24" fill="none" xmlns="http://www.w3.org/2000/svg">
<path fill-rule="evenodd" clip-rule="evenodd" d="M3 7C3 4.79086 4.79086 3 7 3H17C19.2091 3 21 4.79086 21 7V13C21 15.2091 19.2091 17 17 17H10.4334C8.23503 17 6.12671 17.8733 4.57223 19.4278C3.99204 20.008 3 19.597 3 18.7765V7ZM9.18198 11.7175C9.18198 11.8531 9.20897 11.9824 9.25786 12.1003C9.40812 12.4627 9.76529 12.7175 10.182 12.7175H13.7175C14.2698 12.7175 14.7175 12.2698 14.7175 11.7175C14.7175 11.1653 14.2698 10.7175 13.7175 10.7175L12.5962 10.7175L14.4246 8.88911C14.8151 8.49858 14.8151 7.86542 14.4246 7.4749C14.0341 7.08437 13.4009 7.08437 13.0104 7.4749L11.182 9.30332V8.182C11.182 7.62972 10.7343 7.182 10.182 7.182C9.6297 7.182 9.18198 7.62972 9.18198 8.182L9.18198 11.7175Z" fill="#171717"/>
</svg>
