<svg width="24" height="24" viewBox="0 0 24 24" fill="none" xmlns="http://www.w3.org/2000/svg">
<path fill-rule="evenodd" clip-rule="evenodd" d="M3 7C3 4.79086 4.79086 3 7 3H17C19.2091 3 21 4.79086 21 7V13C21 15.2091 19.2091 17 17 17H10.4334C8.23503 17 6.12671 17.8733 4.57223 19.4278C3.99204 20.008 3 19.597 3 18.7765V7ZM14.7176 11.7175C14.7176 11.8531 14.6906 11.9824 14.6417 12.1003C14.4914 12.4627 14.1342 12.7175 13.7176 12.7175H10.182C9.62974 12.7175 9.18202 12.2698 9.18202 11.7175C9.18202 11.1653 9.62974 10.7175 10.182 10.7175L11.3033 10.7175L9.47491 8.88911C9.08439 8.49858 9.08439 7.86542 9.47491 7.4749C9.86544 7.08437 10.4986 7.08437 10.8891 7.4749L12.7176 9.30332V8.182C12.7176 7.62972 13.1653 7.182 13.7176 7.182C14.2698 7.182 14.7176 7.62972 14.7176 8.182V11.7175Z" fill="#171717"/>
</svg>
