<svg width="24" height="24" viewBox="0 0 24 24" fill="none" xmlns="http://www.w3.org/2000/svg">
<path d="M3.70711 2.29289C3.31658 1.90237 2.68342 1.90237 2.29289 2.29289C1.90237 2.68342 1.90237 3.31658 2.29289 3.70711L3.27968 4.69389C3.44103 4.85524 3.46957 5.10407 3.3731 5.31086C3.1337 5.82401 3 6.39639 3 7V18.7765C3 19.597 3.99204 20.008 4.57223 19.4278C6.12671 17.8733 8.23503 17 10.4334 17H15.3787C15.5113 17 15.6385 17.0527 15.7322 17.1464L20.2929 21.7071C20.6834 22.0976 21.3166 22.0976 21.7071 21.7071C22.0976 21.3166 22.0976 20.6834 21.7071 20.2929L3.70711 2.29289Z" fill="#171717"/>
<path d="M21 13C21 13.8636 20.7264 14.6632 20.261 15.3169C20.0966 15.5479 19.7669 15.5527 19.5664 15.3522L8.06775 3.85355C7.75277 3.53857 7.97586 3 8.42131 3H17C19.2091 3 21 4.79086 21 7V13Z" fill="#171717"/>
</svg>
