<svg width="24" height="24" viewBox="0 0 24 24" fill="none" xmlns="http://www.w3.org/2000/svg">
<path fill-rule="evenodd" clip-rule="evenodd" d="M7 3C4.79086 3 3 4.79086 3 7V18.7765C3 19.597 3.99204 20.008 4.57223 19.4278C6.12671 17.8733 8.23503 17 10.4334 17H17C19.2091 17 21 15.2091 21 13V7C21 4.79086 19.2091 3 17 3H7ZM16 11C16 10.4477 15.5523 10 15 10V9C15 7.34315 13.6569 6 12 6C10.3431 6 9 7.34315 9 9V10C8.44772 10 8 10.4477 8 11V13C8 13.5523 8.44772 14 9 14H15C15.5523 14 16 13.5523 16 13V11ZM12 8C11.4477 8 11 8.44772 11 9V10H13V9C13 8.44772 12.5523 8 12 8Z" fill="#171717"/>
</svg>
