<svg width="24" height="24" viewBox="0 0 24 24" fill="none" xmlns="http://www.w3.org/2000/svg">
<path fill-rule="evenodd" clip-rule="evenodd" d="M7 3C4.79086 3 3 4.79086 3 7V18.7765C3 19.597 3.99204 20.008 4.57223 19.4278C6.12671 17.8733 8.23503 17 10.4334 17H17C19.2091 17 21 15.2091 21 13V7C21 4.79086 19.2091 3 17 3H7ZM10.8519 6.22836C11.4001 6.0013 12.0033 5.94189 12.5853 6.05765C13.1672 6.1734 13.7018 6.45912 14.1213 6.87868C14.5118 7.26921 14.5118 7.90237 14.1213 8.29289C13.7308 8.68342 13.0976 8.68342 12.7071 8.29289C12.5673 8.15304 12.3891 8.0578 12.1951 8.01922C12.0011 7.98063 11.8 8.00043 11.6173 8.07612C11.4346 8.15181 11.2784 8.27998 11.1685 8.44443C11.0586 8.60888 11 8.80222 11 9V10L15 10C15.5523 10 16 10.4477 16 11V13C16 13.5523 15.5523 14 15 14H9C8.44772 14 8 13.5523 8 13V11C8 10.4477 8.44772 10 9 10V9C9 8.40666 9.17595 7.82664 9.50559 7.33329C9.83524 6.83994 10.3038 6.45543 10.8519 6.22836Z" fill="#171717"/>
</svg>
