<svg width="24" height="24" viewBox="0 0 24 24" fill="none" xmlns="http://www.w3.org/2000/svg">
<path fill-rule="evenodd" clip-rule="evenodd" d="M11 2C9.34315 2 8 3.34315 8 5V15C8 16.6569 9.34315 18 11 18H17C18.6569 18 20 16.6569 20 15V9.24264C20 8.44699 19.6839 7.68393 19.1213 7.12132L14.8787 2.87868C14.3161 2.31607 13.553 2 12.7574 2H11ZM13 8C13 8.55228 13.4477 9 14 9H16.7929C17.2383 9 17.4614 8.46143 17.1464 8.14645L13.8536 4.85355C13.5386 4.53857 13 4.76165 13 5.20711V8Z" fill="#171717"/>
<path fill-rule="evenodd" clip-rule="evenodd" d="M5 5C5.55228 5 6 5.44772 6 6V15C6 17.7614 8.23858 20 11 20H16C16.5523 20 17 20.4477 17 21C17 21.5523 16.5523 22 16 22H11C7.13401 22 4 18.866 4 15V6C4 5.44772 4.44772 5 5 5Z" fill="#171717"/>
</svg>
