<svg width="24" height="24" viewBox="0 0 24 24" fill="none" xmlns="http://www.w3.org/2000/svg">
<path d="M13.3414 17.2444C13.2154 17.3704 13 17.2812 13 17.103L13 10C13 9.44772 12.5522 9 12 9C11.4477 9 11 9.44772 11 10L11 17.1029C11 17.2811 10.7845 17.3703 10.6585 17.2443L8.46446 15.0502C8.07394 14.6597 7.44077 14.6597 7.05025 15.0502C6.65972 15.4408 6.65972 16.0739 7.05025 16.4645L11.2874 20.7016C11.375 20.7906 11.4791 20.8632 11.5948 20.9145C11.7186 20.9695 11.8557 21 12 21C12.1316 21 12.2572 20.9746 12.3723 20.9284C12.4942 20.8796 12.6084 20.8058 12.7071 20.7071L16.9497 16.4645C17.3403 16.0739 17.3403 15.4408 16.9497 15.0502C16.5592 14.6597 15.9261 14.6597 15.5355 15.0502L13.3414 17.2444Z" fill="#171717"/>
<path d="M21 11C21 12.1046 20.1046 13 19 13H16C15.4477 13 15 12.5523 15 12V10C15 8.34315 13.6569 7 12 7C10.3431 7 9 8.34315 9 10V12C9 12.5523 8.55228 13 8 13H5C3.89543 13 3 12.1046 3 11L3 7C3 4.79086 4.79086 3 7 3L17 3C19.2091 3 21 4.79086 21 7V11Z" fill="#171717"/>
</svg>
