<svg width="24" height="24" viewBox="0 0 24 24" fill="none" xmlns="http://www.w3.org/2000/svg">
<path d="M13.3413 11.2444C13.2153 11.3704 12.9999 11.2812 12.9999 11.103V4C12.9999 3.44771 12.5522 3 11.9999 3C11.4476 3 10.9999 3.44771 10.9999 4V11.1029C10.9999 11.2811 10.7845 11.3703 10.6585 11.2443L8.46442 9.05025C8.0739 8.65972 7.44073 8.65972 7.05021 9.05025C6.65968 9.44077 6.65968 10.0739 7.05021 10.4645L11.2874 14.7016C11.375 14.7906 11.4791 14.8632 11.5948 14.9145C11.7186 14.9695 11.8557 15 11.9999 15C12.1315 15 12.2572 14.9746 12.3723 14.9284C12.4941 14.8796 12.6084 14.8058 12.7071 14.7071L16.9497 10.4645C17.3402 10.0739 17.3402 9.44077 16.9497 9.05025C16.5592 8.65972 15.926 8.65972 15.5355 9.05025L13.3413 11.2444Z" fill="#171717"/>
<path d="M4.36707 11.1022C4.73902 10.9782 5.09379 11.2385 5.33133 11.5504C5.41851 11.6649 5.51465 11.7747 5.61867 11.8787L9.85187 16.1119C10.1118 16.3741 10.4211 16.5895 10.7663 16.7427C11.1406 16.9087 11.5536 17 11.9826 17C12.3737 17 12.7521 16.9241 13.1001 16.7844C13.4679 16.6368 13.8109 16.4144 14.104 16.1213L18.3466 11.8787C18.4535 11.7717 18.5579 11.6587 18.6539 11.5408C18.9013 11.2366 19.261 10.9782 19.6329 11.1022C20.4273 11.367 21 12.1166 21 13V17C21 19.2091 19.2091 21 17 21H7C4.79086 21 3 19.2091 3 17V13C3 12.1166 3.5727 11.367 4.36707 11.1022Z" fill="#171717"/>
</svg>
