<svg width="24" height="24" viewBox="0 0 24 24" fill="none" xmlns="http://www.w3.org/2000/svg">
<path d="M3 11C3 8.79086 4.79086 7 7 7H8C8.55228 7 9 7.44772 9 8V12C9 13.6569 10.3431 15 12 15H16C16.5523 15 17 15.4477 17 16V17C17 19.2091 15.2091 21 13 21H7C4.79086 21 3 19.2091 3 17V11Z" fill="#171717"/>
<path d="M18 13C18.5523 13 19 12.5523 19 12C19 11.4477 18.5523 11 18 11H14.8971C14.7189 11 14.6296 10.7846 14.7556 10.6586L20.7071 4.70711C21.0976 4.31658 21.0976 3.68342 20.7071 3.29289C20.3166 2.90237 19.6834 2.90237 19.2929 3.29289L13.3414 9.24437C13.2154 9.37036 13 9.28112 13 9.10294V6C13 5.44771 12.5523 5 12 5C11.4477 5 11 5.44771 11 6V12C11 12.2739 11.1101 12.522 11.2885 12.7026C11.2914 12.7056 11.2944 12.7086 11.2974 12.7116C11.3922 12.8052 11.5011 12.8761 11.6172 12.9241C11.7351 12.973 11.8644 13 12 13H18Z" fill="#171717"/>
</svg>
