<svg width="24" height="24" viewBox="0 0 24 24" fill="none" xmlns="http://www.w3.org/2000/svg">
<path fill-rule="evenodd" clip-rule="evenodd" d="M12 4C10.3431 4 9 5.34315 9 7V10H15V7C15 5.34315 13.6569 4 12 4ZM7 7V10.126C5.27477 10.5701 4 12.1362 4 14V18C4 20.2091 5.79086 22 8 22H16C18.2091 22 20 20.2091 20 18V14C20 12.1362 18.7252 10.5701 17 10.126V7C17 4.23858 14.7614 2 12 2C9.23858 2 7 4.23858 7 7ZM12 12C11.4477 12 11 12.4477 11 13V16C11 16.5523 11.4477 17 12 17C12.5523 17 13 16.5523 13 16V13C13 12.4477 12.5523 12 12 12Z" fill="#171717"/>
</svg>
