<svg width="24" height="24" viewBox="0 0 24 24" fill="none" xmlns="http://www.w3.org/2000/svg">
<path d="M11.2444 10.6587C11.3704 10.7847 11.2812 11.0001 11.103 11.0001L4 11.0001C3.44771 11.0001 3 11.4478 3 12.0001C3 12.5524 3.44771 13.0001 4 13.0001L11.1029 13.0001C11.2811 13.0001 11.3703 13.2155 11.2443 13.3415L9.05025 15.5356C8.65972 15.9261 8.65972 16.5593 9.05025 16.9498C9.44077 17.3403 10.0739 17.3403 10.4645 16.9498L14.7016 12.7126C14.7906 12.625 14.8632 12.5209 14.9145 12.4052C14.9695 12.2814 15 12.1443 15 12.0001C15 11.8685 14.9746 11.7428 14.9284 11.6277C14.8796 11.5059 14.8058 11.3916 14.7071 11.2929L10.4645 7.0503C10.0739 6.65978 9.44077 6.65978 9.05025 7.0503C8.65972 7.44082 8.65972 8.07399 9.05025 8.46451L11.2444 10.6587Z" fill="#171717"/>
<path d="M11.1022 19.6329C10.9782 19.261 11.2385 18.9062 11.5504 18.6687C11.6649 18.5815 11.7747 18.4854 11.8787 18.3813L16.1119 14.1481C16.3741 13.8882 16.5895 13.5789 16.7427 13.2337C16.9087 12.8594 17 12.4464 17 12.0174C17 11.6263 16.9241 11.2479 16.7844 10.8999C16.6368 10.5321 16.4144 10.1891 16.1213 9.89605L11.8787 5.65341C11.7717 5.54647 11.6587 5.44207 11.5408 5.34612C11.2366 5.0987 10.9782 4.73902 11.1022 4.36707C11.367 3.5727 12.1166 3 13 3L17 3C19.2091 3 21 4.79086 21 7V17C21 19.2091 19.2091 21 17 21H13C12.1166 21 11.367 20.4273 11.1022 19.6329Z" fill="#171717"/>
</svg>
