<svg width="24" height="24" viewBox="0 0 24 24" fill="none" xmlns="http://www.w3.org/2000/svg">
<path d="M12.7556 10.6587C12.6296 10.7847 12.7188 11.0001 12.897 11.0001L20 11.0001C20.5523 11.0001 21 11.4478 21 12.0001C21 12.5524 20.5523 13.0001 20 13.0001L12.8971 13.0001C12.7189 13.0001 12.6297 13.2155 12.7557 13.3415L14.9498 15.5356C15.3403 15.9261 15.3403 16.5593 14.9498 16.9498C14.5592 17.3403 13.9261 17.3403 13.5355 16.9498L9.29836 12.7126C9.20942 12.625 9.1368 12.5209 9.08548 12.4052C9.03053 12.2814 9 12.1443 9 12.0001C9 11.8685 9.02542 11.7428 9.07163 11.6277C9.12044 11.5059 9.19419 11.3916 9.2929 11.2929L13.5355 7.0503C13.9261 6.65978 14.5592 6.65978 14.9498 7.0503C15.3403 7.44082 15.3403 8.07399 14.9498 8.46451L12.7556 10.6587Z" fill="#171717"/>
<path d="M12.8978 19.6329C13.0218 19.261 12.7615 18.9062 12.4496 18.6687C12.3351 18.5815 12.2253 18.4854 12.1213 18.3813L7.88813 14.1481C7.62586 13.8882 7.41051 13.5789 7.25735 13.2337C7.09126 12.8594 7 12.4464 7 12.0174C7 11.6263 7.07589 11.2479 7.21561 10.8999C7.36316 10.5321 7.58558 10.1891 7.87868 9.89605L12.1213 5.65341C12.2283 5.54647 12.3413 5.44207 12.4592 5.34612C12.7634 5.0987 13.0218 4.73902 12.8978 4.36707C12.633 3.5727 11.8834 3 11 3L7 3C4.79086 3 3 4.79086 3 7V17C3 19.2091 4.79086 21 7 21H11C11.8834 21 12.633 20.4273 12.8978 19.6329Z" fill="#171717"/>
</svg>
