<svg width="24" height="24" viewBox="0 0 24 24" fill="none" xmlns="http://www.w3.org/2000/svg">
<path d="M9.70711 6.70711C10.0976 6.31658 10.0976 5.68342 9.70711 5.29289C9.31658 4.90237 8.68342 4.90237 8.29289 5.29289L5.29289 8.29289C4.90237 8.68342 4.90237 9.31658 5.29289 9.70711L8.29289 12.7071C8.68342 13.0976 9.31658 13.0976 9.70711 12.7071C10.0976 12.3166 10.0976 11.6834 9.70711 11.2929L8.41421 10H14C15.6569 10 17 11.3431 17 13C17 14.6569 15.6569 16 14 16H6C5.44772 16 5 16.4477 5 17C5 17.5523 5.44772 18 6 18H14C16.7614 18 19 15.7614 19 13C19 10.2386 16.7614 8 14 8H8.41421L9.70711 6.70711Z" fill="black"/>
</svg>
