<svg width="24" height="24" viewBox="0 0 24 24" fill="none" xmlns="http://www.w3.org/2000/svg">
<path fill-rule="evenodd" clip-rule="evenodd" d="M12 4C10.3431 4 9 5.34315 9 7V10H16C18.2091 10 20 11.7909 20 14V18C20 20.2091 18.2091 22 16 22H8C5.79086 22 4 20.2091 4 18V14C4 12.1362 5.27477 10.5701 7 10.126V7C7 4.23858 9.23858 2 12 2C14.7614 2 17 4.23858 17 7C17 7.55228 16.5523 8 16 8C15.4477 8 15 7.55228 15 7C15 5.34315 13.6569 4 12 4ZM12 12C11.4477 12 11 12.4477 11 13V16C11 16.5523 11.4477 17 12 17C12.5523 17 13 16.5523 13 16V13C13 12.4477 12.5523 12 12 12Z" fill="#171717"/>
</svg>
