<svg width="24" height="24" viewBox="0 0 24 24" fill="none" xmlns="http://www.w3.org/2000/svg">
<path d="M18.9241 18.3828C18.8753 18.5007 18.803 18.6112 18.7071 18.7071C18.5126 18.9016 18.2579 18.9992 18.003 19L18 19H10C9.44772 19 9 18.5523 9 18C9 17.4477 9.44772 17 10 17H15.1029C15.2811 17 15.3704 16.7846 15.2444 16.6586L5.29289 6.70711C4.90237 6.31658 4.90237 5.68342 5.29289 5.29289C5.68342 4.90237 6.31658 4.90237 6.70711 5.29289L16.6586 15.2444C16.7846 15.3704 17 15.2811 17 15.1029V10C17 9.44772 17.4477 9 18 9C18.5523 9 19 9.44772 19 10V17.999C19 18.0024 19 18.0058 19 18.0092C18.9988 18.1364 18.9735 18.2634 18.9241 18.3828Z" fill="#171717"/>
<path d="M18.9241 18.3828C18.9719 18.2676 18.9988 18.1415 19 18.0092L18.9241 18.3828Z" fill="#171717"/>
</svg>
