<svg width="32" height="80" viewBox="0 0 32 80" fill="none" xmlns="http://www.w3.org/2000/svg">
<rect x="0.5" y="0.5" width="31" height="79" rx="4.5" stroke="#9747FF" stroke-dasharray="10 5"/>
<path d="M17 9C17 8.44772 16.5523 8 16 8C15.4477 8 15 8.44772 15 9L15 20.1029C15 20.281 14.7846 20.3703 14.6586 20.2443L11.0504 16.636C10.6598 16.2455 10.0267 16.2455 9.63615 16.636C9.24563 17.0266 9.24563 17.6597 9.63615 18.0503L15.293 23.7071C15.6835 24.0976 16.3167 24.0976 16.7072 23.7071L22.3641 18.0503C22.7546 17.6597 22.7546 17.0266 22.3641 16.636C21.9736 16.2455 21.3404 16.2455 20.9499 16.636L17.3414 20.2445C17.2155 20.3705 17 20.2812 17 20.103L17 9Z" fill="#171717"/>
<path d="M13 55C13 54.4477 13.4477 54 14 54H18C18.5523 54 19 54.4477 19 55V64C19 64.5523 19.4477 65 20 65H22.5858C23.4767 65 23.9229 66.0771 23.2929 66.7071L16.3536 73.6464C16.1583 73.8417 15.8417 73.8417 15.6465 73.6464L8.70713 66.7071C8.07716 66.0771 8.52333 65 9.41424 65H12C12.5523 65 13 64.5523 13 64V55Z" fill="#171717"/>
</svg>
