<svg width="32" height="80" viewBox="0 0 32 80" fill="none" xmlns="http://www.w3.org/2000/svg">
<rect x="0.5" y="0.5" width="31" height="79" rx="4.5" stroke="#9747FF" stroke-dasharray="10 5"/>
<path d="M18.0504 9.63615C17.6599 9.24563 17.0267 9.24563 16.6362 9.63615C16.2456 10.0267 16.2456 10.6598 16.6362 11.0504L20.2445 14.6587C20.3705 14.7847 20.2812 15.0001 20.1031 15.0001H9C8.44772 15.0001 8 15.4478 8 16.0001C8 16.5524 8.44772 17.0001 9 17.0001H20.1031C20.2812 17.0001 20.3705 17.2155 20.2445 17.3415L16.6362 20.9499C16.2456 21.3404 16.2456 21.9736 16.6362 22.3641C17.0267 22.7546 17.6599 22.7546 18.0504 22.3641L23.7072 16.7072C24.0978 16.3167 24.0978 15.6835 23.7072 15.293L18.0504 9.63615Z" fill="#171717"/>
<path d="M7 67.0001C6.44771 67.0001 6 66.5524 6 66.0001L6 62.0001C6 61.4478 6.44771 61.0001 7 61.0001L16 61.0001C16.5523 61.0001 17 60.5524 17 60.0001L17 57.4143C17 56.5234 18.0771 56.0772 18.7071 56.7072L25.6464 63.6465C25.8417 63.8418 25.8417 64.1584 25.6464 64.3537L18.7071 71.293C18.0771 71.923 17 71.4768 17 70.5859L17 68.0001C17 67.4478 16.5523 67.0001 16 67.0001L7 67.0001Z" fill="#171717"/>
</svg>
