<svg width="32" height="80" viewBox="0 0 32 80" fill="none" xmlns="http://www.w3.org/2000/svg">
<rect x="0.5" y="0.5" width="31" height="79" rx="4.5" stroke="#9747FF" stroke-dasharray="10 5"/>
<path d="M9.63615 13.9497C9.24563 14.3403 9.24563 14.9734 9.63615 15.364C10.0267 15.7545 10.6598 15.7545 11.0504 15.364L14.6586 11.7557C14.7846 11.6297 15 11.719 15 11.8971L15 23C15 23.5523 15.4477 24 16 24C16.5523 24 17 23.5523 17 23L17 11.897C17 11.7188 17.2155 11.6295 17.3414 11.7555L20.9499 15.364C21.3404 15.7545 21.9736 15.7545 22.3641 15.364C22.7546 14.9734 22.7546 14.3403 22.3641 13.9497L16.7072 8.29289C16.3167 7.90237 15.6835 7.90237 15.293 8.29289L9.63615 13.9497Z" fill="#171717"/>
<path d="M19 73C19 73.5523 18.5523 74 18 74L14 74C13.4477 74 13 73.5523 13 73L13 64C13 63.4477 12.5523 63 12 63L9.41419 63C8.52329 63 8.07712 61.9229 8.70708 61.2929L15.6464 54.3536C15.8417 54.1583 16.1583 54.1583 16.3535 54.3536L23.2929 61.2929C23.9228 61.9229 23.4767 63 22.5858 63L20 63C19.4477 63 19 63.4477 19 64L19 73Z" fill="#171717"/>
</svg>
