<svg width="24" height="24" viewBox="0 0 24 24" fill="none" xmlns="http://www.w3.org/2000/svg">
<path fill-rule="evenodd" clip-rule="evenodd" d="M22 14.5C22 16.9853 19.9853 19 17.5 19H5.5C3.567 19 2 17.433 2 15.5C2 13.7367 3.30381 12.2426 5 12C5 8.13401 8.13401 5 12 5C15.2361 5 17.9593 7.19595 18.7608 10.179C20.6324 10.7242 22 12.4524 22 14.5ZM8.79289 11.7929C8.69702 11.8888 8.62468 11.9993 8.57588 12.1172C8.42591 12.4797 8.49825 12.9125 8.79289 13.2071L11.2929 15.7071C11.6834 16.0976 12.3166 16.0976 12.7071 15.7071C13.0976 15.3166 13.0976 14.6834 12.7071 14.2929L11.9142 13.5H14.5C15.0523 13.5 15.5 13.0523 15.5 12.5C15.5 11.9477 15.0523 11.5 14.5 11.5L11.9142 11.5L12.7071 10.7071C13.0976 10.3166 13.0976 9.68342 12.7071 9.29289C12.3166 8.90237 11.6834 8.90237 11.2929 9.29289L8.79289 11.7929Z" fill="#171717"/>
</svg>
