<svg width="24" height="24" viewBox="0 0 24 24" fill="none" xmlns="http://www.w3.org/2000/svg">
<path fill-rule="evenodd" clip-rule="evenodd" d="M22 14.5C22 16.9853 19.9853 19 17.5 19H5.5C3.567 19 2 17.433 2 15.5C2 13.7367 3.30381 12.2426 5 12C5 8.13401 8.13401 5 12 5C15.2361 5 17.9593 7.19595 18.7608 10.179C20.6324 10.7242 22 12.4524 22 14.5ZM15.2071 13.2071C15.303 13.1112 15.3753 13.0007 15.4241 12.8828C15.5741 12.5203 15.5018 12.0875 15.2071 11.7929L12.7071 9.29289C12.3166 8.90237 11.6834 8.90237 11.2929 9.29289C10.9024 9.68341 10.9024 10.3166 11.2929 10.7071L12.0858 11.5H9.5C8.94772 11.5 8.5 11.9477 8.5 12.5C8.5 13.0523 8.94772 13.5 9.5 13.5H12.0858L11.2929 14.2929C10.9024 14.6834 10.9024 15.3166 11.2929 15.7071C11.6834 16.0976 12.3166 16.0976 12.7071 15.7071L15.2071 13.2071Z" fill="#171717"/>
</svg>
