<svg width="24" height="24" viewBox="0 0 24 24" fill="none" xmlns="http://www.w3.org/2000/svg">
<path fill-rule="evenodd" clip-rule="evenodd" d="M22 14.5C22 16.9853 19.9853 19 17.5 19H5.5C3.567 19 2 17.433 2 15.5C2 13.7367 3.30381 12.2426 5 12C5 8.13401 8.13401 5 12 5C15.2361 5 17.9593 7.19595 18.7608 10.179C20.6324 10.7242 22 12.4524 22 14.5ZM10.2322 9.73224C10.0966 9.73224 9.96735 9.75923 9.84945 9.80812C9.4871 9.95838 9.23223 10.3155 9.23223 10.7322L9.23223 14.2678C9.23223 14.8201 9.67995 15.2678 10.2322 15.2678C10.7845 15.2678 11.2322 14.8201 11.2322 14.2678L11.2322 13.1465L13.0607 14.9749C13.4512 15.3654 14.0843 15.3654 14.4749 14.9749C14.8654 14.5844 14.8654 13.9512 14.4749 13.5607L12.6464 11.7322H13.7678C14.3201 11.7322 14.7678 11.2845 14.7678 10.7322C14.7678 10.18 14.3201 9.73224 13.7678 9.73224H10.2322Z" fill="#171717"/>
</svg>
