<svg width="24" height="24" viewBox="0 0 24 24" fill="none" xmlns="http://www.w3.org/2000/svg">
<path fill-rule="evenodd" clip-rule="evenodd" d="M22 14.5C22 16.9853 19.9853 19 17.5 19H5.5C3.567 19 2 17.433 2 15.5C2 13.7367 3.30381 12.2426 5 12C5 8.13401 8.13401 5 12 5C15.2361 5 17.9593 7.19595 18.7608 10.179C20.6324 10.7242 22 12.4524 22 14.5ZM16 13C16 12.4477 15.5523 12 15 12V11C15 9.34315 13.6569 8 12 8C10.3431 8 9 9.34315 9 11V12C8.44772 12 8 12.4477 8 13V15C8 15.5523 8.44772 16 9 16H15C15.5523 16 16 15.5523 16 15V13ZM12 10C11.4477 10 11 10.4477 11 11V12H13V11C13 10.4477 12.5523 10 12 10Z" fill="#171717"/>
</svg>
