<svg width="24" height="24" viewBox="0 0 24 24" fill="none" xmlns="http://www.w3.org/2000/svg">
<path fill-rule="evenodd" clip-rule="evenodd" d="M22 14.5C22 16.9853 19.9853 19 17.5 19H5.5C3.567 19 2 17.433 2 15.5C2 13.7367 3.30381 12.2426 5 12C5 8.13401 8.13401 5 12 5C15.2361 5 17.9593 7.19595 18.7608 10.179C20.6324 10.7242 22 12.4524 22 14.5ZM11.5 15C12.1028 15 12.6699 14.8476 13.1651 14.5793L14.2929 15.7071C14.6834 16.0976 15.3166 16.0976 15.7071 15.7071C16.0976 15.3166 16.0976 14.6834 15.7071 14.2929L14.5793 13.1651C14.8476 12.6699 15 12.1028 15 11.5C15 9.567 13.433 8 11.5 8C9.567 8 8 9.567 8 11.5C8 13.433 9.567 15 11.5 15ZM11.5 13C12.3284 13 13 12.3284 13 11.5C13 10.6716 12.3284 10 11.5 10C10.6716 10 10 10.6716 10 11.5C10 12.3284 10.6716 13 11.5 13Z" fill="#171717"/>
</svg>
