<svg width="24" height="24" viewBox="0 0 24 24" fill="none" xmlns="http://www.w3.org/2000/svg">
<path fill-rule="evenodd" clip-rule="evenodd" d="M22 14.5C22 16.9853 19.9853 19 17.5 19H5.5C3.567 19 2 17.433 2 15.5C2 13.7367 3.30381 12.2426 5 12C5 8.13401 8.13401 5 12 5C15.2361 5 17.9593 7.19595 18.7608 10.179C20.6324 10.7242 22 12.4524 22 14.5ZM10 8C9.44772 8 9 8.44772 9 9V12.6301C9 12.8688 9.08539 13.0996 9.24074 13.2809L11.2407 15.6142C11.6398 16.0798 12.3602 16.0798 12.7593 15.6142L14.7593 13.2809C14.9146 13.0996 15 12.8688 15 12.6301V9C15 8.44772 14.5523 8 14 8H10Z" fill="#171717"/>
</svg>
