<svg width="24" height="24" viewBox="0 0 24 24" fill="none" xmlns="http://www.w3.org/2000/svg">
<path fill-rule="evenodd" clip-rule="evenodd" d="M5 3C3.89543 3 3 3.89543 3 5V17C3 19.2091 4.79086 21 7 21H17C19.2091 21 21 19.2091 21 17V8C21 6.89543 20.1046 6 19 6H15.0704C14.4017 6 13.7772 5.6658 13.4063 5.1094L12.5937 3.8906C12.2228 3.3342 11.5983 3 10.9296 3H5ZM12 10C12.5523 10 13 10.4477 13 11V13.5858L13.7929 12.7929C14.1834 12.4024 14.8166 12.4024 15.2071 12.7929C15.5976 13.1834 15.5976 13.8166 15.2071 14.2071L12.7071 16.7071C12.5196 16.8946 12.2652 17 12 17C11.7348 17 11.4802 16.8944 11.2926 16.7068L8.79289 14.2071C8.40237 13.8166 8.40237 13.1834 8.79289 12.7929C9.18342 12.4024 9.81658 12.4024 10.2071 12.7929L11 13.5858V11C11 10.4477 11.4477 10 12 10Z" fill="#171717"/>
</svg>
