<svg width="24" height="24" viewBox="0 0 24 24" fill="none" xmlns="http://www.w3.org/2000/svg">
<path fill-rule="evenodd" clip-rule="evenodd" d="M5 3C3.89543 3 3 3.89543 3 5V17C3 19.2091 4.79086 21 7 21H17C19.2091 21 21 19.2091 21 17V8C21 6.89543 20.1046 6 19 6H15.0704C14.4017 6 13.7772 5.6658 13.4063 5.1094L12.5937 3.8906C12.2228 3.3342 11.5983 3 10.9296 3H5ZM9.52513 15.9749C9.1346 15.5843 9.1346 14.9512 9.52513 14.5607L11.3536 12.7322L10.2322 12.7322C9.67995 12.7322 9.23223 12.2845 9.23223 11.7322C9.23223 11.1799 9.67995 10.7322 10.2322 10.7322L13.7678 10.7322C14.033 10.7322 14.2873 10.8376 14.4749 11.0251C14.6624 11.2127 14.7678 11.4674 14.7678 11.7326L14.7678 15.2678C14.7678 15.82 14.3201 16.2678 13.7678 16.2678C13.2155 16.2678 12.7678 15.82 12.7678 15.2678V14.1464L10.9393 15.9749C10.5488 16.3654 9.91565 16.3654 9.52513 15.9749Z" fill="#171717"/>
</svg>
