<svg width="24" height="24" viewBox="0 0 24 24" fill="none" xmlns="http://www.w3.org/2000/svg">
<path fill-rule="evenodd" clip-rule="evenodd" d="M5 3C3.89543 3 3 3.89543 3 5V17C3 19.2091 4.79086 21 7 21H17C19.2091 21 21 19.2091 21 17V8C21 6.89543 20.1046 6 19 6H15.0704C14.4017 6 13.7772 5.6658 13.4063 5.1094L12.5937 3.8906C12.2228 3.3342 11.5983 3 10.9296 3H5ZM9.23227 11.7322C9.23227 11.5966 9.25926 11.4674 9.30815 11.3494C9.45841 10.9871 9.81558 10.7322 10.2323 10.7322H13.7678C14.3201 10.7322 14.7678 11.1799 14.7678 11.7322C14.7678 12.2845 14.3201 12.7322 13.7678 12.7322H12.6465L14.4749 14.5607C14.8654 14.9512 14.8654 15.5843 14.4749 15.9749C14.0844 16.3654 13.4512 16.3654 13.0607 15.9749L11.2323 14.1464V15.2678C11.2323 15.8201 10.7846 16.2678 10.2323 16.2678C9.67999 16.2678 9.23227 15.8201 9.23227 15.2678V11.7322Z" fill="#171717"/>
</svg>
