<svg width="24" height="24" viewBox="0 0 24 24" fill="none" xmlns="http://www.w3.org/2000/svg">
<path fill-rule="evenodd" clip-rule="evenodd" d="M5 3C3.89543 3 3 3.89543 3 5V17C3 19.2091 4.79086 21 7 21H17C19.2091 21 21 19.2091 21 17V8C21 6.89543 20.1046 6 19 6H15.0704C14.4017 6 13.7772 5.6658 13.4063 5.1094L12.5937 3.8906C12.2228 3.3342 11.5983 3 10.9296 3H5ZM13.0607 11.0251C13.4512 10.6346 14.0843 10.6346 14.4749 11.0251C14.8654 11.4157 14.8654 12.0488 14.4749 12.4393L12.6464 14.2678H13.7678C14.3201 14.2678 14.7678 14.7155 14.7678 15.2678C14.7678 15.8201 14.3201 16.2678 13.7678 16.2678L10.2322 16.2678C9.96702 16.2678 9.71266 16.1624 9.52513 15.9749C9.33759 15.7873 9.23223 15.5326 9.23223 15.2674V11.7322C9.23223 11.18 9.67995 10.7322 10.2322 10.7322C10.7845 10.7322 11.2322 11.18 11.2322 11.7322V12.8536L13.0607 11.0251Z" fill="#171717"/>
</svg>
