<svg width="24" height="24" viewBox="0 0 24 24" fill="none" xmlns="http://www.w3.org/2000/svg">
<path d="M3.70711 2.29289C3.31658 1.90237 2.68342 1.90237 2.29289 2.29289C1.90237 2.68342 1.90237 3.31658 2.29289 3.70711L3.06774 4.48196C3.02356 4.64718 3 4.82084 3 5V17C3 19.2091 4.79086 21 7 21H17C17.7418 21 18.4365 20.7981 19.032 20.4462L20.2929 21.7071C20.6834 22.0976 21.3166 22.0976 21.7071 21.7071C22.0976 21.3166 22.0976 20.6834 21.7071 20.2929L3.70711 2.29289Z" fill="#171717"/>
<path d="M21 8V16.7858L7.2142 3H10.9296C11.5983 3 12.2228 3.3342 12.5937 3.8906L13.4063 5.1094C13.7772 5.6658 14.4017 6 15.0704 6H19C20.1046 6 21 6.89543 21 8Z" fill="#171717"/>
</svg>
