<svg width="24" height="24" viewBox="0 0 24 24" fill="none" xmlns="http://www.w3.org/2000/svg">
<path fill-rule="evenodd" clip-rule="evenodd" d="M5 3C3.89543 3 3 3.89543 3 5V17C3 19.2091 4.79086 21 7 21H17C19.2091 21 21 19.2091 21 17V8C21 6.89543 20.1046 6 19 6H15.0704C14.4017 6 13.7772 5.6658 13.4063 5.1094L12.5937 3.8906C12.2228 3.3342 11.5983 3 10.9296 3H5ZM14.7071 15.7071C14.3166 16.0976 13.6834 16.0976 13.2929 15.7071L12 14.4142L10.7071 15.7071C10.3166 16.0976 9.68342 16.0976 9.29289 15.7071C8.90237 15.3166 8.90237 14.6834 9.29289 14.2929L10.5858 13L9.29289 11.7071C8.90237 11.3166 8.90237 10.6834 9.29289 10.2929C9.68342 9.90237 10.3166 9.90237 10.7071 10.2929L12 11.5858L13.2929 10.2929C13.6834 9.90237 14.3166 9.90237 14.7071 10.2929C15.0976 10.6834 15.0976 11.3166 14.7071 11.7071L13.4142 13L14.7071 14.2929C15.0976 14.6834 15.0976 15.3166 14.7071 15.7071Z" fill="#171717"/>
</svg>
