<svg width="24" height="24" viewBox="0 0 24 24" fill="none" xmlns="http://www.w3.org/2000/svg">
<path d="M12 11C11.4477 11 11 11.4477 11 12V13H13V12C13 11.4477 12.5523 11 12 11Z" fill="#171717"/>
<path fill-rule="evenodd" clip-rule="evenodd" d="M5 3C3.89543 3 3 3.89543 3 5V17C3 19.2091 4.79086 21 7 21H17C19.2091 21 21 19.2091 21 17V8C21 6.89543 20.1046 6 19 6H15.0704C14.4017 6 13.7772 5.6658 13.4063 5.1094L12.5937 3.8906C12.2228 3.3342 11.5983 3 10.9296 3H5ZM16 14C16 13.4477 15.5523 13 15 13V12C15 10.3431 13.6569 9 12 9C10.3431 9 9 10.3431 9 12V13C8.44772 13 8 13.4477 8 14V16C8 16.5523 8.44772 17 9 17H15C15.5523 17 16 16.5523 16 16V14Z" fill="#171717"/>
</svg>
