<svg width="24" height="24" viewBox="0 0 24 24" fill="none" xmlns="http://www.w3.org/2000/svg">
<path fill-rule="evenodd" clip-rule="evenodd" d="M5 3C3.89543 3 3 3.89543 3 5V17C3 19.2091 4.79086 21 7 21H17C19.2091 21 21 19.2091 21 17V8C21 6.89543 20.1046 6 19 6H15.0704C14.4017 6 13.7772 5.6658 13.4063 5.1094L12.5937 3.8906C12.2228 3.3342 11.5983 3 10.9296 3H5ZM12 9C10.8954 9 10 9.89543 10 11V12C10 13.1046 10.8954 14 12 14C13.1046 14 14 13.1046 14 12V11C14 9.89543 13.1046 9 12 9ZM9.40193 13.5C9.12579 13.0217 8.5142 12.8578 8.0359 13.134C7.55761 13.4101 7.39374 14.0217 7.66988 14.5C8.10872 15.2601 8.73991 15.8913 9.5 16.3301C10.2601 16.769 11.1223 17 12 17C12.8777 17 13.7399 16.769 14.5 16.3301C15.2601 15.8913 15.8913 15.2601 16.3301 14.5C16.6063 14.0217 16.4424 13.4101 15.9641 13.134C15.4858 12.8578 14.8742 13.0217 14.5981 13.5C14.3348 13.9561 13.9561 14.3348 13.5 14.5981C13.0439 14.8614 12.5266 15 12 15C11.4734 15 10.9561 14.8614 10.5 14.5981C10.0439 14.3348 9.66523 13.9561 9.40193 13.5Z" fill="#171717"/>
</svg>
