<svg width="24" height="24" viewBox="0 0 24 24" fill="none" xmlns="http://www.w3.org/2000/svg">
<path fill-rule="evenodd" clip-rule="evenodd" d="M5 3C3.89543 3 3 3.89543 3 5V17C3 19.2091 4.79086 21 7 21H17C19.2091 21 21 19.2091 21 17V8C21 6.89543 20.1046 6 19 6H15.0704C14.4017 6 13.7772 5.6658 13.4063 5.1094L12.5937 3.8906C12.2228 3.3342 11.5983 3 10.9296 3H5ZM11.2499 10.201C11.478 10.0693 11.7366 10 11.9999 10C12.2633 10 12.5219 10.0693 12.7499 10.201C12.978 10.3326 13.1673 10.522 13.299 10.75C13.4306 10.978 13.4999 11.2367 13.4999 11.5C13.4999 11.7633 13.4306 12.022 13.299 12.25C13.1673 12.478 12.978 12.6674 12.7499 12.799C12.5219 12.9307 12.2633 13 11.9999 13C11.4477 13 10.9999 13.4477 10.9999 14C10.9999 14.5523 11.4477 15 11.9999 15C12.6143 15 13.2179 14.8383 13.7499 14.5311C14.282 14.2239 14.7238 13.7821 15.031 13.25C15.3382 12.7179 15.4999 12.1144 15.4999 11.5C15.4999 10.8856 15.3382 10.2821 15.031 9.75C14.7238 9.21793 14.282 8.7761 13.7499 8.46891C13.2179 8.16172 12.6143 8 11.9999 8C11.3856 8 10.782 8.16172 10.2499 8.46891C9.71788 8.7761 9.27605 9.21793 8.96886 9.75C8.69272 10.2283 8.85659 10.8399 9.33488 11.116C9.81318 11.3922 10.4248 11.2283 10.7009 10.75C10.8326 10.522 11.0219 10.3326 11.2499 10.201ZM12 16C11.4477 16 11 16.4477 11 17C11 17.5523 11.4477 18 12 18C12.5522 18 13 17.5523 13 17C13 16.4477 12.5522 16 12 16Z" fill="#171717"/>
</svg>
