<svg width="24" height="24" viewBox="0 0 24 24" fill="none" xmlns="http://www.w3.org/2000/svg">
<path fill-rule="evenodd" clip-rule="evenodd" d="M5 3C3.89543 3 3 3.89543 3 5V17C3 19.2091 4.79086 21 7 21H17C19.2091 21 21 19.2091 21 17V8C21 6.89543 20.1046 6 19 6H15.0704C14.4017 6 13.7772 5.6658 13.4063 5.1094L12.5937 3.8906C12.2228 3.3342 11.5983 3 10.9296 3H5ZM10 9C9.44772 9 9 9.44772 9 10V13.6301C9 13.8688 9.08539 14.0996 9.24074 14.2809L11.2407 16.6142C11.6398 17.0798 12.3602 17.0798 12.7593 16.6142L14.7593 14.2809C14.9146 14.0996 15 13.8688 15 13.6301V10C15 9.44772 14.5523 9 14 9H10Z" fill="#171717"/>
</svg>
