<svg width="24" height="24" viewBox="0 0 24 24" fill="none" xmlns="http://www.w3.org/2000/svg">
<path fill-rule="evenodd" clip-rule="evenodd" d="M5 3C3.89543 3 3 3.89543 3 5V17C3 19.2091 4.79086 21 7 21H17C19.2091 21 21 19.2091 21 17V8C21 6.89543 20.1046 6 19 6H15.0704C14.4017 6 13.7772 5.6658 13.4063 5.1094L12.5937 3.8906C12.2228 3.3342 11.5983 3 10.9296 3H5ZM14 11C14 10.4477 14.4477 10 15 10C15.5523 10 16 10.4477 16 11V15C16 15.5523 15.5523 16 15 16C14.4477 16 14 15.5523 14 15V11ZM8 15C8 14.4477 8.44772 14 9 14C9.55228 14 10 14.4477 10 15C10 15.5523 9.55228 16 9 16C8.44772 16 8 15.5523 8 15ZM12 12C11.4477 12 11 12.4477 11 13V15C11 15.5523 11.4477 16 12 16C12.5523 16 13 15.5523 13 15V13C13 12.4477 12.5523 12 12 12Z" fill="#171717"/>
</svg>
