<svg width="24" height="24" viewBox="0 0 24 24" fill="none" xmlns="http://www.w3.org/2000/svg">
<path fill-rule="evenodd" clip-rule="evenodd" d="M5 3C3.89543 3 3 3.89543 3 5V17C3 19.2091 4.79086 21 7 21H17C19.2091 21 21 19.2091 21 17V8C21 6.89543 20.1046 6 19 6H15.0704C14.4017 6 13.7772 5.6658 13.4063 5.1094L12.5937 3.8906C12.2228 3.3342 11.5983 3 10.9296 3H5ZM9 9C8.44772 9 8 9.44772 8 10C8 10.5523 8.44772 11 9 11C9.65661 11 10.3068 11.1293 10.9134 11.3806C11.52 11.6319 12.0712 12.0002 12.5355 12.4645C12.9998 12.9288 13.3681 13.48 13.6194 14.0866C13.8707 14.6932 14 15.3434 14 16C14 16.5523 14.4477 17 15 17C15.5523 17 16 16.5523 16 16C16 15.0807 15.8189 14.1705 15.4672 13.3212C15.1154 12.4719 14.5998 11.7003 13.9497 11.0503C13.2997 10.4002 12.5281 9.88463 11.6788 9.53284C10.8295 9.18106 9.91925 9 9 9ZM8 13C8 12.4477 8.44772 12 9 12C9.52529 12 10.0454 12.1035 10.5307 12.3045C11.016 12.5055 11.457 12.8001 11.8284 13.1716C12.1999 13.543 12.4945 13.984 12.6955 14.4693C12.8965 14.9546 13 15.4747 13 16C13 16.5523 12.5523 17 12 17C11.4477 17 11 16.5523 11 16C11 15.7374 10.9483 15.4773 10.8478 15.2346C10.7472 14.992 10.5999 14.7715 10.4142 14.5858C10.2285 14.4001 10.008 14.2528 9.76537 14.1522C9.52272 14.0517 9.26264 14 9 14C8.44772 14 8 13.5523 8 13ZM10 16C10 16.5523 9.55228 17 9 17C8.44772 17 8 16.5523 8 16C8 15.4477 8.44772 15 9 15C9.55228 15 10 15.4477 10 16Z" fill="#171717"/>
</svg>
