<svg width="24" height="24" viewBox="0 0 24 24" fill="none" xmlns="http://www.w3.org/2000/svg">
<path fill-rule="evenodd" clip-rule="evenodd" d="M6 10C4.34315 10 3 8.65685 3 7C3 5.34315 4.34315 4 6 4C7.22657 4 8.28121 4.7361 8.74627 5.79065C8.82118 5.96052 8.96904 6.0903 9.14976 6.13283C10.3066 6.40506 11.3085 7.07907 12 7.99952C12.6916 7.07907 13.6934 6.40506 14.8502 6.13283C15.031 6.0903 15.1788 5.96052 15.2537 5.79065C15.7188 4.7361 16.7734 4 18 4C19.6569 4 21 5.34315 21 7C21 8.65685 19.6569 10 18 10C16.8924 10 15.925 9.39977 15.4053 8.50684C15.2773 8.28681 15.0219 8.15157 14.7891 8.25443C13.7354 8.71984 13 9.77405 13 11V13.8171C13 14.029 13.1356 14.2143 13.3256 14.308C14.3176 14.7975 15 15.819 15 17C15 18.6569 13.6569 20 12 20C10.3431 20 9 18.6569 9 17C9 15.819 9.68238 14.7975 10.6744 14.308C10.8644 14.2143 11 14.029 11 13.8171V11C11 9.77405 10.2646 8.71985 9.21094 8.25443C8.97806 8.15157 8.72274 8.28681 8.59468 8.50685C8.075 9.39977 7.1076 10 6 10ZM12 16C11.4477 16 11 16.4477 11 17C11 17.5523 11.4477 18 12 18C12.5523 18 13 17.5523 13 17C13 16.4477 12.5523 16 12 16ZM6 8C5.44772 8 5 7.55228 5 7C5 6.44772 5.44772 6 6 6C6.55228 6 7 6.44772 7 7C7 7.55228 6.55228 8 6 8ZM17 7C17 7.55228 17.4477 8 18 8C18.5523 8 19 7.55228 19 7C19 6.44772 18.5523 6 18 6C17.4477 6 17 6.44772 17 7Z" fill="#171717"/>
</svg>
