<svg width="24" height="24" viewBox="0 0 24 24" fill="none" xmlns="http://www.w3.org/2000/svg">
<path fill-rule="evenodd" clip-rule="evenodd" d="M15.308 8.32564C15.2143 8.1356 15.029 8 14.8171 8L10 8C8.34315 8 7 9.34315 7 11L7 13.8171C7 14.029 7.1356 14.2143 7.32563 14.308C7.91788 14.6002 8.39977 15.0821 8.69197 15.6744C8.78573 15.8644 8.97097 16 9.18288 16H14.8171C15.029 16 15.2143 15.8644 15.308 15.6744C15.7975 14.6824 16.819 14 18 14C19.6569 14 21 15.3431 21 17C21 18.6569 19.6569 20 18 20C16.819 20 15.7975 19.3176 15.308 18.3256C15.2143 18.1356 15.029 18 14.8171 18H9.18288C8.97097 18 8.78573 18.1356 8.69197 18.3256C8.20255 19.3176 7.18096 20 6 20C4.34315 20 3 18.6569 3 17C3 15.819 3.68238 14.7975 4.67436 14.308C4.8644 14.2143 5 14.029 5 13.8171L5 11C5 8.23858 7.23858 6 10 6L14.8171 6C15.029 6 15.2143 5.8644 15.308 5.67436C15.7975 4.68238 16.819 4 18 4C19.6569 4 21 5.34315 21 7C21 8.65685 19.6569 10 18 10C16.819 10 15.7975 9.31762 15.308 8.32564ZM18 6C17.4477 6 17 6.44772 17 7C17 7.55229 17.4477 8 18 8C18.5523 8 19 7.55229 19 7C19 6.44772 18.5523 6 18 6ZM18 18C17.4477 18 17 17.5523 17 17C17 16.4477 17.4477 16 18 16C18.5523 16 19 16.4477 19 17C19 17.5523 18.5523 18 18 18ZM6 16C5.44772 16 5 16.4477 5 17C5 17.5523 5.44772 18 6 18C6.55228 18 7 17.5523 7 17C7 16.4477 6.55228 16 6 16Z" fill="#171717"/>
</svg>
