<svg width="24" height="24" viewBox="0 0 24 24" fill="none" xmlns="http://www.w3.org/2000/svg">
<path fill-rule="evenodd" clip-rule="evenodd" d="M15.6064 14.1922C16.4816 13.0236 17 11.5723 17 10C17 6.13401 13.866 3 10 3C6.13401 3 3 6.13401 3 10C3 13.866 6.13401 17 10 17C11.5723 17 13.0236 16.4816 14.1922 15.6064L18.2929 19.7071C18.6834 20.0976 19.3166 20.0976 19.7071 19.7071C20.0976 19.3166 20.0976 18.6834 19.7071 18.2929L15.6064 14.1922ZM15 10C15 12.7614 12.7614 15 10 15C7.23858 15 5 12.7614 5 10C5 7.23858 7.23858 5 10 5C12.7614 5 15 7.23858 15 10ZM8 9C7.44772 9 7 9.44772 7 10C7 10.5523 7.44772 11 8 11H12C12.5523 11 13 10.5523 13 10C13 9.44772 12.5523 9 12 9H8Z" fill="#171717"/>
</svg>
