<svg width="24" height="24" viewBox="0 0 24 24" fill="none" xmlns="http://www.w3.org/2000/svg">
<path fill-rule="evenodd" clip-rule="evenodd" d="M21 12C21 16.9706 16.9706 21 12 21C7.02944 21 3 16.9706 3 12C3 7.02944 7.02944 3 12 3C16.9706 3 21 7.02944 21 12ZM12 7C11.1223 7 10.2601 7.23103 9.5 7.66987C8.7399 8.10871 8.10871 8.7399 7.66987 9.5C7.23103 10.2601 7 11.1223 7 12C7 12.5427 7.08833 13.0795 7.25951 13.5899C7.43512 14.1135 7.28214 14.7239 6.80385 15C6.32556 15.2761 5.7065 15.114 5.50127 14.6012C5.17126 13.7768 5 12.8941 5 12C5 10.7712 5.32344 9.56413 5.93782 8.5C6.5522 7.43587 7.43587 6.5522 8.5 5.93782C9.56413 5.32344 10.7712 5 12 5C13.2288 5 14.4359 5.32344 15.5 5.93782C16.5641 6.5522 17.4478 7.43587 18.0622 8.5C18.6766 9.56413 19 10.7712 19 12C19 12.8941 18.8287 13.7768 18.4987 14.6012C18.2935 15.114 17.6744 15.2761 17.1962 15C16.7179 14.7239 16.5649 14.1135 16.7405 13.5899C16.9117 13.0795 17 12.5427 17 12C17 11.1223 16.769 10.2601 16.3301 9.5C15.8913 8.7399 15.2601 8.10872 14.5 7.66987C13.7399 7.23103 12.8777 7 12 7ZM10 13C9.44772 13 9 13.4477 9 14C9 14.5523 9.44772 15 10 15H14C14.5523 15 15 14.5523 15 14C15 13.4477 14.5523 13 14 13H10Z" fill="#171717"/>
</svg>
