<svg width="24" height="24" viewBox="0 0 24 24" fill="none" xmlns="http://www.w3.org/2000/svg">
<path d="M7 3C4.79086 3 3 4.79086 3 7V17C3 19.2091 4.79086 21 7 21H17C19.2091 21 21 19.2091 21 17V7C21 6.71342 20.9699 6.43387 20.9126 6.16436C20.7768 5.52529 19.9962 5.41799 19.5342 5.87998L11.7556 13.6586C11.6296 13.7846 11.7189 14 11.8971 14H15C15.5523 14 16 14.4477 16 15C16 15.5523 15.5523 16 15 16H9C8.44772 16 8 15.5523 8 15V9C8 8.44772 8.44772 8 9 8C9.55228 8 10 8.44772 10 9V12.1029C10 12.2811 10.2154 12.3704 10.3414 12.2444L18.12 4.46576C18.582 4.00378 18.4747 3.22324 17.8356 3.08742C17.5661 3.03014 17.2866 3 17 3H7Z" fill="#171717"/>
</svg>
