<svg width="24" height="24" viewBox="0 0 24 24" fill="none" xmlns="http://www.w3.org/2000/svg">
<path d="M7 3C4.79086 3 3 4.79086 3 7V10C3 10.5523 3.44772 11 4 11L12.1029 11C12.2811 11 12.3704 10.7846 12.2444 10.6586L10.2929 8.70711C9.90237 8.31658 9.90237 7.68342 10.2929 7.29289C10.6834 6.90237 11.3166 6.90237 11.7071 7.29289L15.7069 11.2927C15.888 11.4737 16 11.7238 16 12C16 12.2766 15.8877 12.5269 15.7063 12.708L11.7071 16.7071C11.3166 17.0976 10.6834 17.0976 10.2929 16.7071C9.90237 16.3166 9.90237 15.6834 10.2929 15.2929L12.2444 13.3414C12.3704 13.2154 12.2811 13 12.1029 13L4 13C3.44772 13 3 13.4477 3 14V17C3 19.2091 4.79086 21 7 21H17C19.2091 21 21 19.2091 21 17V7C21 4.79086 19.2091 3 17 3H7Z" fill="#171717"/>
</svg>
