<svg width="24" height="24" viewBox="0 0 24 24" fill="none" xmlns="http://www.w3.org/2000/svg">
<path d="M9 2C10.1046 2 11 2.89543 11 4V6.4007C11 6.78579 11.4363 7.04223 11.8199 7.008C11.8792 7.0027 11.9393 7 12 7C12.6422 7 13.2137 7.30268 13.5796 7.77316C13.7804 8.03125 14.157 8.15634 14.4725 8.0703C14.6405 8.02447 14.8174 8 15 8C15.7713 8 16.4406 8.43659 16.7743 9.07612C16.9077 9.33183 17.1917 9.5029 17.4802 9.5001C17.4868 9.50003 17.4934 9.5 17.5 9.5C18.6046 9.5 19.5 10.3954 19.5 11.5V14.25C19.5 18.5302 16.0302 22 11.75 22C7.46979 22 4 18.5302 4 14.25V13C4 11.8954 4.89543 11 6 11C6.0607 11 6.12077 11.0027 6.1801 11.008C6.56366 11.0422 7 10.7858 7 10.4007L7 4C7 2.89543 7.89543 2 9 2Z" fill="#171717"/>
</svg>
