<svg width="24" height="24" viewBox="0 0 24 24" fill="none" xmlns="http://www.w3.org/2000/svg">
<path fill-rule="evenodd" clip-rule="evenodd" d="M12 3C7.02944 3 3 7.02944 3 12C3 16.9706 7.02944 21 12 21C16.9706 21 21 16.9706 21 12C21 7.02944 16.9706 3 12 3ZM11 7C11 6.44772 11.4477 6 12 6C12.5523 6 13 6.44772 13 7V11.1339C13 11.3126 13.0953 11.4776 13.25 11.5669L15.5329 12.885C16.0112 13.1611 16.175 13.7727 15.8989 14.251C15.6228 14.7293 15.0112 14.8932 14.5329 14.617L11.5184 12.8766C11.2094 12.7065 11 12.3777 11 12V7Z" fill="#171717"/>
</svg>
