<svg width="24" height="24" viewBox="0 0 24 24" fill="none" xmlns="http://www.w3.org/2000/svg">
<path fill-rule="evenodd" clip-rule="evenodd" d="M12 3C16.9706 3 21 7.02944 21 12C21 16.9706 16.9706 21 12 21C7.02944 21 3 16.9706 3 12C3 7.02944 7.02944 3 12 3ZM13 7C13 6.44772 12.5523 6 12 6C11.4477 6 11 6.44772 11 7V11.1339C11 11.3126 10.9047 11.4776 10.75 11.5669L8.46712 12.885C7.98883 13.1611 7.82496 13.7727 8.1011 14.251C8.37724 14.7293 8.98883 14.8932 9.46712 14.617L12.4816 12.8766C12.7906 12.7065 13 12.3777 13 12V7Z" fill="#171717"/>
</svg>
