<svg width="24" height="24" viewBox="0 0 24 24" fill="none" xmlns="http://www.w3.org/2000/svg">
<path fill-rule="evenodd" clip-rule="evenodd" d="M9.18288 6C8.97097 6 8.78573 5.8644 8.69197 5.67436C8.20255 4.68238 7.18096 4 6 4C4.34315 4 3 5.34315 3 7C3 8.65685 4.34315 10 6 10C7.18096 10 8.20255 9.31762 8.69197 8.32564C8.78573 8.1356 8.97097 8 9.18288 8L14 8C15.6569 8 17 9.34315 17 11V13.8171C17 14.029 16.8644 14.2143 16.6744 14.308C16.0821 14.6002 15.6002 15.0821 15.308 15.6744C15.2143 15.8644 15.029 16 14.8171 16H9.18288C8.97097 16 8.78573 15.8644 8.69197 15.6744C8.20255 14.6824 7.18096 14 6 14C4.34315 14 3 15.3431 3 17C3 18.6569 4.34315 20 6 20C7.18096 20 8.20255 19.3176 8.69197 18.3256C8.78573 18.1356 8.97097 18 9.18288 18H14.8171C15.029 18 15.2143 18.1356 15.308 18.3256C15.7975 19.3176 16.819 20 18 20C19.6569 20 21 18.6569 21 17C21 15.819 20.3176 14.7975 19.3256 14.308C19.1356 14.2143 19 14.029 19 13.8171V11C19 8.23858 16.7614 6 14 6L9.18288 6ZM6 6C6.55228 6 7 6.44772 7 7C7 7.55229 6.55228 8 6 8C5.44772 8 5 7.55229 5 7C5 6.44772 5.44772 6 6 6ZM6 16C6.55228 16 7 16.4477 7 17C7 17.5523 6.55228 18 6 18C5.44772 18 5 17.5523 5 17C5 16.4477 5.44772 16 6 16ZM17 17C17 17.5523 17.4477 18 18 18C18.5523 18 19 17.5523 19 17C19 16.4477 18.5523 16 18 16C17.4477 16 17 16.4477 17 17Z" fill="#171717"/>
</svg>
