<svg width="24" height="24" viewBox="0 0 24 24" fill="none" xmlns="http://www.w3.org/2000/svg">
<path fill-rule="evenodd" clip-rule="evenodd" d="M12 4C10.3431 4 9 5.34315 9 7C9 8.18096 9.68238 9.20255 10.6744 9.69197C10.8644 9.78573 11 9.97097 11 10.1829V13C11 14.226 10.2646 15.2802 9.21094 15.7456C8.97806 15.8484 8.72274 15.7132 8.59468 15.4932C8.075 14.6002 7.10759 14 6 14C4.34315 14 3 15.3431 3 17C3 18.6569 4.34315 20 6 20C7.18096 20 8.20255 19.3176 8.69197 18.3256C8.78573 18.1356 8.97097 18 9.18288 18H14.8171C15.029 18 15.2143 18.1356 15.308 18.3256C15.7975 19.3176 16.819 20 18 20C19.6569 20 21 18.6569 21 17C21 15.3431 19.6569 14 18 14C16.819 14 15.7975 14.6824 15.308 15.6744C15.2143 15.8644 15.029 16 14.8171 16H12.0004C12.6281 15.1643 13 14.1256 13 13V10.1829C13 9.97097 13.1356 9.78573 13.3256 9.69197C14.3176 9.20255 15 8.18096 15 7C15 5.34315 13.6569 4 12 4ZM12 8C12.5523 8 13 7.55229 13 7C13 6.44772 12.5523 6 12 6C11.4477 6 11 6.44772 11 7C11 7.55221 11.4478 7.99988 12 8ZM18 18C17.4477 18 17 17.5523 17 17C17 16.4477 17.4477 16 18 16C18.5523 16 19 16.4477 19 17C19 17.5523 18.5523 18 18 18ZM6 16C5.44772 16 5 16.4477 5 17C5 17.5523 5.44772 18 6 18C6.55228 18 7 17.5523 7 17C7 16.4477 6.55228 16 6 16Z" fill="#171717"/>
</svg>
