<svg width="24" height="24" viewBox="0 0 24 24" fill="none" xmlns="http://www.w3.org/2000/svg">
<path fill-rule="evenodd" clip-rule="evenodd" d="M9.30803 10.6744C9.21427 10.8644 9.02903 11 8.81712 11L4 11C3.44772 11 3 11.4477 3 12C3 12.5523 3.44772 13 4 13H8.81712C9.02903 13 9.21427 13.1356 9.30803 13.3256C9.79745 14.3176 10.819 15 12 15C13.181 15 14.2025 14.3176 14.692 13.3256C14.7857 13.1356 14.971 13 15.1829 13H20C20.5523 13 21 12.5523 21 12C21 11.4477 20.5523 11 20 11L15.1829 11C14.971 11 14.7857 10.8644 14.692 10.6744C14.2025 9.68238 13.181 9 12 9C10.819 9 9.79745 9.68238 9.30803 10.6744ZM11 12C11 12.5523 11.4477 13 12 13C12.5523 13 13 12.5523 13 12C13 11.4477 12.5523 11 12 11C11.4477 11 11 11.4477 11 12Z" fill="#171717"/>
</svg>
