<svg width="24" height="24" viewBox="0 0 24 24" fill="none" xmlns="http://www.w3.org/2000/svg">
<path fill-rule="evenodd" clip-rule="evenodd" d="M12 4C12 2.34315 13.3431 1 15 1H21C22.6569 1 24 2.34315 24 4V10C24 11.6569 22.6569 13 21 13H15C13.3431 13 12 11.6569 12 10V4ZM21.4241 7.38278C21.3753 7.50073 21.303 7.61123 21.2071 7.70711L18.7071 10.2071C18.3166 10.5976 17.6834 10.5976 17.2929 10.2071C16.9024 9.81658 16.9024 9.18342 17.2929 8.79289L18.0858 8H15.5C14.9477 8 14.5 7.55228 14.5 7C14.5 6.44771 14.9477 6 15.5 6H18.0858L17.2929 5.20711C16.9024 4.81658 16.9024 4.18342 17.2929 3.79289C17.6834 3.40237 18.3166 3.40237 18.7071 3.79289L21.2071 6.29289C21.5018 6.58754 21.5741 7.02031 21.4241 7.38278Z" fill="#171717"/>
<path d="M5 5H11V10C11 10.2813 11.029 10.5559 11.0843 10.8208L10 11.7079L5.13324 7.72604C4.70579 7.37631 4.07577 7.43932 3.72604 7.86676C3.37631 8.29421 3.43932 8.92423 3.86676 9.27396L9.36676 13.774C9.73513 14.0753 10.2649 14.0753 10.6332 13.774L12.0051 12.6516C12.7379 13.4787 13.8081 14 15 14H19V15C19 17.2091 17.2091 19 15 19H5C2.79086 19 1 17.2091 1 15V9C1 6.79086 2.79086 5 5 5Z" fill="#171717"/>
</svg>
