<svg width="24" height="24" viewBox="0 0 24 24" fill="none" xmlns="http://www.w3.org/2000/svg">
<path fill-rule="evenodd" clip-rule="evenodd" d="M12 4C12 2.34315 13.3431 1 15 1H21C22.6569 1 24 2.34315 24 4V10C24 11.6569 22.6569 13 21 13H15C13.3431 13 12 11.6569 12 10V4ZM20.6918 4.84945C20.7407 4.96736 20.7677 5.09664 20.7677 5.23223V8.76777C20.7677 9.32005 20.32 9.76777 19.7677 9.76777C19.2154 9.76777 18.7677 9.32005 18.7677 8.76777V7.64645L16.9393 9.47487C16.5488 9.8654 15.9156 9.8654 15.5251 9.47487C15.1346 9.08435 15.1346 8.45118 15.5251 8.06066L17.3535 6.23223L16.2322 6.23223C15.6799 6.23223 15.2322 5.78452 15.2322 5.23223C15.2322 4.67995 15.6799 4.23223 16.2322 4.23223L19.7677 4.23223C20.1844 4.23223 20.5416 4.4871 20.6918 4.84945Z" fill="#171717"/>
<path d="M5 5H11V10C11 10.2813 11.029 10.5559 11.0843 10.8208L10 11.7079L5.13324 7.72604C4.70579 7.37631 4.07577 7.43932 3.72604 7.86676C3.37631 8.29421 3.43932 8.92423 3.86676 9.27396L9.36676 13.774C9.73513 14.0753 10.2649 14.0753 10.6332 13.774L12.0051 12.6516C12.7379 13.4787 13.8081 14 15 14H19V15C19 17.2091 17.2091 19 15 19H5C2.79086 19 1 17.2091 1 15V9C1 6.79086 2.79086 5 5 5Z" fill="#171717"/>
</svg>
