<svg width="24" height="24" viewBox="0 0 24 24" fill="none" xmlns="http://www.w3.org/2000/svg">
<path fill-rule="evenodd" clip-rule="evenodd" d="M12 4C12 2.34315 13.3431 1 15 1H21C22.6569 1 24 2.34315 24 4V10C24 11.6569 22.6569 13 21 13H15C13.3431 13 12 11.6569 12 10V4ZM15.8494 4.30809C15.9674 4.2592 16.0966 4.23221 16.2322 4.23221H19.7678C20.3201 4.23221 20.7678 4.67993 20.7678 5.23221C20.7678 5.7845 20.3201 6.23221 19.7678 6.23221L18.6464 6.23221L20.4749 8.06064C20.8654 8.45116 20.8654 9.08433 20.4749 9.47485C20.0843 9.86538 19.4512 9.86538 19.0607 9.47485L17.2322 7.64643V8.76775C17.2322 9.32003 16.7845 9.76775 16.2322 9.76775C15.6799 9.76775 15.2322 9.32003 15.2322 8.76775V5.23221C15.2322 4.81552 15.4871 4.45835 15.8494 4.30809Z" fill="#171717"/>
<path d="M5 5H11V10C11 10.2813 11.029 10.5559 11.0843 10.8208L10 11.7079L5.13324 7.72604C4.70579 7.37631 4.07577 7.43932 3.72604 7.86676C3.37631 8.29421 3.43932 8.92423 3.86676 9.27396L9.36676 13.774C9.73513 14.0753 10.2649 14.0753 10.6332 13.774L12.0051 12.6516C12.7379 13.4787 13.8081 14 15 14H19V15C19 17.2091 17.2091 19 15 19H5C2.79086 19 1 17.2091 1 15V9C1 6.79086 2.79086 5 5 5Z" fill="#171717"/>
</svg>
