<svg width="24" height="24" viewBox="0 0 24 24" fill="none" xmlns="http://www.w3.org/2000/svg">
<path fill-rule="evenodd" clip-rule="evenodd" d="M3.70711 2.29289C3.31658 1.90237 2.68342 1.90237 2.29289 2.29289C1.90237 2.68342 1.90237 3.31658 2.29289 3.70711L4.47958 5.89379C3.57683 6.6272 3 7.74624 3 9V15C3 17.2091 4.79086 19 7 19H17C17.1861 19 17.3692 18.9873 17.5485 18.9627L20.2929 21.7071C20.6834 22.0976 21.3166 22.0976 21.7071 21.7071C22.0976 21.3166 22.0976 20.6834 21.7071 20.2929L3.70711 2.29289ZM12.4691 13.8833L6.14917 7.56339C5.98903 7.6232 5.8421 7.72491 5.72604 7.86676C5.37631 8.29421 5.43932 8.92423 5.86676 9.27396L11.3668 13.774C11.6833 14.0329 12.119 14.0694 12.4691 13.8833Z" fill="#171717"/>
<path d="M18.1332 9.27396L16.0061 11.0144C15.7771 11.2017 15.7599 11.5457 15.9691 11.7549L20.1763 15.9621C20.4297 16.2155 20.8565 16.1247 20.9253 15.7731C20.9743 15.523 21 15.2645 21 15V9C21 6.79086 19.2091 5 17 5H10.4213C9.97586 5 9.75277 5.53857 10.0678 5.85355L13.8372 9.62301C14.0189 9.80465 14.3086 9.8191 14.5074 9.65644L16.8668 7.72604C17.2942 7.37631 17.9242 7.43932 18.274 7.86676C18.6237 8.29421 18.5607 8.92423 18.1332 9.27396Z" fill="#171717"/>
</svg>
