<svg width="24" height="24" viewBox="0 0 24 24" fill="none" xmlns="http://www.w3.org/2000/svg">
<path d="M11 5H5C2.79086 5 1 6.79086 1 9V15C1 17.2091 2.79086 19 5 19H15C17.2091 19 19 17.2091 19 15V14H15C13.8081 14 12.7379 13.4787 12.0051 12.6516L10.6332 13.774C10.2649 14.0753 9.73513 14.0753 9.36676 13.774L3.86676 9.27396C3.43932 8.92423 3.37631 8.29421 3.72604 7.86676C4.07577 7.43932 4.70579 7.37631 5.13324 7.72604L10 11.7079L11.0843 10.8208C11.029 10.5559 11 10.2813 11 10V5Z" fill="#171717"/>
<path fill-rule="evenodd" clip-rule="evenodd" d="M15 1C13.3431 1 12 2.34315 12 4V10C12 11.6569 13.3431 13 15 13H21C22.6569 13 24 11.6569 24 10V4C24 2.34315 22.6569 1 21 1H15ZM20.7071 9.70711C20.3166 10.0976 19.6834 10.0976 19.2929 9.70711L18 8.41421L16.7071 9.70711C16.3166 10.0976 15.6834 10.0976 15.2929 9.70711C14.9024 9.31658 14.9024 8.68342 15.2929 8.29289L16.5858 7L15.2929 5.70711C14.9024 5.31658 14.9024 4.68342 15.2929 4.29289C15.6834 3.90237 16.3166 3.90237 16.7071 4.29289L18 5.58579L19.2929 4.29289C19.6834 3.90237 20.3166 3.90237 20.7071 4.29289C21.0976 4.68342 21.0976 5.31658 20.7071 5.70711L19.4142 7L20.7071 8.29289C21.0976 8.68342 21.0976 9.31658 20.7071 9.70711Z" fill="#171717"/>
</svg>
