<svg width="24" height="24" viewBox="0 0 24 24" fill="none" xmlns="http://www.w3.org/2000/svg">
<path d="M11 5H5C2.79086 5 1 6.79086 1 9V15C1 17.2091 2.79086 19 5 19H15C17.2091 19 19 17.2091 19 15V14H15C13.8081 14 12.7379 13.4787 12.0051 12.6516L10.6332 13.774C10.2649 14.0753 9.73513 14.0753 9.36676 13.774L3.86676 9.27396C3.43932 8.92423 3.37631 8.29421 3.72604 7.86676C4.07577 7.43932 4.70579 7.37631 5.13324 7.72604L10 11.7079L11.0843 10.8208C11.029 10.5559 11 10.2813 11 10V5Z" fill="#171717"/>
<path fill-rule="evenodd" clip-rule="evenodd" d="M15 1C13.3431 1 12 2.34315 12 4V10C12 11.6569 13.3431 13 15 13H21C22.6569 13 24 11.6569 24 10V4C24 2.34315 22.6569 1 21 1H15ZM22 8C22 7.44772 21.5523 7 21 7V6C21 4.34315 19.6569 3 18 3C16.3431 3 15 4.34315 15 6V7C14.4477 7 14 7.44772 14 8V10C14 10.5523 14.4477 11 15 11H21C21.5523 11 22 10.5523 22 10V8ZM18 5C17.4477 5 17 5.44772 17 6V7H19V6C19 5.44772 18.5523 5 18 5Z" fill="#171717"/>
</svg>
