<svg width="24" height="24" viewBox="0 0 24 24" fill="none" xmlns="http://www.w3.org/2000/svg">
<path d="M11 5H5C2.79086 5 1 6.79086 1 9V15C1 17.2091 2.79086 19 5 19H15C17.2091 19 19 17.2091 19 15V14H15C13.8081 14 12.7379 13.4787 12.0051 12.6516L10.6332 13.774C10.2649 14.0753 9.73513 14.0753 9.36676 13.774L3.86676 9.27396C3.43932 8.92423 3.37631 8.29421 3.72604 7.86676C4.07577 7.43932 4.70579 7.37631 5.13324 7.72604L10 11.7079L11.0843 10.8208C11.029 10.5559 11 10.2813 11 10V5Z" fill="#171717"/>
<path fill-rule="evenodd" clip-rule="evenodd" d="M15 1C13.3431 1 12 2.34315 12 4V10C12 11.6569 13.3431 13 15 13H21C22.6569 13 24 11.6569 24 10V4C24 2.34315 22.6569 1 21 1H15ZM14 5C14 4.44772 14.4477 4 15 4H21C21.5523 4 22 4.44772 22 5C22 5.55228 21.5523 6 21 6H15C14.4477 6 14 5.55228 14 5ZM14 9C14 8.44772 14.4477 8 15 8C15.5523 8 16 8.44772 16 9C16 9.55228 15.5523 10 15 10C14.4477 10 14 9.55228 14 9ZM19 8C18.4477 8 18 8.44772 18 9C18 9.55228 18.4477 10 19 10H21C21.5523 10 22 9.55228 22 9C22 8.44772 21.5523 8 21 8H19Z" fill="#171717"/>
</svg>
