<svg width="24" height="24" viewBox="0 0 24 24" fill="none" xmlns="http://www.w3.org/2000/svg">
<path d="M11 5H5C2.79086 5 1 6.79086 1 9V15C1 17.2091 2.79086 19 5 19H15C17.2091 19 19 17.2091 19 15V14H15C13.8081 14 12.7379 13.4787 12.0051 12.6516L10.6332 13.774C10.2649 14.0753 9.73513 14.0753 9.36676 13.774L3.86676 9.27396C3.43932 8.92423 3.37631 8.29421 3.72604 7.86676C4.07577 7.43932 4.70579 7.37631 5.13324 7.72604L10 11.7079L11.0843 10.8208C11.029 10.5559 11 10.2813 11 10V5Z" fill="#171717"/>
<path fill-rule="evenodd" clip-rule="evenodd" d="M15 1C13.3431 1 12 2.34315 12 4V10C12 11.6569 13.3431 13 15 13H21C22.6569 13 24 11.6569 24 10V4C24 2.34315 22.6569 1 21 1H15ZM16 4C15.4477 4 15 4.44772 15 5V7.53163C15 7.8284 15.1318 8.10985 15.3598 8.29985L17.3598 9.96651C17.7307 10.2756 18.2693 10.2756 18.6402 9.96651L20.6402 8.29985C20.8682 8.10985 21 7.8284 21 7.53162V5C21 4.44772 20.5523 4 20 4H16Z" fill="#171717"/>
</svg>
