<svg width="24" height="24" viewBox="0 0 24 24" fill="none" xmlns="http://www.w3.org/2000/svg">
<path d="M13.729 20.5537C14.7983 20.9966 15.9031 21.3398 17.0295 21.5805C19.1898 22.0422 21 20.2091 21 18V16.5616C21 15.6438 20.3754 14.8439 19.4851 14.6213L15.9331 13.7333C15.4591 13.6148 15 13.9732 15 14.4618C15 15.0132 14.4265 15.3731 13.9501 15.0954C12.912 14.4903 11.9539 13.7528 11.1005 12.8995C10.2472 12.0462 9.50968 11.088 8.90462 10.0499C8.62693 9.57349 8.98679 9 9.53824 9C10.0268 9 10.3852 8.54089 10.2668 8.06694L9.37875 4.51493C9.15617 3.62459 8.3562 3 7.43847 3H6.00002C3.79088 3 1.95787 4.81018 2.41952 6.97054C2.66022 8.09691 3.00342 9.20175 3.44631 10.271C4.40115 12.5762 5.80068 14.6707 7.56499 16.435C9.3293 18.1993 11.4238 19.5989 13.729 20.5537Z" fill="#171717"/>
<path d="M15.3081 8.15055C15.2592 8.03264 15.2323 7.90336 15.2323 7.76777V4.23223C15.2323 3.67995 15.68 3.23223 16.2323 3.23223C16.7845 3.23223 17.2323 3.67995 17.2323 4.23223V5.35355L19.0607 3.52513C19.4512 3.1346 20.0844 3.1346 20.4749 3.52513C20.8654 3.91565 20.8654 4.54882 20.4749 4.93934L18.6465 6.76777H19.7678C20.3201 6.76777 20.7678 7.21548 20.7678 7.76777C20.7678 8.32005 20.3201 8.76777 19.7678 8.76777L16.2323 8.76777C15.8156 8.76777 15.4584 8.5129 15.3081 8.15055Z" fill="#171717"/>
</svg>
