<svg width="24" height="24" viewBox="0 0 24 24" fill="none" xmlns="http://www.w3.org/2000/svg">
<path d="M13.729 20.5537C14.7983 20.9966 15.9031 21.3398 17.0295 21.5805C19.1898 22.0422 21 20.2091 21 18V16.5616C21 15.6438 20.3754 14.8439 19.4851 14.6213L15.9331 13.7333C15.4591 13.6148 15 13.9732 15 14.4618C15 15.0132 14.4265 15.3731 13.9501 15.0954C12.912 14.4903 11.9539 13.7528 11.1005 12.8995C10.2472 12.0462 9.50968 11.088 8.90462 10.0499C8.62693 9.57349 8.98679 9 9.53824 9C10.0268 9 10.3852 8.54089 10.2668 8.06694L9.37875 4.51493C9.15617 3.62459 8.3562 3 7.43847 3H6.00002C3.79088 3 1.95787 4.81018 2.41952 6.97054C2.66022 8.09691 3.00342 9.20175 3.44631 10.271C4.40115 12.5762 5.80068 14.6707 7.56499 16.435C9.3293 18.1993 11.4238 19.5989 13.729 20.5537Z" fill="#171717"/>
<path d="M18.2929 8.70711C18.6834 9.09763 19.3166 9.09763 19.7071 8.70711C20.0977 8.31658 20.0977 7.68342 19.7071 7.29289L18.4142 6L19.7071 4.70711C20.0977 4.31658 20.0977 3.68342 19.7071 3.29289C19.3166 2.90237 18.6834 2.90237 18.2929 3.29289L17 4.58579L15.7071 3.29289C15.3166 2.90237 14.6834 2.90237 14.2929 3.29289C13.9024 3.68342 13.9024 4.31658 14.2929 4.70711L15.5858 6L14.2929 7.29289C13.9024 7.68342 13.9024 8.31658 14.2929 8.70711C14.6834 9.09763 15.3166 9.09763 15.7071 8.70711L17 7.41421L18.2929 8.70711Z" fill="#171717"/>
</svg>
