<svg width="24" height="24" viewBox="0 0 24 24" fill="none" xmlns="http://www.w3.org/2000/svg">
<path d="M13.729 20.5537C14.7983 20.9966 15.9031 21.3398 17.0295 21.5805C19.1898 22.0422 21 20.2091 21 18V16.5616C21 15.6438 20.3754 14.8439 19.4851 14.6213L15.9331 13.7333C15.4591 13.6148 15 13.9732 15 14.4618C15 15.0132 14.4265 15.3731 13.9501 15.0954C12.912 14.4903 11.9539 13.7528 11.1005 12.8995C10.2472 12.0462 9.50968 11.088 8.90462 10.0499C8.62693 9.57349 8.98679 9 9.53824 9C10.0268 9 10.3852 8.54089 10.2668 8.06694L9.37875 4.51493C9.15617 3.62459 8.3562 3 7.43847 3H6.00002C3.79088 3 1.95787 4.81018 2.41952 6.97054C2.66022 8.09691 3.00342 9.20175 3.44631 10.271C4.40115 12.5762 5.80068 14.6707 7.56499 16.435C9.3293 18.1993 11.4238 19.5989 13.729 20.5537Z" fill="#171717"/>
<path d="M14 4C14 3.44772 14.4477 3 15 3H21C21.5523 3 22 3.44772 22 4C22 4.55228 21.5523 5 21 5H15C14.4477 5 14 4.55228 14 4Z" fill="#171717"/>
<path d="M18 7C17.4477 7 17 7.44772 17 8C17 8.55228 17.4477 9 18 9H21C21.5523 9 22 8.55228 22 8C22 7.44772 21.5523 7 21 7H18Z" fill="#171717"/>
<path d="M15 9C15.5523 9 16 8.55229 16 8C16 7.44772 15.5523 7 15 7C14.4477 7 14 7.44772 14 8C14 8.55229 14.4477 9 15 9Z" fill="#171717"/>
</svg>
