<svg width="24" height="24" viewBox="0 0 24 24" fill="none" xmlns="http://www.w3.org/2000/svg">
<path d="M13.729 20.5537C14.7983 20.9966 15.9031 21.3398 17.0295 21.5805C19.1898 22.0422 21 20.2091 21 18V16.5616C21 15.6438 20.3754 14.8439 19.4851 14.6213L15.9331 13.7333C15.4591 13.6148 15 13.9732 15 14.4618C15 15.0132 14.4265 15.3731 13.9501 15.0954C12.912 14.4903 11.9539 13.7528 11.1005 12.8995C10.2472 12.0462 9.50968 11.088 8.90462 10.0499C8.62693 9.57349 8.98679 9 9.53824 9C10.0268 9 10.3852 8.54089 10.2668 8.06694L9.37875 4.51493C9.15617 3.62459 8.3562 3 7.43847 3H6.00002C3.79088 3 1.95787 4.81018 2.41952 6.97054C2.66022 8.09691 3.00342 9.20175 3.44631 10.271C4.40115 12.5762 5.80068 14.6707 7.56499 16.435C9.3293 18.1993 11.4238 19.5989 13.729 20.5537Z" fill="#171717"/>
<path d="M15.484 4C15.484 2.89543 16.3866 2 17.5 2C18.6134 2 19.516 2.89543 19.516 4V5C19.516 6.10457 18.6134 7 17.5 7C16.3866 7 15.484 6.10457 15.484 5V4Z" fill="#171717"/>
<path fill-rule="evenodd" clip-rule="evenodd" d="M13.5042 6.13397C13.9863 5.85783 14.6028 6.02171 14.8811 6.5C15.1466 6.95606 15.5283 7.33477 15.988 7.59808C16.4477 7.86138 16.9692 8 17.5 8C18.0308 8 18.5523 7.86138 19.012 7.59808C19.4717 7.33477 19.8535 6.95606 20.1189 6.5C20.3972 6.02171 21.0137 5.85783 21.4958 6.13397C21.978 6.41012 22.1432 7.02171 21.8648 7.5C21.4225 8.2601 20.7862 8.89129 20.02 9.33013C19.2538 9.76897 18.3847 10 17.5 10C16.6153 10 15.7462 9.76897 14.98 9.33013C14.2138 8.89129 13.5776 8.2601 13.1352 7.5C12.8569 7.02171 13.0221 6.41012 13.5042 6.13397Z" fill="#171717"/>
</svg>
