<svg width="24" height="24" viewBox="0 0 24 24" fill="none" xmlns="http://www.w3.org/2000/svg">
<path d="M13.729 20.5537C14.7983 20.9966 15.9031 21.3398 17.0295 21.5805C19.1898 22.0422 21 20.2091 21 18V16.5616C21 15.6438 20.3754 14.8439 19.4851 14.6213L15.9331 13.7333C15.4591 13.6148 15 13.9732 15 14.4618C15 15.0132 14.4265 15.3731 13.9501 15.0954C12.912 14.4903 11.9539 13.7528 11.1005 12.8995C10.2472 12.0462 9.50968 11.088 8.90462 10.0499C8.62693 9.57349 8.98679 9 9.53824 9C10.0268 9 10.3852 8.54089 10.2668 8.06694L9.37875 4.51493C9.15617 3.62459 8.3562 3 7.43847 3H6.00002C3.79088 3 1.95787 4.81018 2.41952 6.97054C2.66022 8.09691 3.00342 9.20175 3.44631 10.271C4.40115 12.5762 5.80068 14.6707 7.56499 16.435C9.3293 18.1993 11.4238 19.5989 13.729 20.5537Z" fill="#171717"/>
<path d="M18.0053 10C18.0053 9.44772 18.453 9 19.0053 9C19.5575 9 20.0053 9.44772 20.0053 10C20.0053 10.5523 19.5575 11 19.0053 11C18.453 11 18.0053 10.5523 18.0053 10Z" fill="#171717"/>
<path fill-rule="evenodd" clip-rule="evenodd" d="M19.0053 3C18.7419 3 18.4833 3.06931 18.2553 3.20096C18.0272 3.33261 17.8379 3.52197 17.7062 3.75C17.4301 4.22829 16.8185 4.39217 16.3402 4.11603C15.8619 3.83988 15.698 3.22829 15.9742 2.75C16.2814 2.21793 16.7232 1.7761 17.2553 1.46891C17.7873 1.16172 18.3909 1 19.0053 1C19.6196 1 20.2232 1.16172 20.7553 1.46891C21.2873 1.7761 21.7292 2.21793 22.0363 2.75C22.3435 3.28207 22.5053 3.88562 22.5053 4.5C22.5053 5.11438 22.3435 5.71793 22.0363 6.25C21.7292 6.78207 21.2873 7.2239 20.7553 7.53109C20.2232 7.83828 19.6196 8 19.0053 8C18.453 8 18.0052 7.55228 18.0052 7C18.0052 6.44772 18.453 6 19.0053 6C19.2686 6 19.5272 5.93069 19.7553 5.79904C19.9833 5.66739 20.1726 5.47803 20.3043 5.25C20.4359 5.02197 20.5053 4.76331 20.5053 4.5C20.5053 4.23669 20.4359 3.97803 20.3043 3.75C20.1726 3.52197 19.9833 3.33261 19.7553 3.20096C19.5272 3.06931 19.2686 3 19.0053 3Z" fill="#171717"/>
</svg>
