<svg width="24" height="24" viewBox="0 0 24 24" fill="none" xmlns="http://www.w3.org/2000/svg">
<path d="M13.729 20.5537C14.7983 20.9966 15.9031 21.3398 17.0295 21.5805C19.1898 22.0422 21 20.2091 21 18V16.5616C21 15.6438 20.3754 14.8439 19.4851 14.6213L15.9331 13.7333C15.4591 13.6148 15 13.9732 15 14.4618C15 15.0132 14.4265 15.3731 13.9501 15.0954C12.912 14.4903 11.9539 13.7528 11.1005 12.8995C10.2472 12.0462 9.50968 11.088 8.90462 10.0499C8.62693 9.57349 8.98679 9 9.53824 9C10.0268 9 10.3852 8.54089 10.2668 8.06694L9.37875 4.51493C9.15617 3.62459 8.3562 3 7.43847 3H6.00002C3.79088 3 1.95787 4.81018 2.41952 6.97054C2.66022 8.09691 3.00342 9.20175 3.44631 10.271C4.40115 12.5762 5.80068 14.6707 7.56499 16.435C9.3293 18.1993 11.4238 19.5989 13.729 20.5537Z" fill="#171717"/>
<path fill-rule="evenodd" clip-rule="evenodd" d="M19.1651 8.57931C18.67 8.84763 18.1028 9 17.5 9C15.567 9 14 7.433 14 5.5C14 3.567 15.567 2 17.5 2C19.433 2 21 3.567 21 5.5C21 6.10276 20.8477 6.66993 20.5793 7.1651L21.7071 8.29289C22.0977 8.68342 22.0977 9.31658 21.7071 9.70711C21.3166 10.0976 20.6834 10.0976 20.2929 9.70711L19.1651 8.57931ZM19 5.5C19 6.32843 18.3284 7 17.5 7C16.6716 7 16 6.32843 16 5.5C16 4.67157 16.6716 4 17.5 4C18.3284 4 19 4.67157 19 5.5Z" fill="#171717"/>
</svg>
