<svg width="24" height="24" viewBox="0 0 24 24" fill="none" xmlns="http://www.w3.org/2000/svg">
<path d="M13.729 20.5537C14.7983 20.9966 15.9031 21.3398 17.0295 21.5805C19.1898 22.0422 21 20.2091 21 18V16.5616C21 15.6438 20.3754 14.8439 19.4851 14.6213L15.9331 13.7333C15.4591 13.6148 15 13.9732 15 14.4618C15 15.0132 14.4265 15.3731 13.9501 15.0954C12.912 14.4903 11.9539 13.7528 11.1005 12.8995C10.2472 12.0462 9.50968 11.088 8.90462 10.0499C8.62693 9.57349 8.98679 9 9.53824 9C10.0268 9 10.3852 8.54089 10.2668 8.06694L9.37875 4.51493C9.15617 3.62459 8.3562 3 7.43847 3H6.00002C3.79088 3 1.95787 4.81018 2.41952 6.97054C2.66022 8.09691 3.00342 9.20175 3.44631 10.271C4.40115 12.5762 5.80068 14.6707 7.56499 16.435C9.3293 18.1993 11.4238 19.5989 13.729 20.5537Z" fill="#171717"/>
<path d="M18.5853 2.05765C18.0033 1.94189 17.4001 2.0013 16.852 2.22836C16.3038 2.45543 15.8353 2.83994 15.5056 3.33329C15.176 3.82664 15 4.40666 15 5V6C14.4477 6 14 6.44772 14 7V9C14 9.55228 14.4477 10 15 10H21C21.5523 10 22 9.55228 22 9V7C22 6.44772 21.5523 6 21 6L17 6V5C17 4.80222 17.0587 4.60888 17.1686 4.44443C17.2784 4.27998 17.4346 4.15181 17.6173 4.07612C17.8001 4.00043 18.0011 3.98063 18.1951 4.01922C18.3891 4.0578 18.5673 4.15304 18.7071 4.29289C19.0977 4.68342 19.7308 4.68342 20.1213 4.29289C20.5119 3.90237 20.5119 3.2692 20.1213 2.87868C19.7018 2.45912 19.1672 2.1734 18.5853 2.05765Z" fill="#171717"/>
</svg>
