<svg width="24" height="24" viewBox="0 0 24 24" fill="none" xmlns="http://www.w3.org/2000/svg">
<path d="M9.5 10C9.22386 10 9 10.2239 9 10.5V16.2929C9 16.7383 9.53857 16.9614 9.85355 16.6464L11.6464 14.8536C11.8417 14.6583 12.1583 14.6583 12.3536 14.8536L14.1464 16.6464C14.4614 16.9614 15 16.7383 15 16.2929V10.5C15 10.2239 14.7761 10 14.5 10H9.5Z" fill="#171717"/>
<path fill-rule="evenodd" clip-rule="evenodd" d="M3 7C3 4.79086 4.79086 3 7 3H17C19.2091 3 21 4.79086 21 7V17C21 19.2091 19.2091 21 17 21H7C4.79086 21 3 19.2091 3 17V7ZM5 10C5 8.89543 5.89543 8 7 8H17C18.1046 8 19 8.89543 19 10V17C19 18.1046 18.1046 19 17 19H7C5.89543 19 5 18.1046 5 17V10Z" fill="#171717"/>
</svg>
