<svg width="24" height="24" viewBox="0 0 24 24" fill="none" xmlns="http://www.w3.org/2000/svg">
<path fill-rule="evenodd" clip-rule="evenodd" d="M7 3C4.79086 3 3 4.79086 3 7V17C3 19.2091 4.79086 21 7 21H17C19.2091 21 21 19.2091 21 17V7C21 4.79086 19.2091 3 17 3H7ZM13.0607 9.52513C13.4512 9.1346 14.0843 9.1346 14.4749 9.52513C14.8654 9.91565 14.8654 10.5488 14.4749 10.9393L12.6464 12.7678H13.7678C14.3201 12.7678 14.7678 13.2155 14.7678 13.7678C14.7678 14.3201 14.3201 14.7678 13.7678 14.7678H10.2322C9.96702 14.7678 9.71266 14.6624 9.52513 14.4749C9.33759 14.2873 9.23223 14.0326 9.23223 13.7674V10.2322C9.23223 9.67995 9.67995 9.23223 10.2322 9.23223C10.7845 9.23223 11.2322 9.67995 11.2322 10.2322V11.3536L13.0607 9.52513Z" fill="#171717"/>
</svg>
