<svg width="24" height="24" viewBox="0 0 24 24" fill="none" xmlns="http://www.w3.org/2000/svg">
<path fill-rule="evenodd" clip-rule="evenodd" d="M7 3C4.79086 3 3 4.79086 3 7V17C3 19.2091 4.79086 21 7 21H17C19.2091 21 21 19.2091 21 17V7C21 4.79086 19.2091 3 17 3H7ZM9.52513 14.4749C9.1346 14.0843 9.1346 13.4512 9.52513 13.0607L11.3536 11.2322H10.2322C9.67995 11.2322 9.23223 10.7845 9.23223 10.2322C9.23223 9.67995 9.67995 9.23223 10.2322 9.23223L13.7678 9.23223C14.033 9.23223 14.2873 9.33759 14.4749 9.52513C14.6624 9.71266 14.7678 9.96739 14.7678 10.2326V13.7678C14.7678 14.3201 14.3201 14.7678 13.7678 14.7678C13.2155 14.7678 12.7678 14.3201 12.7678 13.7678V12.6464L10.9393 14.4749C10.5488 14.8654 9.91565 14.8654 9.52513 14.4749Z" fill="#171717"/>
</svg>
