<svg width="24" height="24" viewBox="0 0 24 24" fill="none" xmlns="http://www.w3.org/2000/svg">
<path fill-rule="evenodd" clip-rule="evenodd" d="M7 3C4.79086 3 3 4.79086 3 7V17C3 19.2091 4.79086 21 7 21H17C19.2091 21 21 19.2091 21 17V7C21 4.79086 19.2091 3 17 3H7ZM9.52513 9.52513C9.91565 9.1346 10.5488 9.1346 10.9393 9.52513L12.4263 11.0121C12.5523 11.1381 12.7678 11.0489 12.7678 10.8707V10.2322C12.7678 9.67995 13.2155 9.23223 13.7678 9.23223C14.3201 9.23223 14.7678 9.67995 14.7678 10.2322V13.7678C14.7678 14.033 14.6624 14.2873 14.4749 14.4749C14.2873 14.6624 14.0326 14.7678 13.7674 14.7678H10.2322C9.67995 14.7678 9.23223 14.3201 9.23223 13.7678C9.23223 13.2155 9.67995 12.7678 10.2322 12.7678H10.8707C11.0489 12.7678 11.1381 12.5523 11.0121 12.4263L9.52513 10.9393C9.1346 10.5488 9.1346 9.91565 9.52513 9.52513Z" fill="#171717"/>
</svg>
