<svg width="24" height="24" viewBox="0 0 24 24" fill="none" xmlns="http://www.w3.org/2000/svg">
<path fill-rule="evenodd" clip-rule="evenodd" d="M3.70711 2.29289C3.31658 1.90237 2.68342 1.90237 2.29289 2.29289C1.90237 2.68342 1.90237 3.31658 2.29289 3.70711L3.55382 4.96803C3.20193 5.56355 3 6.25819 3 7V17C3 19.2091 4.79086 21 7 21H17C17.7418 21 18.4365 20.7981 19.032 20.4462L20.2929 21.7071C20.6834 22.0976 21.3166 22.0976 21.7071 21.7071C22.0976 21.3166 22.0976 20.6834 21.7071 20.2929L3.70711 2.29289ZM21 7V16.7858L7.2142 3H17C19.2091 3 21 4.79086 21 7Z" fill="#171717"/>
</svg>
