<svg width="24" height="24" viewBox="0 0 24 24" fill="none" xmlns="http://www.w3.org/2000/svg">
<path fill-rule="evenodd" clip-rule="evenodd" d="M7 3C4.79086 3 3 4.79086 3 7V17C3 19.2091 4.79086 21 7 21H17C19.2091 21 21 19.2091 21 17V7C21 4.79086 19.2091 3 17 3H7ZM8.29289 12.7071C8.10536 12.8946 8 13.149 8 13.4142V15.5C8 15.7761 8.22386 16 8.5 16H10.5858C10.851 16 11.1054 15.8946 11.2929 15.7071L15.2929 11.7071C15.6834 11.3166 15.6834 10.6834 15.2929 10.2929L13.7071 8.70711C13.3166 8.31658 12.6834 8.31658 12.2929 8.70711L8.29289 12.7071Z" fill="#171717"/>
</svg>
