<svg width="24" height="24" viewBox="0 0 24 24" fill="none" xmlns="http://www.w3.org/2000/svg">
<path fill-rule="evenodd" clip-rule="evenodd" d="M7 3C4.79086 3 3 4.79086 3 7V17C3 19.2091 4.79086 21 7 21H17C19.2091 21 21 19.2091 21 17V7C21 4.79086 19.2091 3 17 3H7ZM10 8C9.44772 8 9 8.44772 9 9V12.6301C9 12.8688 9.08539 13.0996 9.24074 13.2809L11.2407 15.6142C11.6398 16.0798 12.3602 16.0798 12.7593 15.6142L14.7593 13.2809C14.9146 13.0996 15 12.8688 15 12.6301V9C15 8.44772 14.5523 8 14 8H10Z" fill="#171717"/>
</svg>
