<svg width="24" height="24" viewBox="0 0 24 24" fill="none" xmlns="http://www.w3.org/2000/svg">
<path fill-rule="evenodd" clip-rule="evenodd" d="M7 3C4.79086 3 3 4.79086 3 7V17C3 19.2091 4.79086 21 7 21H17C19.2091 21 21 19.2091 21 17V7C21 4.79086 19.2091 3 17 3H7ZM14 10C14 9.44772 14.4477 9 15 9C15.5523 9 16 9.44772 16 10V14C16 14.5523 15.5523 15 15 15C14.4477 15 14 14.5523 14 14V10ZM8 14C8 13.4477 8.44772 13 9 13C9.55228 13 10 13.4477 10 14C10 14.5523 9.55228 15 9 15C8.44772 15 8 14.5523 8 14ZM12 11C11.4477 11 11 11.4477 11 12V14C11 14.5523 11.4477 15 12 15C12.5523 15 13 14.5523 13 14V12C13 11.4477 12.5523 11 12 11Z" fill="#171717"/>
</svg>
