<svg width="24" height="24" viewBox="0 0 24 24" fill="none" xmlns="http://www.w3.org/2000/svg">
<path d="M12 16C12.2765 16 12.5267 15.8878 12.7077 15.7065L16.7071 11.7071C17.0976 11.3166 17.0976 10.6834 16.7071 10.2929C16.3166 9.90237 15.6834 9.90237 15.2929 10.2929L13.3414 12.2444C13.2154 12.3704 13 12.2811 13 12.1029L13 6C13 5.44772 13.4477 5 14 5H17C19.2091 5 21 6.79086 21 9V15C21 17.2091 19.2091 19 17 19H7C4.79086 19 3 17.2091 3 15V9C3 6.79086 4.79086 5 7 5H10C10.5523 5 11 5.44772 11 6L11 12.1029C11 12.2811 10.7846 12.3704 10.6586 12.2444L8.70711 10.2929C8.31658 9.90237 7.68342 9.90237 7.29289 10.2929C6.90237 10.6834 6.90237 11.3166 7.29289 11.7071L11.2923 15.7065C11.4733 15.8878 11.7235 16 12 16Z" fill="#171717"/>
</svg>
