<svg width="24" height="24" viewBox="0 0 24 24" fill="none" xmlns="http://www.w3.org/2000/svg">
<path d="M9 3C6.79086 3 5 4.79086 5 7V17C5 19.2091 6.79086 21 9 21H10C10.5523 21 11 20.5523 11 20L11 11.897C11 11.7189 10.7846 11.6296 10.6586 11.7556L8.70711 13.7071C8.31658 14.0976 7.68342 14.0976 7.29289 13.7071C6.90237 13.3166 6.90237 12.6834 7.29289 12.2929L11.2929 8.29289C11.3051 8.28065 11.3177 8.26876 11.3305 8.25723C11.5077 8.09734 11.7425 8 12 8C12.2776 8 12.5287 8.11308 12.7099 8.29568L16.7071 12.2929C17.0976 12.6834 17.0976 13.3166 16.7071 13.7071C16.3166 14.0976 15.6834 14.0976 15.2929 13.7071L13.3414 11.7556C13.2154 11.6297 13 11.7189 13 11.8971L13 20C13 20.5523 13.4477 21 14 21H15C17.2091 21 19 19.2091 19 17V7C19 4.79086 17.2091 3 15 3H9Z" fill="#171717"/>
</svg>
