<svg width="24" height="24" viewBox="0 0 24 24" fill="none" xmlns="http://www.w3.org/2000/svg">
<path d="M13.729 20.5537C14.7982 20.9966 15.9031 21.3398 17.0294 21.5805C19.1898 22.0421 21 20.2091 21 18V16.5615C21 15.6438 20.3754 14.8438 19.4851 14.6212L15.9331 13.7332C15.4591 13.6148 15 13.9732 15 14.4618C15 15.0132 14.4265 15.3731 13.9501 15.0954C12.912 14.4903 11.9538 13.7528 11.1005 12.8995C10.2472 12.0461 9.50965 11.088 8.90459 10.0499C8.6269 9.57347 8.98676 8.99998 9.53821 8.99998C10.0267 8.99998 10.3852 8.54086 10.2667 8.06691L9.37872 4.51491C9.15614 3.62457 8.35617 2.99998 7.43844 2.99998H5.99999C3.79085 2.99998 1.95784 4.81016 2.41949 6.97052C2.66019 8.09689 3.00339 9.20173 3.44628 10.271C4.40112 12.5761 5.80065 14.6707 7.56496 16.435C9.32927 18.1993 11.4238 19.5989 13.729 20.5537Z" fill="#171717"/>
<path fill-rule="evenodd" clip-rule="evenodd" d="M12.3282 6.91153C12.4711 6.37806 13.0194 6.06148 13.5529 6.20442C14.5702 6.47702 15.4979 7.0126 16.2426 7.75734C16.9874 8.50208 17.523 9.42973 17.7955 10.4471C17.9385 10.9805 17.6219 11.5289 17.0884 11.6718C16.555 11.8148 16.0066 11.4982 15.8637 10.9647C15.682 10.2865 15.3249 9.66804 14.8284 9.17155C14.3319 8.67506 13.7135 8.318 13.0353 8.13627C12.5018 7.99333 12.1852 7.44499 12.3282 6.91153Z" fill="#171717"/>
<path fill-rule="evenodd" clip-rule="evenodd" d="M13.3634 3.04783C13.5064 2.51436 14.0547 2.19778 14.5882 2.34072C16.2837 2.79504 17.8298 3.68768 19.0711 4.92891C20.3123 6.17014 21.2049 7.71623 21.6592 9.41179C21.8022 9.94525 21.4856 10.4936 20.9521 10.6365C20.4187 10.7795 19.8703 10.4629 19.7274 9.92943C19.3639 8.57298 18.6498 7.33611 17.6568 6.34312C16.6639 5.35014 15.427 4.63603 14.0705 4.27257C13.5371 4.12963 13.2205 3.58129 13.3634 3.04783Z" fill="#171717"/>
</svg>
