<svg width="24" height="24" viewBox="0 0 24 24" fill="none" xmlns="http://www.w3.org/2000/svg">
<path d="M13.7289 20.5537C14.7981 20.9966 15.903 21.3398 17.0294 21.5805C19.1897 22.0422 20.9999 20.2091 20.9999 18V16.5616C20.9999 15.6438 20.3753 14.8439 19.485 14.6213L15.933 13.7333C15.459 13.6148 14.9999 13.9732 14.9999 14.4618C14.9999 15.0132 14.4264 15.3731 13.95 15.0954C12.9119 14.4903 11.9537 13.7528 11.1004 12.8995C10.2471 12.0462 9.50956 11.088 8.9045 10.0499C8.62681 9.57349 8.98667 9 9.53812 9C10.0267 9 10.3851 8.54089 10.2666 8.06694L9.37863 4.51493C9.15605 3.62459 8.35608 3 7.43835 3H5.9999C3.79076 3 1.95775 4.81018 2.4194 6.97054C2.6601 8.09691 3.0033 9.20175 3.44619 10.271C4.40103 12.5762 5.80056 14.6707 7.56487 16.435C9.32918 18.1993 11.4237 19.5989 13.7289 20.5537Z" fill="#171717"/>
<path fill-rule="evenodd" clip-rule="evenodd" d="M20.707 3.29289C21.0975 3.68342 21.0975 4.31658 20.707 4.70711L16.707 8.70711C16.3165 9.09763 15.6833 9.09763 15.2928 8.70711L13.2928 6.70711C12.9023 6.31658 12.9023 5.68342 13.2928 5.29289C13.6833 4.90237 14.3165 4.90237 14.707 5.29289L15.9999 6.58579L19.2928 3.29289C19.6833 2.90237 20.3165 2.90237 20.707 3.29289Z" fill="#171717"/>
</svg>
