<svg width="24" height="24" viewBox="0 0 24 24" fill="none" xmlns="http://www.w3.org/2000/svg">
<path d="M8.90462 10.0499C9.05576 10.3092 9.21516 10.5635 9.38257 10.8125C9.51919 11.0156 9.49771 11.2881 9.3246 11.4612L6.45306 14.3327C6.24103 14.5448 5.89089 14.5241 5.71283 14.2828C4.79944 13.0452 4.03761 11.6985 3.44631 10.271C3.00342 9.20175 2.66022 8.09691 2.41952 6.97054C1.95787 4.81018 3.79088 3 6.00002 3H7.43847C8.3562 3 9.15617 3.62459 9.37875 4.51493L10.2668 8.06694C10.3852 8.54089 10.0268 9 9.53824 9C8.98679 9 8.62693 9.57349 8.90462 10.0499Z" fill="#171717"/>
<path d="M9.18073 17.8763C8.97815 17.7154 8.68628 17.7279 8.50333 17.9109L4.70711 21.7071C4.31658 22.0976 3.68342 22.0976 3.29289 21.7071C2.90237 21.3166 2.90237 20.6834 3.29289 20.2929L19.2929 4.29289C19.6834 3.90237 20.3166 3.90237 20.7071 4.29289C21.0976 4.68342 21.0976 5.31658 20.7071 5.70711L12.7811 13.6331C12.5688 13.8454 12.5898 14.1964 12.8338 14.3716C13.1942 14.6304 13.5667 14.8719 13.9501 15.0954C14.4265 15.3731 15 15.0132 15 14.4618C15 13.9732 15.4591 13.6148 15.9331 13.7333L19.4851 14.6213C20.3754 14.8439 21 15.6438 21 16.5616V18C21 20.2091 19.1898 22.0422 17.0295 21.5805C15.9031 21.3398 14.7983 20.9966 13.729 20.5537C12.0925 19.8758 10.5621 18.9738 9.18073 17.8763Z" fill="#171717"/>
</svg>
