<svg width="24" height="24" viewBox="0 0 24 24" fill="none" xmlns="http://www.w3.org/2000/svg">
<path d="M13.729 20.5537C14.7983 20.9966 15.9031 21.3398 17.0295 21.5805C19.1898 22.0421 21 20.2091 21 18V16.5615C21 15.6438 20.3754 14.8438 19.4851 14.6212L15.9331 13.7332C15.4591 13.6147 15 13.9732 15 14.4618C15 15.0132 14.4265 15.3731 13.9501 15.0954C12.912 14.4903 11.9539 13.7528 11.1005 12.8995C10.2472 12.0461 9.50968 11.088 8.90462 10.0499C8.62693 9.57346 8.98679 8.99997 9.53824 8.99997C10.0268 8.99997 10.3852 8.54086 10.2668 8.06691L9.37875 4.5149C9.15617 3.62457 8.3562 2.99997 7.43847 2.99997H6.00002C3.79088 2.99997 1.95787 4.81015 2.41952 6.97051C2.66022 8.09688 3.00342 9.20172 3.44631 10.271C4.40115 12.5761 5.80068 14.6707 7.56499 16.435C9.3293 18.1993 11.4238 19.5988 13.729 20.5537Z" fill="#171717"/>
<path d="M14 7.41419C14 7.14897 14.1054 6.89461 14.2929 6.70708L18.2929 2.70708C18.6834 2.31655 19.3166 2.31655 19.7071 2.70708L21.2929 4.29286C21.6834 4.68339 21.6834 5.31655 21.2929 5.70708L17.2929 9.70708C17.1054 9.89461 16.851 9.99997 16.5858 9.99997H14.5C14.2239 9.99997 14 9.77611 14 9.49997V7.41419Z" fill="#171717"/>
</svg>
