<svg width="24" height="24" viewBox="0 0 24 24" fill="none" xmlns="http://www.w3.org/2000/svg">
<path d="M13.729 20.5537C14.7983 20.9966 15.9031 21.3398 17.0295 21.5805C19.1898 22.0422 21 20.2091 21 18V16.5616C21 15.6438 20.3754 14.8439 19.4851 14.6213L15.9331 13.7333C15.4591 13.6148 15 13.9732 15 14.4618C15 15.0132 14.4265 15.3731 13.9501 15.0954C12.912 14.4903 11.9539 13.7528 11.1005 12.8995C10.2472 12.0462 9.50968 11.088 8.90462 10.0499C8.62693 9.57349 8.98679 9 9.53824 9C10.0268 9 10.3852 8.54089 10.2668 8.06694L9.37875 4.51493C9.15617 3.62459 8.3562 3 7.43847 3H6.00002C3.79088 3 1.95787 4.81018 2.41952 6.97054C2.66022 8.09691 3.00342 9.20175 3.44631 10.271C4.40115 12.5762 5.80068 14.6707 7.56499 16.435C9.3293 18.1993 11.4238 19.5989 13.729 20.5537Z" fill="#171717"/>
<path d="M16 9C16 9.55228 15.5523 10 15 10C14.4477 10 14 9.55228 14 9C14 8.44772 14.4477 8 15 8C15.5523 8 16 8.44772 16 9Z" fill="#171717"/>
<path fill-rule="evenodd" clip-rule="evenodd" d="M14 6C14 5.44772 14.4477 5 15 5C15.5253 5 16.0455 5.10346 16.5308 5.30448C17.0161 5.5055 17.457 5.80014 17.8284 6.17157C18.1999 6.54301 18.4945 6.98396 18.6955 7.46927C18.8966 7.95457 19 8.47471 19 9C19 9.55229 18.5523 10 18 10C17.4477 10 17 9.55229 17 9C17 8.73736 16.9483 8.47728 16.8478 8.23463C16.7473 7.99198 16.6 7.7715 16.4142 7.58579C16.2285 7.40007 16.008 7.25275 15.7654 7.15224C15.5227 7.05173 15.2627 7 15 7C14.4477 7 14 6.55228 14 6Z" fill="#171717"/>
<path fill-rule="evenodd" clip-rule="evenodd" d="M14 3C14 2.44772 14.4477 2 15 2C15.9193 2 16.8295 2.18106 17.6788 2.53284C18.5281 2.88463 19.2998 3.40024 19.9498 4.05025C20.5998 4.70026 21.1154 5.47194 21.4672 6.32122C21.819 7.1705 22 8.08075 22 9C22 9.55229 21.5523 10 21 10C20.4477 10 20 9.55229 20 9C20 8.34339 19.8707 7.69321 19.6194 7.08658C19.3681 6.47996 18.9998 5.92876 18.5356 5.46447C18.0713 5.00017 17.5201 4.63188 16.9134 4.3806C16.3068 4.12933 15.6566 4 15 4C14.4477 4 14 3.55228 14 3Z" fill="#171717"/>
</svg>
