<svg width="24" height="24" viewBox="0 0 24 24" fill="none" xmlns="http://www.w3.org/2000/svg">
<path fill-rule="evenodd" clip-rule="evenodd" d="M7 3C4.79086 3 3 4.79086 3 7V17C3 19.2091 4.79086 21 7 21H17C19.2091 21 21 19.2091 21 17V7C21 4.79086 19.2091 3 17 3H7ZM11.2929 9.29289C11.3888 9.19702 11.4993 9.12468 11.6172 9.07588C11.9797 8.92591 12.4125 8.99825 12.7071 9.29289L15.2071 11.7929C15.5976 12.1834 15.5976 12.8166 15.2071 13.2071C14.8166 13.5976 14.1834 13.5976 13.7929 13.2071L13 12.4142V15C13 15.5523 12.5523 16 12 16C11.4477 16 11 15.5523 11 15V12.4142L10.2071 13.2071C9.81658 13.5976 9.18342 13.5976 8.79289 13.2071C8.40237 12.8166 8.40237 12.1834 8.79289 11.7929L11.2929 9.29289Z" fill="#171717"/>
</svg>
