<svg width="24" height="24" viewBox="0 0 24 24" fill="none" xmlns="http://www.w3.org/2000/svg">
<path fill-rule="evenodd" clip-rule="evenodd" d="M7 3C4.79086 3 3 4.79086 3 7V17C3 19.2091 4.79086 21 7 21H17C19.2091 21 21 19.2091 21 17V7C21 4.79086 19.2091 3 17 3H7ZM14.4749 13.0607C14.8654 13.4512 14.8654 14.0843 14.4749 14.4749C14.0843 14.8654 13.4512 14.8654 13.0607 14.4749L11.2322 12.6464V13.7678C11.2322 14.3201 10.7845 14.7678 10.2322 14.7678C9.67995 14.7678 9.23223 14.3201 9.23223 13.7678V10.2322C9.23223 9.96702 9.33759 9.71266 9.52513 9.52513C9.71266 9.33759 9.96739 9.23223 10.2326 9.23223L13.7678 9.23223C14.3201 9.23223 14.7678 9.67995 14.7678 10.2322C14.7678 10.7845 14.3201 11.2322 13.7678 11.2322H12.6464L14.4749 13.0607Z" fill="#171717"/>
</svg>
