<svg width="24" height="24" viewBox="0 0 24 24" fill="none" xmlns="http://www.w3.org/2000/svg">
<path fill-rule="evenodd" clip-rule="evenodd" d="M7 3C4.79086 3 3 4.79086 3 7V17C3 19.2091 4.79086 21 7 21H17C19.2091 21 21 19.2091 21 17V7C21 4.79086 19.2091 3 17 3H7ZM8.5 12C8.5 11.4477 8.94771 11 9.5 11H12.0858L11.2929 10.2071C10.9024 9.81658 10.9024 9.18342 11.2929 8.79289C11.6834 8.40237 12.3166 8.40237 12.7071 8.79289L15.2071 11.2929C15.3946 11.4804 15.5 11.7348 15.5 12C15.5 12.2652 15.3944 12.5198 15.2068 12.7074L12.7071 15.2071C12.3166 15.5976 11.6834 15.5976 11.2929 15.2071C10.9024 14.8166 10.9024 14.1834 11.2929 13.7929L12.0858 13H9.5C8.94772 13 8.5 12.5523 8.5 12Z" fill="#171717"/>
</svg>
