<svg width="24" height="24" viewBox="0 0 24 24" fill="none" xmlns="http://www.w3.org/2000/svg">
<path fill-rule="evenodd" clip-rule="evenodd" d="M7 3C4.79086 3 3 4.79086 3 7V17C3 19.2091 4.79086 21 7 21H17C19.2091 21 21 19.2091 21 17V7C21 4.79086 19.2091 3 17 3H7ZM12 8C10.8954 8 10 8.89543 10 10V11C10 12.1046 10.8954 13 12 13C13.1046 13 14 12.1046 14 11V10C14 8.89543 13.1046 8 12 8ZM9.40193 12.5C9.12579 12.0217 8.5142 11.8578 8.0359 12.134C7.55761 12.4101 7.39374 13.0217 7.66988 13.5C8.10872 14.2601 8.73991 14.8913 9.5 15.3301C10.2601 15.769 11.1223 16 12 16C12.8777 16 13.7399 15.769 14.5 15.3301C15.2601 14.8913 15.8913 14.2601 16.3301 13.5C16.6063 13.0217 16.4424 12.4101 15.9641 12.134C15.4858 11.8578 14.8742 12.0217 14.5981 12.5C14.3348 12.9561 13.9561 13.3348 13.5 13.5981C13.0439 13.8614 12.5266 14 12 14C11.4734 14 10.9561 13.8614 10.5 13.5981C10.0439 13.3348 9.66523 12.9561 9.40193 12.5Z" fill="#171717"/>
</svg>
