<svg width="24" height="24" viewBox="0 0 24 24" fill="none" xmlns="http://www.w3.org/2000/svg">
<path fill-rule="evenodd" clip-rule="evenodd" d="M7 3C4.79086 3 3 4.79086 3 7V17C3 19.2091 4.79086 21 7 21H17C19.2091 21 21 19.2091 21 17V7C21 4.79086 19.2091 3 17 3H7ZM11 9C11 8.44772 11.4477 8 12 8C12.5523 8 13 8.44772 13 9V15C13 15.5523 12.5523 16 12 16C11.4477 16 11 15.5523 11 15V9ZM8 12C8 11.4477 8.44772 11 9 11C9.55228 11 10 11.4477 10 12C10 12.5523 9.55228 13 9 13C8.44772 13 8 12.5523 8 12ZM15 10C14.4477 10 14 10.4477 14 11V13C14 13.5523 14.4477 14 15 14C15.5523 14 16 13.5523 16 13V11C16 10.4477 15.5523 10 15 10Z" fill="#171717"/>
</svg>
