<svg width="23" height="33" viewBox="0 0 23 33" fill="none" xmlns="http://www.w3.org/2000/svg">
<path d="M13.134 23.6579C13.134 22.6631 13.8739 21.8397 14.8213 21.5361C16.3387 21.05 17.766 20.2047 18.9702 19.0005C23.0095 14.9613 23.0095 8.4124 18.9702 4.37317C14.931 0.333943 8.38212 0.333943 4.3429 4.37317C0.30367 8.4124 0.30367 14.9613 4.3429 19.0005C5.54714 20.2047 6.97446 21.05 8.49184 21.5361C9.4392 21.8397 10.1791 22.6631 10.1791 23.6579V30.4934C10.1791 31.3095 10.8405 31.9708 11.6566 31.9708C12.4726 31.9708 13.134 31.3095 13.134 30.4934V23.6579Z" fill="#FF0000" stroke="black" stroke-linecap="round"/>
</svg>
