<svg width="24" height="24" viewBox="0 0 24 24" fill="none" xmlns="http://www.w3.org/2000/svg">
<path d="M4.70711 3.29289C4.31658 2.90237 3.68342 2.90237 3.29289 3.29289C2.90237 3.68342 2.90237 4.31658 3.29289 4.70711L5.76642 7.18063C4.35721 8.30402 3.28175 9.78415 2.64737 11.4604C2.45189 11.9769 2.77319 12.5277 3.30666 12.6706C3.84012 12.8136 4.38268 12.4936 4.59102 11.9822C5.12454 10.6723 5.99841 9.5214 7.1299 8.65317C7.15049 8.63737 7.17115 8.62168 7.19188 8.60609L8.62499 10.0392C8.53078 10.1033 8.43822 10.1702 8.34742 10.2399C7.56554 10.8398 6.94767 11.6198 6.54237 12.5071C6.3129 13.0095 6.63689 13.563 7.17036 13.7059C7.70383 13.8488 8.24205 13.5225 8.51254 13.041C8.77592 12.5721 9.13287 12.1581 9.56494 11.8266C9.72792 11.7015 9.89945 11.5898 10.0779 11.4921L11.6215 13.0358C10.6979 13.2126 9.99999 14.0248 9.99999 15C9.99999 16.1046 10.8954 17 12 17C12.9752 17 13.7873 16.3021 13.9642 15.3784L17.2929 18.7071C17.6834 19.0976 18.3166 19.0976 18.7071 18.7071C19.0976 18.3166 19.0976 17.6834 18.7071 17.2929L4.70711 3.29289Z" fill="#171717"/>
<path d="M15.0014 9.80466C14.5655 9.55282 14.2602 10.046 14.6162 10.402L16.9545 12.7402C17.194 12.9797 17.5995 12.8781 17.4801 12.5611C17.4733 12.5431 17.4658 12.5251 17.4576 12.5071C17.0523 11.6198 16.4344 10.8398 15.6526 10.2399C15.4443 10.0801 15.2267 9.93483 15.0014 9.80466Z" fill="#171717"/>
<path d="M10.3843 5.13137C10.0019 5.19398 9.87203 5.65777 10.146 5.93178L11.0832 6.86897C11.1886 6.9743 11.3353 7.02626 11.484 7.01665C11.6553 7.00558 11.8274 7 12 7C13.7611 7 15.4729 7.5811 16.8701 8.65317C18.0016 9.5214 18.8754 10.6723 19.409 11.9822C19.6173 12.4936 20.1599 12.8136 20.6933 12.6706C21.2268 12.5277 21.5481 11.9769 21.3526 11.4604C20.6965 9.72674 19.5686 8.20287 18.0876 7.06647C16.3412 5.72638 14.2013 5 12 5C11.456 5 10.9158 5.04436 10.3843 5.13137Z" fill="#171717"/>
</svg>
