<svg width="24" height="24" viewBox="0 0 24 24" fill="none" xmlns="http://www.w3.org/2000/svg">
<path fill-rule="evenodd" clip-rule="evenodd" d="M12 11C11.1195 11 10.2635 11.2905 9.56495 11.8266C9.13287 12.1581 8.77593 12.5721 8.51255 13.041C8.24206 13.5225 7.70383 13.8488 7.17037 13.7059C6.6369 13.563 6.31291 13.0095 6.54237 12.5071C6.94768 11.6198 7.56555 10.8398 8.34743 10.2399C9.39529 9.43582 10.6792 9 12 9C13.3208 9 14.6047 9.43582 15.6526 10.2399C16.4344 10.8398 17.0523 11.6198 17.4576 12.5071C17.6871 13.0095 17.3631 13.563 16.8296 13.7059C16.2962 13.8488 15.7579 13.5225 15.4874 13.041C15.2241 12.5721 14.8671 12.1581 14.435 11.8266C13.7365 11.2905 12.8805 11 12 11Z" fill="#171717"/>
<path fill-rule="evenodd" clip-rule="evenodd" d="M12 7C10.2389 7 8.52706 7.5811 7.12991 8.65317C5.99842 9.5214 5.12454 10.6723 4.59103 11.9822C4.38269 12.4936 3.84013 12.8136 3.30666 12.6706C2.7732 12.5277 2.4519 11.9769 2.64738 11.4604C3.30348 9.72674 4.4314 8.20287 5.91238 7.06647C7.65883 5.72637 9.79866 5 12 5C14.2013 5 16.3412 5.72638 18.0876 7.06647C19.5686 8.20287 20.6965 9.72674 21.3526 11.4604C21.5481 11.9769 21.2268 12.5277 20.6933 12.6706C20.1599 12.8136 19.6173 12.4936 19.409 11.9822C18.8755 10.6723 18.0016 9.5214 16.8701 8.65317C15.4729 7.5811 13.7611 7 12 7Z" fill="#171717"/>
<path d="M14 15C14 16.1046 13.1046 17 12 17C10.8954 17 10 16.1046 10 15C10 13.8954 10.8954 13 12 13C13.1046 13 14 13.8954 14 15Z" fill="#171717"/>
</svg>
