<svg width="24" height="24" viewBox="0 0 24 24" fill="none" xmlns="http://www.w3.org/2000/svg">
<path d="M14 15C14 16.1046 13.1046 17 12 17C10.8954 17 10 16.1046 10 15C10 13.8954 10.8954 13 12 13C13.1046 13 14 13.8954 14 15Z" fill="#171717"/>
<g opacity="0.3">
<path fill-rule="evenodd" clip-rule="evenodd" d="M12 11C11.1195 11 10.2636 11.2905 9.56499 11.8266C9.13291 12.1581 8.77597 12.5721 8.51258 13.041C8.24209 13.5225 7.70387 13.8488 7.1704 13.7059C6.63694 13.563 6.31294 13.0095 6.54241 12.5071C6.94772 11.6198 7.56558 10.8398 8.34746 10.2399C9.39533 9.43582 10.6792 9 12 9C13.3208 9 14.6047 9.43582 15.6526 10.2399C16.4345 10.8398 17.0523 11.6198 17.4577 12.5071C17.6871 13.0095 17.3631 13.563 16.8297 13.7059C16.2962 13.8488 15.758 13.5225 15.4875 13.041C15.2241 12.5721 14.8672 12.1581 14.4351 11.8266C13.7365 11.2905 12.8806 11 12 11Z" fill="#171717"/>
<path fill-rule="evenodd" clip-rule="evenodd" d="M12.0001 7C10.239 7 8.52711 7.5811 7.12996 8.65317C5.99847 9.5214 5.1246 10.6723 4.59108 11.9822C4.38274 12.4936 3.84018 12.8136 3.30672 12.6706C2.77325 12.5277 2.45195 11.9769 2.64744 11.4604C3.30354 9.72674 4.43145 8.20287 5.91244 7.06647C7.65888 5.72637 9.79871 5 12.0001 5C14.2014 5 16.3412 5.72638 18.0877 7.06647C19.5687 8.20287 20.6966 9.72674 21.3527 11.4604C21.5481 11.9769 21.2269 12.5277 20.6934 12.6706C20.1599 12.8136 19.6174 12.4936 19.409 11.9822C18.8755 10.6723 18.0016 9.5214 16.8701 8.65317C15.473 7.5811 13.7611 7 12.0001 7Z" fill="#171717"/>
</g>
</svg>
