<svg width="24" height="24" viewBox="0 0 24 24" fill="none" xmlns="http://www.w3.org/2000/svg">
<path d="M4.70711 3.29289C4.31658 2.90237 3.68342 2.90237 3.29289 3.29289C2.90237 3.68342 2.90237 4.31658 3.29289 4.70711L5.29552 6.70973C4.416 7.18951 3.59009 7.76256 2.8322 8.41924C2.4148 8.78089 2.41703 9.41709 2.80755 9.80761L3.51466 10.5147C3.90518 10.9052 4.53566 10.9013 4.96002 10.5478C5.739 9.89899 6.60486 9.36021 7.53342 8.94763L9.0745 10.4887C8.89984 10.5487 8.72684 10.6142 8.55578 10.6851C7.77249 11.0095 7.04055 11.4424 6.38087 11.9696C5.94945 12.3144 5.95255 12.9526 6.34307 13.3431L7.05018 14.0502C7.4407 14.4408 8.07002 14.4326 8.51992 14.1123C8.8877 13.8504 9.28474 13.6303 9.70383 13.4567C10.3081 13.2064 10.9484 13.057 11.5992 13.0134L17.2929 18.7071C17.6834 19.0976 18.3166 19.0976 18.7071 18.7071C19.0976 18.3166 19.0976 17.6834 18.7071 17.2929L4.70711 3.29289Z" fill="#171717"/>
<path d="M15.4441 10.6851C15.2268 10.5951 15.067 10.8527 15.2333 11.019L17.2535 13.0393C17.4488 13.2345 17.7789 13.2323 17.8661 12.9703C17.9847 12.6143 17.9187 12.2092 17.619 11.9696C16.9593 11.4424 16.2274 11.0095 15.4441 10.6851Z" fill="#171717"/>
<path d="M10.3883 5.09307C9.9884 5.13942 9.83603 5.62177 10.1207 5.90642L12.074 7.85974C12.1654 7.9511 12.2886 8.00303 12.4177 8.00794C13.7197 8.05741 15.0037 8.33787 16.2095 8.83733C17.2355 9.26232 18.1894 9.83949 19.0399 10.5478C19.4642 10.9013 20.0947 10.9052 20.4852 10.5147L21.1923 9.80761C21.5829 9.41709 21.5851 8.78089 21.1677 8.41924C20.0338 7.43677 18.7476 6.64149 17.3575 6.06569C15.659 5.36212 13.8384 5 11.9999 5C11.4603 5 10.9222 5.0312 10.3883 5.09307Z" fill="#171717"/>
<path d="M9.95931 15.5597C9.48431 15.8415 9.48819 16.4881 9.87872 16.8787L11.2929 18.2929C11.6835 18.6834 12.3166 18.6834 12.7071 18.2929L14.1214 16.8787C14.5119 16.4881 14.5158 15.8415 14.0408 15.5597C13.8774 15.4628 13.707 15.3775 13.5308 15.3045C13.1228 15.1355 12.6901 15.0354 12.2505 15.0078C12.1672 15.0026 12.0837 15 12 15C11.9164 15 11.8328 15.0026 11.7495 15.0078C11.3099 15.0354 10.8773 15.1355 10.4693 15.3045C10.2931 15.3775 10.1227 15.4628 9.95931 15.5597Z" fill="#171717"/>
</svg>
