<svg width="24" height="24" viewBox="0 0 24 24" fill="none" xmlns="http://www.w3.org/2000/svg">
<path d="M4.70711 3.29289C4.31658 2.90237 3.68342 2.90237 3.29289 3.29289C2.90237 3.68342 2.90237 4.31658 3.29289 4.70711L11 12.4142V14.8879C11 15.0259 10.8632 15.1227 10.7293 15.0893C10.4958 15.031 10.2515 15 10 15C8.34315 15 7 16.3432 7 18C7 19.6569 8.34315 21 10 21C11.6569 21 13 19.6569 13 18V14.4142L19.2929 20.7071C19.6834 21.0976 20.3166 21.0976 20.7071 20.7071C21.0976 20.3166 21.0976 19.6834 20.7071 19.2929L4.70711 3.29289Z" fill="#171717"/>
<path d="M17.1414 9.12266L13.8125 9.59823L11 6.78574V4.86731C11 4.36966 11.3659 3.94773 11.8586 3.87736L16.8586 3.16307C17.461 3.07701 18 3.54447 18 4.15302V8.13272C18 8.63037 17.6341 9.05229 17.1414 9.12266Z" fill="#171717"/>
</svg>
