<svg width="24" height="24" viewBox="0 0 24 24" fill="none" xmlns="http://www.w3.org/2000/svg">
<path fill-rule="evenodd" clip-rule="evenodd" d="M11.8114 2C7.22114 2 3.5 5.72114 3.5 10.3114C3.5 12.6732 4.43821 14.9382 6.10824 16.6082L11.2929 21.7929C11.6834 22.1834 12.3166 22.1834 12.7071 21.7929L17.8918 16.6082C19.5618 14.9382 20.5 12.6732 20.5 10.3114C20.5 5.72114 16.7789 2 12.1886 2H11.8114ZM12 6.5C12.5523 6.5 13 6.94772 13 7.5V10.0858L13.7929 9.29289C14.1834 8.90237 14.8166 8.90237 15.2071 9.29289C15.5976 9.68342 15.5976 10.3166 15.2071 10.7071L12.7071 13.2071C12.5196 13.3946 12.2652 13.5 12 13.5C11.7348 13.5 11.4802 13.3944 11.2926 13.2068L8.79289 10.7071C8.40237 10.3166 8.40237 9.68342 8.79289 9.29289C9.18342 8.90237 9.81658 8.90237 10.2071 9.29289L11 10.0858V7.5C11 6.94772 11.4477 6.5 12 6.5Z" fill="#171717"/>
</svg>
