<svg width="24" height="24" viewBox="0 0 24 24" fill="none" xmlns="http://www.w3.org/2000/svg">
<path fill-rule="evenodd" clip-rule="evenodd" d="M11.8114 2C7.22114 2 3.5 5.72114 3.5 10.3114C3.5 12.6732 4.43821 14.9382 6.10824 16.6082L11.2929 21.7929C11.6834 22.1834 12.3166 22.1834 12.7071 21.7929L17.8918 16.6082C19.5618 14.9382 20.5 12.6732 20.5 10.3114C20.5 5.72114 16.7789 2 12.1886 2H11.8114ZM11.2929 6.79289C11.3888 6.69702 11.4993 6.62468 11.6172 6.57588C11.9797 6.42591 12.4125 6.49825 12.7071 6.79289L15.2071 9.29289C15.5976 9.68342 15.5976 10.3166 15.2071 10.7071C14.8166 11.0976 14.1834 11.0976 13.7929 10.7071L13 9.91421V12.5C13 13.0523 12.5523 13.5 12 13.5C11.4477 13.5 11 13.0523 11 12.5V9.91421L10.2071 10.7071C9.81658 11.0976 9.18342 11.0976 8.79289 10.7071C8.40237 10.3166 8.40237 9.68342 8.79289 9.29289L11.2929 6.79289Z" fill="#171717"/>
</svg>
