<svg width="24" height="24" viewBox="0 0 24 24" fill="none" xmlns="http://www.w3.org/2000/svg">
<path fill-rule="evenodd" clip-rule="evenodd" d="M11.8114 2C7.22114 2 3.5 5.72114 3.5 10.3114C3.5 12.6732 4.43821 14.9382 6.10824 16.6082L11.2929 21.7929C11.6834 22.1834 12.3166 22.1834 12.7071 21.7929L17.8918 16.6082C19.5618 14.9382 20.5 12.6732 20.5 10.3114C20.5 5.72114 16.7789 2 12.1886 2H11.8114ZM8.29289 10.7071C8.10536 10.8946 8 11.149 8 11.4142V13.5C8 13.7761 8.22386 14 8.5 14H10.5858C10.851 14 11.1054 13.8946 11.2929 13.7071L15.2929 9.70711C15.6834 9.31658 15.6834 8.68342 15.2929 8.29289L13.7071 6.70711C13.3166 6.31658 12.6834 6.31658 12.2929 6.70711L8.29289 10.7071Z" fill="#171717"/>
</svg>
