<svg width="24" height="24" viewBox="0 0 24 24" fill="none" xmlns="http://www.w3.org/2000/svg">
<path fill-rule="evenodd" clip-rule="evenodd" d="M11.8114 2C7.22114 2 3.5 5.72114 3.5 10.3114C3.5 12.6732 4.43821 14.9382 6.10824 16.6082L11.2929 21.7929C11.6834 22.1834 12.3166 22.1834 12.7071 21.7929L17.8918 16.6082C19.5618 14.9382 20.5 12.6732 20.5 10.3114C20.5 5.72114 16.7789 2 12.1886 2H11.8114ZM12 7C11.4477 7 11 7.44772 11 8C11 8.55228 11.4477 9 12 9H16C16.5523 9 17 8.55228 17 8C17 7.44772 16.5523 7 16 7H12ZM8 11C7.44772 11 7 11.4477 7 12C7 12.5523 7.44772 13 8 13C8.55228 13 9 12.5523 9 12C9 11.4477 8.55228 11 8 11ZM7 8C7 7.44772 7.44772 7 8 7C8.55228 7 9 7.44772 9 8C9 8.55228 8.55228 9 8 9C7.44772 9 7 8.55228 7 8ZM12 11C11.4477 11 11 11.4477 11 12C11 12.5523 11.4477 13 12 13H16C16.5523 13 17 12.5523 17 12C17 11.4477 16.5523 11 16 11H12Z" fill="#171717"/>
</svg>
