<svg width="24" height="24" viewBox="0 0 24 24" fill="none" xmlns="http://www.w3.org/2000/svg">
<path fill-rule="evenodd" clip-rule="evenodd" d="M11.8114 2C7.22114 2 3.5 5.72114 3.5 10.3114C3.5 12.6732 4.43821 14.9382 6.10824 16.6082L11.2929 21.7929C11.6834 22.1834 12.3166 22.1834 12.7071 21.7929L17.8918 16.6082C19.5618 14.9382 20.5 12.6732 20.5 10.3114C20.5 5.72114 16.7789 2 12.1886 2H11.8114ZM12 7C10.8954 7 10 7.89543 10 9V10C10 11.1046 10.8954 12 12 12C13.1046 12 14 11.1046 14 10V9C14 7.89543 13.1046 7 12 7ZM9.40193 11.5C9.12579 11.0217 8.5142 10.8578 8.0359 11.134C7.55761 11.4101 7.39374 12.0217 7.66988 12.5C8.10872 13.2601 8.73991 13.8913 9.5 14.3301C10.2601 14.769 11.1223 15 12 15C12.8777 15 13.7399 14.769 14.5 14.3301C15.2601 13.8913 15.8913 13.2601 16.3301 12.5C16.6063 12.0217 16.4424 11.4101 15.9641 11.134C15.4858 10.8578 14.8742 11.0217 14.5981 11.5C14.3348 11.9561 13.9561 12.3348 13.5 12.5981C13.0439 12.8614 12.5266 13 12 13C11.4734 13 10.9561 12.8614 10.5 12.5981C10.0439 12.3348 9.66523 11.9561 9.40193 11.5Z" fill="#171717"/>
</svg>
