<svg width="24" height="24" viewBox="0 0 24 24" fill="none" xmlns="http://www.w3.org/2000/svg">
<path fill-rule="evenodd" clip-rule="evenodd" d="M12.7071 2.70708C12.3166 2.31655 11.6834 2.31655 11.2929 2.70708L8.20711 5.79287C7.81658 6.1834 7.81658 6.81656 8.20711 7.20709L11.2929 10.2929C11.6834 10.6834 12.3166 10.6834 12.7071 10.2929L15.7929 7.20708C16.1834 6.81656 16.1834 6.18339 15.7929 5.79287L12.7071 2.70708Z" fill="#171717"/>
<path fill-rule="evenodd" clip-rule="evenodd" d="M5.7929 8.20708C6.18343 7.81655 6.81659 7.81655 7.20712 8.20708L10.2929 11.2929C10.6834 11.6834 10.6834 12.3166 10.2929 12.7071L7.20711 15.7929C6.81659 16.1834 6.18342 16.1834 5.7929 15.7929L2.70711 12.7071C2.31658 12.3166 2.31658 11.6834 2.70711 11.2929L5.7929 8.20708Z" fill="#171717"/>
<path fill-rule="evenodd" clip-rule="evenodd" d="M16.7929 8.20708C17.1834 7.81655 17.8166 7.81655 18.2071 8.20708L21.2929 11.2929C21.6834 11.6834 21.6834 12.3166 21.2929 12.7071L18.2071 15.7929C17.8166 16.1834 17.1834 16.1834 16.7929 15.7929L13.7071 12.7071C13.3166 12.3166 13.3166 11.6834 13.7071 11.2929L16.7929 8.20708Z" fill="#171717"/>
<path fill-rule="evenodd" clip-rule="evenodd" d="M11.2929 13.7071C11.6834 13.3166 12.3166 13.3166 12.7071 13.7071L15.7929 16.7929C16.1834 17.1834 16.1834 17.8166 15.7929 18.2071L12.7071 21.2929C12.3166 21.6834 11.6834 21.6834 11.2929 21.2929L8.20711 18.2071C7.81658 17.8166 7.81658 17.1834 8.20711 16.7929L11.2929 13.7071Z" fill="#171717"/>
</svg>
