<svg width="24" height="24" viewBox="0 0 24 24" fill="none" xmlns="http://www.w3.org/2000/svg">
<path fill-rule="evenodd" clip-rule="evenodd" d="M8 2C6.89543 2 6 2.89543 6 4V5.59688C6 6.50516 6.30912 7.3864 6.87653 8.09566L9.00049 10.7506C9.58484 11.481 9.58484 12.519 9.00049 13.2494L6.87652 15.9043C6.30912 16.6136 6 17.4948 6 18.4031V20C6 21.1046 6.89543 22 8 22H16C17.1046 22 18 21.1046 18 20V18.4031C18 17.4948 17.6909 16.6136 17.1235 15.9043L14.9995 13.2494C14.4152 12.519 14.4152 11.481 14.9995 10.7506L17.1235 8.09566C17.6909 7.3864 18 6.50516 18 5.59688V4C18 2.89543 17.1046 2 16 2H8ZM9 4H15C15.5523 4 16 4.44772 16 5V5.59688C16 6.05102 15.8454 6.49164 15.5617 6.84627L14.0383 8.75061C13.6587 9.22504 13.0841 9.50122 12.4765 9.50122L11.5235 9.50122C10.9159 9.50122 10.3413 9.22504 9.96174 8.75061L8.43826 6.84627C8.15456 6.49164 8 6.05102 8 5.59688V5C8 4.44772 8.44772 4 9 4Z" fill="#171717"/>
</svg>
