<svg width="24" height="24" viewBox="0 0 24 24" fill="none" xmlns="http://www.w3.org/2000/svg">
<path fill-rule="evenodd" clip-rule="evenodd" d="M21 17C21 19.2091 19.2091 21 17 21H7C4.79086 21 3 19.2091 3 17V7C3 4.79086 4.79086 3 7 3H17C19.2091 3 21 4.79086 21 7V17ZM11.7071 8.29289C11.3166 7.90237 10.6834 7.90237 10.2929 8.29289L7.29289 11.2929C6.90237 11.6834 6.90237 12.3166 7.29289 12.7071L10.2929 15.7071C10.6834 16.0976 11.3166 16.0976 11.7071 15.7071C12.0976 15.3166 12.0976 14.6834 11.7071 14.2929L9.41421 12L11.7071 9.70711C12.0976 9.31658 12.0976 8.68342 11.7071 8.29289ZM15.2929 8.29289C15.6834 7.90237 16.3166 7.90237 16.7071 8.29289C17.0976 8.68342 17.0976 9.31658 16.7071 9.70711L14.4142 12L16.7071 14.2929C17.0976 14.6834 17.0976 15.3166 16.7071 15.7071C16.3166 16.0976 15.6834 16.0976 15.2929 15.7071L12.2929 12.7071C11.9024 12.3166 11.9024 11.6834 12.2929 11.2929L15.2929 8.29289Z" fill="#171717"/>
</svg>
