<svg width="24" height="24" viewBox="0 0 24 24" fill="none" xmlns="http://www.w3.org/2000/svg">
<path fill-rule="evenodd" clip-rule="evenodd" d="M3 7C3 4.79086 4.79086 3 7 3H17C19.2091 3 21 4.79086 21 7V17C21 19.2091 19.2091 21 17 21H7C4.79086 21 3 19.2091 3 17V7ZM12.4927 8.1298C12.1792 7.95229 11.7944 7.95715 11.4855 8.14251L6.4855 11.1425C6.1843 11.3232 6 11.6487 6 12C6 12.3513 6.1843 12.6768 6.4855 12.8575L11.4855 15.8575C11.7944 16.0429 12.1792 16.0477 12.4927 15.8702C12.8062 15.6927 13 15.3603 13 15V14.1194C13 13.964 13.1696 13.8679 13.3029 13.9479L16.4855 15.8575C16.7944 16.0429 17.1792 16.0477 17.4927 15.8702C17.8062 15.6927 18 15.3603 18 15V9C18 8.63973 17.8062 8.30731 17.4927 8.1298C17.1792 7.95229 16.7944 7.95715 16.4855 8.14251L13.3029 10.0521C13.1696 10.1321 13 10.036 13 9.88057V9C13 8.63973 12.8062 8.30731 12.4927 8.1298Z" fill="#171717"/>
</svg>
