<svg width="24" height="24" viewBox="0 0 24 24" fill="none" xmlns="http://www.w3.org/2000/svg">
<path fill-rule="evenodd" clip-rule="evenodd" d="M17 3C19.2091 3 21 4.79086 21 7V17C21 19.2091 19.2091 21 17 21H7C4.79086 21 3 19.2091 3 17V7C3 4.79086 4.79086 3 7 3H17ZM12 5C11.4477 5 11 5.44772 11 6V7.66667C11 7.85076 10.8508 8 10.6667 8C10.2985 8 10 8.29848 10 8.66667V9.33333C10 9.70152 10.2985 10 10.6667 10C10.8508 10 11 10.1492 11 10.3333V18C11 18.5523 11.4477 19 12 19C12.5523 19 13 18.5523 13 18V10.3333C13 10.1492 13.1492 10 13.3333 10C13.7015 10 14 9.70152 14 9.33333V8.66667C14 8.29848 13.7015 8 13.3333 8C13.1492 8 13 7.85076 13 7.66667V6C13 5.44772 12.5523 5 12 5ZM16 6C16 5.44772 16.4477 5 17 5C17.5523 5 18 5.44772 18 6V13.6667C18 13.8508 18.1492 14 18.3333 14C18.7015 14 19 14.2985 19 14.6667V15.3333C19 15.7015 18.7015 16 18.3333 16C18.1492 16 18 16.1492 18 16.3333V18C18 18.5523 17.5523 19 17 19C16.4477 19 16 18.5523 16 18V16.3333C16 16.1492 15.8508 16 15.6667 16C15.2985 16 15 15.7015 15 15.3333V14.6667C15 14.2985 15.2985 14 15.6667 14C15.8508 14 16 13.8508 16 13.6667V6ZM7 5C6.44772 5 6 5.44772 6 6V11.6667C6 11.8508 5.85076 12 5.66667 12C5.29848 12 5 12.2985 5 12.6667V13.3333C5 13.7015 5.29848 14 5.66667 14C5.85076 14 6 14.1492 6 14.3333V18C6 18.5523 6.44772 19 7 19C7.55228 19 8 18.5523 8 18V14.3333C8 14.1492 8.14924 14 8.33333 14C8.70152 14 9 13.7015 9 13.3333V12.6667C9 12.2985 8.70152 12 8.33333 12C8.14924 12 8 11.8508 8 11.6667V6C8 5.44772 7.55228 5 7 5Z" fill="#171717"/>
</svg>
