<svg width="24" height="24" viewBox="0 0 24 24" fill="none" xmlns="http://www.w3.org/2000/svg">
<path fill-rule="evenodd" clip-rule="evenodd" d="M21 7C21 4.79086 19.2091 3 17 3H7C4.79086 3 3 4.79086 3 7V17C3 19.2091 4.79086 21 7 21H17C19.2091 21 21 19.2091 21 17V7ZM11.5073 8.1298C11.8208 7.95229 12.2056 7.95715 12.5145 8.14251L17.5145 11.1425C17.8157 11.3232 18 11.6487 18 12C18 12.3513 17.8157 12.6768 17.5145 12.8575L12.5145 15.8575C12.2056 16.0429 11.8208 16.0477 11.5073 15.8702C11.1938 15.6927 11 15.3603 11 15V14.1194C11 13.964 10.8304 13.8679 10.6971 13.9479L7.5145 15.8575C7.20556 16.0429 6.82081 16.0477 6.5073 15.8702C6.19379 15.6927 6 15.3603 6 15V9C6 8.63973 6.19379 8.30731 6.5073 8.1298C6.82081 7.95229 7.20556 7.95715 7.5145 8.14251L10.6971 10.0521C10.8304 10.1321 11 10.036 11 9.88057V9C11 8.63973 11.1938 8.30731 11.5073 8.1298Z" fill="#171717"/>
</svg>
