<svg width="24" height="24" viewBox="0 0 24 24" fill="none" xmlns="http://www.w3.org/2000/svg">
<path fill-rule="evenodd" clip-rule="evenodd" d="M3 7C3 4.79086 4.79086 3 7 3H17C19.2091 3 21 4.79086 21 7V17C21 19.2091 19.2091 21 17 21H7C4.79086 21 3 19.2091 3 17V7ZM12.2929 8.29289C12.6834 7.90237 13.3166 7.90237 13.7071 8.29289L16.7071 11.2929C17.0976 11.6834 17.0976 12.3166 16.7071 12.7071L13.7071 15.7071C13.3166 16.0976 12.6834 16.0976 12.2929 15.7071C11.9024 15.3166 11.9024 14.6834 12.2929 14.2929L14.5858 12L12.2929 9.70711C11.9024 9.31658 11.9024 8.68342 12.2929 8.29289ZM8.70711 8.29289C8.31658 7.90237 7.68342 7.90237 7.29289 8.29289C6.90237 8.68342 6.90237 9.31658 7.29289 9.70711L9.58579 12L7.29289 14.2929C6.90237 14.6834 6.90237 15.3166 7.29289 15.7071C7.68342 16.0976 8.31658 16.0976 8.70711 15.7071L11.7071 12.7071C12.0976 12.3166 12.0976 11.6834 11.7071 11.2929L8.70711 8.29289Z" fill="#171717"/>
</svg>
