<svg width="24" height="24" viewBox="0 0 24 24" fill="none" xmlns="http://www.w3.org/2000/svg">
<path fill-rule="evenodd" clip-rule="evenodd" d="M3 7C3 4.79086 4.79086 3 7 3H17C19.2091 3 21 4.79086 21 7V17C21 19.2091 19.2091 21 17 21H7C4.79086 21 3 19.2091 3 17V7ZM11.7071 8.29289C11.3166 7.90237 10.6834 7.90237 10.2929 8.29289L7.29289 11.2929C6.90237 11.6834 6.90237 12.3166 7.29289 12.7071L10.2929 15.7071C10.6834 16.0976 11.3166 16.0976 11.7071 15.7071C12.0976 15.3166 12.0976 14.6834 11.7071 14.2929L9.41421 12L11.7071 9.70711C12.0976 9.31658 12.0976 8.68342 11.7071 8.29289ZM14 9C14 8.44772 14.4477 8 15 8C15.5523 8 16 8.44772 16 9V15C16 15.5523 15.5523 16 15 16C14.4477 16 14 15.5523 14 15V9Z" fill="#171717"/>
</svg>
