<svg width="24" height="24" viewBox="0 0 24 24" fill="none" xmlns="http://www.w3.org/2000/svg">
<path fill-rule="evenodd" clip-rule="evenodd" d="M21 7C21 4.79086 19.2091 3 17 3H7C4.79086 3 3 4.79086 3 7V17C3 19.2091 4.79086 21 7 21H17C19.2091 21 21 19.2091 21 17V7ZM12.2929 8.29289C12.6834 7.90237 13.3166 7.90237 13.7071 8.29289L16.7071 11.2929C17.0976 11.6834 17.0976 12.3166 16.7071 12.7071L13.7071 15.7071C13.3166 16.0976 12.6834 16.0976 12.2929 15.7071C11.9024 15.3166 11.9024 14.6834 12.2929 14.2929L14.5858 12L12.2929 9.70711C11.9024 9.31658 11.9024 8.68342 12.2929 8.29289ZM10 9C10 8.44772 9.55229 8 9 8C8.44771 8 8 8.44772 8 9V15C8 15.5523 8.44771 16 9 16C9.55229 16 10 15.5523 10 15V9Z" fill="#171717"/>
</svg>
