<svg width="24" height="24" viewBox="0 0 24 24" fill="none" xmlns="http://www.w3.org/2000/svg">
<path d="M5 4C6.10457 4 7 4.89543 7 6V18C7 19.1046 6.10457 20 5 20C3.89543 20 3 19.1046 3 18V6C3 4.89543 3.89543 4 5 4Z" fill="#171717"/>
<path d="M10.5207 4C10.8327 4 11.1371 4.09597 11.3927 4.27489L20.1808 10.4265C20.6942 10.7859 21 11.3733 21 12C21 12.6267 20.6942 13.2141 20.1808 13.5735L11.3927 19.7251C11.1371 19.904 10.8327 20 10.5207 20C9.68082 20 9 19.3192 9 18.4793V5.52066C9 4.68082 9.68082 4 10.5207 4Z" fill="#171717"/>
</svg>
