<svg width="24" height="24" viewBox="0 0 24 24" fill="none" xmlns="http://www.w3.org/2000/svg">
<path fill-rule="evenodd" clip-rule="evenodd" d="M3 7C3 4.79086 4.79086 3 7 3H17C19.2091 3 21 4.79086 21 7V17C21 19.2091 19.2091 21 17 21H7C4.79086 21 3 19.2091 3 17V7Z" fill="#171717"/>
<path d="M15 8C15.5523 8 16 8.44772 16 9V15C16 15.5523 15.5523 16 15 16C14.4477 16 14 15.5523 14 15V13.5194C14 13.364 13.8304 13.2679 13.6971 13.3479L9.5145 15.8575C9.20556 16.0429 8.82081 16.0477 8.5073 15.8702C8.19379 15.6927 8 15.3603 8 15V9C8 8.63973 8.19379 8.30731 8.5073 8.1298C8.82081 7.95229 9.20556 7.95715 9.5145 8.14251L13.6971 10.6521C13.8304 10.7321 14 10.636 14 10.4806V9C14 8.44772 14.4477 8 15 8Z" fill="white"/>
</svg>
