<svg width="24" height="24" viewBox="0 0 24 24" fill="none" xmlns="http://www.w3.org/2000/svg">
<path fill-rule="evenodd" clip-rule="evenodd" d="M3 7C3 4.79086 4.79086 3 7 3H17C19.2091 3 21 4.79086 21 7V17C21 19.2091 19.2091 21 17 21H7C4.79086 21 3 19.2091 3 17V7ZM8.29289 8.29289C8.68342 7.90237 9.31658 7.90237 9.70711 8.29289L12.7071 11.2929C13.0976 11.6834 13.0976 12.3166 12.7071 12.7071L9.70711 15.7071C9.31658 16.0976 8.68342 16.0976 8.29289 15.7071C7.90237 15.3166 7.90237 14.6834 8.29289 14.2929L10.5858 12L8.29289 9.70711C7.90237 9.31658 7.90237 8.68342 8.29289 8.29289ZM16 9C16 8.44772 15.5523 8 15 8C14.4477 8 14 8.44772 14 9V15C14 15.5523 14.4477 16 15 16C15.5523 16 16 15.5523 16 15V9Z" fill="#171717"/>
</svg>
