<svg width="24" height="24" viewBox="0 0 24 24" fill="none" xmlns="http://www.w3.org/2000/svg">
<path fill-rule="evenodd" clip-rule="evenodd" d="M21 7C21 4.79086 19.2091 3 17 3H7C4.79086 3 3 4.79086 3 7V17C3 19.2091 4.79086 21 7 21H17C19.2091 21 21 19.2091 21 17V7Z" fill="#171717"/>
<path d="M9 8C8.44771 8 8 8.44772 8 9V15C8 15.5523 8.44771 16 9 16C9.55229 16 10 15.5523 10 15V13.5194C10 13.364 10.1696 13.2679 10.3029 13.3479L14.4855 15.8575C14.7944 16.0429 15.1792 16.0477 15.4927 15.8702C15.8062 15.6927 16 15.3603 16 15V9C16 8.63973 15.8062 8.30731 15.4927 8.1298C15.1792 7.95229 14.7944 7.95715 14.4855 8.14251L10.3029 10.6521C10.1696 10.7321 10 10.636 10 10.4806V9C10 8.44772 9.55229 8 9 8Z" fill="white"/>
</svg>
