<svg width="24" height="24" viewBox="0 0 24 24" fill="none" xmlns="http://www.w3.org/2000/svg">
<path d="M3.08742 6.16436C3.22324 5.52529 4.00378 5.41799 4.46576 5.87998L12.2443 13.6585C12.3703 13.7845 12.2811 14 12.1029 14H9C8.44772 14 8 14.4477 8 15C8 15.5523 8.44772 16 9 16H15C15.5523 16 16 15.5523 16 15V8.99997C16 8.44769 15.5523 7.99997 15 7.99997C14.4477 7.99997 14 8.44769 14 8.99997V12.1029C14 12.2811 13.7846 12.3704 13.6586 12.2444L5.87998 4.46576C5.41799 4.00378 5.52529 3.22324 6.16436 3.08742C6.43387 3.03014 6.71342 3 7 3H17C19.2091 3 21 4.79086 21 7V17C21 19.2091 19.2091 21 17 21H7C4.79086 21 3 19.2091 3 17V7C3 6.71342 3.03014 6.43387 3.08742 6.16436Z" fill="#171717"/>
</svg>
