<svg width="24" height="24" viewBox="0 0 24 24" fill="none" xmlns="http://www.w3.org/2000/svg">
<path d="M7 3C4.79086 3 3 4.79086 3 7V17C3 19.2091 4.79086 21 7 21H17C19.2091 21 21 19.2091 21 17V14C21 13.4477 20.5523 13 20 13L11.8971 13C11.7189 13 11.6296 13.2154 11.7556 13.3414L13.7071 15.2929C14.0976 15.6834 14.0976 16.3166 13.7071 16.7071C13.3166 17.0976 12.6834 17.0976 12.2929 16.7071L8.29356 12.7078C8.10602 12.5202 8 12.2652 8 12C8 11.7271 8.10929 11.4798 8.28648 11.2994L8.29289 11.2929L12.2929 7.29289C12.6834 6.90237 13.3166 6.90237 13.7071 7.29289C14.0976 7.68342 14.0976 8.31658 13.7071 8.70711L11.7556 10.6586C11.6296 10.7846 11.7189 11 11.8971 11L20 11C20.5523 11 21 10.5523 21 10V7C21 4.79086 19.2091 3 17 3H7Z" fill="#171717"/>
</svg>
