<svg width="24" height="24" viewBox="0 0 24 24" fill="none" xmlns="http://www.w3.org/2000/svg">
<path d="M7 3C4.79086 3 3 4.79086 3 7V17C3 19.2091 4.79086 21 7 21H17C17.2866 21 17.5661 20.9699 17.8356 20.9126C18.4747 20.7768 18.582 19.9962 18.12 19.5342L10.3414 11.7556C10.2154 11.6296 10 11.7189 10 11.8971V15C10 15.5523 9.55228 16 9 16C8.44772 16 8 15.5523 8 15V9C8 8.44772 8.44772 8 9 8H15C15.5523 8 16 8.44772 16 9C16 9.55228 15.5523 10 15 10H11.8971C11.7189 10 11.6296 10.2154 11.7556 10.3414L19.5342 18.12C19.9962 18.582 20.7768 18.4747 20.9126 17.8356C20.9699 17.5661 21 17.2866 21 17V7C21 4.79086 19.2091 3 17 3H7Z" fill="#171717"/>
</svg>
