<svg width="24" height="24" viewBox="0 0 24 24" fill="none" xmlns="http://www.w3.org/2000/svg">
<path d="M7 3C4.79086 3 3 4.79086 3 7V17C3 17.2866 3.03014 17.5661 3.08742 17.8356C3.22324 18.4747 4.00378 18.582 4.46576 18.12L12.2444 10.3414C12.3704 10.2154 12.2811 10 12.1029 10H9C8.44772 10 8 9.55228 8 9C8 8.44772 8.44772 8 9 8H15C15.5523 8 16 8.44772 16 9V15C16 15.5523 15.5523 16 15 16C14.4477 16 14 15.5523 14 15V11.8971C14 11.7189 13.7846 11.6296 13.6586 11.7556L5.87998 19.5342C5.41799 19.9962 5.52529 20.7768 6.16436 20.9126C6.43387 20.9699 6.71342 21 7 21H17C19.2091 21 21 19.2091 21 17V7C21 4.79086 19.2091 3 17 3H7Z" fill="#171717"/>
</svg>
