<svg width="24" height="24" viewBox="0 0 24 24" fill="none" xmlns="http://www.w3.org/2000/svg">
<path d="M11 5H5C2.79086 5 1 6.79086 1 9V15C1 17.2091 2.79086 19 5 19H15C17.2091 19 19 17.2091 19 15V14H15C13.8081 14 12.7379 13.4787 12.0051 12.6516L10.6332 13.774C10.2649 14.0753 9.73513 14.0753 9.36676 13.774L3.86676 9.27396C3.43932 8.92423 3.37631 8.29421 3.72604 7.86676C4.07577 7.43932 4.70579 7.37631 5.13324 7.72604L10 11.7079L11.0843 10.8208C11.029 10.5559 11 10.2813 11 10V5Z" fill="#171717"/>
<path fill-rule="evenodd" clip-rule="evenodd" d="M15 1C13.3431 1 12 2.34315 12 4V10C12 11.6569 13.3431 13 15 13H21C22.6569 13 24 11.6569 24 10V4C24 2.34315 22.6569 1 21 1H15ZM17.2929 10.2071C17.3888 10.303 17.4993 10.3753 17.6172 10.4241C17.9797 10.5741 18.4125 10.5018 18.7071 10.2071L21.2071 7.70711C21.5976 7.31658 21.5976 6.68342 21.2071 6.29289C20.8166 5.90237 20.1834 5.90237 19.7929 6.29289L19 7.08579V4.5C19 3.94772 18.5523 3.5 18 3.5C17.4477 3.5 17 3.94772 17 4.5V7.08579L16.2071 6.29289C15.8166 5.90237 15.1834 5.90237 14.7929 6.29289C14.4024 6.68342 14.4024 7.31658 14.7929 7.70711L17.2929 10.2071Z" fill="#171717"/>
</svg>
