<svg width="24" height="24" viewBox="0 0 24 24" fill="none" xmlns="http://www.w3.org/2000/svg">
<path fill-rule="evenodd" clip-rule="evenodd" d="M12 4C12 2.34315 13.3431 1 15 1H21C22.6569 1 24 2.34315 24 4V10C24 11.6569 22.6569 13 21 13H15C13.3431 13 12 11.6569 12 10V4ZM20.1504 9.69191C20.0325 9.7408 19.9032 9.76779 19.7676 9.76779H16.2321C15.6798 9.76779 15.2321 9.32007 15.2321 8.76779C15.2321 8.2155 15.6798 7.76779 16.2321 7.76779H17.3534L15.525 5.93936C15.1345 5.54884 15.1345 4.91567 15.525 4.52515C15.9155 4.13462 16.5487 4.13462 16.9392 4.52515L18.7676 6.35357L18.7676 5.23225C18.7676 4.67997 19.2154 4.23225 19.7676 4.23225C20.3199 4.23225 20.7676 4.67997 20.7676 5.23225V8.76779C20.7676 9.18448 20.5128 9.54165 20.1504 9.69191Z" fill="#171717"/>
<path d="M5 5H11V10C11 10.2813 11.029 10.5559 11.0843 10.8208L10 11.7079L5.13324 7.72604C4.70579 7.37631 4.07577 7.43932 3.72604 7.86676C3.37631 8.29421 3.43932 8.92423 3.86676 9.27396L9.36676 13.774C9.73513 14.0753 10.2649 14.0753 10.6332 13.774L12.0051 12.6516C12.7379 13.4787 13.8081 14 15 14H19V15C19 17.2091 17.2091 19 15 19H5C2.79086 19 1 17.2091 1 15V9C1 6.79086 2.79086 5 5 5Z" fill="#171717"/>
</svg>
