<svg width="24" height="24" viewBox="0 0 24 24" fill="none" xmlns="http://www.w3.org/2000/svg">
<path fill-rule="evenodd" clip-rule="evenodd" d="M12 4C12 2.34315 13.3431 1 15 1H21C22.6569 1 24 2.34315 24 4V10C24 11.6569 22.6569 13 21 13H15C13.3431 13 12 11.6569 12 10V4ZM14.5759 6.61722C14.6247 6.49927 14.697 6.38877 14.7929 6.29289L17.2929 3.79289C17.6834 3.40237 18.3166 3.40237 18.7071 3.79289C19.0976 4.18342 19.0976 4.81658 18.7071 5.20711L17.9142 6H20.5C21.0523 6 21.5 6.44772 21.5 7C21.5 7.55229 21.0523 8 20.5 8H17.9142L18.7071 8.7929C19.0976 9.18342 19.0976 9.81658 18.7071 10.2071C18.3166 10.5976 17.6834 10.5976 17.2929 10.2071L14.7929 7.70711C14.4982 7.41246 14.4259 6.97969 14.5759 6.61722Z" fill="#171717"/>
<path d="M5 5H11V10C11 10.2813 11.029 10.5559 11.0843 10.8208L10 11.7079L5.13324 7.72604C4.70579 7.37631 4.07577 7.43932 3.72604 7.86676C3.37631 8.29421 3.43932 8.92423 3.86676 9.27396L9.36676 13.774C9.73513 14.0753 10.2649 14.0753 10.6332 13.774L12.0051 12.6516C12.7379 13.4787 13.8081 14 15 14H19V15C19 17.2091 17.2091 19 15 19H5C2.79086 19 1 17.2091 1 15V9C1 6.79086 2.79086 5 5 5Z" fill="#171717"/>
</svg>
