<svg width="24" height="24" viewBox="0 0 24 24" fill="none" xmlns="http://www.w3.org/2000/svg">
<path fill-rule="evenodd" clip-rule="evenodd" d="M12 4C12 2.34315 13.3431 1 15 1H21C22.6569 1 24 2.34315 24 4V10C24 11.6569 22.6569 13 21 13H15C13.3431 13 12 11.6569 12 10V4ZM15.308 9.15055C15.2591 9.03264 15.2322 8.90336 15.2322 8.76777L15.2322 5.23223C15.2322 4.67995 15.6799 4.23223 16.2322 4.23223C16.7844 4.23223 17.2322 4.67995 17.2322 5.23223V6.35355L19.0606 4.52513C19.4511 4.1346 20.0843 4.1346 20.4748 4.52513C20.8653 4.91565 20.8653 5.54882 20.4748 5.93934L18.6464 7.76777L19.7677 7.76777C20.32 7.76777 20.7677 8.21548 20.7677 8.76777C20.7677 9.32005 20.32 9.76777 19.7677 9.76777H16.2322C15.8155 9.76777 15.4583 9.5129 15.308 9.15055Z" fill="#171717"/>
<path d="M5 5H11V10C11 10.2813 11.029 10.5559 11.0843 10.8208L10 11.7079L5.13324 7.72604C4.70579 7.37631 4.07577 7.43932 3.72604 7.86676C3.37631 8.29421 3.43932 8.92423 3.86676 9.27396L9.36676 13.774C9.73513 14.0753 10.2649 14.0753 10.6332 13.774L12.0051 12.6516C12.7379 13.4787 13.8081 14 15 14H19V15C19 17.2091 17.2091 19 15 19H5C2.79086 19 1 17.2091 1 15V9C1 6.79086 2.79086 5 5 5Z" fill="#171717"/>
</svg>
