<svg width="24" height="24" viewBox="0 0 24 24" fill="none" xmlns="http://www.w3.org/2000/svg">
<path d="M11 5H5C2.79086 5 1 6.79086 1 9V15C1 17.2091 2.79086 19 5 19H15C17.2091 19 19 17.2091 19 15V14H15C13.8081 14 12.7379 13.4787 12.0051 12.6516L10.6332 13.774C10.2649 14.0753 9.73513 14.0753 9.36676 13.774L3.86676 9.27396C3.43932 8.92423 3.37631 8.29421 3.72604 7.86676C4.07577 7.43932 4.70579 7.37631 5.13324 7.72604L10 11.7079L11.0843 10.8208C11.029 10.5559 11 10.2813 11 10V5Z" fill="#171717"/>
<path fill-rule="evenodd" clip-rule="evenodd" d="M15 1C13.3431 1 12 2.34315 12 4V10C12 11.6569 13.3431 13 15 13H21C22.6569 13 24 11.6569 24 10V4C24 2.34315 22.6569 1 21 1H15ZM15 8C15.5523 8 16 7.55228 16 7C16 6.44772 15.5523 6 15 6C14.4477 6 14 6.44772 14 7C14 7.55228 14.4477 8 15 8ZM19 7C19 7.55228 18.5523 8 18 8C17.4477 8 17 7.55228 17 7C17 6.44772 17.4477 6 18 6C18.5523 6 19 6.44772 19 7ZM22 7C22 7.55228 21.5523 8 21 8C20.4477 8 20 7.55228 20 7C20 6.44772 20.4477 6 21 6C21.5523 6 22 6.44772 22 7Z" fill="#171717"/>
</svg>
