<svg width="24" height="24" viewBox="0 0 24 24" fill="none" xmlns="http://www.w3.org/2000/svg">
<path d="M11 5H5C2.79086 5 1 6.79086 1 9V15C1 17.2091 2.79086 19 5 19H15C17.2091 19 19 17.2091 19 15V14H15C13.8081 14 12.7379 13.4787 12.0051 12.6516L10.6332 13.774C10.2649 14.0753 9.73513 14.0753 9.36676 13.774L3.86676 9.27396C3.43932 8.92423 3.37631 8.29421 3.72604 7.86676C4.07577 7.43932 4.70579 7.37631 5.13324 7.72604L10 11.7079L11.0843 10.8208C11.029 10.5559 11 10.2813 11 10V5Z" fill="#171717"/>
<path fill-rule="evenodd" clip-rule="evenodd" d="M15 1C13.3431 1 12 2.34315 12 4V10C12 11.6569 13.3431 13 15 13H21C22.6569 13 24 11.6569 24 10V4C24 2.34315 22.6569 1 21 1H15ZM17.9643 3C16.8597 3 15.9643 3.89543 15.9643 5V6C15.9643 7.10457 16.8597 8 17.9643 8C19.0688 8 19.9643 7.10457 19.9643 6V5C19.9643 3.89543 19.0688 3 17.9643 3ZM15.3662 7.5C15.09 7.02171 14.4785 6.85783 14.0002 7.13397C13.5219 7.41012 13.358 8.02171 13.6341 8.5C14.073 9.2601 14.7042 9.89128 15.4643 10.3301C16.2244 10.769 17.0866 11 17.9643 11C18.842 11 19.7042 10.769 20.4643 10.3301C21.2244 9.89128 21.8556 9.2601 22.2944 8.5C22.5705 8.02171 22.4067 7.41012 21.9284 7.13397C21.4501 6.85783 20.8385 7.02171 20.5623 7.5C20.299 7.95606 19.9203 8.33477 19.4643 8.59808C19.0082 8.86138 18.4909 9 17.9643 9C17.4377 9 16.9203 8.86138 16.4643 8.59808C16.0082 8.33477 15.6295 7.95606 15.3662 7.5Z" fill="#171717"/>
</svg>
