<svg width="24" height="24" viewBox="0 0 24 24" fill="none" xmlns="http://www.w3.org/2000/svg">
<path d="M11 5H5C2.79086 5 1 6.79086 1 9V15C1 17.2091 2.79086 19 5 19H15C17.2091 19 19 17.2091 19 15V14H15C13.8081 14 12.7379 13.4787 12.0051 12.6516L10.6332 13.774C10.2649 14.0753 9.73513 14.0753 9.36676 13.774L3.86676 9.27396C3.43932 8.92423 3.37631 8.29421 3.72604 7.86676C4.07577 7.43932 4.70579 7.37631 5.13324 7.72604L10 11.7079L11.0843 10.8208C11.029 10.5559 11 10.2813 11 10V5Z" fill="#171717"/>
<path fill-rule="evenodd" clip-rule="evenodd" d="M15 1C13.3431 1 12 2.34315 12 4V10C12 11.6569 13.3431 13 15 13H21C22.6569 13 24 11.6569 24 10V4C24 2.34315 22.6569 1 21 1H15ZM16.8519 3.22836C17.4001 3.0013 18.0033 2.94189 18.5853 3.05765C19.1672 3.1734 19.7018 3.45912 20.1213 3.87868C20.5118 4.2692 20.5118 4.90237 20.1213 5.29289C19.7308 5.68342 19.0976 5.68342 18.7071 5.29289C18.5673 5.15304 18.3891 5.0578 18.1951 5.01922C18.0011 4.98063 17.8 5.00043 17.6173 5.07612C17.4346 5.15181 17.2784 5.27998 17.1685 5.44443C17.0586 5.60888 17 5.80222 17 6V7L21 7C21.5523 7 22 7.44772 22 8V10C22 10.5523 21.5523 11 21 11H15C14.4477 11 14 10.5523 14 10V8C14 7.44772 14.4477 7 15 7V6C15 5.40666 15.1759 4.82664 15.5056 4.33329C15.8352 3.83994 16.3038 3.45543 16.8519 3.22836Z" fill="#171717"/>
</svg>
