<svg width="24" height="24" viewBox="0 0 24 24" fill="none" xmlns="http://www.w3.org/2000/svg">
<path fill-rule="evenodd" clip-rule="evenodd" d="M15 3C15 2.44772 14.5523 2 14 2H10C9.44772 2 9 2.44772 9 3C9 3.55228 9.44772 4 10 4L14 4C14.5523 4 15 3.55229 15 3ZM18.581 9.44999C18.4374 9.24274 18.4536 8.96058 18.6319 8.78231L19.0711 8.34311C19.4616 7.95259 19.4616 7.31942 19.0711 6.9289C18.6805 6.53837 18.0474 6.53837 17.6569 6.9289L17.2176 7.3681C17.0394 7.54637 16.7572 7.56257 16.55 7.41902C15.2582 6.52425 13.6903 6 12 6C10.3096 6 8.74172 6.52426 7.44998 7.41905C7.24274 7.56261 6.96057 7.54641 6.7823 7.36814L6.34315 6.92898C5.95262 6.53846 5.31946 6.53846 4.92893 6.92898C4.53841 7.31951 4.53841 7.95267 4.92893 8.34319L5.3681 8.78236C5.54636 8.96063 5.56257 9.24279 5.41901 9.45004C4.52424 10.7418 4 12.3097 4 14C4 18.4183 7.58172 22 12 22C16.4183 22 20 18.4183 20 14C20 12.3096 19.4757 10.7417 18.581 9.44999ZM13 9C13 8.44772 12.5523 8 12 8C11.4477 8 11 8.44772 11 9V9.77591C11 9.9604 10.7374 10.0754 10.5622 10.0178C10.3011 9.93183 10.0059 9.95327 9.74919 10.1015C9.2709 10.3776 9.10702 10.9892 9.38317 11.4675L11.1244 14.4835C11.2949 14.7915 11.6231 15 12 15C12.5523 15 13 14.5523 13 14V9Z" fill="#171717"/>
</svg>
