<svg width="24" height="24" viewBox="0 0 24 24" fill="none" xmlns="http://www.w3.org/2000/svg">
<path d="M5 7C5 6.44772 5.44772 6 6 6H8C8.55228 6 9 5.55228 9 5C9 4.44772 8.55228 4 8 4H6C4.34315 4 3 5.34315 3 7C3 7.55228 3.44772 8 4 8C4.55228 8 5 7.55228 5 7Z" fill="#171717"/>
<path d="M19 17C19 17.5523 18.5523 18 18 18H16C15.4477 18 15 18.4477 15 19C15 19.5523 15.4477 20 16 20H18C19.6569 20 21 18.6569 21 17V15C21 14.4477 20.5523 14 20 14C19.4477 14 19 14.4477 19 15V17Z" fill="#171717"/>
<path d="M18 6C18.5523 6 19 6.44772 19 7V9C19 9.55228 19.4477 10 20 10C20.5523 10 21 9.55228 21 9V7C21 5.34315 19.6569 4 18 4H16C15.4477 4 15 4.44772 15 5C15 5.55228 15.4477 6 16 6H18Z" fill="#171717"/>
<path d="M4 10C3.44772 10 3 10.4477 3 11C3 11.5523 3.44772 12 4 12C7.86599 12 11 15.134 11 19C11 19.5523 11.4477 20 12 20C12.5523 20 13 19.5523 13 19C13 14.0294 8.97056 10 4 10Z" fill="#171717"/>
<path d="M3 15C3 14.4477 3.44772 14 4 14C6.76142 14 9 16.2386 9 19C9 19.5523 8.55228 20 8 20C7.44772 20 7 19.5523 7 19C7 17.3431 5.65685 16 4 16C3.44772 16 3 15.5523 3 15Z" fill="#171717"/>
<path d="M5 19C5 19.5523 4.55228 20 4 20C3.44772 20 3 19.5523 3 19C3 18.4477 3.44772 18 4 18C4.55228 18 5 18.4477 5 19Z" fill="#171717"/>
</svg>
