<svg width="24" height="24" viewBox="0 0 24 24" fill="none" xmlns="http://www.w3.org/2000/svg">
<path d="M5 7C5 6.44772 5.44772 6 6 6H8C8.55228 6 9 5.55228 9 5C9 4.44772 8.55228 4 8 4H6C4.34315 4 3 5.34315 3 7V9C3 9.55228 3.44772 10 4 10C4.55228 10 5 9.55228 5 9V7Z" fill="#171717"/>
<path d="M19 7C19 6.44772 18.5523 6 18 6H16C15.4477 6 15 5.55228 15 5C15 4.44772 15.4477 4 16 4H18C19.6569 4 21 5.34315 21 7V9C21 9.55228 20.5523 10 20 10C19.4477 10 19 9.55228 19 9V7Z" fill="#171717"/>
<path d="M6 18C5.44772 18 5 17.5523 5 17L5 15C5 14.4477 4.55228 14 4 14C3.44772 14 3 14.4477 3 15V17C3 18.6569 4.34315 20 6 20H8C8.55228 20 9 19.5523 9 19C9 18.4477 8.55228 18 8 18H6Z" fill="#171717"/>
<path fill-rule="evenodd" clip-rule="evenodd" d="M20 22C21.1046 22 22 21.1046 22 20V14C22 12.8954 21.1046 12 20 12H13C11.8954 12 11 12.8954 11 14V20C11 21.1046 11.8954 22 13 22H20ZM18.9749 14.5252C19.3654 14.9157 19.3654 15.5489 18.9749 15.9394L17.1464 17.7678H18.2678C18.8201 17.7678 19.2678 18.2155 19.2678 18.7678C19.2678 19.3201 18.8201 19.7678 18.2678 19.7678H14.7333L14.723 19.7678C14.4702 19.7654 14.218 19.6678 14.0251 19.4749C13.9292 19.379 13.8569 19.2685 13.8081 19.1506C13.7592 19.0327 13.7322 18.9034 13.7322 18.7678V15.2323C13.7322 14.68 14.1799 14.2323 14.7322 14.2323C15.2845 14.2323 15.7322 14.68 15.7322 15.2323V16.3536L17.5607 14.5252C17.9512 14.1346 18.5843 14.1346 18.9749 14.5252Z" fill="#171717"/>
</svg>
