<svg width="24" height="24" viewBox="0 0 24 24" fill="none" xmlns="http://www.w3.org/2000/svg">
<path fill-rule="evenodd" clip-rule="evenodd" d="M3 7C3 5.34315 4.34315 4 6 4H18C19.6569 4 21 5.34315 21 7V17C21 18.6569 19.6569 20 18 20H6C5.79289 20 5.59069 19.979 5.3954 19.9391C4.02835 19.6593 3 18.4497 3 17V7ZM6 6H18C18.5523 6 19 6.44772 19 7V17C19 17.5523 18.5523 18 18 18H14C13.4477 18 13 17.5523 13 17V15C13 13.3431 11.6569 12 10 12H6C5.44772 12 5 11.5523 5 11V7C5 6.44772 5.44772 6 6 6Z" fill="#171717"/>
</svg>
